<svg xmlns="http://www.w3.org/2000/svg" version="1.1" xmlns:xlink="http://www.w3.org/1999/xlink" width="512" height="512" x="0" y="0" viewBox="0 0 512 512" style="enable-background:new 0 0 512 512" xml:space="preserve"><g><g fill="#ea5b70"><path d="M154.227 205.047c-14.368 71.196-80.273 109.12-135.588 92.819-13.957-4.112-15.058-23.419-1.835-29.208 8.29-3.63 15.353-7.717 21.777-15.439 13.365-16.005 13.655-37.609.109-48.172C4.595 178.464-1.496 129.273 25.088 95.176c26.584-34.096 75.774-40.187 109.871-13.603 24.157 18.834 34.256 49.015 28.638 77.137zM357.773 205.047c14.368 71.196 80.273 109.12 135.588 92.819 13.957-4.112 15.058-23.419 1.835-29.208-8.29-3.63-15.353-7.717-21.777-15.439-13.365-16.005-13.655-37.609-.109-48.172 34.097-26.583 40.187-75.774 13.603-109.871-26.584-34.096-75.774-40.187-109.871-13.603-24.157 18.834-34.256 49.015-28.638 77.137z" fill="#ea5b70" opacity="1" data-original="#ea5b70"></path></g><path fill="#efedee" d="M316.437 394.184c-11.149-14-26.969-24.063-45.052-27.753A76.885 76.885 0 0 0 256 364.883c-24.412 0-46.22 11.449-60.436 29.3-10.669 13.397-17.063 30.398-17.063 48.88v11.82H333.5v-11.82c0-6.038-.682-11.918-1.973-17.565a78.273 78.273 0 0 0-15.09-31.314z" opacity="1" data-original="#efedee"></path><path fill="#d4d4d5" d="M256.839 446.193a203.007 203.007 0 0 1-8.714-58.857v-22.042c-21.196 2.169-39.894 12.984-52.562 28.891a78.676 78.676 0 0 0-6.876 10.192c-6.475 11.416-10.187 24.62-10.187 38.688v11.82h80.969z" opacity="1" data-original="#d4d4d5"></path><path fill="#4c5659" d="M195.563 394.184c-10.669 13.397-17.063 30.398-17.063 48.88v11.82h49.625a233.119 233.119 0 0 1-10-67.548v-12.46a78.274 78.274 0 0 0-22.562 19.308z" opacity="1" data-original="#4c5659"></path><path fill="#676f72" d="M218.125 387.336v-12.46a78.262 78.262 0 0 0-22.562 19.309 78.197 78.197 0 0 0-2.718 3.621c-2.945 4.175-2.589 9.832.723 13.722l11.744 13.797-3.205 8.355c-2.302 6.001.853 12.713 6.943 14.768l19.075 6.437a233.165 233.165 0 0 1-10-67.549zM316.437 394.184c10.669 13.397 17.063 30.398 17.063 48.88v11.82h-49.625a233.119 233.119 0 0 0 10-67.548v-12.46a78.274 78.274 0 0 1 22.562 19.308z" opacity="1" data-original="#676f72"></path><path fill="#82888b" d="M293.875 387.336v-12.46a78.262 78.262 0 0 1 25.27 22.921c2.945 4.175 2.598 9.841-.714 13.732l-11.744 13.797 3.205 8.355c2.302 6.001-.853 12.713-6.943 14.768l-19.075 6.437a233.143 233.143 0 0 0 10.001-67.55z" opacity="1" data-original="#82888b"></path><path fill="#ffbd86" d="m256 344.875-37.875 30c4.324 26.657 21.099 39.996 37.875 40 16.773.004 33.547-13.324 37.875-40zM401 199.884H111c-19.33 0-35 15.67-35 35s15.67 35 35 35h290c19.33 0 35-15.67 35-35s-15.67-35-35-35z" opacity="1" data-original="#ffbd86"></path><path fill="#fed2a4" d="M280.148 91.897a145.915 145.915 0 0 0-48.295 0C163.267 103.396 111 163.031 111 234.884s52.267 131.489 120.853 142.987a145.912 145.912 0 0 0 48.295 0C348.733 366.373 401 306.737 401 234.884S348.733 103.396 280.148 91.897z" opacity="1" data-original="#fed2a4"></path><path fill="#ffbd86" d="M159.099 235.086c0-71.98 52.361-131.723 121.049-143.189a145.915 145.915 0 0 0-48.295 0C163.267 103.396 111 163.031 111 234.884s52.267 131.489 120.853 142.987a145.912 145.912 0 0 0 48.295 0c-68.688-11.465-121.049-70.807-121.049-142.785z" opacity="1" data-original="#ffbd86"></path><g fill="#ff8e9e"><ellipse cx="177" cy="282.511" rx="29" ry="23" fill="#ff8e9e" opacity="1" data-original="#ff8e9e"></ellipse><ellipse cx="335" cy="282.511" rx="29" ry="23" fill="#ff8e9e" opacity="1" data-original="#ff8e9e"></ellipse></g><path fill="#ff8e9e" d="M370.255 86.931c-28.854-27.228-75.664-39.911-114.253-20.01-38.588-19.894-85.401-7.222-114.254 20.01-.669.598-1.325 1.197-1.97 1.798-20.349 18.965-30.425 46.514-27.895 74.215l3.373 36.94a637.132 637.132 0 0 1 49.299-9.021c5.252-.743 9.693-4.083 11.715-8.871a597.822 597.822 0 0 0 6.311-15.634 455.767 455.767 0 0 1 6.72 11.277c3.341 5.786 9.577 9.2 16.06 8.696 8.799-.69 17.624-1.2 26.46-1.531 6.134-.232 11.568-3.914 14.023-9.57 2.764-6.38 5.56-12.837 8.441-19.447a5186.247 5186.247 0 0 1 8.482 19.331 15.98 15.98 0 0 0 14.133 9.568 645.41 645.41 0 0 1 40.221 2.56c10.434.98 15.244-7.084 18.222-10.798 11.5 20.074 3.838 10.5 61.404 23.439l2.135-23.374c-.001-.003 0-.003 0 0v-.002l1.238-13.554c2.531-27.704-7.545-55.257-27.895-74.224-.644-.6-1.301-1.2-1.97-1.798z" opacity="1" data-original="#ff8e9e"></path><path fill="#ea5b70" d="M230.567 58.497c-32.218-5.419-66.09 6.983-88.819 28.435-.669.598-1.325 1.197-1.97 1.798-20.349 18.965-30.425 46.514-27.895 74.215l3.373 36.94a637.132 637.132 0 0 1 49.299-9.021c5.252-.743 9.693-4.083 11.715-8.871a597.822 597.822 0 0 0 6.311-15.634c0-21.91 4.854-42.684 13.543-61.309 10.853-23.264 34.208-38.129 59.879-38.129-8.192-4.222-16.755-6.963-25.436-8.424z" opacity="1" data-original="#ea5b70"></path><path d="M186.051 248.384v12c0 4.143 3.358 7.5 7.5 7.5s7.5-3.357 7.5-7.5v-12a7.5 7.5 0 0 0-15 0zM310.948 248.384v12c0 4.143 3.358 7.5 7.5 7.5s7.5-3.357 7.5-7.5v-12a7.5 7.5 0 0 0-15 0zM266.809 255.099c-2.729 3.133-6.669 4.929-10.81 4.929s-8.081-1.796-10.81-4.929a7.5 7.5 0 0 0-11.309 9.855c5.579 6.401 13.641 10.073 22.119 10.073s16.54-3.672 22.119-10.073a7.5 7.5 0 0 0-11.309-9.855z" fill="#000000" opacity="1" data-original="#000000"></path><path d="M498.202 261.789c-7.458-3.266-13.547-6.789-19.028-13.377-10.678-12.788-11.3-29.617-1.255-37.449 18.07-14.089 29.573-34.371 32.389-57.111 2.815-22.74-3.393-45.216-17.481-63.286-29.617-37.985-84.879-44.197-122.263-13.403-32.204-27.067-77.217-35.942-114.562-18.59-37.709-17.52-82.661-8.292-114.586 18.589C119.632 59.16 91.448 53.628 65.633 60.18a7.5 7.5 0 0 0 3.691 14.539c20.675-5.25 43.33-1.136 61.202 12.919-19.117 21.074-28.662 48.066-26.112 75.987l2.643 28.948C85.465 194.57 68.5 212.78 68.5 234.884c0 19.82 13.638 36.511 32.022 41.19-25.147 17.541-54.549 22.027-79.763 14.598-4.246-1.251-5.759-4.831-5.759-7.764 0-1.585.469-5.479 4.812-7.38 8.14-3.563 16.747-8.152 24.526-17.502 15.829-18.957 16.219-45.439-1.036-58.895-17.327-13.509-27.265-33.874-27.265-55.876 0-23.577 11.575-44.312 28.917-57.05a7.5 7.5 0 0 0-8.879-12.089c-21.023 15.439-35.038 40.55-35.038 69.14 0 26.657 12.043 51.335 33.042 67.705 10.329 8.056 9.082 25.072-1.263 37.461-5.473 6.577-11.562 10.101-19.02 13.366C5.287 265.514 0 273.607 0 282.909c0 10.339 6.639 19.241 16.52 22.152 30.659 9.031 66.201 3.063 95.701-18.924 14.959 41.869 47.801 75.336 89.312 91.214-8.295 6.996-14.274 14.924-15.891 17.913l-.104-.07C176.027 409.377 171 425.929 171 443.064v11.82a7.5 7.5 0 0 0 7.5 7.5h155c4.143 0 7.5-3.357 7.5-7.5v-11.82c0-24.352-10.505-48.787-30.467-65.656 14.197-5.437 27.582-13.042 39.825-22.721a7.5 7.5 0 0 0-9.303-11.767c-24.382 19.276-53.793 29.465-85.054 29.465-76.098 0-137.587-61.798-137.587-137.213 0-9.656 1.042-19.382 3.092-28.977a634.434 634.434 0 0 1 44.1-7.905c7.823-1.106 14.557-6.233 17.576-13.385.246-.583.492-1.17.738-1.762 4.989 7.195 13.416 11.35 22.028 10.666a644.004 644.004 0 0 1 26.158-1.513c8.795-.333 16.721-5.085 21.11-15.213l1.108-2.56 1.575 3.604c3.666 8.357 11.616 13.742 20.759 14.052a640.824 640.824 0 0 1 39.761 2.53c7.992.749 13.718-2.192 17.757-5.64 5.391 7.832 9.693 8.837 23.841 11.076 6.976 1.104 17.22 2.728 32.475 6.039 2.047 9.582 3.087 19.299 3.087 28.951 0 32.513-11.825 63.676-32.161 87.975a7.498 7.498 0 0 0 .938 10.564 7.497 7.497 0 0 0 10.564-.938 153.419 153.419 0 0 0 26.765-46.688c27.835 20.687 63.563 28.51 95.794 19.012 9.39-2.766 15.855-10.873 16.474-20.653.619-9.812-4.779-18.691-13.751-22.618zm-392.436.089c-12.668-2.451-22.266-13.62-22.266-26.994 0-13.417 9.661-24.613 22.39-27.017a153.3 153.3 0 0 0-2.477 27.304c-.001 9.11.808 18.034 2.353 26.707zm90.756 185.506H186c0-5.69-.407-15.558 4.157-28.293l6.558 7.704c-1.695 4.416-5.458 11.735-.193 20.589zm125.341-28.318c4.461 12.44 4.137 22.125 4.137 28.318h-10.523c5.238-8.81 1.498-16.183-.192-20.589zm-20.497-29.781a71.033 71.033 0 0 1 9.201 9.569c2.16 2.749 4.428 5.138 2.151 7.813l-11.744 13.797c-5.529 6.496 3.913 14.408 1.805 18.889-.871 1.85-1.95 1.894-8 3.937a240.445 240.445 0 0 0 6.587-54.005zm-45.367-1.901c9.359 0 18.568-.832 27.56-2.455-6.065 16.34-17.968 22.446-27.553 22.446h-.005c-9.595-.002-21.514-6.121-27.576-22.488a153.175 153.175 0 0 0 27.574 2.497zm29.247 22.41a225.49 225.49 0 0 1-7.017 37.59H233.77a225.422 225.422 0 0 1-7.019-37.603c16.844 16.766 41.624 16.797 58.495.013zm-74.614-20.509a240.371 240.371 0 0 0 6.587 54.004c-6.016-2.031-7.127-2.077-8.001-3.937-2.098-4.458 7.319-12.412 1.805-18.889l-11.744-13.797c-2.257-2.652-.022-5.08 2.151-7.811a71.11 71.11 0 0 1 9.202-9.57zm182.02-227.012c-.122 1.296-1.797 19.66-2.603 28.476-13.686-2.887-23.102-4.376-29.689-5.419-13.753-2.175-12.085-1.308-17.131-10.19-1.392-2.451-2.833-5.822-7.305-6.172-4.43-.33-6.494 2.836-7.562 4.245-3.236 4.259-5.722 7.024-10.532 6.563a657.29 657.29 0 0 0-40.677-2.589c-3.311-.112-6.192-2.061-7.514-5.075a5201.528 5201.528 0 0 0-8.494-19.357 7.5 7.5 0 0 0-6.861-4.471h-.018a7.5 7.5 0 0 0-6.857 4.503 9060.938 9060.938 0 0 0-8.445 19.457c-1.302 2.999-4.148 4.938-7.425 5.063-37.833 1.42-29.659 6.101-42.573-14.88-3.231-5.249-11.13-4.566-13.377 1.216a592.101 592.101 0 0 1-6.23 15.435c-2.58 6.111-4.945 2.769-47.406 11.681l-2.602-28.495c-6.304-69.047 74.822-118.775 133.214-88.675a7.505 7.505 0 0 0 6.874 0c58.067-29.952 139.542 19.374 133.213 88.684zm13.456 45.595c12.729 2.402 22.391 13.6 22.391 27.017 0 13.397-9.633 24.582-22.335 27.007a149.973 149.973 0 0 0 2.415-26.756c0-9.089-.835-18.223-2.471-27.268zm90.873 75.593c-.083 1.319-.743 5.738-5.742 7.211-26.142 7.704-55.659 2.082-79.737-14.604 18.371-4.688 31.996-21.374 31.996-41.184 0-22.104-16.963-40.312-38.554-42.31l2.644-28.937c2.552-27.94-6.998-54.938-26.122-75.998 30.959-24.246 75.527-18.639 99.53 12.149 11.626 14.911 16.749 33.456 14.426 52.221-2.323 18.764-11.814 35.499-26.727 47.125-16.64 12.978-17.453 39.233-1.044 58.883 7.788 9.36 16.395 13.948 24.535 17.513 4.782 2.093 4.88 6.6 4.795 7.931z" fill="#000000" opacity="1" data-original="#000000"></path></g></svg>