<svg xmlns="http://www.w3.org/2000/svg" version="1.1" xmlns:xlink="http://www.w3.org/1999/xlink" width="512" height="512" x="0" y="0" viewBox="0 0 512 512" style="enable-background:new 0 0 512 512" xml:space="preserve"><g><path fill="#ea5b70" d="M404.617 147.772h-77.568v132.387h77.568c55.164 0 99.883-29.636 99.883-66.193s-44.719-66.194-99.883-66.194z" opacity="1" data-original="#ea5b70"></path><path fill="#4c5659" d="m408.894 365.03 8.453-8.453c9.183-9.183 9.183-24.072 0-33.256-4.41-4.41-6.888-9.007-6.888-15.243v-44.282H37.807v44.282c0 6.237-2.477 10.833-6.888 15.243-9.183 9.183-9.183 24.072 0 33.256l8.452 8.453c13.308 13.308 13.308 34.884 0 48.193-13.308 13.308-13.308 34.884 0 48.192a106.01 106.01 0 0 0 74.96 31.05h219.601a106.008 106.008 0 0 0 74.96-31.05c13.308-13.308 13.308-34.884 0-48.192-13.306-13.308-13.306-34.885.002-48.193z" opacity="1" data-original="#4c5659"></path><path fill="#d4d4d5" d="M151.396 431.447c-12.84 16.123-20.536 36.584-20.536 58.827V504.5h93.272V396.184c-29.38 0-55.627 13.779-72.736 35.263z" opacity="1" data-original="#d4d4d5"></path><path fill="#efedee" d="M315.031 469.134a94.18 94.18 0 0 0-18.161-37.687c-13.419-16.85-32.458-28.96-54.221-33.401a92.569 92.569 0 0 0-18.516-1.863V504.5h93.274v-14.226a94.878 94.878 0 0 0-2.376-21.14z" opacity="1" data-original="#efedee"></path><path fill="#ff8e9e" d="M284.942 418.992c-11.881-10.333-26.35-17.693-42.294-20.945a92.569 92.569 0 0 0-18.516-1.863c-23.215 0-44.469 8.599-60.809 22.808v4.927c0 10.324 4.1 20.23 11.406 27.537-3.858 3.858-6.801 7.61-6.803 14.199v.188c-.002 6.387 2.799 10.222 6.803 14.226-4.329 4.329-6.808 8.599-6.808 14.804v9.628h112.421v-9.628c0-6.193-2.472-10.468-6.808-14.804 1.132-1.132 2.298-2.209 3.387-3.703 4.075-5.587 3.415-11.911 3.415-10.707-.002-6.4-2.824-10.223-6.803-14.202a38.945 38.945 0 0 0 11.406-27.536v-4.929z" opacity="1" data-original="#ff8e9e"></path><path fill="#ea5b70" d="M224.132 396.184c-22.329 0-43.855 8.062-60.809 22.817v4.918c0 10.324 4.1 20.23 11.406 27.537-3.858 3.858-6.801 7.61-6.803 14.199v.188c-.002 6.387 2.799 10.222 6.803 14.226-4.329 4.329-6.808 8.599-6.808 14.804v9.628h20.46v-23.854c0-45.415 11.705-73.903 54.266-82.6-6.167-1.26-12.795-1.863-18.515-1.863z" opacity="1" data-original="#ea5b70"></path><path fill="#c8866a" d="M398.643 197.603H49.623c-23.264 0-42.123 18.859-42.123 42.123s18.859 42.123 42.123 42.123h349.02c23.264 0 42.123-18.859 42.123-42.123s-18.859-42.123-42.123-42.123z" opacity="1" data-original="#c8866a"></path><path fill="#db9e82" d="M253.195 67.639c-9.453-1.585-19.159-2.423-29.062-2.423s-19.609.838-29.062 2.423C112.527 81.478 49.623 153.25 49.623 239.726s62.904 158.249 145.448 172.087a175.611 175.611 0 0 0 29.062 2.423c9.903 0 19.609-.838 29.062-2.423 82.544-13.839 145.448-85.611 145.448-172.087S335.739 81.478 253.195 67.639z" opacity="1" data-original="#db9e82"></path><path fill="#c8866a" d="M107.511 239.969c0-86.63 63.018-158.531 145.684-172.33-9.453-1.585-19.159-2.423-29.062-2.423s-19.609.838-29.062 2.423C112.527 81.478 49.623 153.25 49.623 239.726s62.904 158.249 145.448 172.087a175.611 175.611 0 0 0 29.062 2.423c9.903 0 19.609-.838 29.062-2.423-82.666-13.799-145.684-85.217-145.684-171.844z" opacity="1" data-original="#c8866a"></path><g fill="#ff8e9e"><ellipse cx="129.055" cy="297.046" rx="34.902" ry="27.681" fill="#ff8e9e" opacity="1" data-original="#ff8e9e"></ellipse><ellipse cx="319.211" cy="297.046" rx="34.902" ry="27.681" fill="#ff8e9e" opacity="1" data-original="#ff8e9e"></ellipse></g><g fill="#4c5659"><path d="M78.612 143.394c-18.313 27.608-28.989 60.721-28.989 96.332 0 1.521.02 3.037.059 4.549 28.609-2.733 50.986-26.825 50.986-56.149-.001-18.223-8.649-34.418-22.056-44.732zM369.654 143.394c-13.407 10.314-22.056 26.509-22.056 44.731 0 29.325 22.377 53.417 50.986 56.149.039-1.512.059-3.028.059-4.549 0-35.61-10.676-68.723-28.989-96.331z" fill="#4c5659" opacity="1" data-original="#4c5659"></path></g><path fill="#ff8e9e" d="M367.587 93.333c-7.979-31.593-33.516-56.796-65.334-66.424l-18.221-5.513-32.194-9.741a97.154 97.154 0 0 0-56.217 0l-50.415 15.254c-31.819 9.628-56.152 34.831-64.131 66.424l-9.465 37.479-16.868 66.791c40.367-21.568 82.169-35.319 130.85-39.424 12.375-1.043 25.187-1.474 38.541-1.239 58.471.817 120.207 13.111 169.391 40.663z" opacity="1" data-original="#ff8e9e"></path><path fill="#ea5b70" d="M251.838 11.655a97.154 97.154 0 0 0-56.217 0l-50.415 15.254c-31.819 9.628-56.152 34.831-64.131 66.424l-9.465 37.479-16.868 66.791c40.367-21.568 82.169-35.319 130.85-39.424l16.088-64.847c7.979-31.593 32.312-56.796 64.131-66.424l18.22-5.513z" opacity="1" data-original="#ea5b70"></path><path fill="#676f72" d="M283.896 81.93a32.495 32.495 0 0 0-22.124-23.26l-22.136-6.697a54.85 54.85 0 0 0-15.906-2.35c-5.403 0-10.755.79-15.91 2.35l-21.231 6.424a32.495 32.495 0 0 0-22.095 23.146l-9.587 37.961c44.6-7.061 94.421-5.886 138.647 1.254z" opacity="1" data-original="#676f72"></path><path fill="#4c5659" d="M223.73 49.623c-5.403 0-10.755.79-15.91 2.35l-21.231 6.424a32.495 32.495 0 0 0-22.095 23.146l-9.587 37.961c13.398-2.121 27.274-3.499 41.322-4.196l5.452-21.976c4.244-16.804 13.123-31.809 25.286-43.615a56.285 56.285 0 0 0-3.237-.094z" opacity="1" data-original="#4c5659"></path><path d="M148.975 248.474a7.5 7.5 0 0 0-7.5 7.5v14.442c0 4.142 3.357 7.5 7.5 7.5s7.5-3.358 7.5-7.5v-14.442a7.5 7.5 0 0 0-7.5-7.5zM299.291 248.474a7.5 7.5 0 0 0-7.5 7.5v14.442c0 4.142 3.357 7.5 7.5 7.5s7.5-3.358 7.5-7.5v-14.442a7.5 7.5 0 0 0-7.5-7.5zM248.876 264.333a7.5 7.5 0 0 0-10.582.726c-3.575 4.102-8.736 6.455-14.161 6.455s-10.586-2.353-14.16-6.454a7.5 7.5 0 0 0-11.309 9.855c6.424 7.372 15.707 11.6 25.469 11.6s19.045-4.228 25.47-11.599a7.503 7.503 0 0 0-.727-10.583z" fill="#000000" opacity="1" data-original="#000000"></path><path d="M404.617 140.271h-17.625l-12.133-48.775c-8.51-33.696-35.499-61.195-70.434-71.766L254.011 4.477a104.672 104.672 0 0 0-60.562 0L143.035 19.73c-34.132 10.327-60.659 37.826-69.231 71.766l-8.177 32.377a7.5 7.5 0 0 0 5.435 9.108 7.496 7.496 0 0 0 9.108-5.435l8.177-32.377c7.291-28.865 29.91-52.271 59.032-61.082l50.414-15.254c16.819-5.088 35.063-5.087 51.873 0l50.415 15.254c29.926 9.055 53.006 32.46 60.229 61.056l21.933 88.173c-24.615-11.784-50.886-19.935-77.528-25.361 4.851-13.077 3.462-27.659-4.167-40.154l-9.372-37.682c-3.382-13.599-13.816-24.569-27.23-28.628l-22.135-6.696c-11.714-3.545-24.442-3.545-36.162 0l-21.23 6.424c-13.357 4.042-23.778 14.958-27.195 28.488l-9.587 37.961c-1.314 5.204 3.117 10.081 8.444 9.244 42.343-6.704 89.671-5.874 132.788.725 4.572 8.797 4.838 18.814.758 27.538-77.732-12.794-152.615-5.942-223.571 28.265l6.771-26.807a7.5 7.5 0 0 0-5.435-9.108 7.499 7.499 0 0 0-9.108 5.435l-9.386 37.162C21.868 190.514 0 212.608 0 239.727c0 19.98 12.213 38.022 30.307 45.698v22.654c0 3.778-1.315 6.565-4.69 9.94-12.122 12.123-12.121 31.738 0 43.862l8.452 8.452c10.387 10.389 10.39 27.197 0 37.587-16.248 16.251-16.251 42.547 0 58.798 21.439 21.439 49.944 33.247 80.264 33.247h9.028v4.535a7.5 7.5 0 0 0 7.5 7.5h186.545a7.5 7.5 0 0 0 7.5-7.5v-4.535h9.028c11.99 0 23.85-1.888 35.246-5.611a7.5 7.5 0 1 0-4.658-14.258 98.352 98.352 0 0 1-30.588 4.87h-9.17a102.305 102.305 0 0 0-2.421-17.502c-5.309-23.223-18.222-42.838-35.697-56.79a182.574 182.574 0 0 0 75.931-52.792c17.135-20.055 29.564-43.491 36.662-68.546a50.319 50.319 0 0 0 3.722-.184c0 20.841-1.846 28.544 9.084 39.475 6.26 6.259 6.261 16.388 0 22.649l-8.451 8.452c-16.25 16.249-16.252 42.548-.001 58.799 10.385 10.387 10.389 27.199 0 37.586a98.695 98.695 0 0 1-14.14 11.719 7.5 7.5 0 1 0 8.453 12.391 113.844 113.844 0 0 0 16.293-13.504c16.249-16.247 16.251-42.547.001-58.799-10.388-10.387-10.389-27.198 0-37.586l8.452-8.453c12.121-12.124 12.122-31.739 0-43.862-3.376-3.376-4.691-6.163-4.691-9.94v-21.001C470.784 282.624 512 252.149 512 213.965c0-41.909-49.195-73.694-107.383-73.694zm-239.703-29.765 6.851-27.127c2.136-8.456 8.648-15.278 16.996-17.804l21.23-6.424c8.902-2.692 18.581-2.692 27.474 0l22.136 6.697c8.383 2.537 14.904 9.392 17.018 17.891l6.951 27.948c-38.419-5.253-80.194-6.049-118.656-1.181zm222.056 92.068a167.694 167.694 0 0 1 4.105 32.733c-20.994-5.669-35.977-24.679-35.977-47.182 0-.044.003-.087.003-.131 11.284 4.325 21.959 9.208 31.869 14.58zM93.16 187.838c0 .096.007.192.007.288 0 22.503-14.983 41.513-35.977 47.182a167.727 167.727 0 0 1 4.09-32.664c10.729-5.618 21.255-10.508 31.88-14.806zM15 239.727c0-17.656 13.288-32.258 30.386-34.354a183.087 183.087 0 0 0-3.263 34.354c0 11.596 1.12 23.093 3.283 34.347C27.653 271.889 15 256.693 15 239.727zm29.676 216.385c-10.387-10.386-10.389-27.196-.001-37.585 16.251-16.25 16.251-42.546.001-58.799l-8.452-8.453c-6.259-6.259-6.261-16.389 0-22.649 6.196-6.197 9.083-12.726 9.083-20.547v-18.925c1.238.108 2.479.171 3.723.186 7.098 25.054 19.527 48.488 36.662 68.542a182.567 182.567 0 0 0 75.917 52.787 101.895 101.895 0 0 0-38.108 74.297h-9.168c-26.313-.001-51.052-10.248-69.657-28.854zm171.957-34.532v22.375h-38.597c-5.477-6.6-7.212-13.542-7.212-21.448a85.038 85.038 0 0 1 8.889-6.256 183.453 183.453 0 0 0 36.92 5.329zm53.631 37.375c3.58 4.297 3.298 9.879.104 13.612h-38.735v-13.612zm-92.207 28.612h38.576V497h-41.211c0-3.293-.259-5.791 2.635-9.433zm53.576 0h38.576c2.889 3.636 2.635 6.128 2.635 9.433h-41.211zm-15-15h-38.631c-2.111-2.536-2.575-4.32-2.575-6.91.001-2.792.779-4.591 2.556-6.702h38.65zm-78.273 17.707a86.928 86.928 0 0 1 19.042-54.307 45.905 45.905 0 0 0 7.457 15.491c-5.938 8.468-5.928 20.193.043 28.667-4.338 6.394-4.479 11.838-4.479 16.875H138.36zm169.359-19.469a87.485 87.485 0 0 1 2.187 19.469V497h-22.062c0-3.345.354-9.712-4.438-16.813 5.631-8.226 6.26-19.804.003-28.729a45.92 45.92 0 0 0 7.457-15.498c8.157 10.151 13.91 21.97 16.853 34.845zm-39.156-54.556a87.238 87.238 0 0 1 8.88 6.26c0 7.958-1.765 14.882-7.212 21.446h-38.598V421.58a183.31 183.31 0 0 0 36.93-5.331zm-45.948-9.453c-84.402-.677-159.344-65.666-165.139-156.152 31.523-6.638 53.432-35.938 50.41-68.372 76.875-26.928 167.23-20.748 232.452.494-2.753 32.449 19.257 61.309 50.451 67.879-5.74 89.633-80.303 156.856-168.174 156.151zm183.528-167.069a183.04 183.04 0 0 0-3.263-34.354c17.098 2.097 30.386 16.698 30.386 34.354 0 17.664-13.299 32.27-30.408 34.357a182.782 182.782 0 0 0 3.285-34.357zm32.994 28.628c5.74-8.096 9.129-17.971 9.129-28.628 0-27.111-21.857-49.2-48.874-49.604l-8.669-34.851h13.894c25.223 0 48.834 6.442 66.484 18.139C487.803 184.479 497 198.881 497 213.965c0 27.561-29.206 46.968-57.863 54.39z" fill="#000000" opacity="1" data-original="#000000"></path></g></svg>