<svg xmlns="http://www.w3.org/2000/svg" version="1.1" xmlns:xlink="http://www.w3.org/1999/xlink" width="512" height="512" x="0" y="0" viewBox="0 0 512 512" style="enable-background:new 0 0 512 512" xml:space="preserve"><g><path fill="#f2d4d3" d="M373.768 453.359c-14.25-32.68-41.411-57.903-74.576-69.786a127.863 127.863 0 0 0-43.19-7.484h-.001c-52.291 0-97.819 31.525-117.765 77.271-6.836 15.679-10.642 32.971-10.642 51.139h256.818c-.001-18.168-3.807-35.461-10.644-51.14z" opacity="1" data-original="#f2d4d3"></path><path fill="#e8b5b1" d="M299.148 383.558a127.887 127.887 0 0 0-43.145-7.469h-.001c-52.291 0-97.819 31.525-117.765 77.271-6.836 15.679-10.642 32.971-10.642 51.139h64.204c9.414-57.666 51.207-104.75 107.349-120.941z" opacity="1" data-original="#e8b5b1"></path><g fill="#c77464"><path d="M181.006 400.334C174.271 434.188 170.4 466.919 170.4 504.5h42.437V383.579a128.188 128.188 0 0 0-31.831 16.755zM331.676 403.807l-.693-3.492a128.041 128.041 0 0 0-31.791-16.741V504.5h42.397v-.015c0-33.803-3.32-67.524-9.913-100.678z" fill="#c77464" opacity="1" data-original="#c77464"></path></g><path fill="#ac6757" d="M181.006 400.316c-6.734 33.854-10.606 66.585-10.606 104.166h21.398a151.009 151.009 0 0 1 21.039-55.805v-65.116a128.188 128.188 0 0 0-31.831 16.755z" opacity="1" data-original="#ac6757"></path><path fill="#e8b5b1" d="m308.297 396.928-9.104-13.354-43.19-23.231-43.166 23.218-9.136 13.367c-9.625 14.078.456 33.183 17.511 33.183h69.575c17.053 0 27.135-19.105 17.51-33.183z" opacity="1" data-original="#e8b5b1"></path><path fill="#ffcbbe" d="m256.038 360.372-43.201 23.19c7.58 19.881 22.774 35.656 43.201 46.578 20.427-10.922 35.573-26.686 43.154-46.566z" opacity="1" data-original="#ffcbbe"></path><g fill="#ffcbbe"><circle cx="102.082" cy="235.778" r="38.267" fill="#ffcbbe" opacity="1" data-original="#ffcbbe"></circle><circle cx="409.923" cy="235.778" r="38.267" fill="#ffcbbe" opacity="1" data-original="#ffcbbe"></circle></g><path fill="#ffddcf" d="M299.152 383.557c64.003-18.657 110.771-77.753 110.771-147.779 0-76.318-55.542-139.662-128.41-151.817a154.991 154.991 0 0 0-25.512-2.104c-85.005 0-153.919 68.913-153.919 153.922 0 70.026 46.768 129.122 110.77 147.779a153.966 153.966 0 0 0 43.149 6.14c8.692 0 17.214-.723 25.512-2.11a153.37 153.37 0 0 0 17.639-4.031z" opacity="1" data-original="#ffddcf"></path><path fill="#ffcbbe" d="M153.106 235.778c0-76.316 55.545-139.661 128.408-151.817a154.882 154.882 0 0 0-25.512-2.104c-85.005 0-153.919 68.913-153.919 153.922 0 85.006 68.914 153.919 153.919 153.919 8.692 0 17.213-.726 25.512-2.11-72.864-12.157-128.408-75.495-128.408-151.81z" opacity="1" data-original="#ffcbbe"></path><ellipse cx="172.091" cy="288.141" fill="#ffcbbe" rx="30.632" ry="24.394" opacity="1" data-original="#ffcbbe"></ellipse><ellipse cx="339.789" cy="288.141" fill="#ffcbbe" rx="30.757" ry="24.394" opacity="1" data-original="#ffcbbe"></ellipse><path fill="#ff6f4d" d="M286.29 291.96c-3.759 13.372-16.034 23.179-30.607 23.179-14.467 0-26.669-9.664-30.524-22.886l-13.987 7.349c0 29.788 25.368 55.333 37.939 66.163a10.566 10.566 0 0 0 13.785 0c12.571-10.83 37.939-36.375 37.939-66.163z" opacity="1" data-original="#ff6f4d"></path><path fill="#ff8f71" d="M292.98 266.092c-11.571-12.115-29.135-13.64-37.265-2.253-8.131-11.387-25.695-9.862-37.265 2.253-12.268 12.865-21.837 24.889-18.105 31.348 3.728 6.463 18.923 4.183 36.201-.005 8.586-2.091 15.446-7.102 19.169-13.237 3.723 6.135 10.583 11.146 19.169 13.237 17.278 4.188 32.473 6.468 36.201.005 3.731-6.459-5.838-18.483-18.105-31.348z" opacity="1" data-original="#ff8f71"></path><path fill="#c77464" d="M408.98 55.141C374.682 31.553 320.852 7.992 259.368 7.508c-1.119-.009-2.241-.01-3.365-.003-62.883-.37-118.055 23.62-152.977 47.637-35.335 25.107-50.421 50.241-42.671 77.336 6.573 23.424 20.871 47.802 46.449 65.322h298.399c25.578-17.521 39.876-41.898 46.449-65.322 7.749-27.096-7.336-52.23-42.672-77.337z" opacity="1" data-original="#c77464"></path><path fill="#ac6757" d="M217.661 108.099A142.116 142.116 0 0 1 259.287 7.606l.081-.098c-1.121-.009-2.239-.01-3.365-.003-62.883-.37-118.055 23.62-152.977 47.637-35.335 25.107-50.421 50.241-42.671 77.336 6.573 23.424 20.871 47.802 46.449 65.322H223.67a69.94 69.94 0 0 1-6.008-28.358v-61.343z" opacity="1" data-original="#ac6757"></path><path fill="#d6948c" d="M106.803 197.799a376.333 376.333 0 0 0 143.481 30.788 376.334 376.334 0 0 0 154.917-30.788 376.421 376.421 0 0 0-298.398 0z" opacity="1" data-original="#d6948c"></path><path fill="#ce857a" d="M217.661 169.441v-.514a376.316 376.316 0 0 0-110.858 28.872 376.694 376.694 0 0 0 143.481 30.788c-20.265-12.834-32.623-35.158-32.623-59.146z" opacity="1" data-original="#ce857a"></path><circle cx="318.577" cy="454.214" r="7.5" fill="#000000" opacity="1" data-original="#000000"></circle><circle cx="318.577" cy="488.591" r="7.5" fill="#000000" opacity="1" data-original="#000000"></circle><circle cx="275.093" cy="454.214" r="7.5" fill="#000000" opacity="1" data-original="#000000"></circle><circle cx="275.093" cy="488.591" r="7.5" fill="#000000" opacity="1" data-original="#000000"></circle><path d="M197.27 264.808V252.08c0-4.142-3.357-7.5-7.5-7.5s-7.5 3.358-7.5 7.5v12.727c0 4.142 3.357 7.5 7.5 7.5s7.5-3.357 7.5-7.499zM322.235 244.58a7.5 7.5 0 0 0-7.5 7.5v12.727c0 4.142 3.357 7.5 7.5 7.5s7.5-3.358 7.5-7.5V252.08a7.5 7.5 0 0 0-7.5-7.5zM298.403 260.912c-12.091-12.662-30.301-16.254-42.688-7.52-12.379-8.728-30.584-5.156-42.693 7.523-13.373 14.024-25.868 28.686-19.174 40.271 2.253 3.906 5.904 6.095 10.47 7.111 3.985 28.291 26.29 51.427 39.898 63.149 6.719 5.788 16.854 5.789 23.575 0 13.63-11.743 35.988-34.936 39.918-63.29 4.285-1.071 7.717-3.233 9.87-6.965 6.696-11.592-5.799-26.253-19.172-40.276l-.004-.003zm-40.402 99.17a3.08 3.08 0 0 1-3.996 0c-9.347-8.052-30.026-28.156-34.465-51.627a106.47 106.47 0 0 0 5.284-.813c7.391 9.358 18.777 14.997 30.859 14.997 12.086 0 23.475-5.643 30.866-15.01 2.012.358 3.982.652 5.907.883-4.462 23.445-25.116 43.523-34.455 51.57zm-15.772-56.529c5.062-1.755 9.667-4.404 13.485-7.815 3.807 3.4 8.395 6.044 13.44 7.8a24.295 24.295 0 0 1-13.473 4.102 24.3 24.3 0 0 1-13.452-4.087zm34.429-13.405c-4.319-1.052-8.179-3.052-11.159-5.785-5.487-5.03-14.081-5.029-19.569 0-2.979 2.732-6.839 4.732-11.151 5.782-19.526 4.733-25.767 4.079-27.695 3.403.38-2.008 2.931-7.743 16.79-22.278 8.032-8.409 20.361-10.606 25.738-3.074 2.987 4.186 9.22 4.185 12.207 0 5.364-7.512 17.676-5.369 25.737 3.075 13.859 14.535 16.411 20.27 16.791 22.278-1.928.674-8.171 1.331-27.689-3.401z" fill="#000000" opacity="1" data-original="#000000"></path><path d="M458.862 134.539c8.503-29.727-6.393-57.698-45.538-85.512l-.094-.066C370.251 19.405 313.164-.334 256.047.004 178.998-.421 120.399 34.09 98.775 48.961a2.687 2.687 0 0 0-.094.066c-39.146 27.814-54.041 55.785-45.548 85.476 4.649 16.569 14.405 38.743 34.808 57.771-19.058 6.181-31.626 23.872-31.626 43.504 0 24.658 19.646 45.194 44.801 45.734 13.795 46.879 48.221 84.186 91.607 102.775-27.125 14.349-48.976 37.671-61.362 66.076-7.476 17.145-11.267 35.359-11.267 54.137a7.5 7.5 0 0 0 7.5 7.5H384.41a7.5 7.5 0 0 0 7.5-7.5c0-9.013-.896-18.035-2.664-26.814a7.498 7.498 0 0 0-8.833-5.872 7.5 7.5 0 0 0-5.872 8.833A120.525 120.525 0 0 1 376.678 497h-27.649a525.214 525.214 0 0 0-6.831-77.13c9.678 9.848 17.713 21.337 23.576 33.999a7.5 7.5 0 1 0 13.611-6.304c-12.545-27.089-33.927-49.41-60.097-63.282 43.421-18.607 77.816-55.933 91.599-102.772 25.137-.542 44.801-21.053 44.801-45.733 0-19.598-12.543-37.317-31.626-43.505 20.404-19.027 30.159-41.195 34.8-57.734zm-391.297-4.125c-6.626-23.166 6.009-45.134 39.758-69.126 40.594-27.9 94.483-46.621 148.726-46.284 53.861-.363 107.931 18.308 148.635 46.285 33.749 23.992 46.383 45.959 39.747 69.162-4.766 16.982-15.604 40.636-40.169 58.803-47.178-19.764-97.034-29.786-148.259-29.786a384.903 384.903 0 0 0-70.739 6.572 7.5 7.5 0 1 0 2.764 14.743 369.926 369.926 0 0 1 67.976-6.315c44.426 0 87.778 7.84 129.138 23.332-41.356 15.491-84.692 23.331-129.091 23.331-42.745 0-86.315-7.284-129.168-23.326a369.843 369.843 0 0 1 32.494-10.459 7.5 7.5 0 0 0-3.93-14.476 385.404 385.404 0 0 0-47.692 16.393c-24.574-18.169-35.414-41.829-40.19-58.849zm3.75 105.364c0-15.3 11.296-28.235 26.14-30.43a163.378 163.378 0 0 0-.027 60.857c-14.755-2.194-26.113-15.065-26.113-30.427zm116.472 168.985a120.97 120.97 0 0 1 5.823-3.752c-3.455 12.048 1.317 24.898 11.727 31.809V497h-27.38c.425-30.839 3.516-59.729 9.83-92.237zm112.542-6.207c1.705 2.5 6.87 8.619 2.583 16.742-2.416 4.579-6.95 7.313-12.127 7.313h-10.511c8.189-7.081 14.931-15.155 20.055-24.055zm-91.245 16.742c-4.251-8.056.802-14.127 2.608-16.77 5.129 8.908 11.886 16.992 20.096 24.083h-10.577c-5.178 0-9.711-2.734-12.127-7.313zm11.253 22.283c.292.009.581.03.874.03h69.575c.304 0 .604-.022.906-.031V497h-71.355zm35.701-16.032c-12.383-7.232-22.247-16.393-29.184-26.996a161.792 161.792 0 0 0 58.344-.015c-6.934 10.618-16.789 19.784-29.16 27.011zm-110.927 34.809c5.969-13.688 14.411-26.047 24.725-36.535-4.349 26.456-6.534 51.125-6.882 77.176h-27.631a119.497 119.497 0 0 1 9.788-40.641zM306.692 497v-64.201c10.425-6.941 15.138-19.805 11.693-31.801a122.464 122.464 0 0 1 5.837 3.783l.097.488a509.974 509.974 0 0 1 9.708 91.73h-27.335zm-9.64-120.643c-26.694 7.783-55.362 7.795-82.102 0-70.52-20.558-117.165-92.607-102.766-168.182 44.355 17.94 92.688 27.955 143.864 27.955 49.59 0 97.909-9.404 143.77-27.957 14.404 75.585-32.25 147.629-102.766 168.184zM440.69 235.778c0 15.368-11.358 28.23-26.112 30.426a163.388 163.388 0 0 0-.027-60.855c14.871 2.2 26.139 15.16 26.139 30.429z" fill="#000000" opacity="1" data-original="#000000"></path></g></svg>