<svg xmlns="http://www.w3.org/2000/svg" version="1.1" xmlns:xlink="http://www.w3.org/1999/xlink" width="512" height="512" x="0" y="0" viewBox="0 0 512 512" style="enable-background:new 0 0 512 512" xml:space="preserve"><g><path fill="#ffbd86" d="M255.998 353.498c-17.806 0-34.899 3.107-50.775 8.793-38.453 13.771-70.742 43.159-87.709 82.073C109.475 462.801 105 483.135 105 504.5h151V353.498h-.002z" opacity="1" data-original="#ffbd86"></path><path fill="#fed2a4" d="M394.485 444.362c-16.331-37.453-47.775-67.774-87.728-82.077A150.539 150.539 0 0 0 256 353.498V504.5h151c0-21.366-4.476-41.7-12.515-60.138z" opacity="1" data-original="#fed2a4"></path><path fill="#fff1d4" d="M306.757 362.285a150.544 150.544 0 0 0-50.758-8.787c-17.806 0-34.899 3.107-50.775 8.793-38.453 13.771-70.742 43.159-87.709 82.073 14.981 13.17 32.357 25.774 50.294 36.455V504.5h176.363v-23.671c17.944-10.683 35.326-23.292 50.313-36.467-16.331-37.453-47.775-67.774-87.728-82.077z" opacity="1" data-original="#fff1d4"></path><path fill="#fce3a0" d="M288.985 357.143a150.985 150.985 0 0 0-32.987-3.645c-17.806 0-34.899 3.107-50.775 8.793-38.453 13.771-70.742 43.159-87.709 82.073 14.981 13.17 32.357 25.774 50.294 36.455V504.5h25.743c.075-65.613 39.226-122.071 95.434-147.357z" opacity="1" data-original="#fce3a0"></path><path fill="#ffbd86" d="m256 334.981-50.767 27.302c8.914 23.379 26.745 41.896 50.767 54.74 24.02-12.844 41.826-31.367 50.74-54.745z" opacity="1" data-original="#ffbd86"></path><g fill="#ffbd86"><circle cx="75" cy="188.501" r="45" fill="#ffbd86" opacity="1" data-original="#ffbd86"></circle><circle cx="437" cy="188.501" r="45" fill="#ffbd86" opacity="1" data-original="#ffbd86"></circle></g><path fill="#fed2a4" d="M306.74 362.279C382.004 340.34 437 270.847 437 188.502c0-89.745-65.314-164.234-151.001-178.527A182.203 182.203 0 0 0 255.998 7.5C156.038 7.5 75 88.537 75 188.502c0 82.346 54.996 151.838 130.258 173.778 16.101 4.694 33.125 7.221 50.741 7.221 10.221 0 20.243-.851 30.001-2.482a180.41 180.41 0 0 0 20.74-4.74z" opacity="1" data-original="#fed2a4"></path><path fill="#ffbd86" d="M135 188.502C135 98.758 200.317 24.27 285.999 9.975A182.203 182.203 0 0 0 255.998 7.5C156.038 7.5 75 88.537 75 188.502 75 288.463 156.038 369.5 255.998 369.5c10.222 0 20.241-.853 30.001-2.482C200.317 352.723 135 278.242 135 188.502z" opacity="1" data-original="#ffbd86"></path><g fill="#ffbd86"><path d="M157.326 221.391c-19.894 0-36.021 12.843-36.021 28.686 0 15.842 16.127 28.685 36.021 28.685s36.021-12.843 36.021-28.685c-.001-15.844-16.128-28.686-36.021-28.686zM354.527 221.391c-19.975 0-36.168 12.843-36.168 28.686 0 15.842 16.193 28.685 36.168 28.685s36.168-12.843 36.168-28.685c0-15.844-16.193-28.686-36.168-28.686z" fill="#ffbd86" opacity="1" data-original="#ffbd86"></path></g><g fill="#efedee"><path d="M105.55 87.839C86.254 116.622 75 151.246 75 188.501c0 2.156.037 4.301.112 6.438 31.744-3.027 54.19-29.192 54.19-59.448 0-18.183-7.986-35.516-23.752-47.652zM382.698 135.492c0 30.355 22.55 56.435 54.19 59.448.074-2.137.113-4.282.113-6.438 0-37.256-11.252-71.877-30.549-100.66-14.579 10.876-23.754 28.309-23.754 47.65z" fill="#efedee" opacity="1" data-original="#efedee"></path></g><path fill="#efedee" d="M316.576 262.03c-8.417-15.749-23.539-26.723-41.488-30.106-7.639-1.44-15.061 1.984-19.088 8.087-4.027-6.103-11.452-9.527-19.089-8.087-17.949 3.383-33.07 14.357-41.487 30.106a93.873 93.873 0 0 0-11.041 44.087c0 10.332 8.376 18.708 18.708 18.708s18.708-8.376 18.708-18.708a56.315 56.315 0 0 1 6.624-26.451c3.002-5.618 8.767-9.72 15.42-10.975 5.192-.979 9.465-4.023 12.156-8.115 2.69 4.092 6.964 7.136 12.156 8.115 6.655 1.254 12.419 5.358 15.422 10.974a56.337 56.337 0 0 1 6.624 26.453c0 10.332 8.376 18.708 18.708 18.708s18.708-8.376 18.708-18.708a93.892 93.892 0 0 0-11.041-44.088z" opacity="1" data-original="#efedee"></path><path d="M437.053 136.003C414.262 57.527 341.726 0 255.998 0 170.272 0 97.737 57.527 74.947 136.003c-28.924.029-52.447 23.568-52.447 52.499 0 28.911 23.493 52.438 52.391 52.497 8.619 29.875 24.601 57.298 47.041 79.995a7.5 7.5 0 0 0 10.666-10.546c-29.281-29.617-46.639-67.969-49.632-109.113 53.406-10.802 72.29-77.48 32.688-114.713C147.224 43.25 198.37 15 255.998 15c57.609 0 108.741 28.23 140.314 71.576-39.16 36.783-21.302 103.828 32.712 114.756C422.437 291.03 347.352 362 255.998 362c-36.759-.001-71.89-11.362-101.595-32.855a7.5 7.5 0 0 0-8.793 12.153c12.23 8.85 25.307 16.114 39.004 21.729C132.592 389.41 97.5 443.233 97.5 504.5c0 4.143 3.357 7.5 7.5 7.5h302c4.143 0 7.5-3.357 7.5-7.5 0-25.33-5.941-49.396-16.87-71.075-1.864-3.7-6.375-5.19-10.072-3.322a7.498 7.498 0 0 0-3.322 10.072c.365.726.726 1.457 1.08 2.191-13.674 11.574-29.123 22.577-44.98 32.018a7.502 7.502 0 0 0-3.663 6.444V497H175.31v-16.181a7.5 7.5 0 0 0-3.663-6.444c-15.853-9.44-31.296-20.439-44.963-32.007 15.333-31.767 42.032-57 74.521-70.486 10.033 21.306 27.601 39.105 51.26 51.757a7.503 7.503 0 0 0 7.073 0c23.634-12.639 41.189-30.436 51.227-51.748 22.812 9.448 42.835 24.631 58.207 44.252a7.5 7.5 0 0 0 11.808-9.25c-14.501-18.51-32.762-33.437-53.487-43.906 52.802-21.653 93.673-66.596 109.761-121.985 28.924-.029 52.447-23.568 52.447-52.499s-23.524-52.471-52.448-52.5zM71.18 225.809c-18.89-1.92-33.68-17.918-33.68-37.307 0-19.4 14.808-35.405 33.715-37.31-4.991 24.761-4.905 50.254-.035 74.617zm11.351-39.758c.441-31.649 9.392-61.276 24.673-86.689 27.642 28.604 14.212 76.785-24.673 86.689zm269.141 299.01c13.884-8.5 27.378-18.117 39.674-28.219A141.703 141.703 0 0 1 399.307 497h-47.636v-11.939zm-191.363-.009V497h-47.616a141.695 141.695 0 0 1 7.96-40.157c12.288 10.095 25.776 19.71 39.656 28.209zM256 408.447c-16.024-9.229-28.573-21.158-37.005-35.066A189.91 189.91 0 0 0 255.998 377c12.662 0 25.033-1.264 37.002-3.656-8.431 13.931-20.976 25.873-37 35.103zM404.768 99.315c15.299 25.424 24.26 55.067 24.701 86.735-39.163-9.969-52.093-58.302-24.701-86.735zm36.017 126.497a189.18 189.18 0 0 0 0-74.619c18.907 1.904 33.715 17.909 33.715 37.31s-14.808 35.404-33.715 37.309z" fill="#000000" opacity="1" data-original="#000000"></path><path d="M178.115 200.172a7.499 7.499 0 0 0-7.5 7.5v14.966c0 4.143 3.357 7.5 7.5 7.5s7.5-3.357 7.5-7.5v-14.966c0-4.143-3.357-7.5-7.5-7.5zM341.385 222.638v-14.966c0-4.143-3.357-7.5-7.5-7.5s-7.5 3.357-7.5 7.5v14.966c0 4.143 3.357 7.5 7.5 7.5s7.5-3.358 7.5-7.5zM323.19 258.495c-9.495-17.765-26.521-30.136-46.714-33.941a26.168 26.168 0 0 0-20.477 4.699 26.167 26.167 0 0 0-20.478-4.699c-20.191 3.806-37.218 16.177-46.714 33.942a101.402 101.402 0 0 0-11.925 47.621c0 14.451 11.757 26.208 26.207 26.208 14.451 0 26.208-11.757 26.208-26.208a48.783 48.783 0 0 1 5.738-22.916c1.942-3.634 5.754-6.303 10.197-7.14a26.03 26.03 0 0 0 10.765-4.699 26.036 26.036 0 0 0 10.768 4.699c4.441.837 8.254 3.506 10.195 7.138a48.8 48.8 0 0 1 5.739 22.918c0 14.451 11.757 26.208 26.208 26.208 14.45 0 26.207-11.757 26.207-26.208a101.369 101.369 0 0 0-11.924-47.622zm-14.281 58.83c-6.18 0-11.208-5.028-11.208-11.208a63.87 63.87 0 0 0-7.51-29.988c-4.064-7.602-11.783-13.138-20.646-14.808-3.004-.566-5.59-2.295-7.28-4.865a7.501 7.501 0 0 0-12.534 0c-1.69 2.571-4.275 4.299-7.277 4.865-8.865 1.671-16.583 7.207-20.646 14.81a63.835 63.835 0 0 0-7.51 29.986c0 6.18-5.028 11.208-11.208 11.208s-11.207-5.028-11.207-11.208a86.36 86.36 0 0 1 10.154-40.552c7.343-13.736 20.56-23.312 36.263-26.271a11.194 11.194 0 0 1 11.439 4.848 7.499 7.499 0 0 0 12.521-.001 11.18 11.18 0 0 1 11.438-4.847c15.703 2.96 28.92 12.535 36.263 26.271l-.001-.001a86.342 86.342 0 0 1 10.155 40.553c.001 6.18-5.026 11.208-11.206 11.208z" fill="#000000" opacity="1" data-original="#000000"></path></g></svg>