<svg xmlns="http://www.w3.org/2000/svg" version="1.1" xmlns:xlink="http://www.w3.org/1999/xlink" width="512" height="512" x="0" y="0" viewBox="0 0 512 512" style="enable-background:new 0 0 512 512" xml:space="preserve"><g><path fill="#fce3a0" d="M381.852 449.848c-21.319-48.896-70.002-82.573-125.851-82.575h-.003c-75.798 0-137.225 61.724-137.225 137.227h274.453c0-19.398-4.06-37.884-11.374-54.652z" opacity="1" data-original="#fce3a0"></path><path fill="#ffce71" d="M285.971 370.588a137.04 137.04 0 0 0-29.97-3.315h-.003c-56.326 0-104.716 34.084-125.861 82.579-7.31 16.765-11.364 35.252-11.364 54.649H199.247c.068-59.627 35.646-110.933 86.724-133.913z" opacity="1" data-original="#ffce71"></path><path fill="#fff1d4" d="M293.172 425.004H218.82c-18.225 0-28.999-20.417-18.713-35.462l9.758-14.272L256 350.445l46.127 24.825 9.758 14.272c10.286 15.045-.488 35.462-18.713 35.462z" opacity="1" data-original="#fff1d4"></path><path fill="#ffbd86" d="m256 350.445-46.136 24.812c8.101 21.246 24.306 38.074 46.136 49.747 21.829-11.672 38.009-28.502 46.11-49.747h.002z" opacity="1" data-original="#ffbd86"></path><g fill="#ffbd86"><circle cx="91.511" cy="217.327" r="40.895" transform="rotate(-37.97 91.598 217.47)" fill="#ffbd86" opacity="1" data-original="#ffbd86"></circle><circle cx="420.49" cy="217.327" r="40.895" fill="#ffbd86" opacity="1" data-original="#ffbd86"></circle></g><path fill="#fed2a4" d="M302.112 375.253c68.398-19.938 118.377-83.092 118.377-157.926 0-81.558-59.356-149.252-137.227-162.242a165.64 165.64 0 0 0-27.264-2.249c-90.842 0-164.488 73.645-164.488 164.491 0 74.834 49.98 137.988 118.376 157.926a164.538 164.538 0 0 0 46.112 6.562c9.289 0 18.396-.773 27.264-2.255a163.696 163.696 0 0 0 18.85-4.307z" opacity="1" data-original="#fed2a4"></path><path fill="#ffbd86" d="M146.038 217.327c0-81.557 59.359-149.251 137.225-162.242a165.53 165.53 0 0 0-27.264-2.249c-90.842 0-164.488 73.645-164.488 164.491 0 90.843 73.646 164.488 164.488 164.488 9.289 0 18.395-.776 27.264-2.255-77.866-12.991-137.225-80.678-137.225-162.233z" opacity="1" data-original="#ffbd86"></path><g fill="#ffbd86"><ellipse cx="166.327" cy="273.285" rx="32.735" ry="26.068" fill="#ffbd86" opacity="1" data-original="#ffbd86"></ellipse><path d="M345.539 247.217c-18.153 0-32.869 11.671-32.869 26.068s14.716 26.069 32.869 26.069 32.869-11.671 32.869-26.069c0-14.397-14.715-26.068-32.869-26.068z" fill="#ffbd86" opacity="1" data-original="#ffbd86"></path></g><path fill="#82888b" d="M283.263 9.749a164.477 164.477 0 0 0-11.967-1.547c-4.647-.429-9.35-.664-14.101-.698-91.124-.648-165.684 74.947-165.684 166.073v43.748l149.274-.034a180.266 180.266 0 0 0 27.913-2.699c22.479-3.963 43.496-12.109 62.268-23.591 67.709-41.416 59.823-142.272-13.86-171.776a163.328 163.328 0 0 0-33.843-9.476z" opacity="1" data-original="#82888b"></path><path fill="#82888b" d="M373.72 102.971h-35.222v83.163c22.242 19.465 51.371 31.179 81.992 31.183v-45.326c0-11.642-1.211-23.001-3.512-33.958-4.295-20.445-22.367-35.062-43.258-35.062z" opacity="1" data-original="#82888b"></path><path fill="#676f72" d="M244.032 33.536a199.785 199.785 0 0 1 27.264-25.333c-4.648-.429-9.35-.664-14.101-.698-91.124-.649-165.684 74.946-165.684 166.072v43.748l149.274-.034a180.266 180.266 0 0 0 27.913-2.699c-61.535-40.307-73.67-126.194-24.666-181.056z" opacity="1" data-original="#676f72"></path><path fill="#ffbd86" d="M130.138 449.852c-7.311 16.766-11.364 35.25-11.364 54.649h45.745c0-9.399.239-18.88.709-28.159-12.481-8.126-24.465-17.151-35.09-26.49z" opacity="1" data-original="#ffbd86"></path><path fill="#fed2a4" d="M346.741 476.361c.479 9.374.723 18.746.723 28.14h45.763c0-19.399-4.06-37.885-11.373-54.652-10.639 9.351-22.613 18.376-35.113 26.512z" opacity="1" data-original="#fed2a4"></path><circle cx="290.003" cy="451.763" r="7.5" fill="#000000" opacity="1" data-original="#000000"></circle><circle cx="290.003" cy="488.5" r="7.5" fill="#000000" opacity="1" data-original="#000000"></circle><path d="M177.72 234.749v13.601c0 4.142 3.357 7.5 7.5 7.5s7.5-3.358 7.5-7.5v-13.601c0-4.142-3.357-7.5-7.5-7.5s-7.5 3.358-7.5 7.5zM319.281 234.749v13.601c0 4.142 3.357 7.5 7.5 7.5s7.5-3.358 7.5-7.5v-13.601c0-4.142-3.357-7.5-7.5-7.5s-7.5 3.358-7.5 7.5zM269.008 243.017c-3.285 3.768-8.026 5.929-13.008 5.929s-9.723-2.161-13.008-5.929a7.5 7.5 0 0 0-11.307 9.856c6.134 7.037 14.996 11.073 24.314 11.073s18.181-4.036 24.314-11.073a7.5 7.5 0 0 0-11.305-9.856z" fill="#000000" opacity="1" data-original="#000000"></path><path d="M427.957 169.51c-.159-11.128-1.372-22.224-3.641-33.019-4.232-20.149-20.297-35.82-40.142-39.943-4.271-37.986-28.45-69.938-64.281-84.285C299.197 3.974 277.966.079 256.031 0c-37.276 0-72.832 12.028-102.821 34.783-28.886 21.917-50.697 52.98-61.417 87.467a7.5 7.5 0 0 0 4.936 9.388 7.498 7.498 0 0 0 9.389-4.936C126.561 60.934 188.207 15 256.031 15c20.335.081 39.633 3.719 58.286 11.188 32.276 12.924 53.508 42.557 55.409 77.338 1.776 32.49-13.595 63.285-42.674 81.078-25.317 15.485-54.743 24.579-86.338 25.188l-141.704.032v-36.245c.001-6.316.382-12.681 1.132-18.919a7.5 7.5 0 0 0-6.551-8.342 7.49 7.49 0 0 0-8.342 6.551 174.31 174.31 0 0 0-1.178 16.637c-23.167 3.589-40.957 23.666-40.957 47.823 0 26.487 21.392 48.061 47.805 48.38 14.829 50.79 51.71 90.685 98.588 110.296-47.435 24.649-78.234 74.207-78.234 128.496a7.5 7.5 0 0 0 7.5 7.5h274.451a7.5 7.5 0 0 0 7.5-7.5c0-55.851-31.845-104.384-78.316-128.527a171.312 171.312 0 0 0 24.431-12.593 7.501 7.501 0 0 0-7.93-12.733c-24.858 15.483-53.528 23.667-82.913 23.667-71.931 0-134.507-48.629-152.174-118.258-2.584-10.181-4.118-20.658-4.618-31.234l141.581-.032.14-.001c36.91-.695 71.635-12.584 97.012-29.344 21.578 17.341 47.738 27.506 74.866 29.131-.486 10.66-2.025 21.219-4.629 31.479-7.56 29.792-23.627 56.532-46.465 77.332a7.5 7.5 0 0 0-.495 10.595 7.5 7.5 0 0 0 10.595.495c23.488-21.391 40.438-48.526 49.278-78.783 26.736-.344 47.796-22.099 47.796-48.368.002-24.145-17.773-44.215-40.926-47.817zM305.694 393.775c6.894 10.084-.311 23.729-12.521 23.729h-12.689c9.425-7.939 17.099-17.097 22.815-27.233zm-99.396 0 2.387-3.491c5.716 10.129 13.394 19.282 22.824 27.22H218.82c-12.22 0-19.412-13.652-12.522-23.729zm-16.09-1.022c-6.504 19.353 7.845 39.751 28.611 39.751H248.5V497h-76.426c.092-6.798.306-13.592.645-20.279a7.5 7.5 0 0 0-3.398-6.666c-10.518-6.846-20.764-14.435-29.93-22.145 11.085-22.732 28.683-42.065 50.817-55.157zm-56.835 69.653a319.321 319.321 0 0 0 24.164 17.845 565.345 565.345 0 0 0-.462 16.749h-30.582a128.767 128.767 0 0 1 6.88-34.594zM354.906 497a562.1 562.1 0 0 0-.473-16.731 319.084 319.084 0 0 0 24.248-17.916A128.054 128.054 0 0 1 385.513 497zm17.76-49.143c-9.244 7.794-19.316 15.254-30.016 22.219a7.497 7.497 0 0 0-3.399 6.668c.344 6.748.562 13.533.656 20.257H263.5v-64.497h29.672c20.739 0 35.1-20.359 28.623-39.715 21.829 12.924 39.666 32.108 50.871 55.068zm-84.422-61.604c-7.526 11.906-18.451 22.156-32.244 30.166-13.792-8.008-24.716-18.245-32.242-30.129a172.949 172.949 0 0 0 32.24 3.025c10.883 0 21.672-1.05 32.246-3.062zM58.115 217.328c0-15.835 11.083-29.122 25.896-32.536v32.537a173.204 173.204 0 0 0 3.202 33.108c-16.39-2.117-29.098-16.152-29.098-33.109zm326.678-105.127c12.377 3.946 22.106 14.336 24.844 27.375a157.888 157.888 0 0 1 3.353 32.416v37.577c-22.566-1.494-44.36-9.693-62.735-23.556 21.196-18.823 33.558-45.124 34.538-73.812zm39.991 138.252a173.17 173.17 0 0 0 3.206-33.137v-32.525c14.813 3.414 25.896 16.7 25.896 32.536-.001 16.858-12.63 31.063-29.102 33.126z" fill="#000000" opacity="1" data-original="#000000"></path></g></svg>