<svg xmlns="http://www.w3.org/2000/svg" version="1.1" xmlns:xlink="http://www.w3.org/1999/xlink" width="512" height="512" x="0" y="0" viewBox="0 0 512 512" style="enable-background:new 0 0 512 512" xml:space="preserve"><g><path fill="#ffb357" d="M466.132 171.107c-40.583-19.665-56.673-28.297-86.842-38.231l-246.781.291c-30.052 9.974-45.919 18.533-86.646 38.371-25.565 12.452-25.707 50.6 0 63.057 45.015 21.812 109.469 58.088 209.98 58.088 99.766-.091 163.531-35.744 210.289-58.519 25.737-12.538 25.554-50.674 0-63.057z" opacity="1" data-original="#ffb357"></path><path fill="#fce3a0" d="M376.207 452.307c-20.486-46.981-67.116-78.86-120.19-78.86h-.001c-53.367 0-99.833 32.174-120.19 78.862-6.977 16.002-10.861 33.649-10.861 52.192h262.104c0-18.544-3.884-36.192-10.862-52.194z" opacity="1" data-original="#fce3a0"></path><path fill="#b28ae4" d="M256.016 373.447c-15.157 0-30.02 2.599-44.053 7.625V504.5h88.133V381.083a130.571 130.571 0 0 0-44.08-7.636z" opacity="1" data-original="#b28ae4"></path><path fill="#ffce71" d="M135.826 452.308c-6.977 16.002-10.861 33.649-10.861 52.192h65.526a154.077 154.077 0 0 1 21.472-56.953v-66.456c-33.975 12.171-61.661 38.017-76.137 71.217z" opacity="1" data-original="#ffce71"></path><path fill="#976bcf" d="M300.053 381.068a130.568 130.568 0 0 0-44.037-7.622c-15.157 0-30.02 2.598-44.053 7.625v66.474c19.816-31.678 50.854-55.739 88.09-66.477z" opacity="1" data-original="#976bcf"></path><path fill="#c8866a" d="m256.053 357.405-44.091 23.667c7.736 20.29 23.243 36.39 44.091 47.537 20.847-11.147 36.306-27.238 44.042-47.527z" opacity="1" data-original="#c8866a"></path><g fill="#c8866a"><circle cx="98.928" cy="230.247" r="39.055" fill="#c8866a" opacity="1" data-original="#c8866a"></circle><circle cx="413.106" cy="230.247" r="39.055" fill="#c8866a" opacity="1" data-original="#c8866a"></circle></g><path fill="#db9e82" d="M300.054 381.068c65.321-19.041 113.052-79.354 113.052-150.821 0-77.889-56.685-142.538-131.053-154.942a158.125 158.125 0 0 0-26.037-2.148c-86.755 0-157.088 70.331-157.088 157.09 0 71.467 47.731 131.78 113.05 150.821a157.142 157.142 0 0 0 44.037 6.267c8.871 0 17.569-.738 26.037-2.154a156.614 156.614 0 0 0 18.002-4.113z" opacity="1" data-original="#db9e82"></path><path fill="#c8866a" d="M151.002 230.247c0-77.888 56.688-142.536 131.051-154.942a158.125 158.125 0 0 0-26.037-2.148c-86.755 0-157.088 70.331-157.088 157.09 0 86.756 70.332 157.088 157.088 157.088 8.871 0 17.567-.741 26.037-2.154-74.363-12.407-131.051-77.049-131.051-154.934z" opacity="1" data-original="#c8866a"></path><ellipse cx="170.378" cy="283.687" fill="#c8866a" rx="31.262" ry="24.896" opacity="1" data-original="#c8866a"></ellipse><ellipse cx="341.528" cy="283.687" fill="#c8866a" rx="31.39" ry="24.896" opacity="1" data-original="#c8866a"></ellipse><path fill="#9ea2a3" d="M282.053 75.304a158.125 158.125 0 0 0-26.037-2.148c-73.379 0-135.003 50.317-152.264 118.33 17.621 3.681 35.169 3.677 51.948.479l.005-.001a133.694 133.694 0 0 0 44.522-17.162 160.786 160.786 0 0 0 61.707 38.489c49.41 16.897 104.025 8.775 146.354-21.805-15.174-59.793-64.64-105.907-126.235-116.182z" opacity="1" data-original="#9ea2a3"></path><path fill="#ffce71" d="m256.017 28.152-23.689-13.989c-9.716-5.738-21.173-7.94-32.277-5.935-45.177 8.158-81.209 44.449-87.86 91.307l-8.444 91.968a348.328 348.328 0 0 1 152.271-35.187 348.337 348.337 0 0 1 152.271 34.875l-8.422-91.687c-6.663-46.848-42.694-83.126-87.865-91.279-11.099-2.003-22.549.196-32.262 5.928z" opacity="1" data-original="#ffce71"></path><path fill="#ffb357" d="M232.328 14.162c-9.716-5.738-21.173-7.941-32.277-5.935-45.177 8.158-81.209 44.449-87.86 91.307l-8.444 91.968a348.273 348.273 0 0 1 104.674-31.872l5.518-60.096c4.214-29.69 19.421-54.645 42.079-71.383z" opacity="1" data-original="#ffb357"></path><path fill="#b28ae4" d="m408.288 191.191-8.422-91.687a108.009 108.009 0 0 0-.981-5.684c-45.823-15.799-94.78-24.098-142.773-24.098-48.055.044-97.093 8.423-142.983 24.329a109.267 109.267 0 0 0-.938 5.484l-8.444 91.968a348.328 348.328 0 0 1 152.271-35.187 348.322 348.322 0 0 1 152.27 34.875z" opacity="1" data-original="#b28ae4"></path><path fill="#976bcf" d="m212.467 115.552 1.471-16.018c1.426-10.046 4.116-19.563 7.922-28.39-36.852 3.012-73.709 10.767-108.731 22.906l-.001.003a136.397 136.397 0 0 0-.938 5.481l-3.907 42.554c31.955-13.09 67.491-22.339 104.184-26.536z" opacity="1" data-original="#976bcf"></path><path fill="#ffb357" d="M403.754 141.83c-47.732-19.457-100.04-28.811-147.602-28.811-51.873.048-103.346 10.831-147.869 29.069l-15.359 20.721 10.822 28.694.002-.001a348.33 348.33 0 0 1 152.269-35.186 348.326 348.326 0 0 1 152.126 34.807l.145.069 10.824-28.383z" opacity="1" data-original="#ffb357"></path><path d="M469.403 164.357c-25.702-12.453-42.144-20.768-58.593-27.716-3.148-34.383-2.451-54.208-18.946-81.594a7.504 7.504 0 0 0-10.295-2.555 7.502 7.502 0 0 0-2.555 10.295 100.029 100.029 0 0 1 9.077 19.626c-86.731-26.994-177.488-26.923-264.171.209C139.539 36.49 183.924 15 208.178 15c7.078 0 14.11 1.943 20.337 5.62l23.688 13.989a7.497 7.497 0 0 0 7.625.001l23.723-13.998C289.774 16.94 296.802 15 303.877 15c11.208 0 36.725 6.624 57.619 26.158a7.501 7.501 0 0 0 10.245-10.957C350.163 10.028 321.622 0 303.877 0c-9.755 0-19.42 2.66-27.949 7.694l-19.909 11.748-19.877-11.738C227.608 2.664 217.938 0 208.178 0c-18.016 0-47.59 10.258-69.896 32.155-33.348 32.736-33.661 65.721-37.087 104.765-16.263 6.899-32.056 14.938-58.615 27.874-14.477 7.052-23.46 21.753-23.443 38.367.017 16.548 9.005 31.179 23.457 38.183 4.211 2.04 8.821 4.32 13.263 6.51 7.173 17.521 23.887 28.579 42.242 28.916 13.425 45.299 46.502 85.12 93.654 105.044-22.221 11.693-41.094 29.329-54.236 50.982a7.5 7.5 0 0 0 12.823 7.783c12.844-21.16 31.813-38.027 54.124-48.326V497h-71.771a122.738 122.738 0 0 1 5.859-30.786 7.499 7.499 0 0 0-4.796-9.46 7.496 7.496 0 0 0-9.46 4.796 137.889 137.889 0 0 0-6.829 42.951 7.5 7.5 0 0 0 7.5 7.499h262.104c4.143 0 7.5-3.357 7.5-7.5 0-51.833-29.199-98.989-74.297-122.679 46.754-19.754 80.117-59.323 93.669-105.05 18.755-.344 35.522-11.837 42.472-29.462 4.357-2.153 8.731-4.321 13.004-6.402 31.316-15.258 31.211-61.418-.016-76.55zM119.856 99.682c89.187-29.905 183.185-29.948 272.423-.159.424 3.207.95 9.481 2.904 30.931-89.155-33.095-189.276-33.006-278.375.254.932-10.197 2.268-24.216 3.048-31.026zM94.359 261.485c-15.243-2.169-26.986-15.455-26.986-31.239 0-15.811 11.752-29.098 27.028-31.246-4.043 20.866-4.013 42.021-.042 62.485zM292.596 497h-73.134v-88.403c8.595 10.486 19.717 19.495 33.055 26.627a7.5 7.5 0 0 0 7.072 0c13.314-7.119 24.42-16.12 33.007-26.604zm-66.65-104.923a164.47 164.47 0 0 0 30.068 2.79 164.55 164.55 0 0 0 30.113-2.797c-7.113 11.001-17.281 20.491-30.075 27.952-12.81-7.47-22.988-16.956-30.106-27.945zM379.34 497h-71.744V392.263c41.198 18.99 68.969 59.373 71.744 104.737zm-81.386-123.132a149.634 149.634 0 0 1-83.808.019l-.071-.021c-75.479-22.003-120.344-97.424-104.614-173.723 30.966 4.818 62.546-.967 89.636-16.005 55.856 52.088 139.615 60.063 204.2 19.726 13.543 75.017-31.085 148.358-105.343 170.004zM133.223 186.791a341.329 341.329 0 0 1 61.723-17.563c-19.045 11.292-40.483 17.171-61.723 17.563zm69.785-18.954c63.786-10.209 129.526-2 190.177 24.643-60.571 36.44-137.986 26.701-187.655-22.98a7.463 7.463 0 0 0-2.522-1.663zm214.672 93.648c3.971-20.462 4-41.615-.042-62.48 15.323 2.157 27.023 15.478 27.023 31.241 0 15.833-11.767 29.076-26.981 31.239zm45.168-34.064c-1.057.515-2.144 1.051-3.22 1.578-.707-26.313-23.053-46.838-49.421-45.199-92.995-44.571-206.21-48.683-307.814.036-26.827-1.984-49.535 18.971-49.999 45.603-1.09-.533-2.194-1.075-3.261-1.592-20.342-9.859-19.706-39.961.014-49.566 28.642-13.949 44.612-22.135 61.94-29.236l.066-.027c92.048-37.699 197.663-37.787 289.769-.242l.062.025.042.017c17.319 7.065 33.222 15.174 61.835 29.037 9.244 4.479 14.993 13.967 15.005 24.758.011 10.948-5.603 20.222-15.018 24.808z" fill="#000000" opacity="1" data-original="#000000"></path><path d="M188.421 239.385a7.499 7.499 0 0 0-7.5 7.5v12.988c0 4.143 3.357 7.5 7.5 7.5s7.5-3.357 7.5-7.5v-12.988c0-4.143-3.357-7.5-7.5-7.5zM323.612 239.385a7.499 7.499 0 0 0-7.5 7.5v12.988c0 4.143 3.357 7.5 7.5 7.5s7.5-3.357 7.5-7.5v-12.988c0-4.143-3.357-7.5-7.5-7.5zM278.766 253.833a7.5 7.5 0 0 0-10.582.727c-3.071 3.524-7.506 5.546-12.167 5.546s-9.096-2.021-12.167-5.546a7.5 7.5 0 0 0-11.309 9.855c5.922 6.794 14.478 10.69 23.476 10.69s17.554-3.896 23.476-10.69a7.5 7.5 0 0 0-.727-10.582z" fill="#000000" opacity="1" data-original="#000000"></path><circle cx="321.88" cy="447.179" r="7.5" fill="#000000" opacity="1" data-original="#000000"></circle><circle cx="321.88" cy="482.264" r="7.5" fill="#000000" opacity="1" data-original="#000000"></circle></g></svg>