<svg xmlns="http://www.w3.org/2000/svg" version="1.1" xmlns:xlink="http://www.w3.org/1999/xlink" width="512" height="512" x="0" y="0" viewBox="0 0 512 512" style="enable-background:new 0 0 512 512" xml:space="preserve" class=""><g><path fill="#e9dcfa" d="M306.757 362.285a149.672 149.672 0 0 0-9.623-3.078 150.489 150.489 0 0 0-41.135-5.709C172.757 353.498 105 421.27 105 504.5h302c0-64.885-41.382-121.142-100.243-142.215z" opacity="1" data-original="#e9dcfa"></path><path fill="#c9aaf2" d="M297.134 359.207a150.489 150.489 0 0 0-41.135-5.709C172.757 353.498 105 421.27 105 504.5h82.314c0-25.721 6.505-49.977 17.931-71.228l-.021-.009c19.155-35.633 52.203-62.784 91.91-74.056z" opacity="1" data-original="#c9aaf2"></path><path fill="#c9aaf2" d="m317.494 378.003-10.737-15.705L256 334.981l-50.767 27.317-10.737 15.705c-11.319 16.555.537 39.021 20.591 39.021h81.816c20.054 0 31.909-22.466 20.591-39.021z" opacity="1" data-original="#c9aaf2"></path><path fill="#ffbd86" d="m256 334.981-50.767 27.302c8.914 23.379 26.745 41.896 50.767 54.74 24.02-12.844 41.824-31.363 50.739-54.74h.002z" opacity="1" data-original="#ffbd86"></path><g fill="#ffbd86"><circle cx="75" cy="188.501" r="45" fill="#ffbd86" opacity="1" data-original="#ffbd86"></circle><circle cx="437" cy="188.501" r="45" fill="#ffbd86" opacity="1" data-original="#ffbd86"></circle></g><path fill="#fed2a4" d="M306.74 362.279C382.004 340.34 437 270.847 437 188.502 437 88.537 355.963 7.5 255.998 7.5 156.038 7.5 75 88.537 75 188.502c0 82.346 54.996 151.838 130.258 173.778 16.101 4.694 33.125 7.221 50.741 7.221 17.616-.001 34.64-2.528 50.741-7.222z" opacity="1" data-original="#fed2a4"></path><path fill="#ffbd86" d="M135 188.502C135 98.759 200.317 24.285 285.999 9.99a182.092 182.092 0 0 0-30.001-2.49C156.038 7.5 75 88.537 75 188.502 75 288.463 156.038 369.5 255.998 369.5a182.21 182.21 0 0 0 30.001-2.489C200.317 352.716 135 278.242 135 188.502z" opacity="1" data-original="#ffbd86"></path><g fill="#ffbd86"><ellipse cx="156.779" cy="252.026" rx="36.611" ry="29.155" fill="#ffbd86" opacity="1" data-original="#ffbd86"></ellipse><ellipse cx="355.221" cy="252.026" rx="36.611" ry="29.155" fill="#ffbd86" opacity="1" data-original="#ffbd86"></ellipse></g><path fill="#ffb39d" d="M435.256 163.375C423.022 75.305 347.436 7.5 255.998 7.5c-91.433 0-167.021 67.805-179.254 155.875h11.099c30.9 0 60.534-12.275 82.384-34.125a116.508 116.508 0 0 1 82.384-34.125h6.777c30.9 0 60.535 12.275 82.384 34.125a116.508 116.508 0 0 0 82.384 34.125z" opacity="1" data-original="#ffb39d"></path><path fill="#ff8f71" d="M76.744 163.375h11.099c17.808 0 35.191-4.085 50.911-11.721 15.029-72.66 73.618-129.395 147.245-141.679A182.095 182.095 0 0 0 255.998 7.5c-91.433 0-167.02 67.805-179.254 155.875z" opacity="1" data-original="#ff8f71"></path><path d="M170.615 208.994v14.966a7.5 7.5 0 0 0 15 0v-14.966a7.5 7.5 0 0 0-15 0zM326.385 208.994v14.966c0 4.142 3.357 7.5 7.5 7.5s7.5-3.358 7.5-7.5v-14.966c0-4.142-3.357-7.5-7.5-7.5s-7.5 3.358-7.5 7.5zM270.879 218.587c-3.756 4.31-9.179 6.782-14.879 6.782s-11.124-2.472-14.879-6.782a7.5 7.5 0 0 0-11.309 9.855c6.605 7.58 16.151 11.927 26.188 11.927s19.583-4.347 26.188-11.927a7.5 7.5 0 0 0-11.309-9.855z" fill="#000000" opacity="1" data-original="#000000"></path><path d="M437.061 136.031C414.28 57.541 341.736 0 255.999 0S97.719 57.542 74.938 136.032c-29.236.049-52.438 23.735-52.438 52.47 0 28.716 23.19 52.393 52.362 52.482 6.374 22.082 16.817 42.877 31.077 61.603 20.357 26.733 47.851 47.722 78.752 60.417-15.958 8.09-30.607 18.893-43.038 31.851a7.5 7.5 0 0 0 10.824 10.384 145.042 145.042 0 0 1 32.568-25.408c-8.666 21.185 6.883 44.693 30.042 44.693H248.5V497h-85.618a581.97 581.97 0 0 1 2.812-50.892 7.5 7.5 0 0 0-6.723-8.204 7.496 7.496 0 0 0-8.204 6.723A597.032 597.032 0 0 0 147.881 497h-35.189c.883-17.171 4.807-33.837 11.697-49.639a144.134 144.134 0 0 1 10.502-19.737 7.5 7.5 0 0 0-2.299-10.354 7.5 7.5 0 0 0-10.354 2.299 159.243 159.243 0 0 0-11.599 21.797C101.921 461.362 97.5 482.604 97.5 504.5a7.5 7.5 0 0 0 7.5 7.5h302a7.5 7.5 0 0 0 7.5-7.5c0-21.898-4.421-43.14-13.141-63.135-14.819-33.986-41.235-61.736-74.012-78.352 16.409-6.703 31.764-15.687 45.818-26.852a7.5 7.5 0 0 0-9.33-11.745c-17.69 14.054-37.605 24.371-59.194 30.664-31.056 9.053-65.022 9.405-97.284 0C128.641 332.133 74.864 254.997 83.39 170.875c22.577 0 42.734-3.46 64.506-15.51a7.5 7.5 0 0 0-7.264-13.124c-17.982 9.952-35.876 13.634-55.042 13.634C100.899 75.75 171.482 15 255.999 15c84.518 0 155.102 60.75 170.411 140.875-32.414 0-58.952-11.546-79.334-31.928-23.422-23.422-54.564-36.321-87.688-36.321h-6.776c-33.124 0-64.266 12.899-87.686 36.319-.578.577-1.162 1.148-1.75 1.711a7.5 7.5 0 0 0 10.368 10.84 125.22 125.22 0 0 0 1.987-1.943c20.589-20.589 47.963-31.928 77.081-31.928h6.776c29.118 0 56.492 11.339 77.081 31.928 25.369 25.369 55.939 36.321 92.142 36.321 4.957 48.907-10.862 97.395-43.827 133.881a7.501 7.501 0 0 0 11.131 10.056 188.053 188.053 0 0 0 41.147-73.826c29.145-.048 52.439-23.681 52.439-52.484-.001-28.728-23.207-52.424-52.44-52.47zM200.688 382.235l3.311-4.842c6.619 12.065 15.767 22.88 27.147 32.131h-16.058c-14.053 0-22.324-15.7-14.4-27.289zm110.614 0c7.931 11.6-.36 27.289-14.399 27.289h-16.056c11.373-9.252 20.518-20.071 27.136-32.144zm76.307 65.125c6.891 15.802 10.815 32.468 11.698 49.64h-35.21a616.806 616.806 0 0 0-2.878-52.363c-.403-4.123-4.076-7.146-8.194-6.734a7.498 7.498 0 0 0-6.733 8.195A602.352 602.352 0 0 1 349.095 497H263.5v-72.476h33.403c23.177 0 38.706-23.532 30.039-44.702 26.722 15.284 48.214 38.979 60.667 67.538zm-94.607-74.018c-8.431 13.932-20.977 25.874-37.002 35.105-16.035-9.236-28.589-21.175-37.022-35.096a189.23 189.23 0 0 0 74.024-.009zM37.5 188.501c0-19.045 14.348-35.314 33.71-37.284a190.71 190.71 0 0 0-3.71 37.284 190.47 190.47 0 0 0 3.667 37.308C52.165 223.942 37.5 207.747 37.5 188.501zm403.281 37.285a188.962 188.962 0 0 0 3.719-37.285c0-12.717-1.325-25.455-3.716-37.315 19.111 1.85 33.716 18.142 33.716 37.315 0 19.013-14.318 35.316-33.719 37.285z" fill="#000000" opacity="1" data-original="#000000"></path><path d="M286.49 448.24c1.824 4.324 7.065 6.008 11.09 3.36 2.903-1.911 4.165-5.773 2.76-9.1-1.478-3.503-5.104-5.158-8.39-4.48-4.499.842-7.305 5.753-5.46 10.22zM293.416 478.292c-4.142 0-7.5 3.33-7.5 7.438 0 4.422 3.505 7.562 7.5 7.562 3.985 0 7.5-3.129 7.5-7.562 0-4.107-3.358-7.438-7.5-7.438z" fill="#000000" opacity="1" data-original="#000000"></path></g></svg>