<svg xmlns="http://www.w3.org/2000/svg" version="1.1" xmlns:xlink="http://www.w3.org/1999/xlink" width="512" height="512" x="0" y="0" viewBox="0 0 512 512" style="enable-background:new 0 0 512 512" xml:space="preserve"><g><path fill="#676f72" d="M447.462 135.431c-6.134-14.809-19.898-24.137-34.849-25.34 4.61-14.273 1.26-30.558-10.075-41.893-11.335-11.334-27.62-14.684-41.893-10.074-1.203-14.951-10.53-28.715-25.339-34.85-14.809-6.134-31.137-2.996-42.56 6.724C285.914 16.646 272.03 7.5 256 7.5s-29.914 9.146-36.746 22.499c-11.423-9.721-27.75-12.858-42.56-6.724-14.809 6.135-24.137 19.899-25.339 34.85-14.273-4.61-30.558-1.26-41.893 10.074-11.335 11.336-14.685 27.62-10.075 41.893-14.951 1.203-28.715 10.531-34.849 25.34-11.276 27.222 8.842 57.065 38.107 57.065h306.711c29.279-.001 49.373-29.865 38.106-57.066z" opacity="1" data-original="#676f72"></path><path fill="#4c5659" d="M263.702 55.605a46.02 46.02 0 0 0 29.045-25.607C285.914 16.646 272.03 7.5 256 7.5s-29.914 9.146-36.746 22.499c-11.423-9.721-27.75-12.858-42.56-6.724-14.809 6.135-24.137 19.899-25.339 34.85-14.273-4.61-30.558-1.26-41.893 10.074-11.335 11.336-14.685 27.62-10.075 41.893-14.951 1.203-28.715 10.531-34.849 25.34-11.276 27.223 8.842 57.065 38.107 57.065h43.887c8.745-65.289 55.44-118.562 117.17-136.892z" opacity="1" data-original="#4c5659"></path><path fill="#c8866a" d="M255.999 366.035c-16.328 0-32.001 2.849-46.559 8.063-35.261 12.628-64.869 39.576-80.428 75.259-7.372 16.907-11.475 35.552-11.475 55.143H256V366.035z" opacity="1" data-original="#c8866a"></path><path fill="#db9e82" d="M382.988 449.355c-14.975-34.344-43.809-62.147-80.445-75.263A138.046 138.046 0 0 0 256 366.035V504.5h138.464c0-19.592-4.104-38.238-11.476-55.145z" opacity="1" data-original="#db9e82"></path><path fill="#fff1d4" d="m337.599 395.923-.747-3.755a138.1 138.1 0 0 0-34.309-18.075 138.052 138.052 0 0 0-46.544-8.057c-16.328 0-32.001 2.849-46.559 8.063a138.344 138.344 0 0 0-34.309 18.087c-7.262 36.505-11.436 71.792-11.436 112.315h184.594v-.016a556.693 556.693 0 0 0-10.69-108.562z" opacity="1" data-original="#fff1d4"></path><path fill="#fce3a0" d="M255.999 366.035c-30.219 0-58.155 9.756-80.857 26.142a.067.067 0 0 1-.011.007c-7.262 36.505-11.436 71.792-11.436 112.315h35.042c.068-60.166 35.968-111.937 87.51-135.123a138.503 138.503 0 0 0-30.248-3.341z" opacity="1" data-original="#fce3a0"></path><path fill="#c8866a" d="M209.448 374.087c16.392 76.238 76.685 76.235 93.08 0L256 349.055z" opacity="1" data-original="#c8866a"></path><g fill="#c8866a"><circle cx="90.027" cy="214.737" r="41.264" fill="#c8866a" opacity="1" data-original="#c8866a"></circle><circle cx="421.973" cy="214.737" r="41.264" fill="#c8866a" opacity="1" data-original="#c8866a"></circle></g><path fill="#db9e82" d="M302.528 374.087c69.015-20.118 119.445-83.841 119.445-159.35 0-82.294-59.891-150.599-138.464-163.705a167.061 167.061 0 0 0-27.51-2.269c-91.662 0-165.971 74.309-165.971 165.974 0 75.509 50.43 139.232 119.444 159.35 14.764 4.304 30.374 6.621 46.528 6.621 9.373 0 18.562-.78 27.51-2.276a165.308 165.308 0 0 0 19.018-4.345z" opacity="1" data-original="#db9e82"></path><path fill="#c8866a" d="M145.046 214.737c0-82.292 59.894-150.597 138.463-163.705a167.061 167.061 0 0 0-27.51-2.269c-91.662 0-165.971 74.309-165.971 165.974 0 91.663 74.31 165.971 165.971 165.971 9.373 0 18.561-.783 27.51-2.276-78.569-13.108-138.463-81.406-138.463-163.695z" opacity="1" data-original="#c8866a"></path><g fill="#c8866a"><ellipse cx="165.518" cy="271.199" rx="33.03" ry="26.304" fill="#c8866a" opacity="1" data-original="#c8866a"></ellipse><ellipse cx="346.347" cy="271.199" rx="33.165" ry="26.304" fill="#c8866a" opacity="1" data-original="#c8866a"></ellipse></g><path fill="#676f72" d="M388.725 101.366c-26.671-31.197-63.536-52.077-103.805-58.794a176.345 176.345 0 0 0-28.921-2.386c-79.632 0-146.969 53.607-167.847 126.626l6.972 6.972a165.187 165.187 0 0 0-3.5 17.933h10.158a106.844 106.844 0 0 0 75.555-31.296c19.757-19.757 45.786-31.296 78.663-31.296s58.905 11.539 78.663 31.296a106.852 106.852 0 0 0 75.555 31.296h10.168a165.198 165.198 0 0 0-3.505-17.933h.002l6.935-6.935c-6.825-23.934-18.709-46.321-35.093-65.483z" opacity="1" data-original="#676f72"></path><path fill="#4c5659" d="M263.702 55.605a46.032 46.032 0 0 0 20.893-13.085 176.3 176.3 0 0 0-28.596-2.335c-79.632 0-146.969 53.608-167.847 126.626l6.972 6.972a165.187 165.187 0 0 0-3.5 17.933h10.158c16.34 0 32.288-3.757 46.71-10.767 12.404-59.97 57.161-108.108 115.21-125.344z" opacity="1" data-original="#4c5659"></path><path d="M184.582 224.815a7.5 7.5 0 0 0-7.5 7.5v13.724c0 4.143 3.358 7.5 7.5 7.5s7.5-3.357 7.5-7.5v-13.724a7.5 7.5 0 0 0-7.5-7.5zM327.418 224.815a7.5 7.5 0 0 0-7.5 7.5v13.724a7.5 7.5 0 0 0 7.5 7.5c4.143 0 7.5-3.357 7.5-7.5v-13.724a7.5 7.5 0 0 0-7.5-7.5zM279.757 239.977a7.5 7.5 0 0 0-10.582.727c-3.326 3.816-8.128 6.005-13.175 6.005s-9.849-2.188-13.175-6.005a7.5 7.5 0 1 0-11.308 9.855c6.175 7.086 15.099 11.149 24.483 11.149s18.308-4.063 24.483-11.149a7.5 7.5 0 0 0-.726-10.582z" fill="#000000" opacity="1" data-original="#000000"></path><path d="M451.377 175.867c16.485-28.089 1.323-63.784-29.718-71.832 4.396-32.018-22.901-59.357-54.958-54.958-8.075-31.147-43.849-46.125-71.822-29.754C285.758 7.233 271.503 0 256 0s-29.757 7.233-38.879 19.323c-28.011-16.39-63.754-1.365-71.822 29.754-10.538-1.446-21.201.591-30.312 5.645a7.499 7.499 0 0 0-2.92 10.196 7.498 7.498 0 0 0 10.197 2.921c8.055-4.47 17.988-5.42 26.786-2.579 4.616 1.486 9.393-1.726 9.781-6.535 2.222-27.625 34.7-40.768 55.562-23.015 3.684 3.134 9.335 2.008 11.538-2.296C231.742 22.056 243.264 15 256 15s24.258 7.056 30.07 18.414c2.208 4.314 7.863 5.422 11.538 2.296 20.95-17.83 53.349-4.496 55.563 23.015.386 4.809 5.164 8.022 9.78 6.536 21.929-7.087 44.164 9.296 44.164 32.101 0 5.177-1.07 8.226-1.648 10.639-.535 2.237-.647 3.927.911 6.258a7.5 7.5 0 0 0 5.634 3.309c25.077 2.016 39.244 29.689 26.157 51.183-10.413-3.679-18.051-2.674-21.508-2.454-4.777.14-8.23 4.681-7.047 9.343a158.388 158.388 0 0 1 1.914 8.579c-28.972 0-53.515-11.049-71.563-29.101-22.224-22.223-50.474-33.491-83.966-33.491s-61.742 11.269-83.966 33.492c-18.357 18.357-42.89 29.1-71.559 29.1a157.061 157.061 0 0 1 1.919-8.576c1.11-4.374-1.872-8.734-6.351-9.287a48.838 48.838 0 0 0-22.199 2.416c-13.198-21.626 1.212-49.198 26.144-51.203 4.822-.387 8.023-5.18 6.536-9.781a33.94 33.94 0 0 1 .256-21.604 7.5 7.5 0 0 0-4.602-9.557 7.496 7.496 0 0 0-9.556 4.602 48.936 48.936 0 0 0-2.281 22.81c-30.929 8.018-46.279 43.638-29.717 71.838a48.7 48.7 0 0 0-19.36 38.863c0 26.502 21.269 48.439 48.254 48.731 14.543 49.674 50.891 90.967 99.638 111.34-31.078 16.099-54.096 41.914-67.019 71.551-8.029 18.415-12.101 37.977-12.101 58.141a7.5 7.5 0 0 0 7.5 7.5h276.928c4.143 0 7.5-3.357 7.5-7.5 0-15.507-2.44-30.793-7.254-45.436a7.496 7.496 0 0 0-9.467-4.783 7.499 7.499 0 0 0-4.783 9.467 130.01 130.01 0 0 1 6.291 33.252h-31.02c-.357-28.871-2.813-56.153-7.734-85.558 8.009 7.927 15.026 16.867 20.752 26.528a7.501 7.501 0 0 0 12.904-7.648c-14.568-24.581-34.424-42.756-58.81-55.508 47.978-20.043 84.843-60.828 99.636-111.338 26.794-.289 48.258-22.057 48.258-48.74.001-15.855-7.607-29.96-19.359-38.872zM56.263 214.736a33.78 33.78 0 0 1 11.41-25.286 33.774 33.774 0 0 1 18.096-8.192 174.041 174.041 0 0 0 .027 66.982c-16.75-2.042-29.533-16.46-29.533-33.504zM156.232 497h-30.985c.871-15.439 4.439-30.425 10.64-44.646 6.681-15.324 16.244-29.189 28.078-40.896-4.92 29.392-7.375 56.67-7.733 85.542zm173.833-100.422c6.893 35.424 10.237 66.827 10.665 100.426H171.231c.429-33.599 3.773-65.002 10.667-100.418a132.588 132.588 0 0 1 22.308-12.355c9.396 33.816 28.884 54.538 51.769 54.537h.011c22.901-.006 42.396-20.757 51.784-54.615 7.366 3.272 14.506 7.232 22.295 12.425zm-110.147-12.167a173.61 173.61 0 0 0 36.081 3.797c12.231 0 24.297-1.297 36.035-3.785-7.705 24.201-21.309 39.341-36.051 39.345h-.006c-14.744 0-28.355-15.146-36.059-39.357zm36.081-11.203c-93.531 0-166.827-80.742-157.699-173.991 32.418 0 60.947-10.099 84.341-33.493 19.309-19.309 43.99-29.099 73.359-29.099s54.051 9.79 73.359 29.098c21.362 21.366 49.176 33.494 84.347 33.494 9.136 93.383-64.293 173.991-157.707 173.991zm170.207-124.967a173.942 173.942 0 0 0 .024-67.001c16.615 2.1 29.507 16.32 29.507 33.496 0 17.012-12.756 31.46-29.531 33.505z" fill="#000000" opacity="1" data-original="#000000"></path></g></svg>