<svg xmlns="http://www.w3.org/2000/svg" version="1.1" xmlns:xlink="http://www.w3.org/1999/xlink" width="512" height="512" x="0" y="0" viewBox="0 0 512 512" style="enable-background:new 0 0 512 512" xml:space="preserve"><g><path fill="#4293dd" d="m447.133 199.05-382.252.001c-3.214 10.732-.665 22.853 7.954 31.203 8.117 7.765 19.114 12.545 31.234 12.545h303.864c12.124 0 23.125-4.783 31.243-12.553 8.614-8.35 11.166-20.466 7.957-31.196z" opacity="1" data-original="#4293dd"></path><path fill="#b9f0ff" d="M368.845 455.51c-13.651-31.306-39.669-55.468-71.44-66.851a122.48 122.48 0 0 0-41.373-7.169h-.001c-50.092 0-93.706 30.199-112.813 74.022-6.549 15.02-10.195 31.584-10.195 48.989h246.018c0-17.406-3.646-33.971-10.196-48.991z" opacity="1" data-original="#b9f0ff"></path><path fill="#7ce3ff" d="M297.363 388.644a122.463 122.463 0 0 0-41.331-7.154h-.001c-50.092 0-93.706 30.199-112.813 74.022-6.549 15.02-10.195 31.584-10.195 48.989h61.504c9.019-55.243 49.054-100.347 102.836-115.857z" opacity="1" data-original="#7ce3ff"></path><path fill="#64b3fb" d="M184.189 404.714c-6.451 32.431-10.16 63.785-10.16 99.786h40.652V388.664a122.806 122.806 0 0 0-30.492 16.05zM328.523 408.042l-.663-3.345a122.641 122.641 0 0 0-30.454-16.037v115.841h40.614v-.014a494.53 494.53 0 0 0-9.497-96.445z" opacity="1" data-original="#64b3fb"></path><path fill="#4293dd" d="M184.189 404.697c-6.451 32.431-10.16 63.785-10.16 99.786h20.498a144.652 144.652 0 0 1 20.154-53.458v-62.377a122.736 122.736 0 0 0-30.492 16.049z" opacity="1" data-original="#4293dd"></path><g fill="#3085d1"><path d="m214.68 362.855-23.475 23.475c-11.387 11.387-11.387 29.849 0 41.236l23.475 23.475h.513v-88.187l-.513.001zM320.842 386.331l-23.475-23.475v88.187l23.475-23.475c11.387-11.388 11.387-29.85 0-41.237z" fill="#3085d1" opacity="1" data-original="#3085d1"></path></g><path fill="#ffcbbe" d="m256.066 366.433-41.385 22.215c7.262 19.045 21.816 34.156 41.385 44.62 19.568-10.463 34.077-25.564 41.339-44.608z" opacity="1" data-original="#ffcbbe"></path><path fill="#ffddcf" d="M297.367 388.643c61.312-17.872 106.113-74.483 106.113-141.564 0-73.108-53.206-133.789-123.01-145.433a148.454 148.454 0 0 0-24.439-2.016c-81.431 0-147.446 66.015-147.446 147.449 0 67.081 44.802 123.692 106.112 141.564a147.495 147.495 0 0 0 41.335 5.882c8.326 0 16.49-.693 24.439-2.022a146.948 146.948 0 0 0 16.896-3.86z" opacity="1" data-original="#ffddcf"></path><path fill="#ffcbbe" d="M157.462 247.079c0-73.107 53.209-133.788 123.008-145.433a148.445 148.445 0 0 0-24.439-2.016c-81.431 0-147.446 66.015-147.446 147.449 0 81.432 66.016 147.446 147.446 147.446 8.327 0 16.489-.695 24.439-2.022-69.799-11.644-123.008-72.319-123.008-145.424z" opacity="1" data-original="#ffcbbe"></path><g fill="#ffcbbe"><circle cx="108.584" cy="247.079" r="36.658" fill="#ffcbbe" opacity="1" data-original="#ffcbbe"></circle><circle cx="403.48" cy="247.079" r="36.658" fill="#ffcbbe" opacity="1" data-original="#ffcbbe"></circle></g><path fill="#e8b5b1" d="M323.628 116.004c3.416 14.652 4.663 33.043-1.846 54.77-2.293 7.654 1.487 15.818 8.816 19.003l30.305 13.169c7.825 3.4 13.057 10.879 13.698 19.387a191.835 191.835 0 0 1-6.952 67.563 24.223 24.223 0 0 0 8.593 25.97c2.415 1.846 5.168 3.153 8.066 3.965 12.203-21.466 19.172-46.293 19.172-72.752 0-57.07-32.423-106.565-79.852-131.075z" opacity="1" data-original="#e8b5b1"></path><path fill="#d6948c" d="M108.584 247.079c0 26.458 6.97 51.293 19.173 72.759 2.898-.813 5.65-2.127 8.064-3.972a24.223 24.223 0 0 0 8.593-25.97 191.855 191.855 0 0 1-6.952-67.563c.642-8.508 5.873-15.986 13.698-19.387l30.305-13.169c7.329-3.185 11.109-11.348 8.816-19.003-6.509-21.725-5.262-40.114-1.848-54.765-47.425 24.51-79.849 74.002-79.849 131.07z" opacity="1" data-original="#d6948c"></path><path fill="#64b3fb" d="M256.032 7.5c-81.163 0-147.317 65.788-147.318 147.316H403.35C403.349 73.277 337.187 7.5 256.032 7.5z" opacity="1" data-original="#64b3fb"></path><g fill="#4293dd"><path d="M296.671 13.189A147.267 147.267 0 0 0 256.032 7.5c-81.163 0-147.317 65.788-147.318 147.316h81.279c.001-67.377 45.184-123.999 106.678-141.627z" fill="#4293dd" opacity="1" data-original="#4293dd"></path><path d="m437.422 184.095-34.073-29.279c-83.38-74.089-211.255-74.089-294.636 0v.001l-34.111 29.275a31.609 31.609 0 0 0-9.723 14.959l48.226 11.646c5.091-4.66 10.288-9.026 15.699-13.1 75.2-56.621 179.252-56.621 254.453 0 5.411 4.074 10.608 8.44 15.699 13.1l48.176-11.647a31.593 31.593 0 0 0-9.71-14.955z" fill="#4293dd" opacity="1" data-original="#4293dd"></path></g><ellipse cx="175.649" cy="297.239" fill="#ffcbbe" rx="29.343" ry="23.368" opacity="1" data-original="#ffcbbe"></ellipse><ellipse cx="336.295" cy="297.239" fill="#ffcbbe" rx="29.464" ry="23.368" opacity="1" data-original="#ffcbbe"></ellipse><path fill="#d6948c" d="M295.87 286.76c-12.369-12.952-31.146-14.582-39.838-2.409-8.692-12.173-27.469-10.543-39.838 2.409-13.115 13.753-23.344 26.607-19.355 33.513 3.986 6.909 20.229 4.472 38.7-.006 9.179-2.235 16.513-7.592 20.493-14.151 3.98 6.559 11.314 11.916 20.493 14.151 18.471 4.477 34.715 6.914 38.7.006 3.989-6.906-6.241-19.76-19.355-33.513z" opacity="1" data-original="#d6948c"></path><circle cx="315.975" cy="462.425" r="7.5" fill="#000000" opacity="1" data-original="#000000"></circle><circle cx="315.975" cy="485.26" r="7.5" fill="#000000" opacity="1" data-original="#000000"></circle><path d="M200.085 274.888v-12.192c0-4.143-3.357-7.5-7.5-7.5s-7.5 3.357-7.5 7.5v12.192c0 4.143 3.357 7.5 7.5 7.5s7.5-3.358 7.5-7.5zM319.479 255.195a7.499 7.499 0 0 0-7.5 7.5v12.192c0 4.143 3.357 7.5 7.5 7.5s7.5-3.357 7.5-7.5v-12.192a7.5 7.5 0 0 0-7.5-7.5z" fill="#000000" opacity="1" data-original="#000000"></path><path d="m442.31 178.406-31.504-27.073C408.947 67.57 340.234 0 256.032 0 217.521 0 180.6 14.246 152.068 40.112a7.5 7.5 0 1 0 10.074 11.113C187.91 27.865 221.253 15 256.032 15c71.456 0 130.555 53.884 138.821 123.15-39.563-30.027-88.217-46.402-138.821-46.401-50.613 0-99.276 16.383-138.844 46.42 2.805-23.793 11.628-46.285 25.931-65.823a7.501 7.501 0 0 0-1.621-10.482 7.499 7.499 0 0 0-10.482 1.622c-18.812 25.696-29.063 56.001-29.759 87.848L69.719 178.4c-16.215 13.916-18.937 39.033-3.369 55.857-8.51 27.959 11.997 56.173 41.085 56.94 11.989 40.373 40.062 73.698 75.839 92.757a36.295 36.295 0 0 0-7.755 17.943c-30.692 24.13-49.996 61.349-49.996 102.602 0 4.143 3.357 7.5 7.5 7.5h246.018c4.143 0 7.5-3.357 7.5-7.5 0-14.039-2.237-27.873-6.649-41.117-1.309-3.93-5.554-6.059-9.485-4.745a7.498 7.498 0 0 0-4.745 9.485 114.703 114.703 0 0 1 5.639 28.877h-25.845a503.622 503.622 0 0 0-6.397-72.68 115.83 115.83 0 0 1 14.537 18.426 7.501 7.501 0 0 0 12.665-8.039c-8.003-12.605-18.015-23.619-29.748-32.828a36.452 36.452 0 0 0-7.725-17.905c35.682-19 63.832-52.38 75.885-92.776 29.203-.801 49.533-29.154 41.028-56.99 15.41-16.709 12.893-41.808-3.391-55.801zM166.589 497h-25.826c1.766-27.564 13.389-53.191 32.272-72.716-4.009 24.757-6.094 48.323-6.446 72.716zm-62.86-221.163c-13.845-2.283-24.303-14.424-24.303-28.758 0-14.296 10.461-26.502 24.357-28.768-3.617 19.326-3.572 38.786-.054 57.526zm27.305 34.23c-15.141-29.912-18.594-63.551-11.16-95.36 19.243-17.239 40.808-30.237 63.557-38.973-.158 3.06-2.006 5.885-4.953 7.165l-30.306 13.169c-10.362 4.503-17.332 14.352-18.188 25.701-1.79 23.736.64 47.355 7.224 70.203 1.943 6.742-.463 13.911-6.174 18.095zM207.181 497h-25.59c.316-21.252 1.992-41.874 5.161-63.281l20.429 20.43zm0-64.064-10.673-10.673c-7.779-7.78-9.467-21.159 1.01-31.638a153.427 153.427 0 0 0 9.663 3.565zM289.906 497h-67.725v-81.218c7.988 9.463 18.202 17.604 30.348 24.099a7.497 7.497 0 0 0 7.073.001c12.124-6.483 22.323-14.617 30.304-24.078zm-61.121-97.36a156.567 156.567 0 0 0 27.246 2.385c9.253 0 18.374-.814 27.284-2.388-6.563 9.813-15.771 18.299-27.249 25.035-11.495-6.743-20.715-15.228-27.281-25.032zM330.453 497h-25.548v-42.89l20.422-20.422A488.197 488.197 0 0 1 330.453 497zm-25.547-64.104v-38.704a153.84 153.84 0 0 0 9.637-3.554c10.479 10.476 8.717 23.904.996 31.625zm-48.875-45.871c-48.933 0-92.145-24.922-117.492-63.914 11.498-7.494 17.015-21.647 13.083-35.293-6.089-21.128-8.336-42.971-6.681-64.921.437-5.785 3.965-10.794 9.209-13.072l30.306-13.169c10.117-4.397 15.664-15.25 13.545-25.882a202.5 202.5 0 0 1 116.061 0c-2.117 10.634 3.429 21.485 13.545 25.882l30.306 13.169c5.244 2.278 8.772 7.287 9.209 13.072 1.655 21.95-.592 43.793-6.681 64.922-3.925 13.624 1.568 27.793 13.078 35.288-25.998 39.976-69.582 63.918-117.488 63.918zm125-76.958c-5.769-4.234-8.1-11.416-6.175-18.095 6.584-22.849 9.015-46.468 7.224-70.204-.855-11.349-7.825-21.197-18.188-25.701l-30.306-13.169c-2.946-1.28-4.795-4.105-4.953-7.166 22.756 8.738 44.326 21.742 63.574 38.989 7.734 32.595 3.664 66.103-11.176 95.346zm27.363-34.239c3.542-18.77 3.58-38.227-.079-57.511 13.84 2.275 24.323 14.437 24.323 28.763 0 14.32-10.434 26.441-24.244 28.748zm29.574-56.292c-9.086-11.38-22.719-17.128-36.381-16.549-83.594-74.294-208.598-73.326-291.11.001-13.697-.579-27.336 5.192-36.416 16.595-5.985-10.471-2.605-22.906 5.427-29.8.151-.13 34.057-29.229 34.207-29.361 81.145-72.103 203.526-72.103 284.673 0l.094.082 34.072 29.279c8.502 7.306 11.114 19.749 5.434 29.753z" fill="#000000" opacity="1" data-original="#000000"></path><path d="M301.293 281.58c-13.299-13.925-32.561-17.018-45.262-7.763-12.703-9.255-31.965-6.16-45.266 7.767-17.277 18.118-26.72 31.538-20.424 42.437 6.287 10.898 22.63 9.433 46.97 3.533 7.117-1.732 13.642-5.165 18.72-9.802 5.078 4.637 11.604 8.07 18.727 9.804 11.406 2.765 21.057 4.556 28.739 4.556 8.705 0 14.883-2.3 18.222-8.087 6.298-10.902-3.145-24.322-20.422-42.44zm-22.995 31.399c-5.473-1.332-10.329-4.114-13.673-7.834-2.195-2.441-5.327-3.842-8.594-3.842s-6.398 1.4-8.594 3.842c-3.344 3.72-8.2 6.502-13.666 7.832-22.401 5.431-28.638 4.277-30.31 3.471.137-1.854 2.255-7.834 18.155-24.509 8.317-8.707 20.271-11.005 26.647-5.123 4.354 4.018 11.179 4.018 15.533 0 6.375-5.882 18.331-3.584 26.646 5.123 15.901 16.675 18.02 22.656 18.156 24.509-1.668.807-7.904 1.96-30.3-3.469z" fill="#000000" opacity="1" data-original="#000000"></path></g></svg>