<svg xmlns="http://www.w3.org/2000/svg" version="1.1" xmlns:xlink="http://www.w3.org/1999/xlink" width="512" height="512" x="0" y="0" viewBox="0 0 512 512" style="enable-background:new 0 0 512 512" xml:space="preserve" class=""><g><path fill="#d4d4d5" d="M255.999 364.723c-16.483 0-32.305 2.876-47 8.139-35.595 12.747-65.484 39.951-81.19 75.972-7.441 17.067-11.584 35.889-11.584 55.666H256V364.723h-.001z" opacity="1" data-original="#d4d4d5"></path><path fill="#efedee" d="M384.191 448.832c-15.117-34.669-44.224-62.736-81.207-75.976A139.34 139.34 0 0 0 256 364.722V504.5h139.776c0-19.777-4.143-38.601-11.585-55.668z" opacity="1" data-original="#efedee"></path><path fill="#676f72" d="m338.372 394.894-.754-3.791a139.427 139.427 0 0 0-34.634-18.246 139.35 139.35 0 0 0-46.985-8.134c-16.483 0-32.305 2.876-47 8.139a139.655 139.655 0 0 0-34.634 18.258c-7.33 36.851-11.545 72.472-11.545 113.38h186.343v-.016c0-36.796-3.615-73.502-10.791-109.59z" opacity="1" data-original="#676f72"></path><path fill="#4c5659" d="M255.999 364.723c-30.505 0-58.706 9.848-81.624 26.39l-.011.008c-7.33 36.851-11.545 72.472-11.545 113.38h35.375c.068-60.736 36.309-112.998 88.339-136.403a139.666 139.666 0 0 0-30.534-3.375z" opacity="1" data-original="#4c5659"></path><path fill="#efedee" d="M293.862 423.526h-75.734c-18.564 0-29.538-20.796-19.061-36.121l9.939-14.537L256 347.582l46.984 25.286 9.939 14.537c10.477 15.325-.497 36.121-19.061 36.121z" opacity="1" data-original="#efedee"></path><path fill="#c8866a" d="m256 347.582-46.993 25.273c8.251 21.641 24.757 38.782 46.993 50.671 22.235-11.889 38.715-29.032 46.967-50.671h.002z" opacity="1" data-original="#c8866a"></path><g fill="#c8866a"><ellipse cx="164.66" cy="268.988" rx="33.343" ry="26.553" fill="#c8866a" opacity="1" data-original="#c8866a"></ellipse><path d="M347.203 242.435c-18.49 0-33.479 11.888-33.479 26.553s14.989 26.553 33.479 26.553 33.48-11.888 33.48-26.553-14.99-26.553-33.48-26.553z" fill="#c8866a" opacity="1" data-original="#c8866a"></path></g><g fill="#c8866a"><circle cx="88.454" cy="211.99" r="41.655" fill="#c8866a" opacity="1" data-original="#c8866a"></circle><circle cx="423.546" cy="211.99" r="41.655" fill="#c8866a" opacity="1" data-original="#c8866a"></circle></g><path fill="#db9e82" d="M302.969 372.851c69.669-20.309 120.577-84.636 120.577-160.861 0-83.074-60.459-152.026-139.777-165.257a168.664 168.664 0 0 0-27.771-2.291c-92.53 0-167.544 75.013-167.544 167.547 0 76.225 50.908 140.552 120.576 160.861 14.904 4.345 30.662 6.684 46.969 6.684 9.461 0 18.738-.787 27.771-2.297a166.841 166.841 0 0 0 19.199-4.386z" opacity="1" data-original="#db9e82"></path><path fill="#c8866a" d="M143.994 211.99c0-22.762 4.549-44.461 12.771-64.247l-35.436-35.437c-20.654 27.857-32.875 62.341-32.875 99.684 0 92.531 75.014 167.544 167.545 167.544 9.462 0 18.736-.79 27.77-2.297-79.313-13.232-139.775-82.177-139.775-165.247z" opacity="1" data-original="#c8866a"></path><path fill="#fce3a0" d="M374.384 38.096c-12.199-7.037-28.2-8.413-41.756-3.284-.281.107-.564.231-.845.343-4.59-11.827-16.72-21.15-32.21-23.884-13.995-2.47-28.519-3.771-43.409-3.771-44.403 0-85.546 11.574-119.131 31.209-27.007 15.79-43.441 44.887-43.441 76.171v55.765h33.633c19.924 0 36.343-16.009 36.417-35.932l.001-.373c0-16.393 12.207-30.221 28.473-32.254a515.068 515.068 0 0 1 127.77 0c16.266 2.033 28.473 15.861 28.473 32.254l.001.373c.074 19.923 16.493 35.932 36.417 35.932h33.631v-56.043c0-31.317-16.437-60.496-43.522-76.218-.168-.095-.335-.192-.502-.288z" opacity="1" data-original="#fce3a0"></path><path fill="#ffce71" d="M255.46 7.501c-44.134.122-85.02 11.677-118.427 31.208-27.007 15.79-43.442 44.888-43.442 76.171v55.765h33.633c19.924 0 36.343-16.009 36.417-35.932l.001-.373c0-16.393 12.207-30.221 28.473-32.254a515.324 515.324 0 0 1 63.179-3.977c-16.429-27.088-16.502-63.275.166-90.608z" opacity="1" data-original="#ffce71"></path><path d="M290.634 441.104a8.659 8.659 0 1 0 0 17.317 8.659 8.659 0 0 0 0-17.317zM290.634 478.524a8.659 8.659 0 1 0 0 17.317 8.659 8.659 0 0 0 0-17.317zM176.404 229.735v13.854c0 4.143 3.357 7.5 7.5 7.5s7.5-3.357 7.5-7.5v-13.854c0-4.143-3.357-7.5-7.5-7.5s-7.5 3.358-7.5 7.5zM320.595 229.735v13.854c0 4.143 3.357 7.5 7.5 7.5s7.5-3.357 7.5-7.5v-13.854c0-4.143-3.357-7.5-7.5-7.5s-7.5 3.358-7.5 7.5zM269.354 238.249c-3.371 3.868-8.238 6.087-13.354 6.087s-9.982-2.219-13.354-6.087a7.501 7.501 0 0 0-11.309 9.855c6.221 7.138 15.21 11.231 24.662 11.231s18.441-4.094 24.662-11.231a7.5 7.5 0 0 0-11.307-9.855z" fill="#000000" opacity="1" data-original="#000000"></path><path d="M425.906 162.918v-48.314c0-51.161-44.194-100.542-90.339-88.582-6.96-11.243-19.667-19.483-34.69-22.136C286.272 1.308 271.229 0 256.164 0c-44.345 0-86.849 11.146-122.916 32.234-29.087 17.006-47.156 48.675-47.156 82.646v12.126c0 4.143 3.357 7.5 7.5 7.5s7.5-3.357 7.5-7.5V114.88c0-28.664 15.223-55.37 39.727-69.697C174.592 25.438 214.478 15 256.164 15c14.192 0 28.359 1.23 42.105 3.657 12.625 2.229 22.788 9.59 26.521 19.212 1.383 3.563 5.381 6.046 10.49 3.958 10.848-4.104 24.421-3.552 35.838 3.044 24.542 14.247 39.787 40.967 39.787 69.732v48.542h-26.131c-15.887 0-28.858-12.767-28.917-28.49l-.001-.314c0-20.133-15.064-37.199-35.043-39.697a522.971 522.971 0 0 0-129.63 0c-19.978 2.498-35.042 19.564-35.042 39.697l-.001.345c-.059 15.693-13.03 28.46-28.917 28.46H101.09v-6.139c0-4.143-3.357-7.5-7.5-7.5s-7.5 3.357-7.5 7.5v5.912c-26.496 1.285-46.793 23.114-46.793 49.072 0 26.739 21.46 48.809 48.602 49.128 5.929 20.361 15.591 39.535 28.749 56.814 18.655 24.498 43.766 43.799 72.001 55.633-47.909 24.768-79.926 74.546-79.926 130.934 0 4.143 3.357 7.5 7.5 7.5h279.551c4.143 0 7.5-3.357 7.5-7.5 0-56.347-31.979-106.136-79.91-130.925a174.485 174.485 0 0 0 26.638-13.909 7.497 7.497 0 0 0 2.291-10.355 7.5 7.5 0 0 0-10.355-2.291c-25.722 16.402-55.396 25.016-85.941 25.016-90.357 0-160.044-74.209-160.044-160.045a160.97 160.97 0 0 1 3.601-33.845h27.67c24.127 0 43.828-19.471 43.917-43.373l.001-.432c0-12.584 9.416-23.251 21.903-24.813a507.921 507.921 0 0 1 125.908 0c12.487 1.562 21.903 12.229 21.903 24.813l.001.401c.089 23.933 19.79 43.403 43.917 43.403h27.675a161.095 161.095 0 0 1 3.595 33.845c0 44.489-18.75 87.334-51.442 117.549a7.5 7.5 0 1 0 10.182 11.016c23.444-21.667 40.331-49.274 49.182-79.434 27.252-.248 48.734-22.398 48.734-49.13.001-25.966-20.311-47.79-46.794-49.073zM341.614 497H263.5v-65.974h30.362c21.165 0 35.793-20.924 28.88-40.668a132.786 132.786 0 0 1 8.089 5.151c6.967 35.799 10.355 67.547 10.783 101.491zM181.151 395.521a133.014 133.014 0 0 1 8.095-5.157c-6.898 19.714 7.687 40.662 28.882 40.662H248.5V497h-78.131c.429-33.952 3.817-65.697 10.782-101.479zm125.58-3.883c7.088 10.367-.323 24.389-12.869 24.389h-13.293c9.777-8.18 17.727-17.633 23.609-28.122zm-88.603 24.388c-12.558 0-19.95-14.033-12.869-24.388l2.545-3.722c5.883 10.481 13.836 19.931 23.618 28.11zm-54.915-5.671c-4.996 29.777-7.487 57.399-7.846 86.645h-31.433c1.842-33.002 16.027-63.722 39.279-86.645zM388.066 497h-31.45c-.358-29.244-2.851-56.871-7.848-86.663 23.153 22.815 37.447 53.493 39.298 86.663zm-98.962-113.112C281.41 396.158 270.2 406.71 256 414.944c-14.222-8.244-25.445-18.804-33.142-31.078a175.773 175.773 0 0 0 33.14 3.169c11.101 0 22.097-1.032 33.106-3.147zM54.299 211.99c0-17.216 12.918-31.864 29.959-33.899a176.118 176.118 0 0 0-3.304 33.899c0 11.513 1.104 22.845 3.26 33.896-16.94-2.044-29.915-16.616-29.915-33.896zm373.392 33.905a174.055 174.055 0 0 0 3.354-33.904c0-11.417-1.118-22.78-3.3-33.903 17.01 2.03 29.955 16.667 29.955 33.903.001 17.292-12.998 31.897-30.009 33.904z" fill="#000000" opacity="1" data-original="#000000"></path></g></svg>