<svg xmlns="http://www.w3.org/2000/svg" version="1.1" xmlns:xlink="http://www.w3.org/1999/xlink" width="512" height="512" x="0" y="0" viewBox="0 0 512 512" style="enable-background:new 0 0 512 512" xml:space="preserve"><g><path fill="#55dafe" d="M302.984 372.856a139.302 139.302 0 0 0-46.985-8.134c-77.054 0-139.774 62.734-139.774 139.777h279.552c-.001-60.061-38.307-112.137-92.793-131.643z" opacity="1" data-original="#55dafe"></path><path fill="#2ed0fc" d="M294.076 370.007a139.302 139.302 0 0 0-38.077-5.284c-77.054 0-139.774 62.734-139.774 139.777h76.195c0-23.809 6.021-46.262 16.598-65.933l-.019-.008c17.73-32.985 48.322-58.118 85.077-68.552z" opacity="1" data-original="#2ed0fc"></path><path fill="#c8866a" d="m256 347.582-46.993 25.273c3.346 8.776 8.05 16.813 13.943 24.059 17.013 20.919 49.093 20.916 66.093-.014 5.883-7.243 10.579-15.274 13.924-24.045h.002z" opacity="1" data-original="#c8866a"></path><g fill="#c8866a"><circle cx="88.454" cy="212.837" r="41.655" fill="#c8866a" opacity="1" data-original="#c8866a"></circle><circle cx="423.546" cy="211.99" r="41.655" fill="#c8866a" opacity="1" data-original="#c8866a"></circle></g><path fill="#db9e82" d="M302.969 372.851c69.669-20.309 120.577-84.636 120.577-160.861 0-83.074-60.459-152.026-139.777-165.257a168.664 168.664 0 0 0-27.771-2.291c-92.53 0-167.544 75.013-167.544 167.547 0 76.225 50.908 140.552 120.576 160.861 14.904 4.345 30.662 6.684 46.969 6.684 9.461 0 18.738-.787 27.771-2.297a166.841 166.841 0 0 0 19.199-4.386z" opacity="1" data-original="#db9e82"></path><path fill="#c8866a" d="M143.994 212.837c0-83.072 60.462-152.024 139.775-165.257a168.664 168.664 0 0 0-27.771-2.291c-92.53 0-167.544 75.013-167.544 167.547 0 92.531 75.014 167.544 167.544 167.544 9.462 0 18.736-.79 27.771-2.297-79.313-13.231-139.775-82.176-139.775-165.246z" opacity="1" data-original="#c8866a"></path><ellipse cx="164.66" cy="269.834" fill="#c8866a" rx="33.343" ry="26.553" opacity="1" data-original="#c8866a"></ellipse><ellipse cx="347.203" cy="268.988" fill="#c8866a" rx="33.48" ry="26.553" opacity="1" data-original="#c8866a"></ellipse><path fill="#9ea2a3" d="M424.891 82.713c-12.849-19.265-36.109-38.47-66.306-52.657-21.361-10.035-46.188-17.559-73.291-20.797a248.267 248.267 0 0 0-29.46-1.759c-14.89 0-29.414 1.301-43.41 3.771-12.974 2.29-23.571 9.212-29.375 18.346-1.125 1.771-2.089 3.617-2.834 5.538-14.167-5.652-30.447-4.07-42.601 2.94-12.081 6.969-23.193 14.977-33.141 23.865-6.286 5.616-12.049 12.629-16.8 21.044-3.009 5.329-.468 12.535 5.918 13.984v73.656c19.704-.034 36.539-7.633 48.84-19.934l32.609-32.61a51.447 51.447 0 0 1 36.377-15.067c18.718 28.535 43.107 45.27 70.212 54.952 28.656 10.237 60.348 12.59 91.587 12.659h45.19V97.188c7.132-.788 10.216-8.879 6.485-14.475z" opacity="1" data-original="#9ea2a3"></path><path fill="#82888b" d="M285.293 9.259a248.267 248.267 0 0 0-29.46-1.759c-14.89 0-29.414 1.301-43.41 3.771-12.974 2.29-23.571 9.212-29.375 18.346-1.125 1.771-2.089 3.617-2.834 5.538-14.167-5.652-30.447-4.07-42.601 2.94-12.081 6.969-23.193 14.977-33.141 23.865-6.286 5.616-12.049 12.629-16.8 21.044-3.009 5.329-.468 12.535 5.918 13.984v73.656c19.704-.034 36.539-7.633 48.84-19.934l32.609-32.61a51.447 51.447 0 0 1 36.377-15.067c18.718 28.535 43.107 45.27 70.212 54.952a146.603 146.603 0 0 1-12.299-58.748c0-10.334 1.092-20.638 3.259-30.741 3.18-14.828 17.956-24.084 32.703-20.552 3.705.887 7.384 1.876 11.033 2.965a34.652 34.652 0 0 0 9.92 1.455c14.094-.001 27.157-8.679 32.339-22.31-21.359-10.033-46.186-17.557-73.29-20.795z" opacity="1" data-original="#82888b"></path><path d="M183.904 222.235a7.499 7.499 0 0 0-7.5 7.5v13.854c0 4.143 3.357 7.5 7.5 7.5s7.5-3.357 7.5-7.5v-13.854a7.5 7.5 0 0 0-7.5-7.5zM328.095 222.235a7.499 7.499 0 0 0-7.5 7.5v13.854c0 4.143 3.357 7.5 7.5 7.5s7.5-3.357 7.5-7.5v-13.854a7.5 7.5 0 0 0-7.5-7.5zM279.936 237.522a7.5 7.5 0 0 0-10.582.727c-3.371 3.868-8.238 6.087-13.354 6.087s-9.982-2.219-13.354-6.087a7.501 7.501 0 0 0-11.309 9.855c6.221 7.138 15.21 11.231 24.662 11.231s18.441-4.094 24.662-11.231a7.5 7.5 0 0 0-.725-10.582z" fill="#000000" opacity="1" data-original="#000000"></path><path d="M425.906 162.918v-60.499c8.214-4.887 10.527-15.916 5.224-23.867C398.296 29.322 322.653 0 255.834 0c-15.064 0-30.108 1.308-44.713 3.886-14.31 2.525-27.294 10.227-34.688 22.164-14.222-3.66-29.993-1.701-42.566 5.549-34.249 19.758-46.419 36.55-52.726 47.719-4.295 7.61-2.22 17.464 4.95 22.429v62.013c-26.201 1.27-46.793 22.842-46.793 49.078 0 26.984 21.791 48.999 48.913 49.138 14.995 50.342 52.3 91.463 100.442 111.59a147.619 147.619 0 0 0-18.012 10.991 7.501 7.501 0 0 0 8.715 12.209 132.244 132.244 0 0 1 25.619-14.298c10.474 21.957 26.692 37.633 51.026 37.633 15.162 0 29.327-6.732 38.863-18.472a95.818 95.818 0 0 0 12.138-19.163c46.591 19.533 78.187 64.203 81.059 114.535H353.17a551.309 551.309 0 0 0-3.412-54.037c-.465-4.117-4.187-7.072-8.294-6.612a7.502 7.502 0 0 0-6.612 8.294 536.03 536.03 0 0 1 3.318 52.355H173.81c.24-17.743 1.335-34.939 3.332-52.342a7.5 7.5 0 1 0-14.903-1.709c-2.062 17.974-3.188 35.73-3.429 54.051h-34.874c1.711-30.188 13.712-58.854 34.227-81.407a7.5 7.5 0 0 0-11.096-10.094c-24.726 27.183-38.343 62.342-38.343 99.001 0 4.143 3.357 7.5 7.5 7.5h279.551c4.143 0 7.5-3.357 7.5-7.5 0-55.476-31.436-105.92-79.917-130.938 48.455-20.246 85.859-61.688 100.687-112.44 26.958-.282 48.656-22.179 48.656-49.132 0-25.955-20.302-47.792-46.795-49.073zM94.204 86.692c4.158-7.365 9.294-13.805 15.266-19.139 9.568-8.549 20.299-16.273 31.892-22.961 9.749-5.624 22.142-6.88 33.056-3.519.4 1.06.889 2.342 1.463 3.828a7.5 7.5 0 1 0 13.992-5.406 533.154 533.154 0 0 1-1.544-4.044c4.945-9.294 14.9-14.942 25.4-16.795C227.475 16.23 241.642 15 255.834 15c71.736 0 137.072 33.272 162.816 71.874.667 1 .35 2.701-1.066 2.858a7.5 7.5 0 0 0-6.678 7.455v65.958h-37.673c-63.962-.141-120.294-10.542-155.507-64.169-4.983-7.98-10.528-18.776-16.481-32.094-1.69-3.781-6.124-5.473-9.908-3.785a7.5 7.5 0 0 0-3.785 9.908c4.037 9.029 7.921 16.99 11.61 23.811-11.068 2.329-21.24 7.798-29.424 15.981l-32.609 32.611c-9.83 9.831-22.177 15.736-36.036 17.311v-65.73a7.5 7.5 0 0 0-5.841-7.314c-1.345-.304-1.642-1.931-1.048-2.983zM54.299 212.837c0-17.143 12.819-31.768 29.795-33.88a175.43 175.43 0 0 0 .341 67.803c-17.097-1.948-30.136-16.622-30.136-33.923zM256.002 405.1c-16.466 0-25.951-9.668-33.17-21.239a175.707 175.707 0 0 0 33.167 3.175c10.891 0 21.919-.996 33.137-3.154-7.233 11.589-16.644 21.218-33.134 21.218zm-.004-33.065c-101.533 0-178.136-93.942-156.391-194.145 18.369-1.397 35.283-9.029 48.128-21.875l32.609-32.61c7.379-7.38 16.922-11.812 27.199-12.703 38.741 55.821 98.861 67.298 165.673 67.443h39.234c21.575 100.317-55.121 193.89-156.452 193.89zm171.754-126.174a175.816 175.816 0 0 0-.006-67.774c16.967 2.026 29.955 16.626 29.955 33.903 0 16.997-12.587 31.715-29.949 33.871z" fill="#000000" opacity="1" data-original="#000000"></path></g></svg>