<svg xmlns="http://www.w3.org/2000/svg" version="1.1" xmlns:xlink="http://www.w3.org/1999/xlink" width="512" height="512" x="0" y="0" viewBox="0 0 512 512" style="enable-background:new 0 0 512 512" xml:space="preserve"><g><path fill="#ffcbbe" d="M255.999 371.25c-15.713 0-30.796 2.742-44.806 7.759-33.933 12.152-62.426 38.085-77.398 72.424-7.094 16.27-11.043 34.213-11.043 53.066H256V371.25h-.001z" opacity="1" data-original="#ffcbbe"></path><path fill="#ffddcf" d="M378.204 451.432c-14.411-33.05-42.159-59.806-77.415-72.428a132.841 132.841 0 0 0-44.79-7.754V504.5h133.248c.001-18.854-3.948-36.798-11.043-53.068z" opacity="1" data-original="#ffddcf"></path><path fill="#ffb357" d="m334.525 400.012-.719-3.614a132.909 132.909 0 0 0-33.017-17.394 132.852 132.852 0 0 0-44.791-7.754c-15.713 0-30.796 2.742-44.806 7.759a133.139 133.139 0 0 0-33.017 17.405c-6.988 35.13-11.006 69.088-11.006 108.085H344.81v-.016a535.52 535.52 0 0 0-10.285-104.471z" opacity="1" data-original="#ffb357"></path><path fill="#fc8a3d" d="M255.999 371.25c-29.081 0-55.965 9.388-77.812 25.157l-.01.007c-6.988 35.13-11.006 69.088-11.006 108.085h33.723c.065-57.9 34.614-107.721 84.214-130.033a133.265 133.265 0 0 0-29.109-3.216z" opacity="1" data-original="#fc8a3d"></path><g fill="#ffcbbe"><circle cx="96.278" cy="225.65" r="39.71" fill="#ffcbbe" opacity="1" data-original="#ffcbbe"></circle><circle cx="415.721" cy="225.65" r="39.71" fill="#ffcbbe" opacity="1" data-original="#ffcbbe"></circle></g><path fill="#ffddcf" d="M300.775 378.999c66.416-19.36 114.946-80.683 114.946-153.349 0-79.194-57.635-144.926-133.249-157.539a160.855 160.855 0 0 0-26.474-2.184c-88.209 0-159.72 71.51-159.72 159.723 0 72.665 48.531 133.988 114.945 153.348a159.743 159.743 0 0 0 44.775 6.372c9.02 0 17.863-.751 26.474-2.19a158.926 158.926 0 0 0 18.303-4.181z" opacity="1" data-original="#ffddcf"></path><path fill="#ffcbbe" d="M149.225 225.651c0-79.193 57.638-144.925 133.247-157.539a160.746 160.746 0 0 0-26.474-2.184c-88.209 0-159.72 71.51-159.72 159.723 0 88.21 71.511 159.72 159.72 159.72 9.02 0 17.861-.753 26.474-2.19-75.609-12.615-133.247-78.34-133.247-157.53z" opacity="1" data-original="#ffcbbe"></path><g fill="#ffcbbe"><path d="M168.926 254.673c-17.555 0-31.786 11.333-31.786 25.313s14.231 25.313 31.786 25.313 31.786-11.333 31.786-25.313-14.232-25.313-31.786-25.313zM342.944 254.673c-17.626 0-31.916 11.333-31.916 25.313s14.29 25.313 31.916 25.313c17.627 0 31.917-11.333 31.917-25.313-.001-13.98-14.29-25.313-31.917-25.313z" fill="#ffcbbe" opacity="1" data-original="#ffcbbe"></path></g><path fill="#e8b5b1" d="M434.919 103.107 402.197 80.51c6.479-4.306 6.563-13.792.16-18.211l-34.745-23.978c3.845-3.8 2.324-10.32-2.806-12.026l-26.245-8.725c2.075-4.806-1.508-10.145-6.743-10.069-145.886 2.114-206.542 45.758-231.543 78.374-12.198 15.914-17.058 36.258-13.52 55.995l11.048 61.627h.009a160.9 160.9 0 0 0-1.533 22.153c0 72.665 48.531 133.988 114.945 153.348A159.745 159.745 0 0 0 256 385.37c9.019 0 17.863-.751 26.474-2.19a159.024 159.024 0 0 0 18.303-4.182c66.416-19.36 114.947-80.683 114.947-153.348a160.9 160.9 0 0 0-1.533-22.153h.009l12.53-80.789c11.526 2.187 17.845-12.933 8.189-19.601zM295.845 325.722c-9.101 2.616-18.562-2.045-22.331-10.733-3.941-9.081-10.316-14.982-17.513-14.982-7.198 0-13.573 5.902-17.514 14.983-3.767 8.682-13.221 13.35-22.317 10.736-30.081-8.645-56.334-26.851-75.004-51.368-15.916-20.901-25.599-45.184-28.468-70.988a102.833 102.833 0 0 0 67.603-29.99v-.001c19.013-19.013 44.061-30.117 75.7-30.117s56.687 11.104 75.7 30.117v.001a102.829 102.829 0 0 0 67.603 29.99c-2.869 25.804-12.552 50.087-28.468 70.988-18.551 24.359-44.761 42.672-74.991 51.364z" opacity="1" data-original="#e8b5b1"></path><path fill="#d6948c" d="M168.456 301.693a145.188 145.188 0 0 1-27.291-27.335c-15.916-20.901-25.599-45.184-28.468-70.988a102.74 102.74 0 0 0 39.836-10.215c13.263-64.12 64.969-114.205 129.94-125.044l81.922-14.861c7.25-1.315 9.282-10.744 3.218-14.929 3.845-3.8 2.324-10.32-2.806-12.026l-26.245-8.725c2.075-4.806-1.508-10.145-6.743-10.069-146.378 2.121-206.95 46.053-231.795 78.703-12.1 15.901-16.748 36.255-13.223 55.923l11.001 61.37h.009a160.9 160.9 0 0 0-1.533 22.153c0 72.665 48.531 133.988 114.945 153.348a159.745 159.745 0 0 0 44.776 6.372c9.019 0 17.862-.751 26.473-2.19-49.338-8.231-91.004-39.042-114.016-81.487z" opacity="1" data-original="#d6948c"></path><path d="M187.271 235.067a7.499 7.499 0 0 0-7.5 7.5v13.206c0 4.143 3.357 7.5 7.5 7.5s7.5-3.357 7.5-7.5v-13.206a7.5 7.5 0 0 0-7.5-7.5zM317.229 242.567v13.206c0 4.143 3.357 7.5 7.5 7.5s7.5-3.357 7.5-7.5v-13.206c0-4.143-3.357-7.5-7.5-7.5s-7.5 3.358-7.5 7.5zM279.048 249.727a7.5 7.5 0 0 0-10.582.727c-3.147 3.611-7.69 5.683-12.466 5.683s-9.318-2.071-12.466-5.683a7.5 7.5 0 0 0-11.309 9.855c5.997 6.881 14.662 10.827 23.774 10.827s17.777-3.946 23.774-10.827a7.498 7.498 0 0 0-.725-10.582z" fill="#000000" opacity="1" data-original="#000000"></path><path d="M392.769 195.284c-20.999-2.582-40.804-12.245-55.766-27.208-21.442-21.441-48.696-32.313-81.003-32.313-32.308 0-59.561 10.872-81.004 32.314-14.961 14.961-34.765 24.624-55.763 27.207-8.305 1.02-14.244 8.738-12.85 17.135 4.058 24.336 13.752 46.704 28.814 66.483 19.774 25.967 47.892 45.183 79.174 54.11 12.53 3.57 25.717-2.872 30.994-15.037 5.991-13.806 15.229-13.911 21.267-.002 5.252 12.109 18.52 18.625 31.284 14.957 31.161-8.96 59.176-28.147 78.885-54.028 15.063-19.779 24.757-42.147 28.818-66.507 1.378-8.383-4.549-16.091-12.85-17.111zm-27.901 74.53c-17.768 23.33-43.017 40.626-71.094 48.699-5.54 1.591-11.135-1.333-13.381-6.511-11.292-26.016-37.518-25.973-48.787.002-2.277 5.247-7.822 8.096-13.119 6.583-28.188-8.044-53.529-25.365-71.355-48.773-13.532-17.771-22.253-37.85-25.921-59.66 24.25-3.018 47.112-14.19 64.392-31.471 18.528-18.527 42.213-27.921 70.397-27.921s51.869 9.395 70.396 27.922c17.279 17.279 40.141 28.451 64.391 31.47-3.672 21.826-12.391 41.897-25.919 59.66z" fill="#000000" opacity="1" data-original="#000000"></path><path d="M386.106 318.597a7.498 7.498 0 0 0 10.371-2.223 166.832 166.832 0 0 0 19.998-43.533c25.684-.406 46.456-21.413 46.456-47.191 0-22.822-15.875-41.709-37.417-46.182l7.686-49.556c14.906-3.648 19.35-23.741 5.98-32.977l-26.164-18.069c3.582-8.063.977-17.649-6.399-22.741l-29.565-20.403c1.24-7.192-2.918-14.229-9.88-16.544l-20.711-6.886C345.303 5.328 339.228 0 331.93 0l-.22.002C185.395 2.122 121.858 45.39 94.323 81.312c-13.02 16.984-18.969 39.44-14.951 61.883l6.526 36.403c-21.216 4.715-36.83 23.53-36.83 46.053 0 25.759 20.741 46.753 46.398 47.189 5.622 19.142 14.717 37.214 27.071 53.558 17.708 23.425 41.557 41.911 68.426 53.315-19.234 10.032-35.912 24.372-48.866 42.2a7.5 7.5 0 0 0 12.135 8.819 127.562 127.562 0 0 1 12.792-15.004c-4.632 27.896-6.949 53.842-7.302 81.273h-29.25a124.355 124.355 0 0 1 9.821-41.696 7.5 7.5 0 1 0-13.795-5.891c-7.462 17.475-11.246 36.008-11.246 55.087 0 4.143 3.357 7.5 7.5 7.5h266.496c4.143 0 7.5-3.357 7.5-7.5 0-53.114-29.829-100.742-75.725-124.782a167.46 167.46 0 0 0 56.045-38.728 7.5 7.5 0 0 0-10.864-10.344c-27.871 29.266-67.153 47.225-110.206 47.225-91.969 0-163.5-81.558-150.759-173.342.229-1.647.852 2.704-11.103-63.98-3.264-18.209 1.579-36.4 12.09-50.111 46.131-60.181 149.338-74.278 225.286-75.432-1.441 3.958.667 8.347 4.682 9.682l25.859 8.598c-3.046 3.361-2.427 8.639 1.298 11.209l34.744 23.977c2.034 1.405 2.022 4.415-.051 5.793-4.418 2.936-4.465 9.41-.11 12.417l32.721 22.598c2.702 1.864 1.277 5.191-.636 5.931h-40.772c-4.143 0-7.5 3.357-7.5 7.5s3.357 7.5 7.5 7.5h28.727c-12.126 78.18-11.429 72.767-11.214 74.32 5.088 36.665-3.084 73.106-22.877 103.696a7.5 7.5 0 0 0 2.223 10.369zM381.528 497h-29.267c-.353-27.41-2.667-53.342-7.293-81.23 21.158 21.216 34.711 49.764 36.56 81.23zm-81.112-110.131a125.336 125.336 0 0 1 26.604 13.937c6.595 33.924 9.813 64.037 10.239 96.195H174.725c.427-32.181 3.648-62.303 10.248-96.232a125.594 125.594 0 0 1 26.631-13.894 167.489 167.489 0 0 0 44.395 5.997 167.575 167.575 0 0 0 44.417-6.003zM64.068 225.65c0-15.139 10.335-27.827 24.479-31.274l1.67 9.313c-2.378 18.084-1.84 36.233 1.546 53.848-15.629-2.202-27.695-15.659-27.695-31.887zM331.925 15l.091-.002-.091.002zm116.007 210.65c0 16.248-12.095 29.716-27.752 31.895 3.365-17.365 4.047-35.342 1.592-53.946l1.439-9.281c14.286 3.345 24.721 16.047 24.721 31.332z" fill="#000000" opacity="1" data-original="#000000"></path></g></svg>