<svg xmlns="http://www.w3.org/2000/svg" version="1.1" xmlns:xlink="http://www.w3.org/1999/xlink" width="512" height="512" x="0" y="0" viewBox="0 0 512 512" style="enable-background:new 0 0 512 512" xml:space="preserve" class=""><g><path fill="#4c5659" d="M211.381 8.648C111.073 30.951 35.644 126.959 35.644 242.017c0 72.347 24.578 137.852 64.325 185.329 6.59 7.871 16.399 12.326 26.664 12.326H256V21.674c-11.673-11.673-28.505-16.61-44.619-13.026z" opacity="1" data-original="#4c5659" class=""></path><path fill="#676f72" d="M300.618 8.648c-16.115-3.584-32.946 1.354-44.619 13.027v417.998h129.367c10.265 0 20.074-4.455 26.664-12.326 39.746-47.478 64.324-112.982 64.324-185.329.001-115.06-75.428-211.067-175.736-233.37z" opacity="1" data-original="#676f72"></path><path fill="#d4d4d5" d="M353.898 466.41a101.42 101.42 0 0 0-19.56-40.589c-14.452-18.148-34.957-31.191-58.397-35.973a99.608 99.608 0 0 0-19.94-2.006h-.002c-31.643 0-59.911 14.841-78.338 37.979-13.829 17.365-22.118 39.402-22.118 63.359v15.32h200.912v-15.322a102.046 102.046 0 0 0-2.557-22.768z" opacity="1" data-original="#d4d4d5"></path><path fill="#b9bbbc" d="M247.782 496.051a272.83 272.83 0 0 1-11.712-79.108v-27.077c-23.443 4.78-43.956 17.806-58.41 35.955a101.869 101.869 0 0 0-8.912 13.211c-8.392 14.797-13.205 31.913-13.205 50.147V504.5h94.797z" opacity="1" data-original="#b9bbbc"></path><path fill="#ce857a" d="M177.661 425.82c-13.829 17.365-22.118 39.402-22.118 63.358V504.5h64.325a302.18 302.18 0 0 1-12.962-87.557v-16.151a101.441 101.441 0 0 0-29.245 25.028z" opacity="1" data-original="#ce857a"></path><path fill="#d6948c" d="M206.905 416.943v-16.151a101.453 101.453 0 0 0-29.244 25.028 102.17 102.17 0 0 0-3.523 4.694c-3.818 5.412-3.356 12.744.937 17.787l15.223 17.883-4.155 10.829c-2.984 7.779 1.106 16.478 9 19.142l24.725 8.344a302.17 302.17 0 0 1-12.963-87.556zM334.338 425.82c13.829 17.365 22.118 39.402 22.118 63.358V504.5h-64.325a302.18 302.18 0 0 0 12.962-87.557v-16.151c11.267 6.395 21.195 14.92 29.245 25.028z" opacity="1" data-original="#d6948c"></path><path fill="#e8b5b1" d="M305.093 416.943v-16.151a101.47 101.47 0 0 1 32.756 29.71c3.818 5.412 3.368 12.757-.925 17.8l-15.223 17.883 4.155 10.829c2.984 7.779-1.106 16.478-9 19.142l-24.725 8.344a302.214 302.214 0 0 0 12.962-87.557z" opacity="1" data-original="#e8b5b1"></path><path fill="#efedee" d="M305.093 400.791 256 370.979l-49.091 29.812c-.012.099 0 11.389.005 15.688.001 1.085.125 2.173.455 3.207 6.424 20.119 33.483 28.165 48.63 9.359 15.147 18.806 42.209 10.76 48.633-9.359.33-1.034.454-2.122.455-3.207.006-4.299.018-15.589.006-15.688z" opacity="1" data-original="#efedee"></path><path fill="#ffcbbe" d="M443.95 173.966H68.049c-25.056 0-45.367 20.312-45.367 45.367S42.994 264.7 68.049 264.7H443.95c25.056 0 45.367-20.312 45.367-45.367s-20.311-45.367-45.367-45.367z" opacity="1" data-original="#ffcbbe"></path><path fill="#ffddcf" d="M287.3 33.992a189.157 189.157 0 0 0-31.3-2.609c-10.666 0-21.119.902-31.3 2.609-88.902 14.905-156.651 92.205-156.651 185.342S135.798 389.77 224.7 404.675a189.138 189.138 0 0 0 62.6 0c88.902-14.905 156.65-92.205 156.65-185.341S376.201 48.897 287.3 33.992z" opacity="1" data-original="#ffddcf" class=""></path><path fill="#ffcbbe" d="M130.395 219.595c0-93.302 67.871-170.741 156.904-185.603a189.157 189.157 0 0 0-31.3-2.609c-10.666 0-21.119.902-31.3 2.609-88.901 14.905-156.65 92.205-156.65 185.342S135.798 389.77 224.7 404.675a189.138 189.138 0 0 0 62.6 0c-89.033-14.862-156.905-91.781-156.905-185.08z" opacity="1" data-original="#ffcbbe"></path><g fill="#ff8e9e"><path d="M153.599 251.255c-20.761 0-37.59 13.348-37.59 29.813 0 16.466 16.83 29.813 37.59 29.813s37.59-13.348 37.59-29.813-16.83-29.813-37.59-29.813zM358.4 251.255c-20.76 0-37.59 13.348-37.59 29.813 0 16.466 16.83 29.813 37.59 29.813 20.761 0 37.59-13.348 37.59-29.813s-16.829-29.813-37.59-29.813z" fill="#ff8e9e" opacity="1" data-original="#ff8e9e"></path></g><path fill="#676f72" d="M447.864 171.627c-18.946-76.422-81.34-134.21-158.958-147.222-10.858-1.82-21.882-2.73-32.907-2.73s-22.049.91-32.907 2.73C145.475 37.418 83.08 95.205 64.134 171.627l9.436 2.339a188.314 188.314 0 0 0-5.522 45.366c31.134-.023 61.595-6.439 89.783-18.748a225.935 225.935 0 0 0 34.506-18.793c25.667-17.024 47.243-38.77 63.661-63.959 16.418 25.189 37.994 46.934 63.661 63.959 36.981 24.529 79.956 37.507 124.289 37.539 0-15.643-1.92-30.836-5.522-45.365z" opacity="1" data-original="#676f72"></path><path fill="#4c5659" d="M223.093 24.405c-77.617 13.013-140.012 70.8-158.958 147.222l9.436 2.339a188.314 188.314 0 0 0-5.522 45.366c31.134-.023 61.595-6.439 89.783-18.748 14.453-65.565 47.171-127.914 98.167-178.91-11.024 0-22.049.91-32.906 2.731z" opacity="1" data-original="#4c5659" class=""></path><path d="M475.822 177.188c-10.885-43.043-32.497-82.092-62.624-113.074C369.156 18.822 312.636 0 290.176 0c-12.329 0-24.448 4.205-34.177 11.71C246.271 4.205 234.152 0 221.823 0 200.933 0 132.86 19.188 82.77 82.366a7.5 7.5 0 1 0 11.754 9.318C141.063 32.984 204.628 15 221.823 15c10.738 0 21.262 4.365 28.873 11.978a7.503 7.503 0 0 0 10.607 0c9.383-9.384 23.532-14.158 37.688-11.009 73.862 16.423 134.77 75.418 158.749 152.334-7.707-2.085-12.874-1.836-19.312-1.836-4.872 0-8.451 4.582-7.279 9.305 2.908 11.729 4.611 23.779 5.121 35.917-72.739-2.601-137.026-41.242-173.987-97.951-2.955-4.533-9.609-4.536-12.566 0-36.951 56.693-101.27 95.372-173.987 97.94.511-12.134 2.214-24.18 5.121-35.906 1.174-4.729-2.414-9.305-7.279-9.305-6.379 0-11.573-.257-19.314 1.837 5.77-18.579 13.708-36.278 23.703-52.779a7.5 7.5 0 0 0-12.83-7.772c-12.996 21.455-22.722 44.803-28.948 69.431-24.509 18.576-28.17 53.948-7.776 77.071 2.528 67.069 25.834 130.152 65.813 177.906 7.987 9.54 19.802 15.011 32.414 15.011h29.846c-5.504 13.239-8.435 27.536-8.435 42.007V504.5c0 4.143 3.357 7.5 7.5 7.5h200.912c4.143 0 7.5-3.357 7.5-7.5 0-17.641 1.113-34.362-8.435-57.328h29.846c12.612 0 24.427-5.471 32.415-15.011a260.241 260.241 0 0 0 11.326-14.556 7.5 7.5 0 0 0-12.157-8.787 246.165 246.165 0 0 1-10.671 13.714c-5.13 6.126-12.753 9.64-20.914 9.64h-37.463a108.637 108.637 0 0 0-25.697-28.898c24.636-8.857 47.325-22.644 66.811-40.752 26.509-24.635 45.5-55.767 55.182-90.327a52.533 52.533 0 0 0 23.663-5.733c-3.362 42.158-15.418 82.609-35.227 117.82a7.5 7.5 0 0 0 13.072 7.356c22.969-40.826 36.041-88.275 37.894-137.39 20.365-23.103 16.75-58.465-7.78-77.06zM30.181 219.334c0-19.576 14.934-35.73 34.006-37.672-2.417 12.371-3.639 25.002-3.639 37.672s1.222 25.301 3.639 37.672c-19.072-1.942-34.006-18.096-34.006-37.672zm96.451 212.838c-8.161 0-15.784-3.514-20.913-9.64-35.313-42.181-56.889-97.119-61.577-156.068a52.528 52.528 0 0 0 23.659 5.731c9.681 34.56 28.672 65.69 55.181 90.327 19.486 18.108 42.175 31.895 66.811 40.752a108.398 108.398 0 0 0-25.698 28.898zM163.043 497c0-9.853-.728-24.562 6.844-43.223l11.813 13.878c-2.31 6.023-8.626 17.834 1.579 29.345zm30.308-11.687c-1.671-3.552-.327-5.297 3.948-16.441a7.5 7.5 0 0 0-1.291-7.548l-15.222-17.883c-2.082-2.446-2.314-5.893-.606-8.453 5.304-7.514 11.568-14.255 19.226-20.202 0 26.026 2.592 50.971 9.45 78.083-11.631-3.926-13.828-3.988-15.505-7.556zM286.51 497h-61.021a294.473 294.473 0 0 1-10.042-55.423c12.482 7.849 28.462 7.654 40.552-1.995 12.178 9.718 28.173 9.781 40.551 1.997A294.412 294.412 0 0 1 286.51 497zm11.079-79.562-.101-.032c-4.606 14.427-24.265 21.067-35.647 6.936-2.999-3.723-8.679-3.728-11.682 0-11.379 14.126-31.037 7.497-35.645-6.936l-.104.033s-.004.246-.004-7.113a196.22 196.22 0 0 0 83.188 0c-.001 7.358-.005 7.112-.005 7.112zm44.523 36.339c7.507 18.502 6.844 33.05 6.844 43.223H328.72c5.36-6.046 7.213-14.66 4.138-22.673l-2.56-6.672zm-10.322-18.831c1.735 2.57 1.511 6.04-.578 8.494l-15.223 17.883a7.5 7.5 0 0 0-1.291 7.548l4.155 10.829a7.156 7.156 0 0 1-4.396 9.35l-11.314 3.818c6.833-27.013 9.45-51.946 9.45-78.083 8.551 6.641 14.461 13.442 19.197 20.161zm-45.73-37.668a182.366 182.366 0 0 1-60.12 0C142.509 383.29 79.198 312.83 75.715 226.688c74.19-2.447 140.137-40.086 180.284-95.611 40.342 55.793 106.376 93.149 180.284 95.617-3.483 86.153-66.807 156.598-150.223 170.584zm161.752-140.272c2.417-12.371 3.639-25.002 3.639-37.672s-1.222-25.301-3.639-37.672c19.072 1.941 34.006 18.096 34.006 37.672s-14.934 35.73-34.006 37.672z" fill="#000000" opacity="1" data-original="#000000"></path><path d="M175.053 229.333a7.499 7.499 0 0 0-7.5 7.5v15.554c0 4.143 3.357 7.5 7.5 7.5s7.5-3.357 7.5-7.5v-15.554c0-4.143-3.357-7.5-7.5-7.5zM336.946 259.887c4.143 0 7.5-3.357 7.5-7.5v-15.554c0-4.143-3.357-7.5-7.5-7.5s-7.5 3.357-7.5 7.5v15.554a7.5 7.5 0 0 0 7.5 7.5zM271.686 246.996c-3.96 4.544-9.677 7.15-15.687 7.15s-11.727-2.606-15.687-7.15a7.501 7.501 0 0 0-11.309 9.855c6.809 7.813 16.648 12.295 26.995 12.295s20.187-4.481 26.995-12.295a7.5 7.5 0 0 0-11.307-9.855z" fill="#000000" opacity="1" data-original="#000000"></path></g></svg>