<svg xmlns="http://www.w3.org/2000/svg" version="1.1" xmlns:xlink="http://www.w3.org/1999/xlink" width="512" height="512" x="0" y="0" viewBox="0 0 512 512" style="enable-background:new 0 0 512 512" xml:space="preserve"><g><path fill="#ffce71" d="M94.403 123.027c-2.894 0-5.7.99-7.953 2.805h-.006c-11.547 30.085-38.651 49.615-68.612 52.943-6.217.69-10.707 6.225-10.308 12.468v23.451c6.171 96.433 86.339 172.737 184.33 172.737h64.139V123.027z" opacity="1" data-original="#ffce71"></path><path fill="#fce3a0" d="M494.114 186.517c-35.127-3.948-64.701-28.992-74.192-63.49H255.995v264.405h71.952c93.702 0 170.391-72.843 176.528-164.991V198.99c.416-6.261-4.126-11.773-10.361-12.473z" opacity="1" data-original="#fce3a0"></path><path fill="#ffb5c0" d="M326.861 420.778c-13.074-16.416-31.623-28.215-52.827-32.542a90.16 90.16 0 0 0-18.04-1.815c-28.625 0-54.197 13.425-70.866 34.357-12.51 15.709-20.008 35.644-20.008 57.315v13.86h181.748v-13.86c.001-21.672-7.497-41.607-20.007-57.315z" opacity="1" data-original="#ffb5c0"></path><path fill="#ff8e9e" d="M274.033 388.236a90.16 90.16 0 0 0-18.04-1.815c-28.625 0-54.197 13.425-70.866 34.356-12.51 15.709-20.008 35.644-20.008 57.315v13.86h36.109v-13.86c.001-44.247 31.338-81.383 72.805-89.856z" opacity="1" data-original="#ff8e9e"></path><path fill="#ffbf9d" d="M426.017 192.946H85.971c-22.666 0-41.04 18.374-41.04 41.04s18.374 41.04 41.04 41.04h340.047c22.666 0 41.04-18.374 41.04-41.04s-18.375-41.04-41.041-41.04z" opacity="1" data-original="#ffbf9d"></path><path fill="#ffd4bd" d="M284.309 66.323a171.117 171.117 0 0 0-56.629 0c-80.422 13.483-141.709 83.41-141.709 167.663s61.287 154.18 141.709 167.663c9.21 1.544 18.666 2.36 28.314 2.36s19.105-.816 28.315-2.36c80.422-13.483 141.708-83.41 141.708-167.663S364.731 79.807 284.309 66.323z" opacity="1" data-original="#ffd4bd"></path><path fill="#ffbf9d" d="M142.371 234.223c0-84.402 61.398-154.455 141.938-167.899a171.117 171.117 0 0 0-56.629 0c-80.422 13.483-141.709 83.41-141.709 167.663s61.287 154.18 141.709 167.663c9.21 1.544 18.666 2.36 28.314 2.36s19.105-.816 28.315-2.36c-80.541-13.445-141.938-83.027-141.938-167.427z" opacity="1" data-original="#ffbf9d"></path><g fill="#ff8e9e"><ellipse cx="163.361" cy="289.832" rx="34.005" ry="26.969" fill="#ff8e9e" opacity="1" data-original="#ff8e9e"></ellipse><path d="M348.627 262.863c-18.78 0-34.004 12.074-34.004 26.969s15.224 26.969 34.004 26.969 34.005-12.074 34.005-26.969c0-14.894-15.224-26.969-34.005-26.969z" fill="#ff8e9e" opacity="1" data-original="#ff8e9e"></path></g><path fill="#fce3a0" d="M344.892 33.575a140.287 140.287 0 0 0-28.007-9.817c-52.954-12.461-109.6 6.892-143.595 51.649-30.102-4.615-60.215 8.254-77.684 33.199-14.795 21.126-18.346 47.811-10.202 71.712a80.115 80.115 0 0 0 5.563 12.641c20.072 0 37.212-7.741 49.735-20.262l33.121-33.121a52.25 52.25 0 0 1 36.947-15.304 234.37 234.37 0 0 0 37.347 30.344 234.505 234.505 0 0 0 128.48 38.344l44.438-.013c15.459-64.179-16.018-130.847-76.143-159.372z" opacity="1" data-original="#fce3a0"></path><path fill="#ffce71" d="M244.819 75.703c13.121-28.786 40.733-49.209 72.066-51.946-52.954-12.46-109.6 6.893-143.595 51.65-30.102-4.615-60.215 8.254-77.684 33.199-14.795 21.126-18.346 47.811-10.202 71.712a80.115 80.115 0 0 0 5.563 12.641c20.072 0 37.212-7.741 49.735-20.262l33.121-33.121a52.25 52.25 0 0 1 36.947-15.304 234.37 234.37 0 0 0 37.347 30.344c-13.476-24.029-14.954-53.341-3.298-78.913z" opacity="1" data-original="#ffce71"></path><path d="M494.952 179.064c-32.492-3.651-59.104-26.428-67.799-58.026a6.51 6.51 0 0 0-.093-.31c-17.824-64.232-76.223-108.18-142.158-108.18-22.367 0-44.814 5.191-64.914 15.012-19.266 9.412-36.463 23.146-49.977 39.872-39.175-3.984-76.211 18.71-90.456 55.434a8.608 8.608 0 0 0-.113.28c-10.198 26.57-34.123 45.03-62.438 48.177C7.311 172.399 0 180.631 0 190.471c0 0 .025-.841.025 24.224 0 .16.005.319.016.479 5.585 87.284 65.534 131.681 66.219 133.051 32.157 27.778 71.46 43.771 113.766 46.333a175.29 175.29 0 0 0 14.572 6.103 99.513 99.513 0 0 0-11.823 11.271 7.5 7.5 0 0 0 11.205 9.973 84.004 84.004 0 0 1 18.7-15.694 179.079 179.079 0 0 0 43.314 5.3c14.809 0 29.32-1.818 43.289-5.297 23.875 14.697 40.086 41.172 40.086 71.879v6.36H318.26v-6.36c0-3.574-.192-7.177-.571-10.705-.442-4.118-4.137-7.103-8.258-6.656a7.5 7.5 0 0 0-6.656 8.258c.322 2.999.485 6.062.485 9.104v6.36h-94.531v-6.36c0-3.033.163-6.097.485-9.105a7.5 7.5 0 0 0-6.658-8.256 7.493 7.493 0 0 0-8.256 6.658 100.87 100.87 0 0 0-.571 10.703v6.36H172.62v-6.359c.001-11.453 2.251-22.561 6.687-33.014a7.5 7.5 0 1 0-13.809-5.859c-5.227 12.316-7.877 25.396-7.878 38.872v13.86c0 4.143 3.357 7.5 7.5 7.5h181.749c4.143 0 7.5-3.357 7.5-7.5v-13.86c0-29.132-12.895-57.986-37.01-77.427a175.347 175.347 0 0 0 13.906-5.79c27.186-.475 53.282-6.719 77.589-18.603a7.5 7.5 0 1 0-6.588-13.476c-12.945 6.329-26.444 10.917-40.373 13.743 30.998-23.141 54.168-56.286 64.94-94.032 26.388-.439 47.724-22.028 47.724-48.519 0-26.765-21.775-48.54-48.54-48.54l-49.42.013c-44.286 0-87.293-12.835-124.371-37.118a227.516 227.516 0 0 1-36.153-29.373 7.495 7.495 0 0 0-5.303-2.197c-15.96 0-30.965 6.215-42.251 17.5L135.4 167.393c-11.495 11.493-26.672 18.054-44.438 18.054h-4.991c-26.765 0-48.54 21.775-48.54 48.54 0 26.487 21.329 48.074 47.712 48.519 10.167 35.651 31.73 68.185 61.946 91.757C78.007 356.4 20.292 295.09 15.025 214.452c0-24.819-.025-23.981-.025-23.981 0-2.186 1.574-4.009 3.661-4.241 33.813-3.757 62.402-25.754 74.679-57.433.039-.091.076-.184.112-.277 12.269-31.954 45.124-50.849 78.701-45.699a7.512 7.512 0 0 0 7.109-2.877c24.919-32.808 64.41-52.396 105.64-52.396 59.037 0 111.784 39.332 127.781 97.469.029.106.061.21.094.314 5.077 18.21 15.363 34.319 29.76 46.603 14.424 12.307 31.97 19.927 50.74 22.036 2.212.248 3.868 2.215 3.713 4.526-.026.397-.017 23.292-.017 23.692-3.429 50.366-28.967 96.231-70.093 125.863a7.499 7.499 0 0 0-1.701 10.469 7.497 7.497 0 0 0 10.469 1.701c44.836-32.304 72.649-82.341 76.309-137.283a7.53 7.53 0 0 0 .017-.498c0-25.09.026-24.248.026-24.248 0-9.814-7.329-18.037-17.048-19.128zm-35.394 54.923c0 16.984-12.692 31.051-29.089 33.236 4.139-21.696 4.193-44.195-.067-66.48 16.429 2.155 29.156 16.236 29.156 33.244zm-407.127 0c0-17.007 12.727-31.088 29.156-33.244-4.261 22.286-4.21 44.785-.076 66.479-16.393-2.19-29.08-16.254-29.08-33.235zm44.565-33.772c18.696-1.378 35.921-9.129 49.011-22.216l33.12-33.12c7.746-7.747 17.833-12.304 28.666-13.011a242.582 242.582 0 0 0 36.215 29.021c39.528 25.887 85.377 39.569 132.592 39.569l38.438-.01c21.22 100.602-55.437 196.061-159.043 196.061-103.586.001-180.418-95.492-158.999-196.294z" fill="#000000" opacity="1" data-original="#000000"></path><path d="M190.269 263.887v-14.07c0-4.143-3.357-7.5-7.5-7.5s-7.5 3.357-7.5 7.5v14.07c0 4.143 3.357 7.5 7.5 7.5s7.5-3.357 7.5-7.5zM329.22 271.387c4.143 0 7.5-3.357 7.5-7.5v-14.07c0-4.143-3.357-7.5-7.5-7.5s-7.5 3.357-7.5 7.5v14.07c0 4.143 3.357 7.5 7.5 7.5zM255.994 279.763a33.11 33.11 0 0 0 24.96-11.367c2.722-3.123 2.396-7.86-.727-10.582s-7.86-2.396-10.582.727c-3.446 3.955-8.422 6.223-13.651 6.223s-10.205-2.268-13.651-6.223a7.501 7.501 0 0 0-11.309 9.855 33.11 33.11 0 0 0 24.96 11.367z" fill="#000000" opacity="1" data-original="#000000"></path></g></svg>