<svg xmlns="http://www.w3.org/2000/svg" version="1.1" xmlns:xlink="http://www.w3.org/1999/xlink" width="512" height="512" x="0" y="0" viewBox="0 0 512 512" style="enable-background:new 0 0 512 512" xml:space="preserve"><g><circle cx="411.313" cy="209.412" r="93.188" fill="#ce857a" opacity="1" data-original="#ce857a"></circle><path fill="#b0ebd8" d="M306.243 407.342c-13.853-17.395-33.509-29.898-55.978-34.483a95.54 95.54 0 0 0-19.116-1.923c-30.332 0-57.429 14.225-75.092 36.405-13.256 16.646-21.201 37.769-21.201 60.733v14.687h192.588v-14.687c0-7.502-.848-14.808-2.452-21.825a97.245 97.245 0 0 0-18.749-38.907z" opacity="1" data-original="#b0ebd8"></path><path fill="#5fd9b3" d="M250.265 372.859a95.532 95.532 0 0 0-19.116-1.923c-30.332 0-57.429 14.225-75.092 36.405a97.237 97.237 0 0 0-18.749 38.908 97.853 97.853 0 0 0-2.452 21.825v14.687h38.262v-14.687c.001-46.885 33.207-86.236 77.147-95.215z" opacity="1" data-original="#5fd9b3"></path><path fill="#ffbd86" d="M155.905 407.534a97.225 97.225 0 0 0-18.597 38.716 97.853 97.853 0 0 0-2.452 21.825v14.687h38.262v-33.328a59.632 59.632 0 0 0-17.213-41.9z" opacity="1" data-original="#ffbd86"></path><path fill="#fed2a4" d="M306.395 407.534a59.636 59.636 0 0 0-17.213 41.9v33.328h38.262v-14.687a97.86 97.86 0 0 0-2.452-21.825 97.225 97.225 0 0 0-18.597-38.716z" opacity="1" data-original="#fed2a4"></path><path fill="#ffbd86" d="M411.313 165.924H50.987c-24.017 0-43.487 19.47-43.487 43.488S26.97 252.9 50.987 252.9h360.325c24.017 0 43.487-19.47 43.487-43.488s-19.469-43.488-43.486-43.488z" opacity="1" data-original="#ffbd86"></path><path fill="#fed2a4" d="M261.153 31.75a181.346 181.346 0 0 0-30.003-2.501c-10.224 0-20.244.865-30.003 2.501-85.218 14.287-150.16 88.384-150.16 177.661s64.942 163.375 150.16 177.661c9.759 1.636 19.779 2.501 30.003 2.501s20.245-.865 30.003-2.501c85.218-14.287 150.159-88.384 150.159-177.661S346.371 46.037 261.153 31.75z" opacity="1" data-original="#fed2a4"></path><path fill="#ffbd86" d="M110.751 209.662c0-89.436 65.059-163.666 150.403-177.912a181.346 181.346 0 0 0-30.003-2.501c-10.224 0-20.244.865-30.003 2.501-85.218 14.287-150.16 88.384-150.16 177.661s64.942 163.375 150.16 177.661c9.759 1.636 19.779 2.501 30.003 2.501s20.245-.865 30.003-2.501c-85.344-14.245-150.403-87.977-150.403-177.41z" opacity="1" data-original="#ffbd86"></path><g fill="#ff8e9e"><path d="M132.992 240.01c-19.9 0-36.032 12.794-36.032 28.577s16.132 28.578 36.032 28.578 36.032-12.794 36.032-28.578c.001-15.782-16.131-28.577-36.032-28.577zM329.308 240.01c-19.9 0-36.033 12.794-36.033 28.577s16.132 28.578 36.033 28.578c19.9 0 36.032-12.794 36.032-28.578 0-15.782-16.132-28.577-36.032-28.577z" fill="#ff8e9e" opacity="1" data-original="#ff8e9e"></path></g><path fill="#d6948c" d="M258.576 112.736c34.161 46.415 92.578 66.846 147.444 53.188v-.001C388.916 96.933 332.057 43.637 261.153 31.75c-9.759-1.636-19.779-2.501-30.003-2.501s-20.244.865-30.003 2.501c-85.218 14.288-150.16 88.384-150.16 177.662 0 14.996 1.84 29.56 5.293 43.488 80.163-26.382 150.208-75.373 202.296-140.164z" opacity="1" data-original="#d6948c"></path><path fill="#ce857a" d="M261.153 31.75c-9.759-1.636-19.779-2.501-30.003-2.501s-20.244.865-30.002 2.501c-85.218 14.288-150.16 88.384-150.16 177.662 0 14.996 1.84 29.56 5.293 43.487a432.896 432.896 0 0 0 55.628-22.692 182.35 182.35 0 0 1-1.158-20.544C110.75 120.227 175.81 45.996 261.153 31.75z" opacity="1" data-original="#ce857a"></path><path d="M146.058 226.185v14.91c0 4.143 3.357 7.5 7.5 7.5s7.5-3.357 7.5-7.5v-14.91c0-4.143-3.357-7.5-7.5-7.5s-7.5 3.357-7.5 7.5zM301.242 226.185v14.91c0 4.143 3.357 7.5 7.5 7.5s7.5-3.357 7.5-7.5v-14.91c0-4.143-3.357-7.5-7.5-7.5s-7.5 3.357-7.5 7.5zM256.534 234.998a7.5 7.5 0 0 0-10.582.727 19.634 19.634 0 0 1-14.802 6.747 19.636 19.636 0 0 1-14.803-6.747 7.501 7.501 0 0 0-11.309 9.855c6.586 7.558 16.104 11.892 26.111 11.892s19.524-4.334 26.11-11.892a7.5 7.5 0 0 0-.725-10.582z" fill="#000000" opacity="1" data-original="#000000"></path><path d="M390.833 110.827c-39.617-64.176-114.575-99.283-190.925-86.473-70.594 11.835-129.447 63.569-149.35 134.081C22.642 158.668 0 181.441 0 209.412s22.642 50.744 50.558 50.977c16.758 59.369 60.981 105.214 116.535 125.424a104.784 104.784 0 0 0-16.904 16.857 105.274 105.274 0 0 0-12.952 20.871 7.501 7.501 0 0 0 13.584 6.364 89.923 89.923 0 0 1 5.552-10.089c6 8.65 9.245 18.894 9.245 29.619v25.827h-23.262v-7.185a91.6 91.6 0 0 1 .754-11.708 7.5 7.5 0 0 0-6.473-8.402c-4.097-.541-7.87 2.363-8.402 6.473a106.544 106.544 0 0 0-.879 13.636v14.687c0 4.143 3.357 7.5 7.5 7.5h192.587c4.143 0 7.5-3.357 7.5-7.5v-14.687c0-24.743-8.617-47.551-22.834-65.405a104.588 104.588 0 0 0-16.907-16.855c17.899-6.51 34.819-15.743 49.996-27.372a7.5 7.5 0 0 0 1.392-10.515 7.498 7.498 0 0 0-10.515-1.392c-22.265 17.06-48.601 28.52-76.162 33.141a174.518 174.518 0 0 1-57.525 0c-67.274-11.281-119.18-59.923-137.084-121.916 75.369-26.136 141.854-71.94 193.152-133.063 33.663 39.992 87.61 60.727 141.92 50.143 10.975 54.447-4.408 111.067-43.025 152.4a7.501 7.501 0 0 0 10.961 10.241 188.303 188.303 0 0 0 22.539-29.481C453.71 320.991 512 272.747 512 209.412c0-63.409-58.366-111.578-121.167-98.585zm-70.89 357.248v7.187h-23.262v-25.827c0-10.725 3.244-20.967 9.243-29.616 9.065 14.289 14.019 30.815 14.019 48.256zm-42.93-76.692a89.036 89.036 0 0 1 19.435 16.058c-9.563 11.884-14.766 26.554-14.766 41.993v25.827H180.618v-25.827c0-15.439-5.203-30.11-14.767-41.994a89.016 89.016 0 0 1 19.411-16.049 187.83 187.83 0 0 0 91.751-.008zM15 209.412c0-18.474 13.994-33.734 31.938-35.753-2.274 11.712-3.45 23.681-3.45 35.753s1.176 24.042 3.45 35.753C28.994 243.145 15 227.886 15 209.412zm249.616-101.121c-2.921-3.969-8.808-4.08-11.886-.254-49.988 62.179-115.884 108.751-190.973 135.076a174.853 174.853 0 0 1-3.271-33.701c0-84.363 60.219-156.235 143.9-170.265 85.859-14.398 169.61 36.869 194.382 121.12-51.734 9.782-102.732-12.004-132.152-51.976zm150.746 65.367c17.943 2.02 31.938 17.279 31.938 35.753 0 18.461-13.975 33.712-31.9 35.749a187.968 187.968 0 0 0-.038-71.502zm-16.724 120.495a186.327 186.327 0 0 0 13.151-33.766c27.895-.258 50.511-23.021 50.511-50.975 0-27.97-22.642-50.744-50.558-50.977a187.781 187.781 0 0 0-13.155-33.757c52.154-7.78 98.413 32.785 98.413 84.734 0 51.892-46.182 92.488-98.362 84.741z" fill="#000000" opacity="1" data-original="#000000"></path></g></svg>