<svg xmlns="http://www.w3.org/2000/svg" version="1.1" xmlns:xlink="http://www.w3.org/1999/xlink" width="512" height="512" x="0" y="0" viewBox="0 0 512 512" style="enable-background:new 0 0 512 512" xml:space="preserve"><g><path fill="#ffb357" d="M477.127 409.661c-15.927-15.927-15.927-41.75 0-57.678l10.116-10.116c10.991-10.991 10.991-28.811 0-39.802-5.278-5.278-8.243-10.779-8.243-18.243v-72.998c0-5.234-.168-10.428-.499-15.578-5.262-81.964-74.059-145.404-156.191-145.404h-69.598L33 230.824v52.998c0 7.464-2.965 12.965-8.243 18.243-10.991 10.991-10.991 28.811 0 39.802l10.116 10.116c15.927 15.927 15.927 41.751 0 57.678s-15.927 41.75 0 57.678a126.875 126.875 0 0 0 89.714 37.161h262.825c33.65 0 65.921-13.367 89.715-37.161 15.927-15.928 15.927-41.751 0-57.678z" opacity="1" data-original="#ffb357"></path><path fill="#fc8a3d" d="M33 230.824v52.998c0 7.464-2.965 12.965-8.243 18.243-10.991 10.991-10.991 28.811 0 39.802l10.116 10.116c15.927 15.927 15.927 41.751 0 57.678s-15.927 41.751 0 57.678a126.875 126.875 0 0 0 89.715 37.161h128.124V230.824z" opacity="1" data-original="#fc8a3d"></path><path fill="#64b3fb" d="M255.999 394.5c-52.383 0-94.999 42.99-94.999 95.833V504.5h190v-14.167c0-52.843-42.617-95.833-95.001-95.833z" opacity="1" data-original="#64b3fb"></path><path fill="#53a3ec" d="M161 490.333V504.5h37.748v-14.167c0-17.358 4.599-33.652 12.632-47.709h-37.749C165.599 456.681 161 472.975 161 490.333z" opacity="1" data-original="#53a3ec"></path><circle cx="427" cy="230.501" r="45" fill="#ffbf9d" opacity="1" data-original="#ffbf9d"></circle><path fill="#ffd4bd" d="M255.999 394.5c-35.176 0-65.948 19.387-82.368 48.125l43.634 24.146a80.003 80.003 0 0 0 77.471 0l43.634-24.146c-16.694-29.215-47.745-48.125-82.371-48.125z" opacity="1" data-original="#ffd4bd"></path><path fill="#ffbf9d" d="M274.866 396.404a94.26 94.26 0 0 0-18.867-1.904c-35.176 0-65.948 19.387-82.368 48.125l30.214 16.72c10.812-31.833 37.8-56.156 71.021-62.941z" opacity="1" data-original="#ffbf9d"></path><path fill="#b9f0ff" d="m434.867 275.79-3.451-.505-17.923 19.842.065 24.882 6.922 3.353c16.728 8.1 35.816-4.063 36.353-22.034.382-12.791-9.305-23.685-21.966-25.538z" opacity="1" data-original="#b9f0ff"></path><path fill="#ffd4bd" d="M306.74 404.279C382.004 382.34 437 312.847 437 230.501c0-89.738-65.304-164.223-150.982-178.524a182.216 182.216 0 0 0-30.02-2.478C156.038 49.5 75 130.536 75 230.501c0 82.346 54.996 151.838 130.258 173.778 16.101 4.694 33.125 7.221 50.741 7.221a181.88 181.88 0 0 0 30.02-2.485 180.291 180.291 0 0 0 20.721-4.736z" opacity="1" data-original="#ffd4bd"></path><path fill="#ffbf9d" d="M135 230.501c0-89.743 65.336-164.229 151.018-178.524a182.443 182.443 0 0 0-30.02-2.478C156.038 49.5 75 130.536 75 230.501 75 330.463 156.038 411.5 255.998 411.5c10.222 0 20.26-.857 30.02-2.485C200.336 394.72 135 320.242 135 230.501z" opacity="1" data-original="#ffbf9d"></path><path fill="#ffb357" d="m274.802 41.519 18.125 55.174c20.869 57.49 77.551 93.973 138.522 89.161v-83.806z" opacity="1" data-original="#ffb357"></path><g fill="#ff8e9e"><ellipse cx="177" cy="295.126" rx="29" ry="23" fill="#ff8e9e" opacity="1" data-original="#ff8e9e"></ellipse><ellipse cx="335" cy="295.126" rx="29" ry="23" fill="#ff8e9e" opacity="1" data-original="#ff8e9e"></ellipse></g><path fill="#ffb357" d="M298.87 11.625a222.773 222.773 0 0 0-26.753-3.55 226.037 226.037 0 0 0-17.697-.57C131.597 8.357 33 109.397 33 232.223V283.5h82.998c3.777 0 7.532-.094 11.263-.281a222.653 222.653 0 0 0 51.253-8.615C271.242 247.573 339 161.955 339 60.502v-.392c-.042-23.626-16.941-43.962-40.13-48.485z" opacity="1" data-original="#ffb357"></path><path fill="#fc8a3d" d="M272.117 8.075a226.526 226.526 0 0 0-17.697-.57C131.597 8.357 33 109.397 33 232.223V283.5h82.998c3.778 0 7.532-.094 11.263-.281-16.831-27.481-26.537-59.804-26.537-94.391 0-96.736 75.907-175.75 171.393-180.753z" opacity="1" data-original="#fc8a3d"></path><path d="m482.431 357.286 10.115-10.116c13.929-13.926 13.934-36.476.001-50.408-4.295-4.295-6.047-8.044-6.047-12.94v-72.998c0-49.396-16.887-88.774-46.581-119.076-25.716-26.241-59.584-43.141-95.858-47.96-6.058-20.174-22.714-35.42-43.755-39.524-15.037-2.933-30.499-4.36-45.938-4.259C193.315.429 135.93 24.715 92.78 68.39 47.988 113.727 25.5 172.724 25.5 232.223v51.599c0 4.896-1.752 8.646-6.046 12.94-13.931 13.93-13.932 36.476-.001 50.408l10.116 10.116c13.01 13.009 13.01 34.062 0 47.072-18.87 18.871-18.871 49.412 0 68.284C54.95 498.022 88.694 512 124.588 512H351a7.5 7.5 0 0 0 7.5-7.5v-14.167c0-32.422-15.04-62.534-40.107-81.934 39.33-13.841 74.565-41.13 97.934-78.713 21.781 11.378 48.018-4.525 48.018-29.133 0-9.754-4.278-18.523-11.051-24.544a52.224 52.224 0 0 0 18.207-17.531v25.343c0 8.942 3.317 16.424 10.44 23.547 8.067 8.069 8.068 21.125-.001 29.195l-10.115 10.116c-18.873 18.872-18.873 49.413 0 68.285 13.006 13.007 13.009 34.062-.001 47.071C449.276 484.582 419.299 497 387.412 497H381c-4.143 0-7.5 3.358-7.5 7.5s3.357 7.5 7.5 7.5h6.412c35.894 0 69.638-13.978 95.019-39.358 18.87-18.871 18.871-49.412 0-68.284-13.01-13.01-13.011-34.062 0-47.072zM343.5 490.333V497h-175v-6.667a88.805 88.805 0 0 1 8.244-37.414l36.889 20.414c13.265 7.34 27.816 11.011 42.367 11.011s29.103-3.67 42.367-11.011l36.889-20.414a88.805 88.805 0 0 1 8.244 37.414zm-15.69-50.437-36.707 20.313c-21.98 12.163-48.227 12.163-70.207 0l-36.707-20.313a88.142 88.142 0 0 1 28.066-26.035A189.186 189.186 0 0 0 255.997 419c14.769 0 29.465-1.743 43.745-5.14a88.12 88.12 0 0 1 28.068 26.036zm-23.171-42.817c-31.404 9.159-65.623 9.232-97.283 0C154.355 381.629 112.393 342.352 93.35 291h22.647c91.046 0 171.895-53.148 209.231-133.638 27.539 24.601 63.272 37.582 100.355 36.309 19.443 90.073-35.229 178.422-120.944 203.408zm119.11-80.468a185.501 185.501 0 0 0 13.222-33.039c7.17 2.316 12.373 9.05 12.373 16.981.001 13.116-13.762 21.788-25.595 16.058zm17.595-51.432a191.047 191.047 0 0 0-.037-69.369c30.881 12.622 30.859 56.739.037 69.369zm-11.605-86.755c-36.575 2.565-72.065-10.397-98.304-35.78a229.411 229.411 0 0 0 14.088-60.88 7.499 7.499 0 0 0-6.785-8.152 7.497 7.497 0 0 0-8.152 6.785C320.832 186.944 230.605 276 115.998 276H62.892c-4.143 0-7.5 3.358-7.5 7.5s3.357 7.5 7.5 7.5h14.543c18.162 53.555 60.297 97.767 116.178 117.395-25.071 19.399-40.113 49.513-40.113 81.938V497h-28.912c-31.887 0-61.864-12.417-84.411-34.964-13.008-13.007-13.01-34.062 0-47.071 18.872-18.873 18.871-49.413 0-68.285L30.06 336.564c-8.067-8.069-8.068-21.125.001-29.195 7.122-7.123 10.439-14.604 10.439-23.547v-51.599c0-117.841 95.353-216.395 213.972-217.218a215.439 215.439 0 0 1 42.963 3.981c16.87 3.29 29.925 16.281 33.26 33.096a7.513 7.513 0 0 0 6.627 6.011c71.172 7.117 131.094 63.599 134.018 144.188-13.359-21.046-36.847-24.971-41.601-23.857z" fill="#000000" opacity="1" data-original="#000000"></path><path d="M318.448 253.5a7.5 7.5 0 0 0-7.5 7.5v12c0 4.142 3.357 7.5 7.5 7.5s7.5-3.358 7.5-7.5v-12a7.5 7.5 0 0 0-7.5-7.5zM277.39 266.988a7.498 7.498 0 0 0-10.581.727c-2.729 3.132-6.669 4.928-10.81 4.928s-8.08-1.796-10.81-4.928a7.5 7.5 0 0 0-11.309 9.855c5.578 6.402 13.641 10.074 22.118 10.074s16.54-3.672 22.118-10.074a7.497 7.497 0 0 0-.726-10.582z" fill="#000000" opacity="1" data-original="#000000"></path></g></svg>