<svg xmlns="http://www.w3.org/2000/svg" version="1.1" xmlns:xlink="http://www.w3.org/1999/xlink" width="512" height="512" x="0" y="0" viewBox="0 0 512 512" style="enable-background:new 0 0 512 512" xml:space="preserve" class=""><g><path fill="#82888b" d="M354.546 408.766c-13.983-17.559-33.824-30.179-56.504-34.807a96.426 96.426 0 0 0-19.296-1.941c-30.617 0-57.968 14.359-75.798 36.748-13.38 16.802-21.4 38.124-21.4 61.304v14.825h194.398V470.07c.001-23.18-8.019-44.502-21.4-61.304z" opacity="1" data-original="#82888b"></path><path fill="#676f72" d="M298.042 373.959a96.418 96.418 0 0 0-19.296-1.941c-30.617 0-57.968 14.359-75.798 36.747-13.38 16.802-21.4 38.124-21.4 61.304v14.825h38.622V470.07c.001-47.327 33.519-87.047 77.872-96.111z" opacity="1" data-original="#676f72"></path><path fill="#efedee" d="m326.25 384.549 18.783 6.325c11.654 3.925 14.694 18.99 5.474 27.127l-37.601 33.184v4.092a17.558 17.558 0 0 1-8.889 15.269l-25.269 14.349-25.084-46.239 25.084-54.107z" opacity="1" data-original="#efedee"></path><path fill="#d4d4d5" d="m231.246 384.549-18.783 6.325c-11.654 3.925-14.694 18.99-5.474 27.127l37.601 33.184v4.092a17.558 17.558 0 0 0 8.889 15.269l25.269 14.349V384.549z" opacity="1" data-original="#d4d4d5"></path><path fill="#ffbf9d" d="m278.748 344.592-47.502 39.957a73.417 73.417 0 0 0 47.502 54.107 73.416 73.416 0 0 0 47.502-54.107z" opacity="1" data-original="#ffbf9d"></path><circle cx="101.564" cy="220.388" r="94.064" fill="#ffb357" transform="rotate(-45 101.532 220.424)" opacity="1" data-original="#ffb357"></circle><path fill="#ffbf9d" d="M460.604 165.079H96.892c-24.243 0-43.896 19.653-43.896 43.896s19.653 43.896 43.896 43.896h363.712c24.243 0 43.896-19.653 43.896-43.896s-19.653-43.896-43.896-43.896z" opacity="1" data-original="#ffbf9d"></path><path fill="#ffd4bd" d="M309.033 29.644a182.978 182.978 0 0 0-30.285-2.525c-10.32 0-20.434.873-30.285 2.525-86.019 14.421-151.571 89.214-151.571 179.331s65.552 164.91 151.571 179.331a182.969 182.969 0 0 0 60.57 0c86.019-14.422 151.571-89.215 151.571-179.331S395.052 44.065 309.033 29.644z" opacity="1" data-original="#ffd4bd"></path><path fill="#ffbf9d" d="M157.096 209.228c0-90.401 65.945-165.387 152.352-179.51-.138-.023-.276-.051-.414-.074a182.978 182.978 0 0 0-60.57 0c-86.02 14.421-151.572 89.214-151.572 179.331s65.552 164.91 151.571 179.332a183.086 183.086 0 0 0 30.285 2.524c9.929 0 19.665-.816 29.162-2.348-85.651-14.756-150.814-89.391-150.814-179.255z" opacity="1" data-original="#ffbf9d"></path><path fill="#ffce71" d="M354.035 43.367v.005c-22.947-10.435-48.437-16.253-75.289-16.253-100.57 0-181.851 81.58-181.851 182.155 88.92 18.5 180.736 1.865 257.14-45.337v.013a141.983 141.983 0 0 0 106.817 45.274c0-74.045-44.098-137.337-106.817-165.857z" opacity="1" data-original="#ffce71"></path><path fill="#ffb357" d="M309.482 29.704a183.244 183.244 0 0 0-30.736-2.585c-100.57 0-181.855 81.583-181.855 182.157 20.114 4.185 40.127 6.521 60.345 7.167a185.85 185.85 0 0 1-.14-7.215c0-90.409 65.969-165.41 152.386-179.524z" opacity="1" data-original="#ffb357"></path><ellipse cx="179.667" cy="268.707" fill="#ff8e9e" rx="36.371" ry="28.846" opacity="1" data-original="#ff8e9e"></ellipse><ellipse cx="377.828" cy="268.707" fill="#ff8e9e" rx="36.371" ry="28.846" opacity="1" data-original="#ff8e9e"></ellipse><path d="M349.569 225.906v15.051c0 4.143 3.357 7.5 7.5 7.5s7.5-3.357 7.5-7.5v-15.051c0-4.143-3.357-7.5-7.5-7.5s-7.5 3.358-7.5 7.5zM293.743 235.581c-3.786 4.344-9.252 6.835-14.996 6.835s-11.209-2.491-14.995-6.835a7.5 7.5 0 0 0-11.309 9.855c6.635 7.613 16.222 11.98 26.303 11.98s19.668-4.366 26.303-11.98a7.5 7.5 0 1 0-11.306-9.855z" fill="#000000" opacity="1" data-original="#000000"></path><path d="M512 208.975c0-28.212-22.852-51.18-51.017-51.386-20.022-71.012-79.298-123.37-150.71-135.342-81.41-13.653-160.483 26.642-198.331 97.125-20.749-2.119-40.667 2.209-57.493 11.055a7.5 7.5 0 0 0 6.979 13.277c13.24-6.961 28.328-10.402 43.498-9.814a189.484 189.484 0 0 0-8.415 23.698c-28.165.206-51.017 23.173-51.017 51.386s22.851 51.181 51.017 51.387a189.429 189.429 0 0 0 19.476 45.374C62.917 314.689 15 273.572 15 220.389c0-22.567 8.672-43.945 24.419-60.197a7.5 7.5 0 1 0-10.772-10.437C10.173 168.818 0 193.903 0 220.389c0 64.991 60.775 113.924 124.815 98.855 21.052 29.379 50.013 51.987 83.131 65.365-9.377 4.174-14.568 13.631-13.796 23.371-13.153 18.138-20.102 39.528-20.102 62.09v14.825a7.5 7.5 0 0 0 7.5 7.5h194.397c4.143 0 7.5-3.357 7.5-7.5V470.07c0-22.562-6.949-43.953-20.101-62.09.763-9.62-4.314-19.127-13.749-23.351 21.9-8.827 42.047-21.749 59.49-38.304a7.501 7.501 0 0 0-10.327-10.88c-106.577 101.15-286.189 32.468-294.108-117.028a359.037 359.037 0 0 0 63.82 5.734c8.313 0 16.629-.302 24.94-.883a7.474 7.474 0 0 0-.486 2.638v15.051c0 4.143 3.358 7.5 7.5 7.5s7.5-3.357 7.5-7.5v-15.051a7.458 7.458 0 0 0-1.059-3.829c8.169-.88 16.33-2.031 24.474-3.473 43.099-7.631 83.933-22.813 121.463-45.149 26.734 26.485 62.565 41.919 100.131 43.201-1.519 35.448-13.547 68.968-35.025 97.37a7.5 7.5 0 0 0 1.459 10.506 7.5 7.5 0 0 0 10.506-1.459c14.41-19.056 24.898-40.234 31.206-62.713 28.122-.259 50.921-23.206 50.921-51.385zM305.406 455.277c0 3.612-1.951 6.963-5.092 8.747l-14.066 7.987v-28.236c21.426-9.2 38.002-27.459 45.17-49.572l11.222 3.779c6.191 2.086 7.796 10.078 2.904 14.396l-37.601 33.184a7.501 7.501 0 0 0-2.537 5.623zm-34.158 16.734-14.066-7.987a10.076 10.076 0 0 1-5.091-8.746v-4.092a7.499 7.499 0 0 0-2.538-5.623l-37.601-33.184c-4.89-4.316-3.291-12.309 2.905-14.396l11.221-3.779c7.168 22.113 23.744 40.373 45.17 49.572zm-82.199-1.942c0-16.656 4.407-32.567 12.816-46.596.055.05.105.103.161.152l35.064 30.944c0 9.335 4.167 17.661 13.261 22.825h-61.303v-7.325zm179.397 7.326h-61.301c9.01-5.116 13.26-13.386 13.26-22.825l35.064-30.944c.056-.049.106-.102.161-.151 8.409 14.029 12.816 29.94 12.816 46.596zm-89.698-79.064a190.26 190.26 0 0 0 36.468-3.532c-6.811 16.187-19.972 29.283-36.468 35.85-16.496-6.567-29.657-19.664-36.468-35.852a190.08 190.08 0 0 0 36.468 3.534zM60.495 208.975c0-18.716 14.203-34.172 32.396-36.171a189.238 189.238 0 0 0-3.5 36.171 189.24 189.24 0 0 0 3.5 36.172c-18.193-1.999-32.396-17.455-32.396-36.172zm299.268-49.879a7.5 7.5 0 0 0-9.669-1.539c-73.708 45.536-160.675 61.611-245.595 45.564 3.48-106.209 99.329-183.509 203.295-166.08 81.783 13.712 141.779 82.326 145.155 164.61-35.339-1.34-68.92-16.59-93.186-42.555zm104.91 86.042a191.323 191.323 0 0 0 3.431-36.163c0-12.214-1.193-24.323-3.499-36.171C482.797 174.803 497 190.259 497 208.975c0 18.693-14.167 34.133-32.327 36.163z" fill="#000000" opacity="1" data-original="#000000"></path></g></svg>