<svg xmlns="http://www.w3.org/2000/svg" version="1.1" xmlns:xlink="http://www.w3.org/1999/xlink" width="512" height="512" x="0" y="0" viewBox="0 0 512 512" style="enable-background:new 0 0 512 512" xml:space="preserve"><g><path fill="#676f72" d="M485.391 190.002c-21.104-24.035-35.173-53.269-42.884-84.311a124.568 124.568 0 0 0-32.871-58.135C368.781 6.701 305.231-.786 256 29.457 206.769-.786 143.219 6.701 102.364 47.557a124.57 124.57 0 0 0-32.856 58.086c-7.727 31.052-21.776 60.309-42.892 84.352C14.721 203.537 7.5 221.282 7.5 240.682c0 25.149 12.137 47.508 30.859 61.548 9.531 7.146 15.192 21.808 11.582 34.077-2.434 8.273-.444 17.537 6.087 24.068l8.748 8.748c13.759 13.76 13.635 36.156-.081 49.959-13.693 13.781-13.666 36.051.081 49.797a109.714 109.714 0 0 0 77.582 32.136h227.283a109.716 109.716 0 0 0 77.416-31.971c13.778-13.719 14.262-36.191.393-49.818-13.999-13.755-14.075-36.255-.227-50.103l8.748-8.748c6.116-6.116 8.662-15.176 6.115-23.839-3.629-12.34-.471-25.497 10.847-33.784 19.123-14.001 31.567-36.606 31.567-62.07 0-19.397-7.218-37.138-19.109-50.68z" opacity="1" data-original="#676f72"></path><path fill="#4c5659" d="M308.22 11.672A124.543 124.543 0 0 0 256 29.457C206.769-.786 143.219 6.701 102.364 47.557a124.565 124.565 0 0 0-32.856 58.086c-7.727 31.052-21.776 60.309-42.892 84.352C14.721 203.538 7.5 221.282 7.5 240.682c0 25.149 12.137 47.509 30.859 61.548 9.531 7.146 15.192 21.809 11.582 34.078-2.434 8.273-.444 17.537 6.087 24.068l8.748 8.748c13.759 13.761 13.635 36.156-.081 49.959-13.693 13.781-13.666 36.051.081 49.797a109.714 109.714 0 0 0 77.582 32.136h116.054l-89.022-189.98c0-120.003 53.91-227.439 138.83-299.364z" opacity="1" data-original="#4c5659"></path><path fill="#efedee" d="M327.517 429.187c-13.194-16.567-31.913-28.474-53.312-32.841a90.988 90.988 0 0 0-18.206-1.831c-28.888 0-54.694 13.548-71.516 34.672-12.625 15.853-20.191 35.971-20.191 57.841v13.987h183.416v-13.987c0-7.145-.808-14.102-2.335-20.786a92.61 92.61 0 0 0-17.856-37.055z" opacity="1" data-original="#efedee"></path><path fill="#db9e82" d="M330.927 433.751a92.818 92.818 0 0 0-3.41-4.564c-13.193-16.567-31.913-28.475-53.312-32.841a90.988 90.988 0 0 0-18.206-1.831c-28.888 0-54.693 13.548-71.515 34.672a92.856 92.856 0 0 0-3.412 4.564 206.273 206.273 0 0 0 28.171 8.689 198.505 198.505 0 0 0 17.798 3.239c4.617.629 8.783 3.098 11.461 6.912L256 477.505l17.501-24.918c2.674-3.807 6.83-6.278 11.439-6.906 15.25-2.078 30.335-5.854 45.987-11.93z" opacity="1" data-original="#db9e82"></path><path fill="#c8866a" d="M255.999 394.515c-30.058 0-57.791 14.786-74.928 39.236a92.491 92.491 0 0 0-14.444 32.491 93.17 93.17 0 0 0-2.335 20.785v13.987h36.44v-13.987c0-2.993.154-5.95.432-8.872a92.38 92.38 0 0 1 10.676-35.158c12.76-23.661 35.438-41.15 62.365-46.652a91.134 91.134 0 0 0-18.206-1.83z" opacity="1" data-original="#c8866a"></path><path fill="#d4d4d5" d="M181.071 433.751c-10.832 15.454-16.78 33.911-16.78 53.277v13.987h36.44v-13.987c0-15.679 4.023-30.894 11.098-44.01-10.633-2.3-21-5.48-30.758-9.267z" opacity="1" data-original="#d4d4d5"></path><path fill="#c8866a" d="M427.583 199.265H84.417C61.543 199.265 43 217.808 43 240.682s18.543 41.417 41.417 41.417h343.167c22.874 0 41.417-18.543 41.417-41.417s-18.544-41.417-41.418-41.417z" opacity="1" data-original="#c8866a"></path><path fill="#db9e82" d="M284.575 71.481c-9.294-1.558-18.838-2.382-28.575-2.382s-19.28.824-28.574 2.382c-81.16 13.607-143.009 84.175-143.009 169.201s61.849 155.595 143.009 169.201c9.294 1.558 18.837 2.382 28.574 2.382s19.281-.824 28.575-2.382c81.16-13.607 143.009-84.176 143.009-169.201S365.734 85.087 284.575 71.481z" opacity="1" data-original="#db9e82"></path><path fill="#c8866a" d="M141.334 240.921c0-85.177 61.961-155.872 143.241-169.44-9.294-1.558-18.838-2.382-28.575-2.382s-19.28.824-28.574 2.382c-81.16 13.607-143.009 84.175-143.009 169.201s61.849 155.595 143.009 169.201c9.294 1.558 18.837 2.382 28.574 2.382s19.281-.824 28.575-2.382c-81.28-13.568-143.241-83.788-143.241-168.962z" opacity="1" data-original="#c8866a"></path><g fill="#ff8e9e"><ellipse cx="162.517" cy="297.04" rx="34.317" ry="27.217" fill="#ff8e9e" opacity="1" data-original="#ff8e9e"></ellipse><path d="M349.483 269.823c-18.952 0-34.316 12.186-34.316 27.217s15.364 27.217 34.316 27.217c18.953 0 34.317-12.186 34.317-27.217s-15.364-27.217-34.317-27.217z" fill="#ff8e9e" opacity="1" data-original="#ff8e9e"></path></g><path fill="#676f72" d="M422.542 199.252v-27.986c-7.171-17.221-16.998-33.356-29.281-47.732-27.543-32.237-65.621-53.832-107.219-60.807a182.333 182.333 0 0 0-25.988-2.455 176.971 176.971 0 0 0-4.054-.049c-10.025 0-20.132.842-30.042 2.503-41.598 6.974-79.676 28.569-107.22 60.807-12.286 14.379-22.115 30.519-29.286 47.744v27.988h.001a171.844 171.844 0 0 0-5.037 41.417c0 1.496.02 2.986.058 4.473 27.917-2.667 49.787-26.022 50.115-54.56a736.445 736.445 0 0 1 15.423-2.315 13.002 13.002 0 0 0 10.517-8.735l10.683-31.736 9.209 26.866a13.003 13.003 0 0 0 13.34 8.748 762.923 762.923 0 0 1 35.882-2.078c5.749-.198 10.674-4.17 12.116-9.738l12.287-47.464 12.253 47.333c1.448 5.593 6.41 9.571 12.185 9.741a763.061 763.061 0 0 1 50.644 3.173c5.836.562 11.319-2.868 13.391-8.352l6.194-16.395 7.686 20.921a13.039 13.039 0 0 0 10.369 8.396c3.647.532 7.182 1.076 10.644 1.633.326 28.54 22.197 51.896 50.115 54.563.038-1.486.058-2.977.058-4.473a171.948 171.948 0 0 0-5.043-41.431z" opacity="1" data-original="#676f72"></path><path fill="#4c5659" d="M256 60.224c-10.025 0-20.132.842-30.042 2.503-41.598 6.974-79.676 28.569-107.22 60.807-12.286 14.379-22.115 30.519-29.286 47.744v27.988h.001a171.844 171.844 0 0 0-5.037 41.417c0 1.496.02 2.986.058 4.473 27.917-2.667 49.787-26.022 50.115-54.56a736.445 736.445 0 0 1 15.423-2.315 13.002 13.002 0 0 0 10.517-8.735l10.683-31.736 9.209 26.866a13.003 13.003 0 0 0 10.254 8.625c15.618-45.346 39.317-86.928 69.379-123.025a161.294 161.294 0 0 0-4.054-.052z" opacity="1" data-original="#4c5659"></path><path d="M491.027 185.054c-19.504-22.213-33.38-49.522-41.241-81.17a132.28 132.28 0 0 0-34.846-61.631c-25.001-25-58.253-38.769-93.631-38.769a132.167 132.167 0 0 0-65.31 17.263 132.18 132.18 0 0 0-65.31-17.262c-35.378 0-68.63 13.768-93.63 38.768a132.277 132.277 0 0 0-34.83 61.578c-7.891 31.709-21.769 59.033-41.25 81.215C7.468 200.424.001 219.913 0 240.682c0 26.792 12.342 51.413 33.86 67.549 7.361 5.518 11.514 17.021 8.886 25.96-3.161 10.743-.631 22.879 7.979 31.488 8.891 8.89 16.814 14.793 16.814 28.307 0 7.477-2.899 14.512-8.164 19.811-16.551 16.66-16.65 43.637.098 60.387 22.141 22.14 51.576 34.333 82.886 34.333h227.283c12.97 0 25.765-2.134 38.029-6.342a7.498 7.498 0 0 0 4.66-9.527 7.499 7.499 0 0 0-9.527-4.66c-18.38 6.305-31.192 5.529-47.554 5.529.072-24.763-3.944-43.62-18.179-64.065-5.392-7.703-11.916-14.649-19.25-20.562 52.572-19.259 94.753-63.648 110.564-119.311 26.603-.431 48.115-22.192 48.115-48.896 0-26.973-21.944-48.916-48.917-48.916-7.028 0-4.466-.003-5.155.006-4.816.078-8.32 4.616-7.165 9.299a166.017 166.017 0 0 1 4.822 35.116c-17.385-4.756-30.611-18.922-34.203-36.559 2.902.509 5.807 1.031 8.731 1.582a7.505 7.505 0 0 0 8.758-5.984 7.501 7.501 0 0 0-5.984-8.758 767.168 767.168 0 0 0-29.536-4.93 5.539 5.539 0 0 1-4.412-3.561l-7.687-20.922c-2.391-6.509-11.599-6.567-14.056-.064l-6.193 16.394a5.51 5.51 0 0 1-5.658 3.538 774.668 774.668 0 0 0-51.141-3.204c-2.419-.071-4.535-1.766-5.145-4.123l-12.253-47.334c-1.932-7.462-12.588-7.468-14.521 0l-12.287 47.464c-.606 2.345-2.71 4.04-5.113 4.123a772.72 772.72 0 0 0-36.234 2.098 5.485 5.485 0 0 1-5.635-3.703l-9.209-26.866c-2.321-6.773-11.918-6.747-14.203.039l-10.683 31.736a5.466 5.466 0 0 1-4.443 3.7 746.714 746.714 0 0 0-34.365 5.622c-9.659 1.819-7.07 16.607 2.775 14.74a723.265 723.265 0 0 1 8.732-1.589c-3.593 17.638-16.821 31.806-34.206 36.563.402-13.885 2.178-23.352 4.851-35.259 1.069-4.73-2.545-9.162-7.311-9.162h-5.036c-26.973 0-48.917 21.943-48.917 48.916 0 26.743 21.575 48.53 48.231 48.899 16.256 56.777 58.45 100.094 110.486 119.274-10.927 8.806-18.285 18.88-19.588 21.056-13.943 20.108-18.032 39.704-17.89 63.604-16.417 0-53.654 3.067-86.659-29.94-10.871-10.869-10.816-28.385-.064-39.207 16.677-16.782 16.725-43.884.064-60.549l-8.749-8.748c-4.477-4.477-5.9-10.848-4.194-16.649 4.495-15.299-2.257-33.182-14.278-42.193C25.154 282.953 15 262.707 15 240.682c.001-17.243 6.247-33.206 17.25-45.738 21.077-23.998 36.061-53.434 44.536-87.489a117.266 117.266 0 0 1 30.881-54.594c22.166-22.167 51.651-34.375 83.022-34.375 21.668 0 42.895 6.004 61.385 17.362a7.502 7.502 0 0 0 7.852 0 117.208 117.208 0 0 1 61.384-17.363c31.371 0 60.856 12.208 83.023 34.376a117.268 117.268 0 0 1 30.896 54.639c8.444 33.997 23.426 63.42 44.527 87.451A69.288 69.288 0 0 1 497 240.682c0 22.013-10.653 42.954-28.497 56.02-13.769 10.081-18.198 26.355-13.613 41.947 5.947 20.257-25.496 22.039-25.496 55.42 0 11.563 4.546 22.398 12.801 30.509 10.811 10.619 10.497 28.276-.429 39.153a102.407 102.407 0 0 1-14.087 11.71 7.501 7.501 0 0 0 8.518 12.348 117.624 117.624 0 0 0 16.153-13.429c16.862-16.788 17.116-44.023.356-60.482-5.36-5.268-8.313-12.302-8.313-19.809 0-13.439 7.826-19.334 16.882-28.39 7.693-7.694 11.446-19.541 8.006-31.259-2.775-9.439-.595-19.262 8.083-25.616C499.052 292.925 512 267.459 512 240.682a84.28 84.28 0 0 0-20.973-55.628zM461.5 240.682c0 17.204-12.878 31.446-29.498 33.62a178.823 178.823 0 0 0 3.156-33.454c0-11.277-1.098-22.604-3.243-33.796 16.662 2.135 29.585 16.397 29.585 33.63zm-411 0c0-17.233 12.923-31.495 29.586-33.63-4.309 22.484-4.335 44.963-.019 67.258-16.653-2.143-29.567-16.401-29.567-33.628zm41.702 10.856c26.487-5.555 46.461-27.489 49.485-54.465a750.34 750.34 0 0 1 9.361-1.366c7.737-1.078 14.094-6.354 16.59-13.771l3.639-10.811 2.05 5.979a20.485 20.485 0 0 0 21.045 13.79 760.268 760.268 0 0 1 35.53-2.058c8.996-.31 16.858-6.624 19.118-15.354l5.026-19.416 4.992 19.285c2.271 8.776 10.177 15.092 19.226 15.358a758.223 758.223 0 0 1 50.145 3.142c8.353.795 16.313-3.618 20.129-10.939l.821 2.234c4.588 12.492 16.322 13.224 20.955 13.93 3.026 26.975 22.998 48.906 49.486 54.459a163 163 0 0 1-4.223 27.795 7.42 7.42 0 0 0-.495 2.022c-18.96 74.204-88.759 128.354-170.063 123.055-4.144-.269-7.702 2.865-7.971 6.998s2.864 7.702 6.998 7.971c18.685 1.215 37.518-.416 55.7-4.946a85.74 85.74 0 0 1 18.819 15.782 191.482 191.482 0 0 1-34.636 8.035c-6.691.912-12.729 4.566-16.564 10.026L256 464.456l-11.36-16.176c-3.838-5.464-9.885-9.12-16.587-10.032a191.113 191.113 0 0 1-34.618-8.034 85.669 85.669 0 0 1 18.828-15.792c.296.074.59.154.886.227a7.5 7.5 0 1 0 3.558-14.572c-68.403-16.71-119.748-77.847-124.505-148.539zm91.881 191.335c13.775 4.916 27.555 8.279 41.946 10.239 2.581.351 4.89 1.732 6.335 3.79l17.498 24.914a7.5 7.5 0 0 0 12.276 0l17.501-24.918c1.443-2.055 3.745-3.435 6.314-3.784 14.415-1.965 28.205-5.33 41.976-10.245 10.237 16.723 12.374 31.917 12.319 50.647H171.741c-.092-18.759 2.26-34.159 12.342-50.643z" fill="#000000" opacity="1" data-original="#000000"></path><path d="M182.103 249.157a7.499 7.499 0 0 0-7.5 7.5v14.199c0 4.143 3.357 7.5 7.5 7.5s7.5-3.357 7.5-7.5v-14.199a7.5 7.5 0 0 0-7.5-7.5zM329.897 278.356c4.143 0 7.5-3.357 7.5-7.5v-14.199c0-4.143-3.357-7.5-7.5-7.5s-7.5 3.357-7.5 7.5v14.199a7.5 7.5 0 0 0 7.5 7.5zM256 286.81a33.346 33.346 0 0 0 25.137-11.447c2.722-3.123 2.396-7.86-.727-10.582s-7.859-2.396-10.582.727c-3.49 4.006-8.531 6.303-13.828 6.303s-10.338-2.297-13.828-6.303a7.5 7.5 0 0 0-11.309 9.855A33.346 33.346 0 0 0 256 286.81z" fill="#000000" opacity="1" data-original="#000000"></path></g></svg>