<svg xmlns="http://www.w3.org/2000/svg" version="1.1" xmlns:xlink="http://www.w3.org/1999/xlink" width="512" height="512" x="0" y="0" viewBox="0 0 512 512" style="enable-background:new 0 0 512 512" xml:space="preserve"><g><path fill="#ffce71" d="M386.547 448.832c-15.117-34.669-44.224-62.736-81.207-75.976a139.34 139.34 0 0 0-46.984-8.134h-.001c-16.483 0-32.305 2.876-47 8.139-35.595 12.747-65.484 39.951-81.19 75.972-7.441 17.067-11.584 35.889-11.584 55.666h279.552c-.001-19.776-4.144-38.6-11.586-55.667z" opacity="1" data-original="#ffce71"></path><g fill="#ffb357"><path d="M258.354 364.723c-30.505 0-58.706 9.848-81.624 26.39a.067.067 0 0 1-.011.007c-19.992 14.432-36.299 34.191-46.556 57.714-7.441 17.067-11.584 35.889-11.584 55.666h81.97c.068-60.736 36.309-112.998 88.339-136.403a139.727 139.727 0 0 0-30.534-3.374z" fill="#ffb357" opacity="1" data-original="#ffb357"></path><path d="m258.356 347.582-47.017 25.288c8.251 21.641 24.781 38.766 47.017 50.656 22.235-11.889 38.715-29.032 46.967-50.671h.002z" fill="#ffb357" opacity="1" data-original="#ffb357"></path></g><circle cx="90.81" cy="211.99" r="41.655" fill="#ffbf9d" opacity="1" data-original="#ffbf9d"></circle><path fill="#ffd4bd" d="M305.325 372.851c69.669-20.309 120.577-84.636 120.577-160.861 0-83.074-60.459-152.026-139.777-165.256a168.664 168.664 0 0 0-27.771-2.291c-92.53 0-167.544 75.013-167.544 167.547 0 76.225 50.908 140.552 120.576 160.861 14.904 4.345 30.662 6.684 46.969 6.684 9.461 0 18.738-.787 27.771-2.297a167.101 167.101 0 0 0 19.199-4.387z" opacity="1" data-original="#ffd4bd"></path><path fill="#ffbf9d" d="M146.35 211.99c0-83.072 60.462-152.024 139.775-165.256a168.664 168.664 0 0 0-27.771-2.291c-92.53 0-167.544 75.013-167.544 167.547 0 92.531 75.014 167.544 167.544 167.544 9.462 0 18.736-.79 27.771-2.297C206.812 364.005 146.35 295.06 146.35 211.99z" opacity="1" data-original="#ffbf9d"></path><g fill="#ffbf9d"><ellipse cx="167.016" cy="268.988" rx="33.343" ry="26.553" fill="#ffbf9d" opacity="1" data-original="#ffbf9d"></ellipse><ellipse cx="349.559" cy="268.988" rx="33.48" ry="26.553" fill="#ffbf9d" opacity="1" data-original="#ffbf9d"></ellipse></g><path fill="#ce857a" d="M215.014 12.122c15.38-3.332 31.398-4.929 47.84-4.574 111.457 2.407 199.991 94.74 199.991 206.223 0 22.022-17.852 39.874-39.874 39.874H381.61c-82.305 0-154.168-49.672-184.881-121.37-10.243-23.911-15.915-50.265-15.862-78.052.033-20.267 14.34-37.809 34.147-42.101z" opacity="1" data-original="#ce857a"></path><path fill="#ac6757" d="M286.125 79.852a68.165 68.165 0 0 1 38.368-61.307c-19.373-6.686-40.074-10.531-61.639-10.997-16.442-.355-32.46 1.242-47.84 4.574-15.465 3.351-27.576 14.779-32.159 29.274-14.026-6.873-30.297-5.061-42.534 3.604a205.56 205.56 0 0 0-55.774 59.222c-9.408 15.14-9.235 34.354.41 49.344l10.992 17.083c38.327 3.823 75.095-11.463 100.781-38.374 21.388 49.923 62.728 89.163 113.655 108.392a331.666 331.666 0 0 1-24.26-124.516z" opacity="1" data-original="#ac6757"></path><circle cx="292.984" cy="449.772" r="7.5" fill="#000000" opacity="1" data-original="#000000"></circle><circle cx="292.984" cy="487.186" r="7.5" fill="#000000" opacity="1" data-original="#000000"></circle><path d="M186.272 222.282a7.5 7.5 0 0 0-7.5 7.5v13.852c0 4.142 3.357 7.5 7.5 7.5s7.5-3.358 7.5-7.5v-13.852a7.5 7.5 0 0 0-7.5-7.5zM282.288 237.566a7.5 7.5 0 0 0-10.582.727 17.71 17.71 0 0 1-13.351 6.085 17.713 17.713 0 0 1-13.35-6.085 7.5 7.5 0 1 0-11.309 9.855c6.22 7.138 15.207 11.231 24.658 11.231s18.439-4.093 24.659-11.231a7.5 7.5 0 0 0-.725-10.582z" fill="#000000" opacity="1" data-original="#000000"></path><path d="M407.515 62.184C367.386 22.084 314.498 0 258.592 0c-15.034 0-30.229 1.64-45.159 4.875-15.006 3.252-27.948 13.475-34.727 26.934a48.347 48.347 0 0 0-13.955-2.034c-10.322 0-20.263 3.175-28.745 9.182-23.301 16.5-42.748 37.149-57.801 61.375-10.709 17.232-10.969 39.568.473 57.352l3.816 5.931c-23.138 3.975-40.805 24.17-40.805 48.425 0 26.915 21.75 48.835 48.594 49.134 14.599 49.659 51.352 91.921 100.614 112.464a147.818 147.818 0 0 0-61.926 60.631 7.5 7.5 0 0 0 3.001 10.173 7.5 7.5 0 0 0 10.173-3c14.461-26.56 37.505-47.337 65.237-58.961 8.799 18.388 23.653 33.943 43.472 45.45V497h-78.112a538.125 538.125 0 0 1 2.171-42.178 7.5 7.5 0 0 0-6.788-8.149 7.498 7.498 0 0 0-8.149 6.789 553.298 553.298 0 0 0-2.236 43.539h-31.427a131.495 131.495 0 0 1 5.029-29.368 7.5 7.5 0 0 0-5.104-9.298 7.497 7.497 0 0 0-9.299 5.104 146.737 146.737 0 0 0-5.838 41.063 7.5 7.5 0 0 0 7.5 7.5h279.505a7.5 7.5 0 0 0 7.5-7.5c0-56.775-32.372-106.279-79.878-130.884 47.895-19.95 85.599-60.694 100.675-112.568 24.506-1.781 43.905-22.274 43.905-47.227.002-57.323-22.299-111.175-62.793-151.639zM86.547 245.908c-16.81-2.118-29.857-16.494-29.857-33.869 0-17.401 13.086-31.794 29.932-33.878-4.495 22.712-4.436 45.662-.075 67.747zM85.135 128.62a38.57 38.57 0 0 1 5.811-20.372c13.992-22.518 32.069-41.712 53.729-57.05 8.256-5.846 19.12-8.082 29.402-5.11-2.177 13.064-.246 49.272 13.823 84.496-23.491 22.718-55.329 35.116-87.616 32.954-9.08-14.109-15.149-21.167-15.149-34.918zm165.72 281.557c-10.672-7.398-19.292-16.251-25.573-26.24a176.327 176.327 0 0 0 25.573 2.944zM390.399 497h-31.452a572.785 572.785 0 0 0-2.244-43.531 7.495 7.495 0 0 0-8.143-6.797 7.5 7.5 0 0 0-6.797 8.142A557.61 557.61 0 0 1 343.945 497h-78.09v-69.07c19.783-11.489 34.62-27.05 43.424-45.465 45.493 19.078 78.242 62.991 81.12 114.535zm-124.544-86.827v-23.276a175.492 175.492 0 0 0 25.523-2.961c-6.275 9.996-14.878 18.848-25.523 26.237zm157.088-163.985h-21.395c-4.106 0-7.688 3.164-7.811 7.269a7.5 7.5 0 0 0 7.497 7.731h9.449c-21.134 65.747-82.434 110.868-152.329 110.868-101.989 0-177.72-94.113-156.511-193.409 33.687 1.569 66.962-10.783 92.502-33.569 32.651 66.349 99.822 111.931 176.512 115.837 4.154.229 7.661-2.973 7.872-7.109a7.5 7.5 0 0 0-7.108-7.872c-73.321-3.735-139.26-49.483-167.986-116.549-15.656-36.548-17.266-75.53-13.724-85.536 1.558-4.4 7.565-20.168 26.698-24.313 13.89-3.01 28.015-4.536 41.983-4.536 108.469 0 196.714 89.187 196.718 198.813.001 17.877-14.491 32.375-32.367 32.375z" fill="#000000" opacity="1" data-original="#000000"></path></g></svg>