<svg xmlns="http://www.w3.org/2000/svg" version="1.1" xmlns:xlink="http://www.w3.org/1999/xlink" width="512" height="512" x="0" y="0" viewBox="0 0 512 512" style="enable-background:new 0 0 512 512" xml:space="preserve" class=""><g><path fill="#ffbd86" d="M255.999 370.557c-15.795 0-30.956 2.756-45.038 7.8-34.109 12.215-62.75 38.283-77.801 72.801-7.131 16.354-11.101 34.391-11.101 53.342H256V370.557h-.001z" opacity="1" data-original="#ffbd86"></path><path fill="#fed2a4" d="M378.84 451.156c-14.486-33.222-42.378-60.117-77.817-72.804A133.537 133.537 0 0 0 256 370.558V504.5h133.941c0-18.952-3.97-36.989-11.101-53.344z" opacity="1" data-original="#fed2a4"></path><path fill="#b28ae4" d="M301.023 378.352a133.547 133.547 0 0 0-45.024-7.794c-15.795 0-30.956 2.756-45.038 7.8-34.109 12.215-62.75 38.283-77.801 72.801 13.289 11.682 28.701 22.862 44.612 32.337V504.5h156.439v-20.997c15.917-9.476 31.335-20.66 44.629-32.347-14.486-33.222-42.378-60.117-77.817-72.804z" opacity="1" data-original="#b28ae4"></path><path fill="#976bcf" d="M210.974 378.351c-34.958 12.523-63.135 39.126-77.814 72.807 13.288 11.682 28.701 22.862 44.612 32.337V504.5h11.257a157.487 157.487 0 0 1 21.945-58.209z" opacity="1" data-original="#976bcf"></path><path fill="#ff8e9e" d="M255.999 370.557c-15.491 0-30.682 2.656-45.024 7.793V504.5h90.076V378.362a133.448 133.448 0 0 0-45.052-7.805z" opacity="1" data-original="#ff8e9e"></path><path fill="#ea5b70" d="M301.006 378.347a133.462 133.462 0 0 0-45.008-7.79c-15.491 0-30.682 2.656-45.024 7.793v67.939c20.254-32.376 51.976-56.968 90.032-67.942z" opacity="1" data-original="#ea5b70"></path><path fill="#ffbd86" d="m256.037 354.162-45.063 24.189c7.907 20.738 23.755 37.192 45.063 48.585 21.307-11.393 37.106-27.838 45.013-48.574z" opacity="1" data-original="#ffbd86"></path><path fill="#b28ae4" d="M185.412 375.828c-12.399 12.399-12.399 32.502 0 44.901l25.563 25.561v-96.024z" opacity="1" data-original="#b28ae4"></path><path fill="#c9aaf2" d="m326.57 375.828-25.561-25.561v96.024l25.561-25.561c12.399-12.4 12.399-32.503 0-44.902z" opacity="1" data-original="#c9aaf2"></path><g fill="#ffbd86"><circle cx="95.448" cy="224.201" r="39.916" fill="#ffbd86" opacity="1" data-original="#ffbd86"></circle><circle cx="416.552" cy="224.201" r="39.916" fill="#ffbd86" opacity="1" data-original="#ffbd86"></circle></g><path fill="#fed2a4" d="M301.008 378.347c66.761-19.461 115.544-81.103 115.544-154.146 0-79.606-57.935-145.68-133.942-158.358a161.635 161.635 0 0 0-26.611-2.195c-88.668 0-160.551 71.882-160.551 160.553 0 73.043 48.783 134.685 115.542 154.146a160.595 160.595 0 0 0 45.008 6.405c9.066 0 17.956-.755 26.611-2.201a160.291 160.291 0 0 0 18.399-4.204z" opacity="1" data-original="#fed2a4"></path><path fill="#ffbd86" d="M148.67 224.201c0-79.605 57.938-145.678 133.94-158.358a161.626 161.626 0 0 0-26.611-2.195c-88.668 0-160.551 71.882-160.551 160.553 0 88.669 71.883 160.551 160.551 160.551 9.067 0 17.954-.757 26.611-2.201-76.002-12.681-133.94-78.748-133.94-158.35z" opacity="1" data-original="#ffbd86"></path><g fill="#ffbd86"><ellipse cx="168.473" cy="278.819" rx="31.951" ry="25.444" fill="#ffbd86" opacity="1" data-original="#ffbd86"></ellipse><ellipse cx="343.396" cy="278.819" rx="32.082" ry="25.444" fill="#ffbd86" opacity="1" data-original="#ffbd86"></ellipse></g><path fill="#88c5fd" d="M306.681 71.812c-20.286-6.742-33.996-25.675-34.086-47.036-.038-8.869-6.546-16.611-15.393-17.233-9.708-.684-17.796 6.989-17.796 16.552v.469c0 21.45-13.737 40.484-34.091 47.251-63.832 21.22-109.867 81.426-109.867 152.386h11.371a56.493 56.493 0 0 0 50.439-31.163l.001-.001a96.448 96.448 0 0 0 9.125-28.629c1.638-10.681 6.423-20.63 13.574-28.731a57.325 57.325 0 0 1 20.56-14.837c6.982-2.964 14.541-4.317 22.126-4.317h66.712c7.585 0 15.144 1.354 22.126 4.317a57.308 57.308 0 0 1 20.56 14.837c7.151 8.101 11.937 18.05 13.574 28.731a96.467 96.467 0 0 0 9.125 28.629l.001.001a56.495 56.495 0 0 0 50.439 31.163h11.371c0-70.924-46.001-131.16-109.871-152.389z" opacity="1" data-original="#88c5fd" class=""></path><path fill="#53a3ec" d="M272.595 66.572V24.776c-.038-8.869-6.546-16.611-15.393-17.233-9.708-.684-17.796 6.989-17.796 16.552v.469c0 21.45-13.737 40.484-34.091 47.251-63.832 21.22-109.867 81.426-109.867 152.386h11.371a56.493 56.493 0 0 0 50.439-31.163l.001-.001a96.448 96.448 0 0 0 9.125-28.629c1.638-10.681 6.423-20.63 13.574-28.731a57.325 57.325 0 0 1 20.56-14.837c6.982-2.964 14.541-4.317 22.126-4.317 27.587 0 49.951-22.364 49.951-49.951z" opacity="1" data-original="#53a3ec"></path><path d="M186.914 261.98a7.5 7.5 0 0 0 7.5-7.5v-13.275c0-4.143-3.358-7.5-7.5-7.5s-7.5 3.357-7.5 7.5v13.275a7.5 7.5 0 0 0 7.5 7.5zM332.586 254.48v-13.275c0-4.143-3.358-7.5-7.5-7.5s-7.5 3.357-7.5 7.5v13.275c0 4.143 3.358 7.5 7.5 7.5s7.5-3.357 7.5-7.5zM256 269.884a31.66 31.66 0 0 0 23.868-10.87 7.5 7.5 0 1 0-11.308-9.855 16.662 16.662 0 0 1-12.56 5.726 16.66 16.66 0 0 1-12.56-5.726 7.5 7.5 0 0 0-11.309 9.855A31.662 31.662 0 0 0 256 269.884z" fill="#000000" opacity="1" data-original="#000000" class=""></path><path d="M417.272 176.816c-15.208-51.953-54.942-94.409-108.226-112.121a42.258 42.258 0 0 1-28.951-39.952C280.038 11.383 269.544 0 256 0c-13.298.001-24.094 10.81-24.094 24.094 0 19.419-12.155 35.021-28.946 40.604-53.289 17.709-93.025 60.167-108.232 112.123-26.261.416-46.696 21.801-46.696 47.381 0 25.713 20.594 47.002 46.729 47.388 9.191 31.315 27.41 59.586 52.983 81.143a7.5 7.5 0 0 0 10.568-.9 7.5 7.5 0 0 0-.9-10.568c-32.692-27.557-52.205-67.152-54.271-109.563h3.686c32.098-.032 60.256-22.374 66.971-66.155 3.362-21.932 22.523-41.522 48.847-41.522h66.712c25.969 0 45.433 19.264 48.847 41.522 6.706 43.756 34.855 66.123 66.978 66.155h3.677c-3.943 79.429-69.653 145.552-152.86 145.552-27.314 0-53.012-7.2-75.143-19.694a7.5 7.5 0 1 0-7.375 13.061c1.44.813 2.893 1.604 4.357 2.374a38.85 38.85 0 0 0-8.879 20.136c-33.596 26.358-54.4 66.796-54.4 111.373a7.5 7.5 0 0 0 7.5 7.5h267.883c4.143 0 7.5-3.357 7.5-7.5 0-19.539-3.945-38.495-11.727-56.342a140.966 140.966 0 0 0-5.914-11.978 7.5 7.5 0 0 0-10.195-2.924 7.5 7.5 0 0 0-2.924 10.195 126.438 126.438 0 0 1 2.976 5.711c-11.97 10.081-25.449 19.659-39.283 27.896a7.502 7.502 0 0 0-3.663 6.444V497h-18.203v-47.602l23.365-23.366a39.02 39.02 0 0 0 9.313-14.862 127.813 127.813 0 0 1 9.131 9.23 7.5 7.5 0 0 0 11.19-9.988A142.902 142.902 0 0 0 343 393.072a39.04 39.04 0 0 0-8.888-20.098c21.616-11.405 40.785-27.512 55.672-47.063 12.585-16.526 21.838-34.858 27.536-54.323 26.109-.431 46.65-21.708 46.65-47.387-.002-25.647-20.521-46.984-46.698-47.385zm-354.24 47.385c0-16.207 12.067-30.002 27.995-32.125a168.97 168.97 0 0 0 .006 64.253c-15.859-2.11-28.001-15.851-28.001-32.128zm278.679 263.53a316.59 316.59 0 0 0 33.943-24.079A124.845 124.845 0 0 1 382.223 497h-40.512zm-85.712-95.479c10.515 0 20.751-.956 31.133-2.904-7.308 11.433-17.829 21.281-31.094 29.001-13.286-7.729-23.813-17.577-31.126-28.997a168.736 168.736 0 0 0 31.087 2.9zM170.272 497h-40.495a124.846 124.846 0 0 1 6.569-33.347 316.412 316.412 0 0 0 33.926 24.069zm33.202 0h-18.203v-13.506a7.5 7.5 0 0 0-3.663-6.444c-13.831-8.235-27.305-17.81-39.267-27.886 6.989-14.28 16.673-27.167 28.458-37.95a39.08 39.08 0 0 0 9.309 14.801l23.366 23.366zm0-68.833-12.759-12.759c-4.577-4.576-7.098-10.666-7.097-17.146.001-8.07 3.304-13.354 8.541-18.59 3.723 1.53 7.496 2.93 11.316 4.186v44.309zM293.509 497h-75.034v-90.988c8.543 10.527 19.772 19.89 34.007 27.528a7.504 7.504 0 0 0 7.092.011c13.718-7.335 25.138-16.632 33.935-27.465zm27.758-81.574-12.758 12.758v-44.321a165.462 165.462 0 0 0 11.301-4.188l1.457 1.457c9.455 9.455 9.455 24.839 0 34.294zM405.189 216.7c-29.932-.03-47.563-23.445-52.159-53.429-4.471-29.168-29.857-54.249-63.673-54.249h-66.712c-33.655 0-59.181 24.948-63.673 54.249-4.567 29.771-22.102 53.399-52.151 53.429h-3.682c3.05-62.954 44.286-117.74 104.554-137.769a57.213 57.213 0 0 0 39.215-54.369c0-6.003 4.475-9.536 9.094-9.55 5.272-.012 9.073 4.613 9.095 9.795a57.247 57.247 0 0 0 39.22 54.122C364.581 98.96 405.816 153.748 408.865 216.7zm15.815 39.623a169.864 169.864 0 0 0 3.048-32.122c0-10.939-1.058-21.685-3.079-32.127 15.831 2.107 27.995 15.828 27.995 32.127 0 16.331-12.188 30.004-27.964 32.122z" fill="#000000" opacity="1" data-original="#000000" class=""></path></g></svg>