<svg xmlns="http://www.w3.org/2000/svg" version="1.1" xmlns:xlink="http://www.w3.org/1999/xlink" width="512" height="512" x="0" y="0" viewBox="0 0 512 512" style="enable-background:new 0 0 512 512" xml:space="preserve"><g><path fill="#ffbf9d" d="M255.998 371.129c-15.727 0-30.824 2.744-44.846 7.766-33.963 12.163-62.482 38.12-77.468 72.49-7.1 16.285-11.053 34.244-11.053 53.115H256V371.13l-.002-.001z" opacity="1" data-original="#ffbf9d"></path><path fill="#ffd4bd" d="M378.315 451.383c-14.424-33.08-42.197-59.86-77.485-72.493a132.978 132.978 0 0 0-44.83-7.761V504.5h133.369c0-18.871-3.953-36.832-11.054-53.117z" opacity="1" data-original="#ffd4bd"></path><path fill="#64b3fb" d="M300.83 378.89a132.96 132.96 0 0 0-44.832-7.761c-15.727 0-30.824 2.744-44.846 7.766-33.963 12.163-62.482 38.12-77.468 72.49 13.232 11.632 28.579 22.765 44.422 32.198V504.5h155.771v-20.907c15.849-9.436 31.201-20.572 44.438-32.209-14.424-33.081-42.197-59.861-77.485-72.494z" opacity="1" data-original="#64b3fb"></path><path fill="#53a3ec" d="M285.133 374.348a133.373 133.373 0 0 0-29.135-3.219c-15.727 0-30.824 2.744-44.846 7.766-33.963 12.163-62.482 38.12-77.468 72.49 13.232 11.632 28.579 22.765 44.422 32.198V504.5h22.738c.064-57.953 34.644-107.819 84.289-130.152z" opacity="1" data-original="#53a3ec"></path><g fill="#ffbf9d"><circle cx="96.134" cy="225.398" r="39.746" fill="#ffbf9d" opacity="1" data-original="#ffbf9d"></circle><circle cx="415.866" cy="225.398" r="39.746" fill="#ffbf9d" opacity="1" data-original="#ffbf9d"></circle></g><path fill="#ffd4bd" d="M300.816 378.885c66.476-19.378 115.05-80.757 115.05-153.487 0-79.266-57.688-145.057-133.37-157.682a160.928 160.928 0 0 0-26.498-2.186c-88.289 0-159.865 71.575-159.865 159.867 0 72.731 48.575 134.109 115.049 153.487 14.221 4.146 29.257 6.377 44.816 6.377 9.028 0 17.879-.751 26.498-2.192a159.057 159.057 0 0 0 18.32-4.184z" opacity="1" data-original="#ffd4bd"></path><path fill="#ffbf9d" d="M149.128 225.398c0-79.264 57.69-145.056 133.368-157.682a160.919 160.919 0 0 0-26.498-2.186c-88.289 0-159.865 71.575-159.865 159.867 0 88.29 71.576 159.865 159.865 159.865 9.028 0 17.878-.754 26.498-2.192-75.678-12.625-133.368-78.41-133.368-157.672z" opacity="1" data-original="#ffbf9d"></path><path fill="#b28ae4" d="m256 96.725-24.538 14.128-130.427 75.097 25.779 24.933c11.934 11.543 30.377 13.001 43.977 3.478 21.957-15.377 46.981-24.28 72.541-26.508 4.212-.367 8.437-.573 12.667-.576 29.524-.017 59.208 8.876 85.208 27.084 13.6 9.523 32.043 8.064 43.977-3.478l25.779-24.933z" opacity="1" data-original="#b28ae4"></path><path fill="#976bcf" d="M231.462 160.162v-49.309L101.035 185.95l25.779 24.933c11.934 11.543 30.377 13.001 43.977 3.478 21.957-15.377 46.981-24.28 72.541-26.508a20.343 20.343 0 0 0-5.908-13.297 20.355 20.355 0 0 1-5.962-14.394z" opacity="1" data-original="#976bcf"></path><path fill="#fce3a0" d="M386.873 88.068c-7.299-29.657-29.56-53.317-58.669-62.355l-11.619-3.607-34.502-10.712A86.727 86.727 0 0 0 256 7.5a86.696 86.696 0 0 0-26.083 3.894l-46.121 14.32c-29.109 9.038-51.37 32.697-58.669 62.355l-24.091 97.883c39.197-21.49 81.741-34.706 130.427-37.606a348 348 0 0 1 24.538-.593c59.141-.646 109.319 13.173 154.964 38.199-2.758-11.201-21.663-88.015-24.092-97.884z" opacity="1" data-original="#fce3a0"></path><path fill="#ffce71" d="m304.967 25.714 11.618-3.607-34.502-10.712A86.697 86.697 0 0 0 256 7.5a86.696 86.696 0 0 0-26.083 3.894l-46.121 14.32c-29.109 9.038-51.37 32.697-58.669 62.355l-24.091 97.883c39.197-21.49 81.741-34.706 130.427-37.606l14.835-60.277c7.299-29.658 29.56-53.318 58.669-62.355z" opacity="1" data-original="#ffce71"></path><g fill="#ffbf9d"><path d="M168.847 254.447c-17.571 0-31.815 11.343-31.815 25.336s14.244 25.336 31.815 25.336 31.814-11.343 31.814-25.336-14.243-25.336-31.814-25.336zM343.022 254.447c-17.643 0-31.945 11.343-31.945 25.336s14.302 25.336 31.945 25.336 31.945-11.343 31.945-25.336c.001-13.993-14.302-25.336-31.945-25.336z" fill="#ffbf9d" opacity="1" data-original="#ffbf9d"></path></g><path d="M187.209 234.83a7.5 7.5 0 0 0-7.5 7.5v13.219c0 4.142 3.357 7.5 7.5 7.5s7.5-3.358 7.5-7.5V242.33a7.5 7.5 0 0 0-7.5-7.5zM324.791 234.83a7.5 7.5 0 0 0-7.5 7.5v13.219c0 4.142 3.357 7.5 7.5 7.5s7.5-3.358 7.5-7.5V242.33a7.5 7.5 0 0 0-7.5-7.5zM279.064 249.501a7.5 7.5 0 0 0-10.582.726c-3.151 3.616-7.701 5.69-12.482 5.69s-9.331-2.074-12.482-5.69a7.501 7.501 0 0 0-11.309 9.856c6.001 6.885 14.673 10.834 23.791 10.834s17.79-3.949 23.791-10.834a7.501 7.501 0 0 0-.727-10.582z" fill="#000000" opacity="1" data-original="#000000"></path><path d="m416.773 178.175-8.114-32.968a7.5 7.5 0 1 0-14.564 3.585l5.644 22.929c-44.743-21.707-91.942-32.023-143.738-31.469-51.783-.56-98.993 9.761-143.738 31.469l20.147-81.86c6.631-26.94 27.173-48.775 53.61-56.984l46.12-14.319a79.157 79.157 0 0 1 23.488-3.557h.744a79.132 79.132 0 0 1 23.488 3.557l46.121 14.319c26.437 8.209 46.979 30.044 53.608 56.982l7.32 29.744a7.5 7.5 0 0 0 14.564-3.585l-7.319-29.742c-7.879-32.015-32.297-57.966-63.727-67.725l-46.12-14.32A94.126 94.126 0 0 0 256.372 0h-.744a94.162 94.162 0 0 0-27.936 4.231l-46.12 14.319c-31.43 9.759-55.849 35.709-63.728 67.725l-22.618 91.899c-25.632.487-46.338 21.476-46.338 47.223 0 25.815 20.815 46.848 46.541 47.228 14.226 48.285 49.677 87.566 95.516 106.977a141.334 141.334 0 0 0-20.933 13.395 7.5 7.5 0 0 0 9.17 11.871 125.791 125.791 0 0 1 32.354-18.111 166.95 166.95 0 0 0 44.462 6.006c15.392 0 30.3-2.099 44.466-6.007 29.884 11.326 54.621 33.948 68.667 62.635-8.61 7.251-18.01 14.231-27.754 20.643v-13.036c0-4.142-3.357-7.5-7.5-7.5s-7.5 3.358-7.5 7.5v40.001H185.605v-40.001c0-4.142-3.357-7.5-7.5-7.5s-7.5 3.358-7.5 7.5v13.026c-9.739-6.409-19.134-13.386-27.739-20.632a126.234 126.234 0 0 1 16.017-24.862 7.501 7.501 0 0 0-11.573-9.544c-20.285 24.594-32.18 55.948-32.18 89.514a7.5 7.5 0 0 0 7.5 7.5h266.738a7.5 7.5 0 0 0 7.5-7.5c0-53.246-29.947-100.874-75.804-124.903 45.834-19.413 81.28-58.691 95.505-106.971 25.726-.379 46.541-21.413 46.541-47.228.001-25.748-20.704-46.736-46.337-47.223zM63.888 225.397c0-16.274 12.12-29.763 27.807-31.933a167.872 167.872 0 0 0 .008 63.867c-15.69-2.166-27.815-15.657-27.815-31.934zM170.605 497H130.35a124.279 124.279 0 0 1 6.521-33.118 315.204 315.204 0 0 0 33.734 23.93zm211.044 0h-40.272v-9.179a315.016 315.016 0 0 0 33.75-23.941 124.24 124.24 0 0 1 6.522 33.12zM255.918 155.251h.164c51.408-.557 98.065 10.083 142.231 32.501l-18.342 17.74c-9.332 9.027-23.824 10.174-34.462 2.726-26.57-18.607-57.489-28.44-89.424-28.44h-.09c-32.013.018-62.964 9.853-89.506 28.44-10.634 7.446-25.127 6.302-34.462-2.726l-18.342-17.74c44.169-22.418 90.824-33.051 142.233-32.501zm.08 222.511c-93.328 0-165.491-83.75-150.376-176.942l15.979 15.454c14.486 14.012 36.985 15.791 53.493 4.231 24.011-16.815 51.989-25.711 80.91-25.728h.082c28.838 0 56.786 8.896 80.82 25.728 16.518 11.567 39.016 9.773 53.493-4.231l15.982-15.457c15.074 93.024-56.88 176.945-150.383 176.945zm164.299-120.431a167.975 167.975 0 0 0 .012-63.866c15.685 2.172 27.802 15.66 27.802 31.932 0 16.277-12.124 29.768-27.814 31.934z" fill="#000000" opacity="1" data-original="#000000"></path></g></svg>