<svg xmlns="http://www.w3.org/2000/svg" version="1.1" xmlns:xlink="http://www.w3.org/1999/xlink" width="512" height="512" x="0" y="0" viewBox="0 0 512 512" style="enable-background:new 0 0 512 512" xml:space="preserve"><g><path fill="#ffbd86" d="M255.999 359.721c-17.073 0-33.461 2.979-48.682 8.431-36.868 13.204-67.827 41.38-84.095 78.69-7.708 17.677-11.999 37.173-11.999 57.658H256V359.721h-.001z" opacity="1" data-original="#ffbd86"></path><path fill="#fed2a4" d="M388.778 446.84c-15.658-35.91-45.806-64.981-84.113-78.694A144.327 144.327 0 0 0 256 359.721V504.5h144.777c0-20.485-4.291-39.982-11.999-57.66z" opacity="1" data-original="#fed2a4"></path><path fill="#82888b" d="M304.665 368.146a144.333 144.333 0 0 0-48.666-8.425c-17.073 0-33.461 2.979-48.682 8.431-36.868 13.204-67.827 41.38-84.095 78.69 14.364 12.627 31.023 24.712 48.222 34.953V504.5h169.095v-22.696c17.204-10.243 33.87-22.332 48.239-34.964-15.658-35.909-45.807-64.98-84.113-78.694z" opacity="1" data-original="#82888b"></path><path fill="#676f72" d="M207.332 368.145c-32.839 11.764-60.359 35.114-77.44 65.331a139.773 139.773 0 0 0-5.119 9.932 143.737 143.737 0 0 0-1.551 3.434c14.363 12.627 31.023 24.712 48.221 34.953V504.5h12.168a170.223 170.223 0 0 1 23.721-62.918z" opacity="1" data-original="#676f72"></path><path fill="#fce3a0" d="M255.999 359.721c-16.744 0-33.164 2.871-48.667 8.424V504.5h97.364V368.157a144.27 144.27 0 0 0-48.697-8.436z" opacity="1" data-original="#fce3a0"></path><path fill="#ffce71" d="M304.647 368.141a144.26 144.26 0 0 0-48.649-8.42c-16.744 0-33.164 2.871-48.667 8.424v73.436c21.893-34.997 56.181-61.578 97.316-73.44z" opacity="1" data-original="#ffce71"></path><path fill="#ffce71" d="m207.332 368.145-10.301 15.07c-10.852 15.873.514 37.413 19.743 37.413H256v-78.662z" opacity="1" data-original="#ffce71"></path><path fill="#fce3a0" d="m314.96 383.216-10.265-15.057L256 341.967v78.662h39.217c19.228 0 30.595-21.54 19.743-37.413z" opacity="1" data-original="#fce3a0"></path><path fill="#ffbd86" d="m256.04 342-48.708 26.146c8.547 22.415 25.677 40.201 48.708 52.516 23.03-12.315 40.108-30.09 48.655-52.504z" opacity="1" data-original="#ffbd86"></path><g fill="#ffbd86"><circle cx="82.459" cy="201.524" r="43.146" fill="#ffbd86" opacity="1" data-original="#ffbd86"></circle><circle cx="429.541" cy="201.524" r="43.146" fill="#ffbd86" opacity="1" data-original="#ffbd86"></circle></g><path fill="#fed2a4" d="M304.649 368.141c72.162-21.035 124.891-87.664 124.891-166.616 0-86.046-62.622-157.465-144.778-171.17a174.685 174.685 0 0 0-28.764-2.373c-95.841 0-173.539 77.697-173.539 173.542 0 78.952 52.73 145.581 124.89 166.616 15.437 4.5 31.759 6.923 48.649 6.923 9.8 0 19.409-.816 28.764-2.379a172.77 172.77 0 0 0 19.887-4.543z" opacity="1" data-original="#fed2a4"></path><path fill="#ffbd86" d="M139.987 201.524c0-86.045 62.625-157.464 144.776-171.17a174.685 174.685 0 0 0-28.764-2.373c-95.841 0-173.539 77.697-173.539 173.542 0 95.842 77.698 173.539 173.539 173.539 9.801 0 19.407-.818 28.764-2.379-82.151-13.705-144.776-85.117-144.776-171.159z" opacity="1" data-original="#ffbd86"></path><ellipse cx="161.392" cy="260.561" fill="#ffbd86" rx="34.536" ry="27.503" opacity="1" data-original="#ffbd86"></ellipse><ellipse cx="350.467" cy="260.561" fill="#ffbd86" rx="34.678" ry="27.503" opacity="1" data-original="#ffbd86"></ellipse><path fill="#ff8f71" d="M450.827 58.772c-.458-8.815-9.275-14.79-17.56-11.743a99.798 99.798 0 0 1-70.418-.58l-68.554-26.497a185.298 185.298 0 0 0-46.908-11.376C196.589 3.08 144.922 18.735 105.375 53.298c-30.163 26.362-37.58 70.689-17.593 105.406 14.1 14.101 37.225 14.259 51.007-.152.039-.04.075-.083.114-.123a62.217 62.217 0 0 0 10.528-14.978l.044-.088c6.938-13.785 18.735-24.574 33.175-30.02a207.815 207.815 0 0 1 57.754-12.776 207.814 207.814 0 0 1 88.575 12.637l22.682 8.506 10.906 21.742a62.205 62.205 0 0 0 10.637 15.097c.036.037.074.071.109.109 13.796 14.304 36.836 14.116 50.903.049 25.964-29.396 27.93-74.522 26.611-99.935z" opacity="1" data-original="#ff8f71"></path><path fill="#ff6f4d" d="M247.388 8.576C196.589 3.08 144.922 18.735 105.375 53.298c-30.163 26.362-37.58 70.689-17.593 105.406 14.1 14.101 37.225 14.259 51.007-.152.039-.04.075-.083.114-.123a62.217 62.217 0 0 0 10.528-14.978l.044-.088c6.938-13.785 18.735-24.574 33.175-30.02a207.815 207.815 0 0 1 57.754-12.776c-38.306-47.312-.593-85.175 6.984-91.991z" opacity="1" data-original="#ff6f4d"></path><path d="M280.615 228.174a7.496 7.496 0 0 0-10.581.726c-3.544 4.065-8.659 6.396-14.034 6.396s-10.49-2.331-14.034-6.396a7.498 7.498 0 0 0-10.581-.726 7.5 7.5 0 0 0-.726 10.581c6.393 7.335 15.629 11.541 25.341 11.541s18.948-4.206 25.341-11.541a7.498 7.498 0 0 0-.726-10.581z" fill="#000000" opacity="1" data-original="#000000"></path><path d="M438.747 151.733c16.176-25.601 19.884-57.491 19.884-81.275 0-5.244-.239-11.734-.38-12.734-1.132-13.555-14.754-22.445-27.572-17.734a92.24 92.24 0 0 1-65.125-.537C297.332 13.084 272.409 0 227.434 0A192.93 192.93 0 0 0 100.44 47.65 91.227 91.227 0 0 0 84 66.587a7.501 7.501 0 0 0 12.572 8.182 76.241 76.241 0 0 1 13.739-15.823A177.917 177.917 0 0 1 227.434 15c41.724 0 63.702 11.772 132.712 38.445a107.235 107.235 0 0 0 75.708.624c3.361-1.237 6.825 1.093 7.399 4.374-4.394 23.825-13.903 40.808-28.292 50.46a7.5 7.5 0 0 0 8.355 12.457c6.637-4.452 12.41-10.053 17.32-16.753-3.27 17.368-9.744 35.121-21.88 48.952-11.604 11.412-35.4 14.602-49.483-13.473l-3.817-7.61c4.352.622 9.362 1.072 14.765 1.072 4.081 0 8.112-.26 11.981-.771a7.501 7.501 0 0 0-1.969-14.871c-14.02 1.859-28.465-.744-36.031-3.255-24.007-9.004-54.158-22.204-97.576-22.204-26.399 0-52.217 4.671-76.622 13.877-16.145 6.09-29.365 18.046-37.228 33.666l-.049.097c-7.053 14.061-17.441 21.804-29.251 21.804-7.137 0-14.429-2.91-19.701-7.823C84.692 137.78 81.8 118.5 86.01 99.824a7.5 7.5 0 0 0-14.633-3.299c-4.035 17.891-2.754 36.996 4.482 54.798-24.817 3.246-44.046 24.512-44.046 50.2 0 27.823 22.552 50.47 50.335 50.639 15.64 53.891 54.852 96.159 104.668 116.719-49.495 25.377-83.094 76.838-83.094 135.619 0 4.143 3.357 7.5 7.5 7.5h289.555c4.143 0 7.5-3.357 7.5-7.5 0-31.832-9.836-61.471-26.718-86.041a7.501 7.501 0 0 0-12.364 8.494 137.948 137.948 0 0 1 10.408 17.893c-13.053 11.03-27.782 21.513-42.902 30.514a7.5 7.5 0 0 0-3.664 6.444V497h-20.843v-73.86c12.424-7.985 17.683-23.591 12.401-37.526 9.426 5.455 18.188 12.036 26.197 19.699a7.47 7.47 0 0 0 5.184 2.081 7.5 7.5 0 0 0 5.186-12.918c-10.806-10.34-22.849-18.907-35.956-25.604 49.806-20.563 89.009-62.827 104.646-116.709 27.783-.169 50.335-22.816 50.335-50.639 0-24.782-17.896-45.448-41.44-49.791zM78.445 236.938c-17.771-2.002-31.631-17.117-31.631-35.414 0-18.298 13.862-33.413 31.636-35.413a181.541 181.541 0 0 0-.005 70.827zm269.593 249.097a341 341 0 0 0 37.583-26.709A135.538 135.538 0 0 1 393.076 497h-45.038zM113.477 176.89c10.297 0 29.53-3.907 42.698-30.156 6.166-12.251 16.509-21.617 29.122-26.375 23.146-8.73 47.212-12.912 71.329-12.912 39.042 0 65.865 11.232 89.646 20.243l9.592 19.123c11.901 23.722 30.833 32.279 48.929 29.608l-15.094 25.062c-5.599-7.99-14.868-13.229-25.344-13.229h-72.139c-21.957-14.296-50.476-14.296-72.433 0h-72.139c-10.476 0-19.745 5.239-25.344 13.229l-15.092-25.059a43.03 43.03 0 0 0 6.269.466zm224.698 43.014c0-4.143-3.357-7.5-7.5-7.5s-7.5 3.357-7.5 7.5c0 15.157-.03 14.463.048 15.175-6.96-.452-13.081-5.012-15.449-11.643l-7.209-20.183h63.791c8.786 0 15.935 7.148 15.935 15.936 0 8.786-7.148 15.935-15.935 15.935H338.12c.089-.77.055-.068.055-15.22zm-149.35 0c0-4.143-3.357-7.5-7.5-7.5s-7.5 3.357-7.5 7.5c0 15.152-.035 14.449.055 15.22h-26.235c-8.786 0-15.935-7.148-15.935-15.936 0-8.786 7.148-15.935 15.935-15.935h63.791l-7.21 20.183c-2.368 6.631-8.488 11.19-15.448 11.643.077-.712.047-.017.047-15.175zM163.943 497h-45.02a135.53 135.53 0 0 1 7.454-37.672 341.203 341.203 0 0 0 37.565 26.698V497zm35.888 0h-20.888v-15.205a7.5 7.5 0 0 0-3.663-6.444c-15.118-9.003-29.843-19.481-42.886-30.504 12.037-24.826 31.338-45.454 54.981-59.178-5.233 13.882-.025 29.499 12.456 37.495zm3.393-109.553 2.887-4.224c6.209 11.183 14.683 21.245 25.17 29.906h-14.507c-13.225 0-21.009-14.772-13.55-25.682zM248.5 497h-33.669v-68.938c.644.039 1.291.066 1.942.066H248.5zm-27.37-117.802a181.966 181.966 0 0 0 34.868 3.366c11.902 0 23.58-1.16 34.917-3.375-8.027 13.03-19.851 24.209-34.875 32.893-15.043-8.694-26.878-19.871-34.91-32.884zM297.195 497H263.5v-68.871h31.717c.664 0 1.322-.027 1.979-.068V497zm-1.978-83.871h-14.43c10.46-8.648 18.917-18.699 25.122-29.875l2.86 4.195c7.462 10.916-.339 25.68-13.552 25.68zm-39.219-45.566c-100.636 0-177.897-88.425-164.547-188.231l25.348 42.089c1.149 16.018 14.539 28.702 30.845 28.702h39.996c13.746 0 26.088-8.697 30.711-21.643l9.957-27.875c16.836-10.774 38.548-10.774 55.383 0l9.956 27.875c4.624 12.945 16.966 21.643 30.712 21.643h39.996c16.306 0 29.696-12.684 30.845-28.702l25.351-42.093c13.291 99.526-63.616 188.235-164.553 188.235zm177.557-130.625a181.712 181.712 0 0 0 .002-70.826c17.771 2.002 31.629 17.116 31.629 35.412.001 18.297-13.859 33.412-31.631 35.414z" fill="#000000" opacity="1" data-original="#000000"></path><circle cx="277.524" cy="447.804" r="7.5" fill="#000000" opacity="1" data-original="#000000"></circle><circle cx="277.524" cy="486.563" r="7.5" fill="#000000" opacity="1" data-original="#000000"></circle></g></svg>