<svg xmlns="http://www.w3.org/2000/svg" version="1.1" xmlns:xlink="http://www.w3.org/1999/xlink" width="512" height="512" x="0" y="0" viewBox="0 0 512 512" style="enable-background:new 0 0 512 512" xml:space="preserve"><g><path fill="#ffbd86" d="M255.999 368.872c-15.994 0-31.346 2.791-45.605 7.898-34.538 12.369-63.54 38.765-78.78 73.717-7.221 16.56-11.24 34.824-11.24 54.014H256V368.872h-.001z" opacity="1" data-original="#ffbd86"></path><path fill="#fed2a4" d="M380.386 450.485c-14.668-33.64-42.911-60.874-78.797-73.721A135.208 135.208 0 0 0 256 368.872V504.5h135.627c0-19.19-4.02-37.455-11.241-54.015z" opacity="1" data-original="#fed2a4"></path><path fill="#ff8e9e" d="M301.589 376.764a135.22 135.22 0 0 0-45.591-7.892c-15.994 0-31.346 2.791-45.605 7.898-34.538 12.369-63.54 38.765-78.78 73.717 13.456 11.829 29.063 23.15 45.174 32.743v21.27h158.408v-21.261c16.117-9.595 31.73-20.92 45.19-32.754-14.668-33.64-42.91-60.874-78.796-73.721z" opacity="1" data-original="#ff8e9e"></path><path fill="#ea5b70" d="M285.627 372.146a135.617 135.617 0 0 0-29.628-3.274c-15.994 0-31.346 2.791-45.605 7.898-34.538 12.369-63.54 38.765-78.78 73.717 13.456 11.829 29.063 23.15 45.174 32.743v21.27h23.123c.065-58.933 35.23-109.644 85.716-132.354z" opacity="1" data-original="#ea5b70"></path><path fill="#ffbd86" d="m256 352.24-45.607 24.53c3.247 8.516 7.819 16.306 13.537 23.337 16.508 20.299 47.636 20.294 64.132-.014 5.709-7.029 10.281-14.818 13.526-23.328z" opacity="1" data-original="#ffbd86"></path><g fill="#ffbd86"><circle cx="93.427" cy="220.673" r="40.419" fill="#ffbd86" opacity="1" data-original="#ffbd86"></circle><circle cx="418.573" cy="220.673" r="40.419" fill="#ffbd86" opacity="1" data-original="#ffbd86"></circle></g><path fill="#fed2a4" d="M301.575 376.759c67.601-19.706 116.998-82.124 116.998-156.086 0-80.608-58.664-147.513-135.628-160.351a163.69 163.69 0 0 0-26.946-2.223c-89.784 0-162.571 72.786-162.571 162.574 0 73.962 49.397 136.38 116.997 156.086 14.461 4.216 29.752 6.485 45.575 6.485 9.181 0 18.182-.764 26.946-2.229a161.98 161.98 0 0 0 18.629-4.256z" opacity="1" data-original="#fed2a4"></path><path fill="#ffbd86" d="M147.319 220.673c0-80.606 58.667-147.512 135.626-160.351a163.681 163.681 0 0 0-26.946-2.223c-89.784 0-162.571 72.786-162.571 162.574 0 89.785 72.787 162.571 162.571 162.571 9.181 0 18.18-.767 26.946-2.229-76.959-12.839-135.626-79.738-135.626-160.342z" opacity="1" data-original="#ffbd86"></path><ellipse cx="167.371" cy="275.978" fill="#ffbd86" rx="32.353" ry="25.765" opacity="1" data-original="#ffbd86"></ellipse><ellipse cx="344.496" cy="275.978" fill="#ffbd86" rx="32.486" ry="25.765" opacity="1" data-original="#ffbd86"></ellipse><path fill="#ffce71" d="M373.624 7.504c-12.058.171-22.801 5.76-29.914 14.442-2.184 2.665-5.465 4.186-8.91 4.186h-.008c-3.414 0-6.698-1.468-8.855-4.114C318.713 13.16 307.718 7.5 295.397 7.5s-23.316 5.66-30.539 14.517c-2.157 2.646-5.441 4.114-8.855 4.114h-.004c-3.414 0-6.698-1.468-8.855-4.114C239.92 13.16 228.924 7.5 216.603 7.5s-23.316 5.66-30.539 14.517c-2.157 2.646-5.441 4.114-8.855 4.114h-.009c-3.446 0-6.727-1.521-8.91-4.186-7.113-8.682-17.857-14.272-29.915-14.442-22.107-.31-39.963 18.088-39.963 40.197v132.859h2.633a73.114 73.114 0 0 0 51.353-21.07l.002-.001 15.996-25.253a31.603 31.603 0 0 1 25.671-20.21 499.705 499.705 0 0 1 123.865 0 31.6 31.6 0 0 1 25.671 20.21l15.996 25.253.001.001a73.118 73.118 0 0 0 51.353 21.07h2.633V47.699c.002-21.98-17.984-40.506-39.962-40.195z" opacity="1" data-original="#ffce71"></path><path fill="#ffb357" d="M261.721 65.355c16.116-4.993 30.868-13.626 43.466-24.85l20.75-18.488C318.713 13.16 307.718 7.5 295.397 7.5s-23.316 5.66-30.539 14.517c-2.157 2.646-5.441 4.114-8.855 4.114h-.004c-3.414 0-6.698-1.469-8.855-4.114C239.92 13.16 228.924 7.5 216.603 7.5s-23.316 5.66-30.539 14.517c-2.157 2.646-5.441 4.114-8.855 4.114h-.009c-3.446 0-6.727-1.521-8.91-4.186-7.113-8.682-17.857-14.272-29.915-14.442-22.106-.311-39.962 18.087-39.962 40.195v132.859h2.633a73.117 73.117 0 0 0 51.353-21.069l.002-.002 15.996-25.253a31.675 31.675 0 0 1 16.642-17.689c19.853-23.785 46.363-41.796 76.682-51.189z" opacity="1" data-original="#ffb357"></path><path d="M421.088 172.848V94.332a7.5 7.5 0 0 0-7.5-7.5 7.5 7.5 0 0 0-7.5 7.5l-.002 78.549c-23.993-1.76-46.569-16.832-55.31-40.873-5.035-13.854-17.265-23.597-31.915-25.425-20.776-2.595-41.926-3.91-62.862-3.91s-42.086 1.315-62.861 3.91c-14.6 1.822-26.813 11.521-31.875 25.313-8.735 23.805-30.734 39.18-55.351 40.985V47.699c0-18.03 14.315-32.699 31.911-32.699l.446.003c9.412.133 18.239 4.396 24.219 11.694 7.614 9.297 21.953 9.177 29.388.061C197.969 19.285 206.982 15 216.603 15s18.634 4.285 24.728 11.758c7.473 9.162 21.857 9.172 29.339 0C276.763 19.285 285.776 15 295.397 15s18.634 4.285 24.727 11.757c7.42 9.1 21.757 9.255 29.388-.058a31.839 31.839 0 0 1 24.234-11.696l.422-.003c17.303 0 31.92 14.975 31.92 32.699v16.633c0 4.143 3.357 7.5 7.5 7.5s7.5-3.357 7.5-7.5V47.699C421.088 21.397 400.04 0 374.168 0a46.807 46.807 0 0 0-36.26 17.193c-1.632 1.991-4.749 1.815-6.159.084C322.794 6.298 309.545 0 295.397 0S268 6.298 259.045 17.277c-1.471 1.802-4.617 1.807-6.09 0C244 6.298 230.751 0 216.603 0s-27.397 6.298-36.352 17.278c-1.402 1.719-4.518 1.917-6.159-.086C165.167 6.299 151.915 0 137.823 0c-25.867 0-46.911 21.397-46.911 47.699v125.148c-25.455 1.344-45.404 22.319-45.404 47.826 0 26.145 20.979 47.523 47.268 47.891 10.131 34.515 31.294 65.352 60.084 87.339a7.5 7.5 0 0 0 9.105-11.922c-27.758-21.198-47.746-51.404-56.283-85.052a155.675 155.675 0 0 1-4.755-38.257 155.94 155.94 0 0 1 3.47-32.694c31.025-1.27 59.712-20.292 70.949-50.915 3.118-8.496 10.647-14.472 19.651-15.596 20.161-2.519 40.685-3.795 61.002-3.795s40.842 1.276 61.004 3.795c9.034 1.127 16.573 7.129 19.675 15.664 10.892 29.965 39.432 49.559 70.93 50.847a156.072 156.072 0 0 1 3.463 32.694c0 12.954-1.6 25.825-4.754 38.257-16.966 66.862-77.72 116.814-150.32 116.814-24.377 0-48.217-5.665-69.828-16.583a7.5 7.5 0 0 0-6.763 13.389 168.567 168.567 0 0 0 10.694 4.94c-28.899 15.07-52.195 39.804-65.358 69.988l-.005.01c-7.873 18.058-11.865 37.239-11.865 57.012a7.5 7.5 0 0 0 7.5 7.5h271.254c4.143 0 7.5-3.357 7.5-7.5 0-19.775-3.992-38.957-11.866-57.014-13.171-30.2-36.48-54.942-65.391-70.011 46.822-19.715 82.959-59.82 97.354-108.911 26.264-.369 47.268-21.721 47.268-47.891 0-25.423-19.865-46.475-45.403-47.824zM60.509 220.673c0-16.591 12.397-30.549 28.568-32.636a171.128 171.128 0 0 0-3.149 32.636c0 10.99 1.065 21.929 3.146 32.639-16.138-2.081-28.565-16.028-28.565-32.639zM287.706 387.77a79.79 79.79 0 0 1-5.464 7.593c-6.432 7.918-15.995 12.461-26.239 12.464h-.01c-10.242 0-19.807-4.539-26.244-12.453a79.746 79.746 0 0 1-5.482-7.617 170.819 170.819 0 0 0 31.731 2.987c10.722 0 21.191-.984 31.708-2.974zm-152.911 75.21a320.515 320.515 0 0 0 34.492 24.479V497h-41.199a126.517 126.517 0 0 1 6.707-34.02zm207.9 34.02v-9.532a320.436 320.436 0 0 0 34.509-24.489A126.524 126.524 0 0 1 383.911 497zm28.51-48.509c-12.137 10.228-25.812 19.947-39.847 28.303a7.502 7.502 0 0 0-3.663 6.444V497H184.287v-13.77a7.5 7.5 0 0 0-3.663-6.444c-14.029-8.354-27.698-18.069-39.831-28.293 13.62-27.889 37.072-50.071 65.585-62.105a93.324 93.324 0 0 0 11.733 18.451c9.298 11.433 23.104 17.988 37.881 17.988h.015c14.78-.005 28.585-6.567 37.877-18.007a93.5 93.5 0 0 0 11.72-18.439c28.517 12.03 51.974 34.215 65.601 62.11zm51.722-195.178a171.18 171.18 0 0 0 3.145-32.64c0-10.991-1.064-21.929-3.145-32.638 16.136 2.085 28.563 16.022 28.563 32.638.001 16.617-12.429 30.557-28.563 32.64z" fill="#000000" opacity="1" data-original="#000000"></path><path d="M193.545 251.334v-13.442c0-4.143-3.358-7.5-7.5-7.5s-7.5 3.357-7.5 7.5v13.442c0 4.143 3.358 7.5 7.5 7.5s7.5-3.357 7.5-7.5zM333.455 251.334v-13.442c0-4.143-3.357-7.5-7.5-7.5a7.5 7.5 0 0 0-7.5 7.5v13.442a7.5 7.5 0 0 0 7.5 7.5c4.143 0 7.5-3.357 7.5-7.5zM256 266.836c9.237 0 18.021-4 24.098-10.976a7.5 7.5 0 0 0-.728-10.581 7.499 7.499 0 0 0-10.582.728c-3.228 3.704-7.889 5.829-12.789 5.829s-9.561-2.125-12.789-5.829a7.5 7.5 0 0 0-11.31 9.853 31.963 31.963 0 0 0 24.1 10.976z" fill="#000000" opacity="1" data-original="#000000"></path></g></svg>