<svg xmlns="http://www.w3.org/2000/svg" version="1.1" xmlns:xlink="http://www.w3.org/1999/xlink" width="512" height="512" x="0" y="0" viewBox="0 0 512 512" style="enable-background:new 0 0 512 512" xml:space="preserve"><g><path fill="#ffbd86" d="M255.999 364.656c-16.491 0-32.32 2.878-47.023 8.143-35.612 12.754-65.515 39.97-81.229 76.008-7.445 17.075-11.59 35.906-11.59 55.693H256V364.656h-.001z" opacity="1" data-original="#ffbd86"></path><path fill="#fed2a4" d="M384.252 448.806c-15.124-34.686-44.245-62.766-81.246-76.012A139.445 139.445 0 0 0 256 364.656V504.5h139.843c0-19.787-4.145-38.619-11.591-55.694z" opacity="1" data-original="#fed2a4"></path><path fill="#efedee" d="M303.006 372.793a139.432 139.432 0 0 0-47.008-8.138c-16.491 0-32.32 2.878-47.023 8.143-35.612 12.754-65.515 39.97-81.229 76.008 13.874 12.197 29.966 23.87 46.578 33.761V504.5h163.332v-21.922c16.618-9.894 32.716-21.571 46.595-33.772-15.123-34.686-44.244-62.766-81.245-76.013z" opacity="1" data-original="#efedee"></path><path fill="#d4d4d5" d="M286.548 368.031a139.803 139.803 0 0 0-30.549-3.376c-16.491 0-32.32 2.878-47.023 8.143-35.612 12.754-65.515 39.97-81.229 76.008 13.874 12.197 29.966 23.87 46.578 33.761V504.5h23.841c.068-60.765 36.327-113.052 88.382-136.469z" opacity="1" data-original="#d4d4d5"></path><path fill="#64b3fb" d="M348.558 477.646c-.296-6.144-5.391-10.963-11.542-10.963h-1.583c6.761 0 12.113-5.784 11.51-12.518a558.235 558.235 0 0 0-1.558-15.106c-.679-5.815-5.624-10.193-11.479-10.193h-3.195c7.082 0 12.537-6.322 11.417-13.315a560.837 560.837 0 0 0-3.717-20.71l-.754-3.8a139.474 139.474 0 0 0-34.651-18.248 139.432 139.432 0 0 0-47.008-8.138c-16.491 0-32.32 2.878-47.023 8.143a139.928 139.928 0 0 0-34.651 18.262 667.308 667.308 0 0 0-4.393 24.381c-1.13 7.037 4.274 13.424 11.401 13.424h-3.241c-5.832 0-10.774 4.345-11.466 10.136a548.978 548.978 0 0 0-1.588 15.054c-.619 6.775 4.703 12.628 11.506 12.628h-1.602c-6.184 0-11.249 4.87-11.542 11.048a565.542 565.542 0 0 0-.625 26.769h186.433v-.016c0-8.954-.219-17.902-.649-26.838z" opacity="1" data-original="#64b3fb"></path><path fill="#53a3ec" d="M286.548 368.031a140.83 140.83 0 0 0-30.549-3.375 139.402 139.402 0 0 0-81.674 26.405 679.94 679.94 0 0 0-4.397 24.412c-1.109 7.025 4.288 13.393 11.404 13.393h-3.241c-5.832 0-10.774 4.345-11.466 10.136a548.978 548.978 0 0 0-1.588 15.054c-.619 6.775 4.703 12.628 11.506 12.628h-1.602c-6.129 0-11.152 4.786-11.526 10.885a574.94 574.94 0 0 0-.641 26.932H198.165c.03-26.707 7.088-52.658 20.603-75.634 15.686-26.664 39.37-48.056 67.78-60.836z" opacity="1" data-original="#53a3ec"></path><path fill="#d4d4d5" d="m256 347.507-47.016 25.285c8.255 21.651 24.769 38.8 47.016 50.696 22.245-11.895 38.734-29.046 46.99-50.696h.002z" opacity="1" data-original="#d4d4d5"></path><g fill="#ffbd86"><circle cx="88.374" cy="211.85" r="41.675" fill="#ffbd86" opacity="1" data-original="#ffbd86"></circle><circle cx="423.626" cy="211.85" r="41.675" fill="#ffbd86" opacity="1" data-original="#ffbd86"></circle></g><path fill="#fed2a4" d="M302.991 372.788c69.702-20.318 120.635-84.676 120.635-160.938 0-83.113-60.488-152.099-139.844-165.336a168.822 168.822 0 0 0-27.784-2.292c-92.575 0-167.625 75.049-167.625 167.627 0 76.261 50.933 140.619 120.633 160.938 14.911 4.347 30.677 6.687 46.991 6.687 9.466 0 18.747-.788 27.784-2.298a166.726 166.726 0 0 0 19.21-4.388z" opacity="1" data-original="#fed2a4"></path><path fill="#ffbd86" d="M143.941 211.85c0-83.112 60.491-152.097 139.842-165.336a168.704 168.704 0 0 0-27.784-2.292c-92.575 0-167.625 75.049-167.625 167.627 0 92.576 75.05 167.625 167.625 167.625 9.466 0 18.745-.79 27.784-2.298-79.352-13.238-139.842-82.216-139.842-165.326z" opacity="1" data-original="#ffbd86"></path><ellipse cx="164.617" cy="268.875" fill="#ffbd86" rx="33.359" ry="26.566" opacity="1" data-original="#ffbd86"></ellipse><ellipse cx="347.247" cy="268.875" fill="#ffbd86" rx="33.496" ry="26.566" opacity="1" data-original="#ffbd86"></ellipse><path fill="#676f72" d="M301.172 14.018A163.043 163.043 0 0 0 255.426 7.5h-29.99c-39.914 0-72.27 32.357-72.27 72.27-32.944 0-59.65 26.707-59.65 59.651v31.068c18.805 3.929 37.531 3.925 55.438.512a142.65 142.65 0 0 0 47.514-18.315 171.563 171.563 0 0 0 65.846 41.07c52.725 18.031 111.003 9.364 156.172-23.268-.002-74.124-49.575-136.697-117.314-156.47z" opacity="1" data-original="#676f72"></path><path fill="#4c5659" d="M255.426 7.5h-29.99c-39.914 0-72.271 32.357-72.271 72.271-32.944 0-59.651 26.706-59.651 59.651v31.068c18.805 3.929 37.531 3.925 55.438.512 10.775-42.667 39.542-76.507 74.421-101.419l77.797-55.564A162.987 162.987 0 0 0 255.426 7.5z" opacity="1" data-original="#4c5659"></path><path d="M176.37 229.604v13.86c0 4.142 3.357 7.5 7.5 7.5s7.5-3.358 7.5-7.5v-13.86c0-4.142-3.357-7.5-7.5-7.5s-7.5 3.358-7.5 7.5zM320.63 229.604v13.86c0 4.142 3.357 7.5 7.5 7.5s7.5-3.358 7.5-7.5v-13.86c0-4.142-3.357-7.5-7.5-7.5s-7.5 3.358-7.5 7.5zM269.362 238.125c-3.373 3.871-8.244 6.091-13.362 6.091s-9.989-2.22-13.362-6.091a7.501 7.501 0 0 0-11.309 9.856c6.224 7.14 15.215 11.235 24.671 11.235s18.447-4.095 24.671-11.235a7.5 7.5 0 0 0-.727-10.582 7.499 7.499 0 0 0-10.582.726z" fill="#000000" opacity="1" data-original="#000000"></path><path d="M425.807 162.722C421.755 71.39 346.05 0 255.427 0h-29.99c-41.491 0-75.766 31.984-79.42 72.661-33.645 3.594-60.001 32.243-60.001 66.76v23.306C59.998 163.932 39.2 185.502 39.2 211.851c0 26.955 21.771 48.913 48.628 49.167 14.759 50.66 52.139 92.097 100.808 112.489-48.011 24.796-79.978 74.641-79.978 130.994a7.5 7.5 0 0 0 7.5 7.5h279.686a7.5 7.5 0 0 0 7.5-7.5c0-55.817-31.508-105.97-79.938-130.978a174.455 174.455 0 0 0 36.472-20.679 7.5 7.5 0 0 0-8.906-12.071c-27.295 20.14-60.327 31.202-94.973 31.202-101.713 0-177.254-93.986-156.76-192.816 33.934 5.384 67.693-1.274 96.103-17.139 59.567 55.785 149.306 64.391 218.164 20.881 9.103 49.917-5.606 101.342-41.104 138.899a7.5 7.5 0 0 0 10.903 10.304c19.278-20.398 33.143-44.735 40.828-71.087 26.876-.235 48.67-22.201 48.67-49.167-.002-26.408-20.896-48.014-46.996-49.128zm-341.68 83.043c-16.843-2.067-29.928-16.488-29.928-33.915 0-17.443 13.105-31.877 29.968-33.931-4.269 21.737-4.497 44.992-.04 67.846zM155.326 497h-31.46a130.664 130.664 0 0 1 7.046-35.689c7.824 6.394 16.16 12.549 24.901 18.396a573.64 573.64 0 0 0-.487 17.293zm4.549-32.663c-8.082-5.595-15.765-11.459-22.952-17.524a132.965 132.965 0 0 1 26.263-36.541c-.719 4.299-2.166 9.884 1.61 16.49a18.92 18.92 0 0 0-5.617 11.35 556.064 556.064 0 0 0-1.609 15.26 19.119 19.119 0 0 0 2.305 10.965zM248.5 497h-78.176c.083-6.362.273-12.697.567-18.915.104-2.188 1.883-3.902 4.05-3.902H248.5zm0-37.817h-71.956c-2.387 0-4.255-2.059-4.037-4.445.445-4.873.973-9.869 1.566-14.847.24-2.009 1.968-3.525 4.019-3.525H248.5zM388.134 497h-31.481a569.766 569.766 0 0 0-.501-17.271c8.753-5.854 17.101-12.017 24.935-18.419 4 11.515 6.364 23.461 7.047 35.69zm-39.291-86.701a133.005 133.005 0 0 1 26.233 36.512c-7.188 6.066-14.872 11.931-22.955 17.527a18.988 18.988 0 0 0 2.293-10.844 570.996 570.996 0 0 0-1.579-15.307 18.96 18.96 0 0 0-5.587-11.382c3.858-6.702 2.287-12.377 1.595-16.506zm-7.777 67.708c.305 6.315.501 12.673.589 18.993H263.5v-22.817h73.516c2.168 0 3.947 1.68 4.05 3.824zm-3.13-38.077a553.964 553.964 0 0 1 1.537 14.902c.209 2.33-1.667 4.351-4.04 4.351H263.5v-22.817h70.406a4.047 4.047 0 0 1 4.03 3.564zm-7.052-44.489c1.382 6.977 2.575 13.408 3.839 21.296.387 2.42-1.525 4.628-4.012 4.628h-57.114c14.824-10.605 26.161-23.816 33.398-38.963a132.052 132.052 0 0 1 23.889 13.039zm-74.886-8.466c11.006 0 21.995-1.012 33.13-3.15-7.698 12.281-18.916 22.841-33.128 31.08-14.234-8.25-25.464-18.818-33.165-31.102a175.895 175.895 0 0 0 33.163 3.172zm-17.6 34.391h-57.065c-2.501 0-4.396-2.244-3.996-4.735a656.5 656.5 0 0 1 3.767-21.173 132.417 132.417 0 0 1 23.879-13.046c7.237 15.138 18.58 28.346 33.415 38.954zm26.341-234.705c-33.755-11.543-58.417-31.765-81.733-59.255a7.5 7.5 0 0 0-11.439 9.703c4.086 4.817 8.396 9.429 12.681 13.851-24.705 12.782-53.822 18.091-83.232 13.297v-24.836c0-26.336 19.764-48.26 45.219-51.667.994 7.299 3.314 14.733 6.946 22.194a7.5 7.5 0 0 0 13.486-6.566C146.67 62.301 180.103 15 225.437 15h29.99c86.118 0 153.451 69.592 155.509 151.635-43.621 30.011-97.933 36.53-146.197 20.026zm163.103 59.107a176.768 176.768 0 0 0-.003-67.848c16.859 2.056 29.962 16.488 29.962 33.931 0 17.435-13.102 31.862-29.959 33.917z" fill="#000000" opacity="1" data-original="#000000"></path></g></svg>