<svg xmlns="http://www.w3.org/2000/svg" version="1.1" xmlns:xlink="http://www.w3.org/1999/xlink" width="512" height="512" x="0" y="0" viewBox="0 0 512 512" style="enable-background:new 0 0 512 512" xml:space="preserve" class=""><g><path fill="#c77464" d="m489.341 376.581-3.343-4.803a178.768 178.768 0 0 1-32.047-102.132V155.677C453.951 73.841 387.61 7.5 305.774 7.5c-48.311 0-87.475 39.164-87.475 87.475l82.928 68.197c0 107.597 70.541 202.469 173.58 233.452h.001c11.892 3.575 21.628-9.851 14.533-20.043z" opacity="1" data-original="#c77464" class=""></path><path fill="#ff8e9e" d="M284.803 437.707c-12.269-15.406-29.676-26.478-49.575-30.539a84.593 84.593 0 0 0-16.929-1.703c-26.863 0-50.86 12.598-66.503 32.241-11.74 14.742-18.776 33.449-18.776 53.786V504.5h170.56v-13.007a86.64 86.64 0 0 0-2.172-19.329 86.108 86.108 0 0 0-16.605-34.457z" opacity="1" data-original="#ff8e9e" class=""></path><g fill="#ffddcf"><path d="M303.579 491.493V504.5h-33.886v-13.007c0-3.14-.168-6.24-.496-9.295a223.81 223.81 0 0 0 32.21-10.033 86.572 86.572 0 0 1 2.172 19.328zM261.781 450.03a191.543 191.543 0 0 0 26.193-8.079 86.014 86.014 0 0 0-3.171-4.244c-12.269-15.406-29.676-26.479-49.575-30.539a84.593 84.593 0 0 0-16.929-1.703c-26.863 0-50.86 12.599-66.503 32.241a87.173 87.173 0 0 0-3.173 4.244 191.866 191.866 0 0 0 26.196 8.08c28.037 6.464 58.921 6.467 86.962 0z" fill="#ffddcf" opacity="1" data-original="#ffddcf" class=""></path></g><path fill="#ffcbbe" d="M218.299 405.465c-27.951 0-53.74 13.749-69.676 36.485a86.023 86.023 0 0 0-13.432 30.214 86.63 86.63 0 0 0-2.171 19.328V504.5h33.886v-13.007c0-2.783.143-5.533.402-8.25a85.91 85.91 0 0 1 9.927-32.693c11.866-22.002 32.954-38.265 57.993-43.382a84.66 84.66 0 0 0-16.929-1.703z" opacity="1" data-original="#ffcbbe" class=""></path><path fill="#ea5b70" d="M148.623 441.951a86.023 86.023 0 0 0-13.432 30.214 224.01 224.01 0 0 0 32.222 10.035 85.979 85.979 0 0 1 9.812-31.631c-.805-.174-1.606-.353-2.406-.537a192.15 192.15 0 0 1-26.196-8.081z" opacity="1" data-original="#ea5b70"></path><path fill="#ffcbbe" d="M377.855 223.902H58.744c-21.27 0-38.513 17.243-38.513 38.513s17.243 38.513 38.513 38.513h319.111c21.27 0 38.513-17.243 38.513-38.513s-17.242-38.513-38.513-38.513z" opacity="1" data-original="#ffcbbe" class=""></path><path fill="#ffddcf" d="M244.871 105.075a160.59 160.59 0 0 0-26.572-2.215c-9.054 0-17.928.766-26.571 2.215-75.47 12.653-132.984 78.275-132.984 157.341s57.514 144.688 132.985 157.341c8.643 1.449 17.517 2.215 26.571 2.215s17.929-.766 26.572-2.215c75.471-12.653 132.984-78.275 132.984-157.341s-57.514-144.688-132.985-157.341z" opacity="1" data-original="#ffddcf" class=""></path><path fill="#ffcbbe" d="M111.671 262.637c0-79.206 57.618-144.946 133.2-157.563a160.59 160.59 0 0 0-26.572-2.215c-9.054 0-17.928.766-26.571 2.215-75.47 12.654-132.984 78.276-132.984 157.342s57.514 144.688 132.985 157.341c8.643 1.449 17.517 2.215 26.571 2.215s17.929-.766 26.572-2.215c-75.583-12.618-133.201-77.916-133.201-157.12z" opacity="1" data-original="#ffcbbe" class=""></path><g fill="#ff8e9e"><path d="M131.369 289.514c-17.624 0-31.911 11.332-31.911 25.309s14.287 25.309 31.911 25.309 31.911-11.331 31.911-25.309-14.287-25.309-31.911-25.309zM305.23 289.514c-17.624 0-31.911 11.332-31.911 25.309s14.287 25.309 31.911 25.309 31.911-11.331 31.911-25.309-14.287-25.309-31.911-25.309z" fill="#ff8e9e" opacity="1" data-original="#ff8e9e" class=""></path></g><path fill="#c9aaf2" d="M336.208 90.957c-19.18-12.978-45.495-8.854-54.703 4.755v47.786h69.589c9.208-13.608 4.294-39.562-14.886-52.541z" opacity="1" data-original="#c9aaf2"></path><path fill="#d6948c" d="M218.3 84.153c-52.496 0-101.847 23.045-135.588 62.536l-.22.257c-12.445 14.623-19.061 33.326-19.061 52.528v24.427h6.482l.398-.001c21.178-.082 40.425-12.362 49.921-31.291l10.036-20.007 20.873-7.827a191.267 191.267 0 0 1 134.656.128c13.287 5.012 24.143 14.94 30.528 27.625l.041.081c9.368 18.674 28.461 31.292 50.319 31.292h6.482c0-33.848-2.117-57.012-18.96-76.837-33.894-39.894-83.474-62.911-135.907-62.911z" opacity="1" data-original="#d6948c" class=""></path><path fill="#c77464" d="m281.399 95.725.046-.006a178.103 178.103 0 0 0-63.146-11.566c-52.496 0-101.847 23.045-135.588 62.536l-.079.092a80.251 80.251 0 0 0-19.201 52.086v25.035h6.482l.398-.001c21.178-.082 40.425-12.362 49.921-31.291l10.036-20.007 20.873-7.827a191.23 191.23 0 0 1 67.158-12.176c0-.086.533-2.221.556-2.307 7.183-27.828 32.827-46.909 61.567-46.909h18.393a177.71 177.71 0 0 0-17.416-7.659z" opacity="1" data-original="#c77464" class=""></path><path fill="#d6948c" d="M159.072 93.37c-55.41 0-100.328 44.919-100.328 100.328v77.167a121.04 121.04 0 0 1-21.698 69.152l-2.264 3.252c-4.804 6.901 1.788 15.991 9.84 13.57 69.766-20.978 117.528-85.214 117.528-158.066v-37.737a29.572 29.572 0 0 1 56.15-8.438c0-32.711-26.518-59.228-59.228-59.228z" opacity="1" data-original="#d6948c" class=""></path><path d="M495.497 372.298c-21.196-30.454-34.047-62.058-34.047-102.651v-113.97C461.451 69.836 391.615 0 305.774 0c-45.67 0-84.617 32.565-93.198 76.75a185.27 185.27 0 0 0-52.157 9.154c-58.473-1.143-109.175 46.731-109.175 107.794v23.325c-21.816 3.593-38.514 22.575-38.514 45.393 0 20.752 13.564 38.368 32.721 44.071-3.727 10.955-9.285 21.664-16.826 32.497-8.842 12.703 3.281 29.507 18.156 25.037a173.004 173.004 0 0 0 30.29-12.363c9.908 15.667 22.26 29.484 36.801 41.138a7.501 7.501 0 0 0 9.381-11.705c-13.089-10.49-24.231-22.901-33.2-36.962 21.208-13.571 38.897-31.486 52.173-52.188a7.5 7.5 0 0 0 14.855-1.465v-13.205a7.49 7.49 0 0 0-3.371-6.258c10.317-22.331 15.939-46.929 15.939-72.24v-32.096c37.249-10.209 77.335-8.396 113.5 5.244 11.467 4.325 20.87 12.842 26.512 24.051 10.962 21.854 32.812 35.431 57.022 35.431h.484a152.875 152.875 0 0 1 3.186 31c0 84.522-68.298 152.068-152.056 152.068-24.783-.001-49.403-6.117-71.199-17.688a7.494 7.494 0 0 0-10.141 3.107 7.5 7.5 0 0 0 3.108 10.141 165.13 165.13 0 0 0 19.808 8.879c-16.797 13.78-27.602 32.325-31.996 51.582-2.845 12.439-2.36 20.626-2.36 34.008a7.5 7.5 0 0 0 7.5 7.5h170.56a7.5 7.5 0 0 0 7.5-7.5v-13.007a93.657 93.657 0 0 0-34.257-72.511c36.927-13.822 69.637-41.326 89.503-79.183a7.493 7.493 0 0 0 10.107-.366 7.5 7.5 0 0 0 .093-10.606 232.076 232.076 0 0 1-3.431-3.567 164.714 164.714 0 0 0 5.831-16.857c24.878-.572 44.944-20.973 44.944-45.986 0-24.439-19.154-44.481-43.238-45.922-.305-29.003-2.957-53.205-20.488-74.017 7.436-17.365.842-43.809-19.732-57.732-20.851-14.11-48.063-10.792-61.269 2.17a184.848 184.848 0 0 0-51.279-10.004C236.116 41.094 268.254 15 305.774 15c77.569 0 140.676 63.107 140.676 140.677v113.97c0 43.827 13.862 78.354 36.734 111.22 3.027 4.346-1.056 10.124-6.218 8.574-28.82-8.665-55.347-22.52-78.842-41.177a7.5 7.5 0 0 0-9.328 11.746c24.99 19.845 53.202 34.58 83.851 43.796 18.86 5.667 33.938-15.577 22.85-31.508zm-354.46 110.03a232.724 232.724 0 0 0 18.438 5.645c-.087 2.198-.069 3.126-.069 9.027h-18.913c-.021-5.622.022-10.049.544-14.672zm28.062-7.437a217.559 217.559 0 0 1-24.874-7.325 77.871 77.871 0 0 1 7.438-16.495c18.987 6.681 39.005 10.382 59.137 11.12V497h-36.394c0-6.472-.091-8.497.47-14.047a7.5 7.5 0 0 0-5.777-8.062zm115.85-23.825a77.982 77.982 0 0 1 7.438 16.494 217.037 217.037 0 0 1-24.875 7.329 7.5 7.5 0 0 0-5.771 8.108c.542 5.061.453 8.297.453 14.002H225.8v-34.81c20.137-.737 40.16-4.439 59.149-11.123zM296.079 497h-18.886c0-5.915.017-6.805-.065-9.026a231.7 231.7 0 0 0 18.421-5.642c.351 3.034.531 6.094.531 9.161V497zm-20.553-58.596c-36.869 11.909-77.566 11.911-114.442.002a79.076 79.076 0 0 1 16.754-13.918 167.486 167.486 0 0 0 40.462 4.983c13.871 0 27.451-1.667 40.553-4.92a78.805 78.805 0 0 1 16.673 13.853zM27.73 262.416c0-14.515 10.025-26.729 23.514-30.091v38.541c0 7.242-.654 14.245-1.958 21.099-12.646-3.996-21.556-15.74-21.556-29.549zm126.92-101.38v37.736c0 56.052-30.128 108.305-78.627 136.366a157.93 157.93 0 0 1-33.56 14.518c-1.262.394-2.289-1.01-1.525-2.103 17.265-24.804 25.307-49.172 25.307-76.688v-77.167c0-86.499 111.662-123.655 139.816-62.725-22.825-9.834-48.12 5.215-51.343 29.058a7.508 7.508 0 0 0-.068 1.005zm47.626-15.229a198.696 198.696 0 0 0-26.748 3.972c7.02-7.343 17.888-8.967 26.748-3.972zm206.593 116.609c0 15.51-11.446 28.397-26.335 30.661a167.96 167.96 0 0 0 0-61.32c14.889 2.262 26.335 15.149 26.335 30.659zm-85.844-73.259c-7.302-14.509-19.583-25.614-34.58-31.271-20.221-7.626-41.575-11.83-63.053-12.594-2.433-22.23-15.82-41.213-34.642-51.409 58.004-9.472 116.211 11.604 154.756 54.62 12.517 13.96 19.572 26.355 20.115 67.888-18.076-.39-34.31-10.717-42.596-27.234zm8.979-91.988c11.688 7.908 16.99 21.595 16.062 32.366a187.05 187.05 0 0 0-52.379-35.961c10.382-4.809 25.187-3.938 36.317 3.595z" fill="#000000" opacity="1" data-original="#000000" class=""></path><path d="M294.517 290.476v-13.205c0-4.143-3.358-7.5-7.5-7.5s-7.5 3.357-7.5 7.5v13.205a7.5 7.5 0 0 0 15 0zM218.3 305.836a31.529 31.529 0 0 0 23.771-10.826 7.5 7.5 0 0 0-11.309-9.855c-3.146 3.611-7.688 5.682-12.462 5.682s-9.316-2.071-12.463-5.682a7.5 7.5 0 1 0-11.308 9.855 31.529 31.529 0 0 0 23.771 10.826z" fill="#000000" opacity="1" data-original="#000000" class=""></path></g></svg>