<svg xmlns="http://www.w3.org/2000/svg" version="1.1" xmlns:xlink="http://www.w3.org/1999/xlink" width="512" height="512" x="0" y="0" viewBox="0 0 512 512" style="enable-background:new 0 0 512 512" xml:space="preserve"><g><path fill="#ffd4bd" d="M256 361.648V504.5h142.851c0-20.194-4.227-39.438-11.84-56.892-22.016-50.476-72.385-85.96-131.011-85.96z" opacity="1" data-original="#ffd4bd"></path><path fill="#ffbf9d" d="M255.999 361.648c-16.845 0-33.015 2.94-48.034 8.318-55.871 20.009-94.815 73.336-94.815 134.534H256V361.648h-.001z" opacity="1" data-original="#ffbf9d"></path><path fill="#d4d4d5" d="M387.011 447.607c-10.173-23.332-26.581-43.828-47.597-58.998v-.001c-24.625-17.68-53.331-26.96-83.414-26.96h-.001c-30.949 0-60.096 10.042-83.43 26.978l-.001.004c-20.341 14.683-37.046 34.823-47.579 58.979 11.065 9.727 23.518 19.114 36.519 27.578a578.671 578.671 0 0 0-.738 29.313h190.442v-.017c0-9.769-.255-19.53-.752-29.276 13.012-8.469 25.477-17.864 36.551-27.6z" opacity="1" data-original="#d4d4d5"></path><path fill="#b9bbbc" d="M255.999 361.648c-28.734 0-57.422 8.495-83.359 26.929a3.308 3.308 0 0 1-.072.053c-20.341 14.683-37.046 34.823-47.579 58.979 11.065 9.727 23.518 19.114 36.519 27.578a578.671 578.671 0 0 0-.738 29.313h36.153c.008-7.611.58-15.089 1.662-22.402 5.885-39.78 27.088-74.558 57.416-98.174v-22.276h-.002z" opacity="1" data-original="#b9bbbc"></path><path fill="#b9bbbc" d="m256 344.13-48.027 25.829c8.433 22.117 25.302 39.635 48.027 51.786 22.724-12.151 39.567-29.67 48-51.786h.002z" opacity="1" data-original="#b9bbbc"></path><circle cx="84.768" cy="205.556" r="42.571" fill="#ffbf9d" opacity="1" data-original="#ffbf9d"></circle><circle cx="427.232" cy="205.556" r="42.571" fill="#ffbf9d" opacity="1" data-original="#ffbf9d"></circle><path fill="#ffd4bd" d="M304.002 369.955c71.202-20.755 123.23-86.498 123.23-164.399 0-84.901-61.789-155.37-142.852-168.892a172.384 172.384 0 0 0-28.381-2.341c-94.566 0-171.23 76.663-171.23 171.233 0 77.901 52.028 143.644 123.228 164.399 15.232 4.44 31.337 6.831 48.002 6.831 9.67 0 19.15-.805 28.381-2.348a170.503 170.503 0 0 0 19.622-4.483z" opacity="1" data-original="#ffd4bd"></path><path fill="#ffbf9d" d="M141.53 205.556c0-84.9 61.792-155.368 142.85-168.892a172.384 172.384 0 0 0-28.381-2.341c-94.566 0-171.23 76.663-171.23 171.233 0 94.567 76.664 171.23 171.23 171.23 9.67 0 19.149-.807 28.381-2.348-81.058-13.523-142.85-83.985-142.85-168.882z" opacity="1" data-original="#ffbf9d"></path><ellipse cx="162.651" cy="263.807" fill="#ffbf9d" rx="34.077" ry="27.137" opacity="1" data-original="#ffbf9d"></ellipse><ellipse cx="349.21" cy="263.807" fill="#ffbf9d" rx="34.216" ry="27.137" opacity="1" data-original="#ffbf9d"></ellipse><path fill="#ff8e9e" d="M287.572 296.176c-6.604 10.714-18.439 17.858-31.95 17.858-13.412 0-25.174-7.039-31.805-17.623-6.42-10.248-21.641-4.35-20.227 7.11 3.92 31.756 30.566 58.433 44.283 70.25a12.454 12.454 0 0 0 16.251 0c13.718-11.817 40.364-38.494 44.284-70.25 1.422-11.509-14.411-17.771-20.836-7.345z" opacity="1" data-original="#ff8e9e"></path><path fill="#ffb5c0" d="M421.971 163.306c19.22-46.827-27.522-93.569-62.193-93.951-6.884-24.97-27.165-42.174-53.819-51.985C214.385-16.336 47.552 37.256 90.023 163.306c-3.43 13.514-5.254 27.668-5.254 42.249v.364c.048 23.109 32.869 28.209 39.866 6.185a41.514 41.514 0 0 0 1.942-12.588h31.68c53.984 0 106.049-18.511 147.744-51.997l36.598 36.598a52.574 52.574 0 0 0 37.176 15.399h5.649c0 4.388.68 8.617 1.942 12.587 6.997 22.025 39.819 16.925 39.867-6.185v-.364a171.538 171.538 0 0 0-5.262-42.248z" opacity="1" data-original="#ffb5c0"></path><path fill="#ff8e9e" d="M262.126 41.934c16.077-4.97 31.003-13.092 43.547-24.308l.285-.255C214.385-16.336 47.552 37.256 90.023 163.306c-3.43 13.514-5.254 27.668-5.254 42.249v.364c.048 23.109 32.87 28.21 39.866 6.185a41.512 41.512 0 0 0 1.942-12.587h15.066c2.576-74.291 52.472-136.558 120.483-157.583z" opacity="1" data-original="#ff8e9e"></path><path d="M282.547 448.559c0 4.888 3.962 8.849 8.849 8.849s8.849-3.961 8.849-8.849a8.85 8.85 0 0 0-17.698 0zM291.396 477.953a8.85 8.85 0 1 0 0 17.698 8.85 8.85 0 0 0 0-17.698zM174.818 223.691v14.158c0 4.143 3.357 7.5 7.5 7.5s7.5-3.357 7.5-7.5v-14.158c0-4.143-3.357-7.5-7.5-7.5s-7.5 3.358-7.5 7.5zM322.182 223.691v14.158c0 4.143 3.357 7.5 7.5 7.5s7.5-3.357 7.5-7.5v-14.158c0-4.143-3.357-7.5-7.5-7.5s-7.5 3.358-7.5 7.5zM269.771 232.501c-3.477 3.989-8.496 6.277-13.771 6.277s-10.295-2.288-13.771-6.277a7.5 7.5 0 0 0-11.309 9.855c13.271 15.228 36.901 15.214 50.16 0a7.5 7.5 0 0 0-11.309-9.855z" fill="#000000" opacity="1" data-original="#000000"></path><path d="M432.401 155.751c10.417-43.734-29.254-88.864-67.008-93.504-8.278-23.347-27.815-41.231-56.844-51.915C290.185 3.572 268.374 0 245.474 0 165.2 0 75.727 43.213 75.727 124.482c0 10.075 1.436 20.548 4.227 31.238-25.358 2.432-45.256 23.851-45.256 49.835 0 27.466 22.231 49.829 49.643 50.061 15.066 51.86 53.336 94.254 103.193 115.042a150.437 150.437 0 0 0-27.515 18.213 7.5 7.5 0 1 0 9.594 11.532c10.429-8.678 21.958-15.667 34.345-20.845 8.981 18.873 24.205 34.82 44.542 46.583V497h-80.18c.094-7.187.32-14.368.678-21.433.394-7.739-6.238-5.799-34.829-29.949a135.571 135.571 0 0 1 15.62-24.892 7.499 7.499 0 0 0-1.231-10.534 7.499 7.499 0 0 0-10.534 1.231 150.238 150.238 0 0 0-19.911 33.191c-.063.143-.12.286-.172.431-8.156 18.871-12.291 38.87-12.291 59.454 0 4.14 3.358 7.5 7.5 7.5h285.701c4.143 0 7.5-3.357 7.5-7.5 0-56.723-32.244-108.311-81.94-133.813a178.13 178.13 0 0 0 22.548-11.258 7.5 7.5 0 0 0-7.644-12.906c-16.933 10.031-36.107 17.303-57.379 20.707 25.989-27.033 34.065-53.02 34.065-65.149 0-18.346-24.794-26.091-34.812-9.84-5.518 8.95-15.074 14.294-25.565 14.294-10.401 0-19.915-5.273-25.449-14.105-10.579-16.892-36.461-7.549-34.025 12.011 3.156 25.563 19.385 47.667 33.896 62.768-71.114-11.349-124.62-67.844-135.664-135.683 14.387 5.807 35.206.878 39.12-24.462 65.82.681 117.793-8.326 171.892-49.545l31.904 31.905c11.044 11.043 25.63 17.258 41.197 17.581 3.729 24.337 24.116 30.694 39.157 24.523-6.093 37.967-25.415 72.854-55.052 98.298a7.5 7.5 0 1 0 9.771 11.381 178.745 178.745 0 0 0 55.196-85.586c27.456-.181 49.739-22.565 49.739-50.063-.003-25.865-19.715-47.21-44.905-49.806zM80.644 240.376c-17.4-2.049-30.946-16.878-30.946-34.82 0-17.958 13.57-32.798 30.993-34.826-4.389 22.367-4.705 45.919-.047 69.646zM153.322 497h-32.468a133.639 133.639 0 0 1 7.301-36.876c8.06 6.595 16.648 12.948 25.661 18.974a588.241 588.241 0 0 0-.494 17.902zm237.82 0h-32.484a583.21 583.21 0 0 0-.505-17.883c9.006-6.02 17.59-12.368 25.647-18.959 4.098 11.731 6.631 24.106 7.342 36.842zm-13.366-51.339c-9.67 8.165-20.212 15.974-31.408 23.26a7.5 7.5 0 0 0-3.399 6.669 571.07 571.07 0 0 1 .69 21.41H263.5v-70.859c20.303-11.745 35.511-27.676 44.495-46.538 31.034 12.979 55.58 36.815 69.781 66.058zm-87.597-64.658c-6.5 10.474-15.501 19.727-26.679 27.417v-24.292a177.638 177.638 0 0 0 26.679-3.125zm-79.145-78.405c-.437-3.473 4.222-5.722 6.428-2.206 8.294 13.239 22.56 21.143 38.16 21.143 15.734 0 30.065-8.009 38.335-21.423v-.001c2.218-3.6 7.45-1.035 7.009 2.491-3.683 29.829-30.414 55.733-41.734 65.485-1.796 1.546-4.672 1.545-6.462.001-11.323-9.753-38.054-35.658-41.736-65.49zm37.466 81.515v24.31c-11.201-7.702-20.217-16.966-26.722-27.449a179.164 179.164 0 0 0 26.722 3.139zm146.013-174.281a34.011 34.011 0 0 1-1.59-10.315c0-4.143-3.357-7.5-7.5-7.5-7.457 0-23.28 1.041-37.521-13.202l-30.672-30.672c9.036-7.229 18.945-15.306 27.659-24.204a7.5 7.5 0 0 0-10.716-10.496c-11.413 11.655-33.923 29.076-32.911 28.264-66.428 53.324-131.205 50.311-174.685 50.311a7.499 7.499 0 0 0-7.5 7.5c0 10.141-3.475 19.182-13.587 19.182-5.282 0-13.162-3.391-13.217-12.726l-.004-1.097c0-12.906 1.783-27.012 5.021-39.717a7.503 7.503 0 0 0-.16-4.248c-4.25-12.61-6.404-24.866-6.404-36.429C90.727 52.605 173.551 15 245.474 15c21.151 0 41.171 3.253 57.894 9.408 36.239 13.339 50.112 38.68 50.112 53.79-.001 4.217-1.061 8.69-3.149 13.297a7.5 7.5 0 0 0 13.66 6.196c2.978-6.564 4.488-13.122 4.489-19.491 0-.06-.006-.119-.006-.178 30.526 7.459 61.925 47.857 46.644 82.24a7.5 7.5 0 0 0-.416 4.893 164.32 164.32 0 0 1 5.03 40.359c-.001 15.336-20.86 18.037-25.219 4.318zm36.785 30.552a178.904 178.904 0 0 0 .015-69.654c17.421 2.03 30.989 16.869 30.989 34.826.001 17.962-13.575 32.805-31.004 34.828z" fill="#000000" opacity="1" data-original="#000000"></path></g></svg>