<svg xmlns="http://www.w3.org/2000/svg" version="1.1" xmlns:xlink="http://www.w3.org/1999/xlink" width="512" height="512" x="0" y="0" viewBox="0 0 512 512" style="enable-background:new 0 0 512 512" xml:space="preserve"><g><path fill="#5fd9b3" d="M301.25 377.716a132.994 132.994 0 0 0-8.579-2.744 134.17 134.17 0 0 0-36.672-5.089c-74.21 0-134.615 60.418-134.615 134.618h269.233c-.001-57.846-36.893-107.999-89.367-126.785z" opacity="1" data-original="#5fd9b3"></path><path fill="#00ce8e" d="M292.671 374.971a134.17 134.17 0 0 0-36.672-5.089c-74.21 0-134.615 60.418-134.615 134.618h73.383c0-22.93 5.799-44.554 15.985-63.499l-.018-.008c17.076-31.768 46.539-55.973 81.937-66.022z" opacity="1" data-original="#00ce8e"></path><g fill="#c8866a"><circle cx="94.639" cy="222.788" r="40.117" fill="#c8866a" opacity="1" data-original="#c8866a"></circle><circle cx="417.361" cy="222.788" r="40.117" fill="#c8866a" opacity="1" data-original="#c8866a"></circle></g><path fill="#db9e82" d="M301.235 377.711c67.097-19.559 116.126-81.512 116.126-154.923 0-80.007-58.227-146.414-134.617-159.156a162.47 162.47 0 0 0-26.745-2.206c-89.115 0-161.36 72.244-161.36 161.363 0 73.411 49.029 135.364 116.125 154.923a161.408 161.408 0 0 0 45.235 6.437c9.112 0 18.046-.758 26.745-2.212a161.313 161.313 0 0 0 18.491-4.226z" opacity="1" data-original="#db9e82"></path><path fill="#c8866a" d="M148.129 222.788c0-80.006 58.23-146.412 134.615-159.156a162.37 162.37 0 0 0-26.745-2.206c-89.115 0-161.36 72.244-161.36 161.363 0 28.953 7.626 56.125 20.978 79.617 27.746 48.816 80.219 81.743 140.382 81.743 9.113 0 18.045-.761 26.745-2.212-76.385-12.746-134.615-79.146-134.615-159.149z" opacity="1" data-original="#c8866a"></path><g fill="#c8866a"><ellipse cx="168.032" cy="277.681" rx="32.112" ry="25.573" fill="#c8866a" opacity="1" data-original="#c8866a"></ellipse><ellipse cx="343.837" cy="277.681" rx="32.244" ry="25.573" fill="#c8866a" opacity="1" data-original="#c8866a"></ellipse></g><path fill="#4c5659" d="M292.871 252.678c-11.448-11.987-28.826-13.496-36.871-2.229-8.045-11.267-25.423-9.758-36.871 2.229-12.138 12.729-21.606 24.625-17.913 31.016 3.689 6.394 18.723 4.139 35.818-.005 8.495-2.068 15.283-7.027 18.966-13.097 3.684 6.07 10.471 11.028 18.966 13.097 17.095 4.144 32.129 6.399 35.818.005 3.693-6.391-5.775-18.287-17.913-31.016z" opacity="1" data-original="#4c5659"></path><path fill="#676f72" d="M415.822 200.407c29.837-29.832 35.104-76.322 12.698-112.073v-.001c-27.297-43.555-72.34-72.276-122.47-79.196A172.395 172.395 0 0 0 282.464 7.5h-52.928C170.18 7.5 115.001 38.039 83.48 88.333v.001c-22.406 35.751-17.139 82.241 12.698 112.073h.01a162.763 162.763 0 0 0-1.549 22.38c0 28.955 7.623 56.124 20.978 79.616 3.171-.889 6.187-2.319 8.83-4.339a26.506 26.506 0 0 0 9.404-28.42 209.923 209.923 0 0 1-7.785-71.185 103.644 103.644 0 0 0 25.406-8.506 104.005 104.005 0 0 0 28.051-19.974c19.208-19.209 44.513-30.427 76.477-30.427s57.269 11.218 76.477 30.427a103.873 103.873 0 0 0 53.458 28.479 209.926 209.926 0 0 1-7.785 71.185 26.508 26.508 0 0 0 9.404 28.42c2.643 2.02 5.656 3.45 8.827 4.339 13.355-23.492 20.981-50.661 20.981-79.616 0-7.595-.534-15.065-1.549-22.38h.009z" opacity="1" data-original="#676f72"></path><path fill="#4c5659" d="M240.809 76.73c29.271-13.789 52.41-37.9 65.241-67.593A172.395 172.395 0 0 0 282.464 7.5h-52.928C170.18 7.5 115.001 38.039 83.48 88.333v.001c-22.406 35.751-17.139 82.241 12.698 112.073h.01a162.763 162.763 0 0 0-1.549 22.38c0 28.955 7.623 56.126 20.978 79.617 3.171-.889 6.187-2.32 8.83-4.34a26.506 26.506 0 0 0 9.404-28.42 209.923 209.923 0 0 1-7.785-71.185 103.644 103.644 0 0 0 25.406-8.506c10.388-50.217 44.12-91.921 89.337-113.223z" opacity="1" data-original="#4c5659"></path><path d="M186.566 232.378a7.499 7.499 0 0 0-7.5 7.5v13.343c0 4.143 3.357 7.5 7.5 7.5s7.5-3.357 7.5-7.5v-13.343c0-4.143-3.357-7.5-7.5-7.5zM325.434 260.721c4.143 0 7.5-3.357 7.5-7.5v-13.343c0-4.143-3.357-7.5-7.5-7.5s-7.5 3.357-7.5 7.5v13.343a7.5 7.5 0 0 0 7.5 7.5zM298.295 247.498c-12.055-12.623-30.066-16.065-42.295-7.482-12.281-8.62-30.294-5.085-42.299 7.486-13.252 13.896-25.633 28.429-18.982 39.939 6.642 11.515 25.419 8.062 44.089 3.535 6.577-1.602 12.51-4.695 17.192-8.858 4.684 4.164 10.617 7.258 17.2 8.86 9.309 2.256 18.646 4.246 26.49 4.246 7.883 0 14.261-2.01 17.588-7.778 6.653-11.516-5.728-26.048-18.979-39.944l-.004-.004zm-21.554 28.904c-6.203-1.51-11.56-5.137-14.329-9.701a7.5 7.5 0 0 0-12.824 0c-2.77 4.564-8.126 8.191-14.321 9.699-19.096 4.629-25.327 4.043-27.29 3.391.418-2.03 3.023-7.722 16.576-21.934 8.01-8.39 20.099-10.396 25.344-3.051a7.498 7.498 0 0 0 12.208 0c5.275-7.389 17.397-5.269 25.344 3.051 13.554 14.214 16.158 19.904 16.576 21.934-1.967.652-8.199 1.236-27.284-3.389z" fill="#000000" opacity="1" data-original="#000000"></path><path d="M439.303 180.546c15.923-31.564 13.243-67.999-4.428-96.197C401.643 31.327 343.951 0 282.464 0h-52.928C167.69 0 110.032 31.842 77.125 84.352c-17.673 28.198-20.349 64.636-4.428 96.195-15.47 8.083-25.676 24.353-25.676 42.241 0 26.048 20.916 47.239 46.993 47.591 3.629 12.425 8.67 24.433 15.08 35.714l.005.011c12.211 21.479 28.567 39.65 48.616 54.011a7.47 7.47 0 0 0 4.361 1.403 7.501 7.501 0 0 0 4.374-13.599c-16.019-11.473-29.45-25.618-40.019-42.124a33.851 33.851 0 0 0 14.626-38.226 201.777 201.777 0 0 1-7.778-63.04 111.403 111.403 0 0 0 51.548-29.245c18.73-18.73 42.676-28.229 71.173-28.229s52.442 9.498 71.173 28.229c14.304 14.303 32.027 24.34 51.549 29.246a201.813 201.813 0 0 1-7.779 63.038 33.854 33.854 0 0 0 14.604 38.212C357.349 349.687 308.46 376.647 256 376.647c-22.628-.001-44.459-4.821-64.888-14.327-3.753-1.748-8.215-.119-9.964 3.636a7.5 7.5 0 0 0 3.636 9.964c1.893.881 3.8 1.711 5.714 2.518-46.49 24.234-76.613 72.729-76.613 126.062 0 4.143 3.357 7.5 7.5 7.5h269.232c4.143 0 7.5-3.357 7.5-7.5 0-12.777-1.715-25.467-5.096-37.718-1.103-3.992-5.235-6.34-9.225-5.234a7.499 7.499 0 0 0-5.234 9.225 126.542 126.542 0 0 1 4.334 26.228H353.17a551.309 551.309 0 0 0-3.412-54.037c-.465-4.117-4.187-7.078-8.294-6.612a7.502 7.502 0 0 0-6.612 8.294 536.03 536.03 0 0 1 3.318 52.355H173.81c.24-17.743 1.335-34.939 3.332-52.342a7.5 7.5 0 0 0-6.597-8.306c-4.1-.471-7.833 2.48-8.306 6.597-2.062 17.974-3.188 35.73-3.429 54.051h-29.704c2.952-49.71 35.073-93.608 81.996-111.392 14.528 4.01 29.545 6.039 44.896 6.039 15.334 0 30.39-2.105 44.815-6.094 28.773 10.871 52.591 31.744 67.23 58.988a7.5 7.5 0 0 0 13.213-7.099c-13.675-25.452-34.526-45.93-59.789-59.063 46.457-19.592 82.166-58.925 96.55-108.001 26.286-.372 46.961-21.783 46.961-47.591.001-17.889-10.205-34.159-25.675-42.242zM62.021 222.787c0-12.587 7.373-24.007 18.456-29.376a97.674 97.674 0 0 0 7.818 9.62c-2.026 17.408-1.302 35.018 2.017 52.094-16.01-2.072-28.291-15.904-28.291-32.338zm331.399-24.792a7.5 7.5 0 0 0-6.041-6.894c-18.862-3.701-36.014-12.839-49.599-26.424-21.646-21.647-49.161-32.623-81.78-32.623s-60.135 10.976-81.78 32.622a96.42 96.42 0 0 1-49.599 26.425 7.499 7.499 0 0 0-6.041 6.894c-1.554 24.959 1.159 49.764 8.063 73.726 2.374 8.243-1.048 16.677-7.697 21.057-13.972-27.244-19.868-58.6-15.328-91.331a7.492 7.492 0 0 0-2.3-6.505c-27.281-27.425-32.174-69.609-11.482-102.626C120.177 43.903 172.401 15 229.536 15h52.928c56.344 0 109.231 28.7 139.7 77.317 20.92 33.377 15.482 75.465-11.422 102.563a7.498 7.498 0 0 0-2.303 6.909c4.349 31.895-1.409 63.632-15.391 90.986a18.93 18.93 0 0 1-7.692-21.055c6.906-23.964 9.619-48.77 8.064-73.725zm28.323 57.096a169.507 169.507 0 0 0 1.971-52.071 97.453 97.453 0 0 0 7.808-9.61c11.083 5.369 18.456 16.79 18.456 29.376.001 16.255-11.982 30.101-28.235 32.305z" fill="#000000" opacity="1" data-original="#000000"></path><circle cx="252.94" cy="78.916" r="7.5" fill="#000000" opacity="1" data-original="#000000"></circle><circle cx="215.94" cy="113.916" r="7.5" fill="#000000" opacity="1" data-original="#000000"></circle><circle cx="182.94" cy="63.916" r="7.5" fill="#000000" opacity="1" data-original="#000000"></circle><circle cx="162.94" cy="123.917" r="7.5" fill="#000000" opacity="1" data-original="#000000"></circle><circle cx="112.94" cy="93.916" r="7.5" fill="#000000" opacity="1" data-original="#000000"></circle><circle cx="112.94" cy="143.917" r="7.5" fill="#000000" opacity="1" data-original="#000000"></circle><circle cx="295.94" cy="43.916" r="7.5" fill="#000000" opacity="1" data-original="#000000"></circle><circle cx="295.94" cy="103.916" r="7.5" fill="#000000" opacity="1" data-original="#000000"></circle><circle cx="345.94" cy="63.916" r="7.5" fill="#000000" opacity="1" data-original="#000000"></circle><circle cx="355.94" cy="133.917" r="7.5" fill="#000000" opacity="1" data-original="#000000"></circle><circle cx="388.94" cy="153.917" r="7.5" fill="#000000" opacity="1" data-original="#000000"></circle><circle cx="395.94" cy="113.916" r="7.5" fill="#000000" opacity="1" data-original="#000000"></circle></g></svg>