<svg xmlns="http://www.w3.org/2000/svg" version="1.1" xmlns:xlink="http://www.w3.org/1999/xlink" width="512" height="512" x="0" y="0" viewBox="0 0 512 512" style="enable-background:new 0 0 512 512" xml:space="preserve" class="hovered-paths"><g><path fill="#676f72" d="M333.425 456.281c-18.926-43.403-62.005-72.855-111.039-72.855h-.001c-49.304 0-92.231 29.724-111.038 72.857-6.446 14.783-10.034 31.087-10.034 48.218H343.46c0-17.132-3.588-33.437-10.035-48.22z" opacity="1" data-original="#676f72"></path><path fill="#4c5659" d="M111.348 456.282c-6.446 14.783-10.034 31.087-10.034 48.218h60.536a142.35 142.35 0 0 1 19.837-52.617v-61.396c-31.388 11.245-56.966 35.123-70.339 65.795z" opacity="1" data-original="#4c5659"></path><path fill="#82888b" d="m286.177 388.19-23.106-23.106h-81.385L158.58 388.19c-11.208 11.208-11.208 29.38 0 40.588l23.106 23.106h81.385l23.106-23.106c11.208-11.209 11.208-29.38 0-40.588z" opacity="1" data-original="#82888b"></path><path fill="#ff8f71" d="M222.386 383.425c-14.003 0-27.734 2.401-40.699 7.045V504.5h81.423V390.48a120.63 120.63 0 0 0-40.724-7.055z" opacity="1" data-original="#ff8f71"></path><path fill="#ff6f4d" d="M263.069 390.467a120.62 120.62 0 0 0-40.684-7.041c-14.003 0-27.734 2.401-40.699 7.045v61.412c18.309-29.268 46.983-51.497 81.383-61.416z" opacity="1" data-original="#ff6f4d"></path><path fill="#ffbf9d" d="m222.42 368.605-40.734 21.865c7.147 18.745 21.473 33.619 40.734 43.918 19.26-10.298 33.541-25.164 40.689-43.908z" opacity="1" data-original="#ffbf9d"></path><g fill="#ffbf9d"><circle cx="77.259" cy="251.129" r="36.081" fill="#ffbf9d" opacity="1" data-original="#ffbf9d"></circle><circle cx="367.515" cy="251.129" r="36.081" fill="#ffbf9d" opacity="1" data-original="#ffbf9d"></circle></g><path fill="#ffd4bd" d="M263.071 390.466c60.347-17.591 104.444-73.311 104.444-139.337 0-71.958-52.369-131.684-121.074-143.145A146.131 146.131 0 0 0 222.386 106c-80.15 0-145.127 64.976-145.127 145.129 0 66.026 44.097 121.746 104.442 139.337a145.172 145.172 0 0 0 40.684 5.789c8.195 0 16.231-.682 24.055-1.99a144.325 144.325 0 0 0 16.631-3.799z" opacity="1" data-original="#ffd4bd"></path><path fill="#ffbf9d" d="M125.368 251.129c0-71.957 52.372-131.683 121.073-143.145A146.022 146.022 0 0 0 222.386 106c-80.15 0-145.127 64.976-145.127 145.129 0 80.15 64.977 145.127 145.127 145.127 8.196 0 16.229-.684 24.055-1.99-68.701-11.462-121.073-71.182-121.073-143.137z" opacity="1" data-original="#ffbf9d"></path><g fill="#ffbf9d"><ellipse cx="143.269" cy="300.5" rx="28.882" ry="23" fill="#ffbf9d" opacity="1" data-original="#ffbf9d"></ellipse><ellipse cx="301.387" cy="300.5" rx="29" ry="23" fill="#ffbf9d" opacity="1" data-original="#ffbf9d"></ellipse></g><path fill="#ffce71" d="M438.142 113.222c5.736-40.58-34.678-71.69-72.204-56.454-6.191-29.824-40.168-45.626-67.14-29.869-8.409-22.253-38.152-26.301-52.24-7.163-17.644-23.971-56.04-10.223-54.102 19.723-28.209-8.523-50.059 24.332-32.396 47.09-25.626-10.817-55.753.119-68.149 25.713-19.593-10.993-44.654 2.932-44.654 26.176 0 10.568 5.47 19.854 13.729 25.198-19.417 18.563-6.373 51.682 20.722 51.682h.007c28.206-.003 41.17-16.141 52.477-27.448 22.031 2.215 42.119-9.33 51.943-27.648 41.423 58.984 110.561 55.096 169.611 55.096h7.316c2.108 8.308 3.5 16.9 4.105 25.71C375.456 250.219 387.45 256 400.799 256c30.067 0 51.966-28.895 43.46-58.006 38.363-17.374 34.183-73.177-6.117-84.772z" opacity="1" data-original="#ffce71"></path><path fill="#ffb357" d="M246.559 19.737c-17.644-23.971-56.04-10.223-54.102 19.723-28.209-8.523-50.059 24.332-32.396 47.09-25.626-10.817-55.753.119-68.149 25.713-19.593-10.993-44.654 2.932-44.654 26.176 0 10.568 5.47 19.854 13.729 25.198-19.417 18.563-6.373 51.682 20.722 51.682h.007c28.206-.003 41.17-16.141 52.477-27.448 22.031 2.215 42.119-9.33 51.943-27.648 41.423 58.984 110.561 55.096 169.611 55.096-67.863-41.836-109.188-115.861-109.188-195.582z" opacity="1" data-original="#ffb357"></path><path d="M446.133 108.093c1.674-40.441-36.522-70.853-75.199-60.86-10.356-27.078-41.269-41.363-68.802-30.298C294.957 5.837 282.884 0 270.673 0c-8.675 0-17.384 3.064-24.097 8.776C239.946 3.082 231.806 0 223.132 0c-18.197 0-34.441 12.124-37.673 30.658-24.793-1.338-43.082 21.894-38.598 44.668-22.722-2.792-45.546 7.62-58.181 27.377-23.391-7.554-48.922 9.663-48.922 35.736 0 9.934 3.881 19.265 10.66 26.191-6.292 9.447-7.961 21.268-4.255 32.435 2.074 6.249 5.595 11.646 10.132 15.868-13.47 7.423-22.619 21.759-22.619 38.196 0 23.619 18.889 42.896 42.352 43.551 11.517 38.833 38.409 71.753 74.626 91.139a36.017 36.017 0 0 0-7.621 17.627C112.261 427.66 93.814 464.562 93.814 504.5c0 4.143 3.357 7.5 7.5 7.5h242.147c4.143 0 7.5-3.357 7.5-7.5 0-39.858-18.402-76.829-49.241-101.077a36.026 36.026 0 0 0-7.572-17.546c35.92-19.199 63-52.478 74.603-91.195 19.209-.545 35.716-13.729 40.756-31.905 28.499-4.701 48.267-31.921 43.349-60.83 36.924-22.105 32.848-77.319-6.723-93.854zM48.677 251.129c0-14.089 10.251-25.822 23.684-28.153a153.532 153.532 0 0 0-2.602 28.153c0 9.55.866 18.958 2.568 28.147-13.416-2.344-23.65-14.07-23.65-28.147zm125.51 144.842-.001 37.807-10.303-10.303c-7.733-7.734-9.156-20.831.981-30.963a150.321 150.321 0 0 0 9.323 3.459zM255.609 497h-66.422v-79.509c7.841 9.223 17.83 17.165 29.697 23.511a7.5 7.5 0 0 0 7.072 0c11.845-6.334 21.819-14.269 29.652-23.487l.001 79.485zm-33.189-71.209c-11.193-6.576-20.189-14.828-26.622-24.357a153.362 153.362 0 0 0 26.587 2.322A154.1 154.1 0 0 0 249 401.445c-6.425 9.532-15.408 17.781-26.58 24.346zm-77.333-4.368a36.184 36.184 0 0 0 8.19 12.658l20.91 20.908V497h-65.13c1.887-28.959 14.85-55.859 36.03-75.577zM335.717 497h-65.108v-42.047l20.872-20.872a36.183 36.183 0 0 0 8.196-12.674c21.152 19.686 34.151 46.602 36.04 75.593zm-54.844-73.526-10.265 10.266v-37.75a150.36 150.36 0 0 0 9.318-3.444c10.159 10.155 8.606 23.271.947 30.928zm-58.487-34.718c-87.419 0-152.62-80.941-134.642-166.179 24.745-1.95 38.192-15.503 49.37-26.985 19.293.775 37.543-7.646 49.438-22.457 41.483 50.151 103.677 49.91 158.89 49.711 6.732-.027 8.442-.026 11.649-.026 17.992 85.847-47.786 165.936-134.705 165.936zm150.099-109.487a150.782 150.782 0 0 0 2.513-22.534 52.89 52.89 0 0 0 18.514 6.24c-3.869 8.461-11.736 14.645-21.027 16.294zm68.679-88.107a7.502 7.502 0 0 0-4.104 8.936c7.085 24.244-11.131 48.402-36.261 48.402-9.836 0-19.296-3.87-26.326-10.694a157.105 157.105 0 0 0-4.141-24.332c-.821-3.24-3.784-5.655-7.27-5.655-9.095 0-9.684-.005-17.678.026-57.206.217-116.333.438-153.111-51.933-3.192-4.547-10.103-4.164-12.747.766-8.722 16.262-26.227 25.573-44.584 23.73a7.506 7.506 0 0 0-6.054 2.158c-11.538 11.549-22.577 25.247-47.276 25.247-10.014-.033-18.173-6.319-21.212-15.474-2.803-8.445-.646-17.149 5.77-23.282 3.5-3.345 2.955-9.087-1.107-11.718-6.452-4.175-10.304-11.241-10.304-18.901 0-17.743 19.04-27.738 33.484-19.635 3.776 2.118 8.542.604 10.42-3.271 10.543-21.771 36.231-31.468 58.481-22.073 7.078 2.993 13.565-5.421 8.842-11.508-13.105-16.885 2.978-41.754 24.302-35.313 5.003 1.511 9.992-2.444 9.653-7.664-.8-12.358 7.08-19.738 14.722-22.524 7.684-2.802 18.514-2.242 25.855 7.731 2.995 4.069 9.087 4.067 12.08 0 4.969-6.749 12.906-10.093 21.21-8.953 8.298 1.141 15.017 6.495 17.975 14.322 1.643 4.348 6.804 6.16 10.799 3.824 10.588-6.187 23.089-6.874 34.296-1.887 11.311 5.032 19.226 14.802 21.717 26.804.956 4.595 5.844 7.183 10.165 5.425 32.271-13.1 66.872 13.678 61.956 48.455a7.501 7.501 0 0 0 5.353 8.258c33.59 9.665 37.109 56.234 5.095 70.733z" fill="#000000" opacity="1" data-original="#000000" class="hovered-path"></path><path d="M159.938 259a7.499 7.499 0 0 0-7.5 7.5v12c0 4.143 3.357 7.5 7.5 7.5s7.5-3.357 7.5-7.5v-12a7.5 7.5 0 0 0-7.5-7.5zM284.835 259a7.499 7.499 0 0 0-7.5 7.5v12c0 4.143 3.357 7.5 7.5 7.5s7.5-3.357 7.5-7.5v-12c0-4.143-3.357-7.5-7.5-7.5zM243.778 272.488a7.497 7.497 0 0 0-10.581.728c-2.729 3.132-6.669 4.928-10.81 4.928s-8.081-1.797-10.811-4.929a7.5 7.5 0 0 0-11.309 9.855c5.58 6.401 13.642 10.073 22.119 10.073s16.54-3.672 22.118-10.074a7.497 7.497 0 0 0-.726-10.581z" fill="#000000" opacity="1" data-original="#000000" class="hovered-path"></path><circle cx="281.387" cy="463.087" r="7.5" fill="#000000" opacity="1" data-original="#000000" class="hovered-path"></circle><circle cx="281.387" cy="487.5" r="7.5" fill="#000000" opacity="1" data-original="#000000" class="hovered-path"></circle></g></svg>