<svg xmlns="http://www.w3.org/2000/svg" version="1.1" xmlns:xlink="http://www.w3.org/1999/xlink" width="512" height="512" x="0" y="0" viewBox="0 0 512 512" style="enable-background:new 0 0 512 512" xml:space="preserve"><g><path fill="#82888b" d="M391.759 445.571c-23.129-53.043-75.777-89.036-135.7-89.037h-.001c-60.254 0-112.716 36.326-135.7 89.038-7.877 18.067-12.263 37.992-12.263 58.927h295.928c0-20.935-4.386-40.861-12.264-58.928z" opacity="1" data-original="#82888b"></path><path fill="#b9f0ff" d="M256.057 356.535c-17.113 0-33.894 2.934-49.738 8.609V504.5h99.507V365.158a147.422 147.422 0 0 0-49.769-8.623z" opacity="1" data-original="#b9f0ff"></path><path fill="#676f72" d="M120.358 445.573c-7.877 18.067-12.263 37.992-12.263 58.927h73.982a173.968 173.968 0 0 1 24.243-64.303v-75.053c-38.36 13.742-69.618 42.944-85.962 80.429z" opacity="1" data-original="#676f72"></path><path fill="#7ce3ff" d="M305.777 365.14c-15.838-5.668-32.62-8.605-49.72-8.605-17.113 0-33.894 2.934-49.738 8.609v75.052c22.374-35.767 57.418-62.933 99.458-75.056z" opacity="1" data-original="#7ce3ff"></path><path fill="#7ce3ff" d="m206.319 365.144-10.527 15.402c-11.091 16.222.526 38.237 20.177 38.237h40.09V338.39z" opacity="1" data-original="#7ce3ff"></path><path fill="#b9f0ff" d="m316.316 380.546-10.491-15.388-49.767-26.768v80.393h40.08c19.652 0 31.269-22.015 20.178-38.237z" opacity="1" data-original="#b9f0ff"></path><path fill="#ffddcf" d="m256.1 338.423-49.78 26.721c8.735 22.909 26.242 41.086 49.78 53.672 23.537-12.586 40.991-30.75 49.726-53.658z" opacity="1" data-original="#ffddcf"></path><g fill="#ffcbbe"><circle cx="78.698" cy="194.855" r="44.095" fill="#ffcbbe" opacity="1" data-original="#ffcbbe"></circle><circle cx="433.419" cy="194.855" r="44.095" fill="#ffcbbe" opacity="1" data-original="#ffcbbe"></circle></g><path fill="#ffddcf" d="M305.779 365.139c73.75-21.498 127.64-89.594 127.64-170.284 0-87.94-64-160.931-147.965-174.937a178.575 178.575 0 0 0-29.397-2.425c-97.951 0-177.359 79.407-177.359 177.362 0 80.69 53.891 148.785 127.639 170.284 15.777 4.599 32.459 7.075 49.72 7.075a178.22 178.22 0 0 0 29.397-2.432 176.53 176.53 0 0 0 20.325-4.643z" opacity="1" data-original="#ffddcf"></path><path fill="#ffcbbe" d="M137.492 194.855c0-87.939 64.004-160.93 147.963-174.937a178.566 178.566 0 0 0-29.397-2.425c-97.951 0-177.359 79.407-177.359 177.362 0 97.952 79.408 177.359 177.359 177.359 10.016 0 19.834-.836 29.397-2.432-83.96-14.007-147.963-86.991-147.963-174.927z" opacity="1" data-original="#ffcbbe"></path><g fill="#ffcbbe"><ellipse cx="159.368" cy="255.191" rx="35.296" ry="28.108" fill="#ffcbbe" opacity="1" data-original="#ffcbbe"></ellipse><ellipse cx="352.605" cy="255.191" rx="35.441" ry="28.108" fill="#ffcbbe" opacity="1" data-original="#ffcbbe"></ellipse></g><path fill="#e8b5b1" d="M427.976 151.092h.005c0-24.811-7.778-49.055-22.64-68.921a186.286 186.286 0 0 0-21.273-23.855c-6.955-6.567-16.385-9.855-25.934-9.305a24.037 24.037 0 0 0-12.335-18.562 185.672 185.672 0 0 0-58.713-20.375h-.001a188.323 188.323 0 0 0-62.051 0c-48.164 8.075-90.104 34.44-118.244 72.063-14.869 19.881-22.653 44.13-22.653 68.956h.007a177.676 177.676 0 0 0-5.445 43.763c0 31.826 8.389 61.689 23.068 87.51 3.486-.977 6.79-2.549 9.695-4.769a29.134 29.134 0 0 0 10.336-31.238 230.796 230.796 0 0 1-8.363-81.27 27.86 27.86 0 0 1 5.024-13.997h36.358a244.424 244.424 0 0 0 172.831-71.59l55.639 55.639a54.416 54.416 0 0 0 12.954 9.58 232.894 232.894 0 0 1 2.731 50.669 231.141 231.141 0 0 1-8.652 50.967c-.096.333-.165.67-.249 1.004a29.12 29.12 0 0 0 10.585 30.233c2.905 2.22 6.209 3.792 9.695 4.769 14.679-25.821 23.068-55.684 23.068-87.51 0-15.102-1.889-29.763-5.443-43.761z" opacity="1" data-original="#e8b5b1"></path><path fill="#d6948c" d="M256.118 7.5a187.988 187.988 0 0 0-31.085 2.573c-48.164 8.075-90.104 34.44-118.244 72.063-14.869 19.881-22.653 44.13-22.653 68.956h.007a177.676 177.676 0 0 0-5.445 43.763c0 31.826 8.389 61.689 23.068 87.51 3.486-.977 6.79-2.549 9.695-4.769a29.134 29.134 0 0 0 10.336-31.238 230.796 230.796 0 0 1-8.363-81.27 27.86 27.86 0 0 1 5.024-13.997h36.358a244.3 244.3 0 0 0 34.075-2.386C171.719 95.701 206.198 33.728 256.118 7.5z" opacity="1" data-original="#d6948c"></path><path d="M179.682 206.141a7.499 7.499 0 0 0-7.5 7.5v14.665c0 4.143 3.357 7.5 7.5 7.5s7.5-3.357 7.5-7.5v-14.665a7.5 7.5 0 0 0-7.5-7.5zM332.318 206.141a7.499 7.499 0 0 0-7.5 7.5v14.665c0 4.143 3.357 7.5 7.5 7.5s7.5-3.357 7.5-7.5v-14.665c0-4.143-3.357-7.5-7.5-7.5zM281.049 222.215a7.5 7.5 0 0 0-10.582.727c-3.652 4.19-8.925 6.594-14.467 6.594s-10.814-2.403-14.467-6.594a7.5 7.5 0 0 0-11.309 9.855c6.502 7.46 15.897 11.738 25.775 11.738s19.273-4.278 25.775-11.738a7.5 7.5 0 0 0-.725-10.582z" fill="#000000" opacity="1" data-original="#000000"></path><circle cx="328.104" cy="446.557" r="7.5" fill="#000000" opacity="1" data-original="#000000"></circle><circle cx="328.104" cy="486.168" r="7.5" fill="#000000" opacity="1" data-original="#000000"></circle><circle cx="277.998" cy="446.557" r="7.5" fill="#000000" opacity="1" data-original="#000000"></circle><circle cx="277.998" cy="486.168" r="7.5" fill="#000000" opacity="1" data-original="#000000"></circle><path d="M435.152 143.305c-2.316-36.7-19.107-65.054-45.995-90.443-6.794-6.415-15.669-10.347-25.039-11.223a31.551 31.551 0 0 0-14.77-17.766C320.77 8.184 288.796 0 256 0c-60.623 0-118.1 27.939-155.276 77.645-14.044 18.778-22.374 41.842-23.878 65.661-27.622.95-49.803 23.701-49.803 51.55 0 28.398 23.064 51.509 51.445 51.591 15.815 54.54 55.649 98.096 107.373 119.369-50.803 25.821-85.326 78.462-85.326 138.685 0 4.143 3.357 7.5 7.5 7.5h295.928c4.143 0 7.5-3.357 7.5-7.5 0-60.214-34.515-112.863-85.33-138.684 51.554-21.201 91.509-64.647 107.377-119.37 28.381-.082 51.445-23.192 51.445-51.591.001-27.85-22.181-50.602-49.803-51.551zm-393.108 51.55c0-18.864 14.348-34.437 32.703-36.387a186.02 186.02 0 0 0-3.608 36.387c0 12.261 1.231 24.453 3.622 36.388-18.361-1.943-32.717-17.519-32.717-36.388zm63.029 77.989c-12.404-23.979-18.934-50.802-18.934-77.988 0-14.183 1.754-28.286 5.214-41.919.686-2.7-1.931-35.136 21.383-66.308C167.34 13.622 265.916-4.815 342.13 37.023a16.53 16.53 0 0 1 7.803 9.523L322.295 74.19l-.01.009c-43.22 43.222-103.47 69.393-167.527 69.393H118.4a7.502 7.502 0 0 0-6.125 3.171 35.39 35.39 0 0 0-6.377 17.762c-2.141 28.369.765 56.601 8.634 83.911 2.805 9.732-1.502 19.611-9.459 24.408zM198.76 497h-35.878a581.609 581.609 0 0 1 2.792-50.688 7.501 7.501 0 0 0-6.726-8.202c-4.126-.397-7.795 2.604-8.202 6.726a597 597 0 0 0-2.865 52.165h-32.149c2.541-48.329 29.86-90.911 70.403-114.283-5.794 14.529.128 30.591 12.624 38.558V497zm3.164-112.222 3.106-4.545c6.419 11.636 15.238 22.084 26.18 31.05h-15.3c-13.579 0-21.704-15.213-13.986-26.505zm11.836 41.458v-.026c.145.009.119.018 0 .026zM248.541 497H213.76v-70.717h34.781zm-28.546-120.854a183.92 183.92 0 0 0 36.003 3.568c12.229 0 24.295-1.228 36.052-3.578-8.236 13.524-20.445 25.12-36.009 34.1-15.583-8.987-27.805-20.58-36.046-34.09zM298.267 497h-34.726v-70.717h34.726zm0-70.754c-.162-.011-.219-.023 0-.038zm-2.187-14.963h-15.221c10.916-8.953 19.717-19.391 26.13-31.018l3.077 4.513c7.712 11.282-.392 26.505-13.986 26.505zM396.268 497H364.1a596.267 596.267 0 0 0-2.864-52.165 7.501 7.501 0 0 0-14.928 1.476 581.328 581.328 0 0 1 2.791 50.688h-35.832v-75.748c12.801-8.185 18.151-24.306 12.547-38.562 40.739 23.46 67.921 66.147 70.454 114.311zm-140.27-132.285c-58.172 0-112.366-30.031-143.429-78.887 13.916-8.236 21.121-25.083 16.377-41.545-7.374-25.591-10.096-52.045-8.091-78.63a20.47 20.47 0 0 1 1.835-7.061h32.067c65.284 0 127.056-25.564 172.75-68.563l50.416 50.416a61.918 61.918 0 0 0 11.404 8.994 225.802 225.802 0 0 1 2.097 45.538 222.878 222.878 0 0 1-8.372 49.31c-4.552 15.838 2.086 33.082 16.378 41.541-31.063 48.856-85.258 78.887-143.432 78.887zm150.929-91.871c-8.458-5.099-11.981-15.229-9.459-24.409a237.872 237.872 0 0 0 8.934-52.629 240.706 240.706 0 0 0-2.819-52.301 7.497 7.497 0 0 0-3.881-5.405 46.898 46.898 0 0 1-11.17-8.262l-50.336-50.336 23.02-23.025c6.624.259 12.929 2.839 17.644 7.292 47.028 44.402 40.167 82.784 41.788 89.169 3.459 13.625 5.213 27.728 5.213 41.918-.001 27.186-6.53 54.009-18.934 77.988zm30.311-41.601a185.279 185.279 0 0 0 3.622-36.388c0-12.257-1.225-24.454-3.607-36.387 18.355 1.951 32.703 17.523 32.703 36.387 0 18.869-14.356 34.445-32.718 36.388z" fill="#000000" opacity="1" data-original="#000000"></path></g></svg>