<svg xmlns="http://www.w3.org/2000/svg" version="1.1" xmlns:xlink="http://www.w3.org/1999/xlink" width="512" height="512" x="0" y="0" viewBox="0 0 512 512" style="enable-background:new 0 0 512 512" xml:space="preserve" class=""><g><path fill="#ffcbbe" d="M255.999 361.701c-16.839 0-33.003 2.938-48.016 8.315-36.364 13.023-66.899 40.814-82.945 77.614-7.602 17.436-11.835 36.665-11.835 56.869H256V361.701h-.001z" opacity="1" data-original="#ffcbbe"></path><path fill="#ffddcf" d="M386.962 447.629c-15.444-35.418-45.18-64.092-82.962-77.618a142.381 142.381 0 0 0-47.999-8.31V504.5h142.797c-.001-20.205-4.233-39.435-11.836-56.871z" opacity="1" data-original="#ffddcf"></path><path fill="#ff8f71" d="M303.999 370.011a142.368 142.368 0 0 0-48.001-8.31c-16.839 0-33.003 2.938-48.016 8.315-36.364 13.023-66.899 40.814-82.945 77.614 14.168 12.454 30.599 24.374 47.562 34.475V504.5h166.783v-22.385c16.969-10.103 33.407-22.026 47.58-34.486-15.444-35.418-45.18-64.092-82.963-77.618z" opacity="1" data-original="#ff8f71"></path><path fill="#ff6f4d" d="M207.997 370.01c-32.39 11.603-59.533 34.634-76.381 64.437a138.045 138.045 0 0 0-5.049 9.796 143.816 143.816 0 0 0-1.53 3.387c14.167 12.454 30.599 24.374 47.562 34.475V504.5h12.002a167.901 167.901 0 0 1 23.396-62.058z" opacity="1" data-original="#ff6f4d"></path><path fill="#b9f0ff" d="M255.999 361.701c-16.515 0-32.71 2.831-48.001 8.309V504.5h96.032V370.022c-15.299-5.481-31.512-8.321-48.031-8.321z" opacity="1" data-original="#b9f0ff"></path><path fill="#7ce3ff" d="M303.982 370.006a142.265 142.265 0 0 0-47.984-8.305c-16.515 0-32.71 2.831-48.001 8.309v72.431c21.593-34.518 55.413-60.735 95.985-72.435z" opacity="1" data-original="#7ce3ff"></path><path fill="#ffcbbe" d="m256.039 344.222-48.042 25.788c8.43 22.109 25.326 39.651 48.042 51.798 22.715-12.146 39.559-29.679 47.99-51.786z" opacity="1" data-original="#ffcbbe"></path><g fill="#ffcbbe"><circle cx="84.833" cy="205.668" r="42.555" fill="#ffcbbe" opacity="1" data-original="#ffcbbe"></circle><circle cx="427.167" cy="205.668" r="42.555" fill="#ffcbbe" opacity="1" data-original="#ffcbbe"></circle></g><path fill="#ffddcf" d="M303.984 370.005c71.175-20.748 123.183-86.465 123.183-164.338 0-94.534-76.635-171.169-171.169-171.169-94.531 0-171.166 76.635-171.166 171.169 0 77.872 52.009 143.59 123.182 164.338 15.226 4.439 31.325 6.828 47.984 6.828 16.66.001 32.76-2.389 47.986-6.828z" opacity="1" data-original="#ffddcf"></path><path fill="#ffcbbe" d="M141.573 205.668c0-84.868 61.769-155.297 142.796-168.815a172.25 172.25 0 0 0-28.371-2.354c-94.531 0-171.166 76.635-171.166 171.169 0 94.531 76.636 171.166 171.166 171.166 9.666 0 19.141-.814 28.371-2.354-81.027-13.519-142.796-83.947-142.796-168.812z" opacity="1" data-original="#ffcbbe"></path><g fill="#ffcbbe"><ellipse cx="157.441" cy="267.804" rx="36.366" ry="28.96" fill="#ffcbbe" opacity="1" data-original="#ffcbbe"></ellipse><ellipse cx="354.559" cy="267.804" rx="36.366" ry="28.96" fill="#ffcbbe" opacity="1" data-original="#ffcbbe"></ellipse></g><path fill="#ce857a" d="M350.106 28.374 299.34 12.719a117.534 117.534 0 0 0-84.424 5.848L84.763 79.432c-8.484 3.967-9.119 15.79-1.109 20.644l-3.922 1.909c-10.329 5.027-8.014 20.37 3.339 22.125l4.122.637-1.23 1.573c-5.827 7.455.968 18.09 10.181 15.936l.915-.214a169.964 169.964 0 0 0-10.578 39.885H97.17c22.694-.046 43.4-12.967 53.576-33.251l10.902-21.732 22.372-8.39a205 205 0 0 1 143.963 0l6.539 3.269a59.523 59.523 0 0 1 26.591 26.564l.159.314c7.22 14.19 20.711 24.151 36.297 27.399l27.954 5.824.014.003c23.734-63.354-10.781-133.617-75.431-153.553z" opacity="1" data-original="#ce857a"></path><path fill="#c77464" d="M222.968 56.914c0-21.558 13.061-40.967 33.032-49.086a117.504 117.504 0 0 0-41.084 10.739L84.763 79.432c-8.484 3.967-9.119 15.79-1.109 20.644l-3.922 1.909c-10.329 5.027-8.014 20.37 3.339 22.125l4.122.637-1.23 1.573c-5.827 7.455.968 18.089 10.181 15.936l.915-.214a169.964 169.964 0 0 0-10.578 39.885H97.17c22.694-.046 43.4-12.967 53.576-33.251l10.902-21.732 22.372-8.39a204.957 204.957 0 0 1 70.846-13.04c-19.328-8.385-31.898-27.455-31.898-48.6z" opacity="1" data-original="#c77464"></path><circle cx="321.586" cy="448.58" r="7.5" fill="#000000" opacity="1" data-original="#000000"></circle><circle cx="321.586" cy="486.809" r="7.5" fill="#000000" opacity="1" data-original="#000000"></circle><path d="M171.135 225.417v14.153a7.5 7.5 0 0 0 15 0v-14.153a7.5 7.5 0 0 0-15 0zM270.743 234.556c-3.721 4.27-9.095 6.719-14.743 6.719s-11.021-2.449-14.743-6.719a7.5 7.5 0 0 0-11.309 9.855c6.571 7.541 16.066 11.865 26.051 11.865s19.48-4.324 26.051-11.865a7.5 7.5 0 0 0-11.307-9.855zM336.097 215.273c-13.179 0-23.901 10.722-23.901 23.901a7.5 7.5 0 0 0 15 0c0-4.908 3.993-8.901 8.901-8.901s8.901 3.993 8.901 8.901c0 4.142 3.357 7.5 7.5 7.5s7.5-3.358 7.5-7.5c0-13.178-10.722-23.901-23.901-23.901z" fill="#000000" opacity="1" data-original="#000000"></path><path d="M391.654 297.271a7.5 7.5 0 1 0 12.422 8.407 177.334 177.334 0 0 0 23.474-49.965c27.424-.207 49.672-22.573 49.672-50.045 0-23.154-15.802-42.976-37.788-48.514 3.701-27.646-1.994-55.818-16.34-80.109-15.838-26.816-40.975-46.647-70.779-55.838L301.55 5.552A124.707 124.707 0 0 0 264.779 0c-18.415 0-36.261 3.927-53.04 11.772L81.585 72.638c-9.633 4.505-13.672 15.869-9.365 25.36-10.495 8.951-8.042 26.083 4.269 31.875-1.203 7.83 3.194 15.515 10.188 18.655a213.83 213.83 0 0 0-2.227 7.115c-27.672.223-49.673 22.679-49.673 50.024 0 27.528 22.196 49.809 49.667 50.033 15.426 53.09 54.036 94.744 103.094 115.054-15.689 8.074-29.988 18.908-42.012 31.948a7.5 7.5 0 0 0 11.028 10.168 136.477 136.477 0 0 1 43.942-31.741V497H180.1v-28.972c0-9.748-15-10.339-15 .55-10.859-7.099-21.33-14.871-30.888-22.943a136.039 136.039 0 0 1 5.387-10.01 7.5 7.5 0 0 0-12.899-7.657c-13.263 22.344-20.998 48.427-20.998 76.531a7.5 7.5 0 0 0 7.5 7.5h285.594a7.5 7.5 0 0 0 7.5-7.5c0-57.067-32.263-108.284-81.742-133.726 22.203-9.219 42.511-22.979 59.808-40.833a7.5 7.5 0 1 0-10.773-10.437c-30.352 31.331-71.892 49.83-117.59 49.83-74.99 0-140.229-50.698-158.648-123.289-4.6-18.131-6.119-37.182-4.198-56.618h4.031c25.629-.052 48.721-14.378 60.264-37.389l9.584-19.105 19.62-7.357a197.479 197.479 0 0 1 138.331-.137c6.839 3.419 20.81 9.126 29.426 26.314l.176.349c8.213 16.139 23.321 27.562 41.451 31.34l22.687 4.727c4.018 37.729-4.882 76.319-27.069 109.103zM128.199 460.118a336.695 336.695 0 0 0 36.901 26.218V497h-44.193a133.612 133.612 0 0 1 7.292-36.882zm87.298-62.026c9.462 11.994 21.927 22.267 37.006 30.329a7.497 7.497 0 0 0 7.073 0c15.052-8.048 27.499-18.312 36.953-30.305V497h-81.032zM331.882 497h-20.353V381.141c29.433 13.316 52.737 36.651 66.258 64.493-9.564 8.078-20.04 15.853-30.905 22.955 0-10.864-15-10.35-15-.561zm15 0v-10.655a336.727 336.727 0 0 0 36.918-26.229A133.545 133.545 0 0 1 391.092 497zm-56.684-115.918c-7.897 12.72-19.471 23.645-34.159 32.145-14.72-8.516-26.313-19.447-34.214-32.167 21.917 4.245 45.219 4.475 68.373.022zm172.025-175.415c0 17.946-13.557 32.776-30.965 34.809a179.347 179.347 0 0 0 3.409-34.737c0-7.64-.515-15.347-1.488-22.949a125.86 125.86 0 0 0 3.347-10.89c14.827 4.143 25.697 17.907 25.697 33.767zm-412.446 0c0-17.83 13.459-32.84 30.963-34.82-4.544 23.099-4.543 46.619.005 69.639-17.504-1.976-30.968-16.982-30.968-34.819zm94.264-60.354c-8.654 17.25-25.663 29.114-48.701 29.114a160.694 160.694 0 0 1 7.194-25.729c9.788-1.614 27.046-4.039 44.241-8.837zm223.775-.287c-6.445-12.857-17.078-23.479-29.942-29.912-.583-.291-6.674-3.364-7.259-3.583a212.47 212.47 0 0 0-149.23 0l-22.373 8.39c-.039.015-.075.034-.113.049-.035.014-.072.023-.107.038-22.591 9.294-51.174 12.381-63.143 14.668-1.113.213-2.76.993-3.917-.822-1.136-1.775.102-2.868 1.368-4.487 3.523-4.506.892-11.157-4.762-12.031l-4.123-.638c-4.106-.635-4.944-6.147-1.203-7.969 3.539-1.722 7.891-3.072 8.133-8.308a7.501 7.501 0 0 0-3.605-6.759c-2.887-1.749-2.663-6.004.399-7.436L218.093 25.36c24.805-11.599 52.874-13.543 79.038-5.475l50.765 15.655c58.392 18.006 90.751 79.458 72.688 137.694l-21.487-4.477c-13.481-2.808-25.019-11.25-31.281-23.731z" fill="#000000" opacity="1" data-original="#000000"></path></g></svg>