<svg xmlns="http://www.w3.org/2000/svg" version="1.1" xmlns:xlink="http://www.w3.org/1999/xlink" width="512" height="512" x="0" y="0" viewBox="0 0 512 512" style="enable-background:new 0 0 512 512" xml:space="preserve"><g><path fill="#d4d4d5" d="M255.998 353.498c-17.806 0-34.899 3.107-50.775 8.793-38.453 13.771-70.742 43.159-87.709 82.073C109.475 462.801 105 483.135 105 504.5h151V353.498h-.002z" opacity="1" data-original="#d4d4d5"></path><path fill="#efedee" d="M394.485 444.362c-16.331-37.453-47.775-67.774-87.728-82.077A150.539 150.539 0 0 0 256 353.498V504.5h151c0-21.366-4.476-41.7-12.515-60.138z" opacity="1" data-original="#efedee"></path><path fill="#add8ff" d="m344.986 386.092-.814-4.095a150.632 150.632 0 0 0-37.415-19.712 150.544 150.544 0 0 0-50.758-8.787c-17.806 0-34.899 3.107-50.775 8.793a150.869 150.869 0 0 0-37.415 19.724c-7.919 39.811-12.472 78.292-12.472 122.484h201.307v-.018a606.99 606.99 0 0 0-11.658-118.389z" opacity="1" data-original="#add8ff"></path><path fill="#88c5fd" d="M203.167 452.093c15.115-43.897 47.236-77.102 86.458-94.803a150.973 150.973 0 0 0-33.626-3.792c-17.806 0-34.899 3.107-50.775 8.793a150.869 150.869 0 0 0-37.415 19.724c-7.919 39.81-12.472 78.292-12.472 122.484h38.977c.03-17.381 2.878-35.053 8.853-52.406z" opacity="1" data-original="#88c5fd"></path><g fill="#ff8e9e"><path d="M155.366 499.894c-.011 1.534-.03 3.059-.03 4.606H256l-52.833-52.407zM215.712 358.972a149.654 149.654 0 0 0-10.488 3.319 150.869 150.869 0 0 0-37.415 19.724 718.932 718.932 0 0 0-5.249 29.47l40.608 40.607L256 399.26zM349.463 411.464a607.494 607.494 0 0 0-4.476-25.372l-.814-4.095a150.632 150.632 0 0 0-37.415-19.712 149.802 149.802 0 0 0-10.47-3.312L256 399.26l52.833 52.833zM356.615 499.875l-47.782-47.782L256 504.5h100.644v-.018c0-1.536-.017-3.071-.029-4.607z" fill="#ff8e9e" opacity="1" data-original="#ff8e9e"></path></g><g fill="#ea5b70"><path d="m244.442 387.702-28.729-28.729-.006.002c-3.541.982-7.036 2.08-10.473 3.31-13.353 4.776-25.895 11.408-37.425 19.732a718.096 718.096 0 0 0-5.249 29.47l40.608 40.607c8.723-25.339 23.122-47.104 41.274-64.392zM155.366 499.894c-.011 1.534-.03 3.059-.03 4.606h38.977c.03-17.382 2.878-35.054 8.853-52.407z" fill="#ea5b70" opacity="1" data-original="#ea5b70"></path></g><path fill="#efedee" d="M317.494 378.003 306.74 362.28 256 334.981l-50.767 27.302-10.737 15.719c-11.319 16.555.537 39.021 20.591 39.021h81.815c20.055.001 31.91-22.465 20.592-39.02z" opacity="1" data-original="#efedee"></path><path fill="#ffbf9d" d="m256 334.981-50.767 27.302c8.914 23.379 26.745 41.896 50.767 54.74 23.148-12.378 41.328-30.347 50.74-54.744z" opacity="1" data-original="#ffbf9d"></path><circle cx="75" cy="188.501" r="45" fill="#ffbf9d" opacity="1" data-original="#ffbf9d"></circle><circle cx="437" cy="188.501" r="45" fill="#ffd4bd" opacity="1" data-original="#ffd4bd"></circle><path fill="#ffd4bd" d="M306.74 362.279C382.004 340.34 437 270.847 437 188.502c0-70.056-39.799-130.816-98.021-160.902a179.749 179.749 0 0 0-52.963-17.622A182.2 182.2 0 0 0 255.998 7.5C156.038 7.5 75 88.537 75 188.502c0 82.346 54.996 151.838 130.258 173.778 16.101 4.694 33.125 7.221 50.741 7.221 10.227 0 20.254-.852 30.017-2.484a180.557 180.557 0 0 0 20.724-4.738z" opacity="1" data-original="#ffd4bd"></path><path fill="#ffbf9d" d="M161.298 188.501c0-89.743 53.956-164.229 124.718-178.524A182.419 182.419 0 0 0 255.998 7.5C156.038 7.5 75 88.537 75 188.501 75 288.463 156.038 369.5 255.998 369.5c10.222 0 20.258-.856 30.017-2.484-70.761-14.295-124.717-88.774-124.717-178.515z" opacity="1" data-original="#ffbf9d"></path><path fill="#ffb357" d="M336.711 94.833c-2.815 9.396 1.826 19.418 10.822 23.327l37.202 16.166c9.606 4.174 16.028 13.354 16.815 23.798a235.51 235.51 0 0 1-8.534 82.937 29.735 29.735 0 0 0 10.548 31.879c2.964 2.266 6.344 3.869 9.902 4.867C428.446 251.456 437 220.98 437 188.501c0-70.056-39.799-130.816-98.021-160.902 4.192 17.986 5.723 40.563-2.268 67.234z" opacity="1" data-original="#ffb357"></path><path fill="#fc8a3d" d="M118.984 241.062a235.51 235.51 0 0 1-8.534-82.937c.788-10.444 7.21-19.624 16.815-23.798l37.202-16.166c8.996-3.909 13.637-13.931 10.822-23.327-7.99-26.668-6.46-49.249-2.268-67.234C114.802 57.687 75 118.447 75 188.501c0 32.479 8.55 62.955 23.531 89.306 3.557-.997 6.941-2.601 9.905-4.867a29.734 29.734 0 0 0 10.548-31.878z" opacity="1" data-original="#fc8a3d"></path><g fill="#ffbf9d"><ellipse cx="158.468" cy="249.029" rx="34.921" ry="27.809" fill="#ffbf9d" opacity="1" data-original="#ffbf9d"></ellipse><ellipse cx="353.531" cy="249.029" rx="34.921" ry="27.809" fill="#ffbf9d" opacity="1" data-original="#ffbf9d"></ellipse></g><path fill="#fc8a3d" d="M303.87 224.693c-6.886 0-13.343-2.954-18.204-7.83a19.898 19.898 0 0 0-14.134-5.868c-6.275 0-11.871 2.896-15.532 7.423-3.661-4.526-9.257-7.423-15.532-7.423a19.894 19.894 0 0 0-14.134 5.868c-4.862 4.876-11.319 7.83-18.204 7.83-3.099 0-5.409 2.842-4.804 5.881 2.733 13.727 14.847 24.073 29.377 24.073 9.412 0 17.806-4.345 23.297-11.134 5.491 6.789 13.885 11.134 23.297 11.134 14.53 0 26.644-10.346 29.377-24.073.605-3.039-1.705-5.881-4.804-5.881z" opacity="1" data-original="#fc8a3d"></path><path d="M178.115 199.843a7.5 7.5 0 0 0-7.5 7.5v14.967c0 4.143 3.358 7.5 7.5 7.5s7.5-3.357 7.5-7.5v-14.967a7.5 7.5 0 0 0-7.5-7.5zM326.385 207.343v14.967c0 4.143 3.357 7.5 7.5 7.5s7.5-3.357 7.5-7.5v-14.967c0-4.143-3.357-7.5-7.5-7.5s-7.5 3.357-7.5 7.5zM303.87 217.193c-4.697 0-9.276-1.998-12.893-5.626-9.578-9.607-24.346-10.573-34.977-3.267-10.624-7.301-25.392-6.347-34.977 3.267-3.617 3.628-8.196 5.626-12.894 5.626-7.838 0-13.687 7.177-12.159 14.845 3.473 17.446 18.921 30.108 36.732 30.108 8.58 0 16.737-2.895 23.297-8.123 6.561 5.229 14.718 8.123 23.297 8.123 17.811 0 33.259-12.662 36.732-30.107 1.53-7.674-4.325-14.846-12.158-14.846zm-24.573 29.953c-6.808 0-13.174-3.044-17.466-8.351-2.999-3.706-8.66-3.711-11.663 0-4.292 5.307-10.658 8.351-17.466 8.351-9.661 0-18.161-6.207-21.234-15.128 7.489-.789 14.555-4.221 20.177-9.859 5.24-5.256 13.857-4.794 18.523.975 3.003 3.714 8.667 3.706 11.663 0 4.668-5.771 13.284-6.229 18.523-.975 5.623 5.639 12.688 9.07 20.177 9.859-3.073 8.92-11.573 15.128-21.234 15.128z" fill="#000000" opacity="1" data-original="#000000"></path><path d="M437.117 136.031C414.307 56.829 341.326 0 255.999 0 170.517 0 97.783 57.325 74.939 136.031c-29.231.044-52.439 23.738-52.439 52.471 0 28.789 23.262 52.394 52.362 52.482 6.374 22.082 16.817 42.877 31.077 61.603 20.358 26.732 47.852 47.722 78.752 60.417a159.095 159.095 0 0 0-21.266 12.927l-.007.004c-17.181 12.403-31.5 27.827-42.559 45.842a7.5 7.5 0 1 0 12.783 7.847 143.571 143.571 0 0 1 23.03-28.583c-5.635 33.051-8.424 63.573-8.792 95.959h-35.188a142.241 142.241 0 0 1 8.537-41.765 7.5 7.5 0 0 0-14.081-5.17c-6.403 17.442-9.649 35.757-9.649 54.435a7.5 7.5 0 0 0 7.5 7.5h302c4.143 0 7.5-3.357 7.5-7.5 0-21.897-4.421-43.14-13.141-63.136a159.202 159.202 0 0 0-74.016-78.345 187.816 187.816 0 0 0 37.496-20.61 7.5 7.5 0 0 0 1.785-10.455 7.497 7.497 0 0 0-10.455-1.785c-15.706 11.125-33 19.492-51.399 24.871-.127.035-.255.067-.38.108-31.871 9.238-65.715 9.061-97.033-.069-41.338-12.05-75.665-38.984-97.795-73.88 14.234-8.425 21.416-25.598 16.629-42.214-7.53-26.134-10.31-53.149-8.262-80.296.583-7.735 5.306-14.435 12.326-17.484l37.202-16.166c12.465-5.417 18.921-19.328 15.017-32.358-6.055-20.21-7.006-39.847-2.9-59.912C202.645 21.4 228.587 15 255.999 15c26.663 0 52.666 6.018 76.409 17.687 4.126 20.093 3.182 39.756-2.882 59.994-3.904 13.03 2.552 26.941 15.017 32.358l37.202 16.166c7.02 3.05 11.742 9.749 12.326 17.484 2.048 27.147-.732 54.163-8.263 80.296-4.877 16.925 2.684 34.085 16.843 42.339a174.97 174.97 0 0 1-24.487 30.365 7.5 7.5 0 0 0 10.56 10.652c23.169-22.973 39.619-50.875 48.402-81.358 29.163-.084 52.372-23.749 52.372-52.482.002-28.993-23.456-52.399-52.381-52.47zM312.33 400.222c-3.074 5.825-8.841 9.303-15.427 9.303h-16.057c11.374-9.252 20.518-20.072 27.136-32.145 3.214 4.701 9.893 12.332 4.348 22.842zm-108.332-22.828c6.619 12.064 15.767 22.879 27.147 32.131h-16.058c-6.586 0-12.354-3.478-15.427-9.303-5.545-10.508 1.154-18.171 4.338-22.828zM162.88 497c.432-37.027 4.098-71.573 11.707-110.592a144.502 144.502 0 0 1 10.454-6.568 32.352 32.352 0 0 0 1.352 27.382 32.365 32.365 0 0 0 28.694 17.303h81.815c23.174 0 38.705-23.527 30.04-44.698a143.964 143.964 0 0 1 10.45 6.563c7.609 39.027 11.276 73.576 11.708 110.61zm224.729-49.64c6.891 15.802 10.815 32.468 11.698 49.64H364.1c-.367-32.377-3.154-62.897-8.788-95.95 13.681 13.139 24.692 28.867 32.297 46.31zm-94.615-74.004c-8.431 13.926-20.974 25.864-36.994 35.092-16.036-9.236-28.59-21.176-37.022-35.096 24.097 4.804 49.39 4.919 74.016.004zM37.5 188.502c0-19.008 14.308-35.308 33.71-37.283a188.685 188.685 0 0 0-3.71 37.283c0 12.667 1.239 25.131 3.662 37.277-19.161-1.974-33.662-18.062-33.662-37.277zm130.604-91.517c1.725 5.759-1.124 11.905-6.626 14.296l-37.201 16.166c-12.139 5.274-20.302 16.813-21.306 30.113-2.182 28.933.781 57.725 8.806 85.577 2.846 9.881-1.426 20.064-9.695 25.058-12.559-24.14-19.582-51.358-19.582-79.693 0-61.442 32.105-115.523 80.417-146.358-2.063 18.275-.352 36.352 5.187 54.841zm242.033 171.332c-8.345-4.906-12.81-15.131-9.914-25.179 8.025-27.853 10.988-56.645 8.806-85.577-1.003-13.3-9.167-24.839-21.305-30.113l-37.202-16.166c-5.503-2.391-8.352-8.537-6.626-14.296 5.548-18.516 7.256-36.619 5.178-54.921 49.965 31.717 80.427 86.495 80.427 146.438-.001 28.257-6.712 55.457-19.364 79.814zm30.703-42.537a190.5 190.5 0 0 0 3.66-37.278c0-12.699-1.264-25.183-3.691-37.312 19.013 1.857 33.691 18.058 33.691 37.312 0 19.009-14.302 35.282-33.66 37.278z" fill="#000000" opacity="1" data-original="#000000"></path></g></svg>