<svg xmlns="http://www.w3.org/2000/svg" version="1.1" xmlns:xlink="http://www.w3.org/1999/xlink" width="512" height="512" x="0" y="0" viewBox="0 0 512 512" style="enable-background:new 0 0 512 512" xml:space="preserve"><g><g fill="#ffbd86"><circle cx="90.808" cy="216.1" r="41.07" fill="#ffbd86" opacity="1" data-original="#ffbd86"></circle><circle cx="421.192" cy="216.1" r="41.07" fill="#ffbd86" opacity="1" data-original="#ffbd86"></circle></g><path fill="#fed2a4" d="M302.309 374.701c68.69-20.023 118.883-83.447 118.883-158.601 0-81.899-59.598-149.877-137.791-162.931a166.317 166.317 0 0 0-27.403-2.262c-91.23 0-165.191 73.959-165.191 165.193 0 75.154 50.193 138.577 118.882 158.601 14.694 4.284 30.232 6.59 46.309 6.59 9.344 0 18.506-.779 27.425-2.272a164.749 164.749 0 0 0 18.886-4.318z" opacity="1" data-original="#fed2a4"></path><path fill="#ffbd86" d="M145.568 216.1c0-81.905 59.635-149.885 137.834-162.931a166.544 166.544 0 0 0-27.403-2.262c-91.23 0-165.191 73.959-165.191 165.193 0 91.231 73.96 165.191 165.191 165.191 9.329 0 18.518-.786 27.425-2.272-78.199-13.047-137.856-81.017-137.856-162.919z" opacity="1" data-original="#ffbd86"></path><g fill="#ffbd86"><path d="M165.444 247.236c-18.454 0-33.413 11.913-33.413 26.608 0 14.696 14.959 26.609 33.413 26.609s33.413-11.913 33.413-26.609c.001-14.695-14.959-26.608-33.413-26.608zM346.555 247.236c-18.453 0-33.413 11.913-33.413 26.608 0 14.696 14.96 26.609 33.413 26.609 18.454 0 33.413-11.913 33.413-26.609.001-14.695-14.959-26.608-33.413-26.608z" fill="#ffbd86" opacity="1" data-original="#ffbd86"></path></g><path fill="#4c5659" d="M295.838 250.76c-12.369-12.952-31.146-14.582-39.838-2.409-8.692-12.173-27.469-10.543-39.838 2.409-13.115 13.753-23.344 26.607-19.355 33.513 3.986 6.909 20.229 4.472 38.7-.006 9.179-2.235 16.513-7.592 20.493-14.151 3.98 6.559 11.314 11.916 20.493 14.151 18.471 4.477 34.715 6.914 38.7.006 3.989-6.906-6.24-19.76-19.355-33.513z" opacity="1" data-original="#4c5659"></path><path fill="#53a3ec" d="M382.39 449.614c-21.542-49.404-70.578-82.927-126.39-82.928h-.001c-56.12 0-104.982 33.834-126.389 82.93-7.337 16.827-11.421 35.385-11.421 54.884H393.812c0-19.5-4.084-38.058-11.422-54.886z" opacity="1" data-original="#53a3ec"></path><path fill="#ff8f71" d="M255.999 366.686c-15.938 0-31.568 2.733-46.326 8.019V504.5h92.68V374.716a137.318 137.318 0 0 0-46.354-8.03z" opacity="1" data-original="#ff8f71"></path><path fill="#3085d1" d="M129.609 449.616c-7.337 16.827-11.421 35.385-11.421 54.884h68.906a162.035 162.035 0 0 1 22.579-59.891v-69.884c-35.727 12.798-64.841 39.978-80.064 74.891z" opacity="1" data-original="#3085d1"></path><path fill="#ff6f4d" d="M302.307 374.701a137.297 137.297 0 0 0-46.308-8.015c-15.938 0-31.568 2.733-46.326 8.019v69.903c20.839-33.313 53.478-58.616 92.634-69.907z" opacity="1" data-original="#ff6f4d"></path><path fill="#676f72" d="M416.113 175.339h.012c15.006-62.3-15.52-127.016-73.885-154.707-21.654-10.273-44.886-14.366-67.528-12.814-38.15 2.615-74.624 21.262-99.051 53.422-29.221-4.48-58.452 8.013-75.41 32.227-14.362 20.507-17.808 46.412-9.903 69.613 1.429 4.195 3.352 8.289 5.526 12.258l.018-.001a165.31 165.31 0 0 0-5.085 40.761c0 112.385 74.222 202.974 165.191 202.974 39.445 0 75.733-17.027 104.189-45.471 37.191-37.175 61.005-93.852 61.005-157.503 0-14.066-1.769-27.72-5.079-40.759zm-55.771 120.047c-16.855 22.133-40.671 38.773-68.138 46.671-8.27 2.377-16.866-1.859-20.291-9.752-3.581-8.251-9.373-13.613-15.913-13.613s-12.333 5.362-15.913 13.615c-3.423 7.889-12.013 12.13-20.278 9.755-27.332-7.855-51.186-24.398-68.151-46.675-17.469-22.94-26.702-50.357-26.702-79.286 0-13.991 2.211-27.473 6.294-40.123 2.481-7.687 6.989-14.523 12.709-20.226l.069-.069 32.151-32.152a50.722 50.722 0 0 1 35.866-14.856 227.637 227.637 0 0 0 160.973 66.665h7.51a131.052 131.052 0 0 1 6.517 40.76c0 28.929-9.234 56.346-26.703 79.286z" opacity="1" data-original="#676f72"></path><path fill="#4c5659" d="M191.082 329.929c-15.249-8.736-28.767-20.55-39.424-34.543-17.469-22.94-26.702-50.357-26.702-79.286 0-13.991 2.211-27.473 6.294-40.123 2.481-7.687 6.989-14.523 12.709-20.226l.069-.069 32.151-32.152a50.722 50.722 0 0 1 35.866-14.856 227.637 227.637 0 0 0 160.973 66.665c-65.526-28.746-105.163-96.32-98.305-167.52-38.15 2.615-74.624 21.262-99.051 53.422-29.221-4.48-58.452 8.013-75.41 32.227-14.362 20.507-17.808 46.412-9.903 69.613 1.429 4.195 3.352 8.289 5.526 12.258l.018-.001a165.31 165.31 0 0 0-5.085 40.761c0 112.385 74.222 202.974 165.191 202.974 39.443 0 75.734-17.03 104.189-45.471-15.654 4.924-32.323 7.581-49.603 7.581-47.088.001-89.428-19.629-119.503-51.254z" opacity="1" data-original="#4c5659"></path><path d="M192.417 248.229v-13.658c0-4.143-3.358-7.5-7.5-7.5s-7.5 3.357-7.5 7.5v13.658c0 4.143 3.358 7.5 7.5 7.5s7.5-3.357 7.5-7.5zM327.082 227.071a7.5 7.5 0 0 0-7.5 7.5v13.658a7.5 7.5 0 0 0 7.5 7.5c4.143 0 7.5-3.357 7.5-7.5v-13.658a7.5 7.5 0 0 0-7.5-7.5zM270.533 232.653c-5.45.388-10.412 2.176-14.533 5.168-4.122-2.992-9.083-4.78-14.533-5.168-10.771-.77-22.264 4.063-30.732 12.931-17.277 18.119-26.72 31.538-20.424 42.436 6.287 10.9 22.631 9.434 46.971 3.535 7.201-1.754 13.672-5.182 18.718-9.797 5.047 4.615 11.521 8.044 18.726 9.799 11.407 2.765 21.057 4.556 28.74 4.555 8.705 0 14.883-2.3 18.221-8.087 6.299-10.902-3.144-24.321-20.425-42.444-8.465-8.865-19.957-13.711-30.729-12.928zm7.734 44.327c-6.854-1.669-12.782-5.689-15.855-10.755a7.5 7.5 0 0 0-12.824 0c-3.074 5.065-9.001 9.086-15.848 10.753-22.4 5.43-28.637 4.277-30.31 3.47.137-1.853 2.254-7.833 18.155-24.509 5.412-5.666 12.446-8.787 18.814-8.324 2.816.2 6.75 1.247 9.496 5.095a7.5 7.5 0 0 0 12.208 0c2.747-3.848 6.68-4.895 9.496-5.095 6.374-.453 13.402 2.658 18.81 8.32 15.904 16.679 18.022 22.66 18.159 24.513-1.672.805-7.908 1.96-30.301-3.468z" fill="#000000" opacity="1" data-original="#000000"></path><path d="M425.343 167.728C440.379 80.109 372.765 0 284.016 0c-43.344 0-84.383 19.569-111.634 53.268-31.045-3.106-60.829 10.988-78.273 35.897-16.792 23.977-19.505 53.962-9.948 78.842-24.245 3.352-41.923 24.046-41.923 48.093 0 25.322 19.75 47.02 45.675 48.477 4.433 22.981 11.965 44.727 22.445 64.718a7.497 7.497 0 0 0 10.125 3.16 7.5 7.5 0 0 0 3.16-10.125c-24.161-46.087-31.136-103.205-20.481-145.144a7.498 7.498 0 0 0-.897-5.794c-13.21-24.349-10.621-52.559 4.131-73.621 15.306-21.857 41.718-33.162 68.13-29.117a7.494 7.494 0 0 0 7.109-2.877C205.94 33.776 243.824 15 284.016 15c80.569 0 141.304 73.87 126.05 152.84h-37.048c-58.813 0-114.097-22.896-155.67-64.47a7.5 7.5 0 0 0-5.303-2.196c-15.551 0-30.171 6.057-41.168 17.053l-32.213 32.214c-6.899 6.878-11.795 14.694-14.551 23.232-13.344 41.343-6.948 88.796 21.579 126.258 18.001 23.638 43.588 41.159 72.046 49.338 11.732 3.374 24.305-2.628 29.229-13.978 2.398-5.527 5.944-9.1 9.033-9.1s6.634 3.571 9.033 9.099c4.921 11.344 17.493 17.352 29.243 13.975 28.454-8.181 54.035-25.701 72.033-49.334 25.471-33.448 34.195-76.542 24.153-117.091h19.688c5.158 24.203 4.349 48.534.283 72.949-14.658 88.018-77.794 155.784-154.436 155.784-47.62 0-89.111-26.189-117.141-64.7a7.497 7.497 0 0 0-10.478-1.65 7.5 7.5 0 0 0-1.65 10.477c10.564 14.515 22.633 27.098 35.958 37.53-32.725 27.515-52 68.39-52 111.271a7.5 7.5 0 0 0 7.5 7.5h275.625c4.143 0 7.5-3.357 7.5-7.5 0-13.614-1.899-27.111-5.646-40.116a7.5 7.5 0 0 0-14.414 4.152 129.599 129.599 0 0 1 4.846 28.464h-42.126v-34.432c0-4.143-3.357-7.5-7.5-7.5s-7.5 3.357-7.5 7.5V497h-19.119v-80.867c9.225-3.687 18.208-8.336 26.812-13.881 13.79 10.921 25.429 24.689 33.83 40.104a7.5 7.5 0 0 0 13.172-7.178c-8.673-15.915-20.443-30.251-34.344-41.952 39.779-31.166 65.12-78.828 74.761-128.65 25.976-1.46 45.679-23.202 45.679-48.477 0-24.971-19.041-46.189-44.419-48.371zM85.425 249.237c-16.24-2.573-28.187-16.763-28.187-33.138 0-16.692 12.332-31.104 29.319-33.275-4.257 22.033-4.113 43.988-1.132 66.413zm268.951 41.606c-16.056 21.082-38.871 36.711-64.244 44.006-4.605 1.32-9.375-1.001-11.339-5.529-4.926-11.352-13.446-18.128-22.793-18.128s-17.868 6.777-22.794 18.129c-1.964 4.527-6.729 6.85-11.326 5.532-25.377-7.294-48.197-22.923-64.256-44.01-25.46-33.435-31.112-75.77-19.238-112.563 2.017-6.246 5.672-12.039 10.866-17.217l.078-.078 32.151-32.151c7.459-7.459 17.162-11.856 27.587-12.56 42.417 41.273 100.081 66.565 165.899 66.565 10.406 37.193 2.87 77.194-20.591 108.004zM202.173 497h-19.162v-34.432c0-4.143-3.358-7.5-7.5-7.5s-7.5 3.357-7.5 7.5V497h-42.104c2.163-36.972 20.227-71.638 49.445-94.747 8.603 5.542 17.588 10.19 26.821 13.877zm92.68 0h-77.68v-75.79c12.697 3.557 25.713 5.363 38.826 5.363 13.136 0 26.161-1.805 38.854-5.359zm131.726-247.763c2.984-22.245 3.164-44.228-1.14-66.444 16.616 2.046 29.323 16.358 29.323 33.306 0 16.372-11.943 30.565-28.183 33.138z" fill="#000000" opacity="1" data-original="#000000"></path><path d="M319.157 443.032a7.5 7.5 0 1 0 0 15 7.5 7.5 0 0 0 0-15zM319.157 479.926a7.5 7.5 0 1 0 0 15 7.5 7.5 0 0 0 0-15z" fill="#000000" opacity="1" data-original="#000000"></path></g></svg>