<svg xmlns="http://www.w3.org/2000/svg" version="1.1" xmlns:xlink="http://www.w3.org/1999/xlink" width="512" height="512" x="0" y="0" viewBox="0 0 512 512" style="enable-background:new 0 0 512 512" xml:space="preserve"><g><path fill="#88c5fd" d="M255.999 364.723c-16.483 0-32.305 2.876-47 8.139-35.595 12.747-65.484 39.951-81.19 75.972-7.441 17.067-11.584 35.889-11.584 55.666H256V364.723h-.001z" opacity="1" data-original="#88c5fd"></path><path fill="#add8ff" d="M384.191 448.832c-15.117-34.669-44.224-62.736-81.207-75.976A139.34 139.34 0 0 0 256 364.722V504.5h139.776c0-19.777-4.143-38.601-11.585-55.668z" opacity="1" data-original="#add8ff"></path><path fill="#ff8e9e" d="M348.514 477.659c-.296-6.141-5.388-10.958-11.536-10.958h-1.583c6.758 0 12.107-5.782 11.505-12.512-.451-5.04-.97-10.073-1.557-15.099-.679-5.812-5.622-10.188-11.473-10.188h-3.193c7.079 0 12.531-6.319 11.411-13.308a562.397 562.397 0 0 0-3.715-20.7l-.754-3.798a139.406 139.406 0 0 0-34.634-18.239A139.35 139.35 0 0 0 256 364.723c-16.483 0-32.305 2.876-47 8.139a139.876 139.876 0 0 0-34.634 18.253 667.04 667.04 0 0 0-4.391 24.369c-1.129 7.034 4.272 13.418 11.395 13.418h-3.24c-5.83 0-10.769 4.342-11.46 10.131a544.912 544.912 0 0 0-1.587 15.046c-.619 6.772 4.7 12.622 11.5 12.622h-1.602c-6.181 0-11.244 4.868-11.536 11.043a564.987 564.987 0 0 0-.625 26.756h186.343v-.016c0-8.95-.219-17.894-.649-26.825z" opacity="1" data-original="#ff8e9e"></path><g fill="#ea5b70"><path d="M286.533 368.097a140.77 140.77 0 0 0-30.534-3.374 139.341 139.341 0 0 0-81.635 26.392 681.53 681.53 0 0 0-4.395 24.4c-1.108 7.021 4.286 13.387 11.399 13.387h-3.24c-5.83 0-10.769 4.342-11.46 10.131a544.912 544.912 0 0 0-1.587 15.046c-.619 6.772 4.7 12.622 11.5 12.622h-1.602c-6.126 0-11.147 4.784-11.52 10.88-.41 8.63-.641 17.832-.641 26.919h35.375c.03-26.695 7.085-52.633 20.593-75.598 15.678-26.65 39.351-48.032 67.747-60.805z" fill="#ea5b70" opacity="1" data-original="#ea5b70"></path><path d="m256 347.582-46.993 25.273c8.251 21.641 24.757 38.782 46.993 50.671 22.235-11.889 38.715-29.032 46.967-50.671h.002z" fill="#ea5b70" opacity="1" data-original="#ea5b70"></path></g><circle cx="423.546" cy="211.99" r="41.655" fill="#ffbf9d" opacity="1" data-original="#ffbf9d"></circle><path fill="#ffd4bd" d="M302.969 372.851c69.669-20.309 120.577-84.636 120.577-160.861 0-92.534-75.013-167.547-167.547-167.547-92.53 0-167.544 75.013-167.544 167.547 0 76.225 50.908 140.552 120.576 160.861 14.904 4.345 30.662 6.684 46.969 6.684 9.461 0 18.738-.787 27.771-2.297a167.085 167.085 0 0 0 19.198-4.387z" opacity="1" data-original="#ffd4bd"></path><path fill="#ffbf9d" d="M143.994 211.99c0-83.072 60.462-152.011 139.775-165.243a168.662 168.662 0 0 0-27.771-2.304c-78.15 0-143.796 53.512-162.316 125.892h-5.229c-23.005 0-41.655 18.65-41.655 41.655 0 23.006 18.65 41.655 41.655 41.655h5.229c18.52 72.378 84.166 125.889 162.316 125.889 9.462 0 18.736-.79 27.771-2.297-79.313-13.232-139.775-82.177-139.775-165.247z" opacity="1" data-original="#ffbf9d"></path><g fill="#ffbf9d"><ellipse cx="164.154" cy="269.208" rx="33.889" ry="26.988" fill="#ffbf9d" opacity="1" data-original="#ffbf9d"></ellipse><ellipse cx="347.846" cy="269.208" rx="33.889" ry="26.988" fill="#ffbf9d" opacity="1" data-original="#ffbf9d"></ellipse></g><path fill="#82888b" d="M331.5 41.397c-4.583-14.496-16.694-25.924-32.159-29.274A204.466 204.466 0 0 0 256 7.5c-44.392 0-85.52 14.223-119.077 38.348-27.258 19.597-43.241 51.27-43.241 84.842v122.955h39.063c5.484 0 10.921-.22 16.303-.653 75.472-6.069 140.047-53.886 168.67-120.913 25.528 26.299 61.978 40.885 100.27 37.863v-39.593c0-33.664-16.038-65.457-43.453-84.993-12.634-9.003-28.806-10.928-43.035-3.959z" opacity="1" data-original="#82888b"></path><path fill="#676f72" d="M299.342 12.122A204.548 204.548 0 0 0 256 7.5c-44.392 0-85.52 14.223-119.077 38.348-27.259 19.597-43.241 51.27-43.241 84.842V253.645h39.063c5.485 0 10.92-.22 16.303-.653a167.911 167.911 0 0 1-5.054-41.002c0-71.39 44.653-132.342 107.549-156.472 13.18-5.056 27.02-8.188 41.049-9.761l38.908-4.361c-4.583-14.495-16.694-25.923-32.158-29.274z" opacity="1" data-original="#676f72"></path><path d="M335.595 243.229v-13.854a7.5 7.5 0 0 0-15 0v13.854a7.5 7.5 0 0 0 15 0zM280.662 259.289a7.5 7.5 0 0 0-11.309-9.855c-7.072 8.114-19.641 8.107-26.706 0a7.5 7.5 0 0 0-11.309 9.855c13.051 14.974 36.286 14.96 49.324 0z" fill="#000000" opacity="1" data-original="#000000"></path><path d="M425.488 162.884v-32.535c0-16.14-3.543-32.4-10.244-47.023a7.5 7.5 0 0 0-9.943-3.693 7.5 7.5 0 0 0-3.693 9.943c5.81 12.676 8.881 26.774 8.881 40.773v32.459c-32.146.669-64.256-12.121-87.388-35.953-3.721-3.833-10.174-2.652-12.279 2.278-30.354 71.082-100.253 117.012-178.075 117.012h-31.563V130.69c0-31.252 14.998-60.692 40.119-78.753C174.912 27.773 214.575 15 256 15c14.07 0 28.118 1.498 41.754 4.452 12.543 2.718 22.734 11.992 26.595 24.205 1.381 4.366 6.332 6.494 10.45 4.475 4.67-2.287 9.634-3.447 14.754-3.447 9.242 0 21.119 3.446 37.003 21.6a7.499 7.499 0 0 0 10.583.706 7.5 7.5 0 0 0 .706-10.583c-13.297-15.198-28.765-26.723-48.292-26.723-4.753 0-9.405.686-13.907 2.044-6.826-13.616-19.561-23.654-34.716-26.938A212.635 212.635 0 0 0 256 0c-44.587 0-87.277 13.748-123.455 39.759-29.031 20.871-46.363 54.865-46.363 90.931v32.202c-26.053 1.192-46.883 22.755-46.883 49.098 0 26.937 21.782 48.883 48.657 49.153 8.118 27.781 23.114 53.246 43.599 73.946a7.5 7.5 0 0 0 10.662-10.552c-17.691-17.876-30.893-39.638-38.557-63.392h29.086c80.893 0 153.154-46.439 187.422-116.41 24.818 21.694 57.769 34.134 92.196 33.013 21.62 99.244-53.527 194.286-156.365 194.286-33.109 0-64.895-10.038-91.921-29.026a7.5 7.5 0 0 0-8.623 12.273 175.004 175.004 0 0 0 33.177 18.314c-30.65 15.832-54.333 41.588-67.698 72.24-8.101 18.58-12.209 38.317-12.209 58.664a7.5 7.5 0 0 0 7.5 7.5h279.551a7.5 7.5 0 0 0 7.5-7.5c0-20.348-4.108-40.085-12.21-58.666-13.236-30.357-36.83-56.331-67.691-72.232 47.879-19.929 85.567-60.617 100.674-112.459 26.874-.27 48.652-22.216 48.652-49.153 0-26.452-21.006-48.08-47.213-49.105zM54.299 211.99c0-18.069 14.106-32.897 31.883-34.071v68.143c-17.777-1.175-31.883-16.003-31.883-34.072zM263.5 459.201v-22.799h70.369c2.057 0 3.787 1.53 4.024 3.558a560.803 560.803 0 0 1 1.536 14.897c.207 2.325-1.665 4.344-4.035 4.344zm-86.918 0c-2.384 0-4.249-2.056-4.032-4.439.449-4.912.976-9.905 1.565-14.839.24-2.007 1.965-3.521 4.013-3.521h70.371v22.799zm86.918-72.327a175.754 175.754 0 0 0 25.945-3.044c-6.31 10.094-15.068 19.015-25.945 26.44zm-15 23.398c-10.885-7.426-19.646-16.343-25.958-26.428a175.611 175.611 0 0 0 25.958 3.027zm-10.252 11.13h-56.88c-2.495 0-4.39-2.238-3.99-4.729a707.035 707.035 0 0 1 3.757-21.153 132.994 132.994 0 0 1 23.648-12.94c7.199 15.092 18.562 28.258 33.465 38.822zm92.769-25.044v-.002a558.024 558.024 0 0 1 3.665 20.424c.388 2.418-1.526 4.621-4.006 4.621h-56.928c14.887-10.558 26.242-23.722 33.44-38.818a132.015 132.015 0 0 1 23.658 12.914l.171.861zm-196.334 55.474c6.78-15.55 16.499-29.614 28.531-41.473-.717 4.28-2.139 9.86 1.621 16.44a18.91 18.91 0 0 0-5.614 11.345 560.078 560.078 0 0 0-1.608 15.253 19.124 19.124 0 0 0 3.082 12.253 19.062 19.062 0 0 0-4.742 11.739 571.86 571.86 0 0 0-.582 19.611h-31.438c.872-15.621 4.478-30.783 10.75-45.168zm36.253 26.266c.103-2.186 1.88-3.897 4.044-3.897h73.52V497h-78.131c.083-6.36.273-12.691.567-18.902zM263.5 497v-22.799h73.478c2.165 0 3.941 1.677 4.045 3.818a555.55 555.55 0 0 1 .588 18.98zm113.815-45.17c6.273 14.386 9.879 29.547 10.751 45.17h-31.458a570.026 570.026 0 0 0-.604-19.702 18.928 18.928 0 0 0-4.71-11.639 18.987 18.987 0 0 0 3.074-12.14 570.355 570.355 0 0 0-1.577-15.301 18.951 18.951 0 0 0-5.584-11.376c3.845-6.678 2.295-12.317 1.6-16.462 12.024 11.859 21.734 25.914 28.508 41.45zm50.448-205.943a176.524 176.524 0 0 0-.004-67.793c16.853 2.083 29.942 16.49 29.942 33.897 0 17.405-13.088 31.811-29.938 33.896z" fill="#000000" opacity="1" data-original="#000000"></path></g></svg>