<svg xmlns="http://www.w3.org/2000/svg" version="1.1" xmlns:xlink="http://www.w3.org/1999/xlink" width="512" height="512" x="0" y="0" viewBox="0 0 512 512" style="enable-background:new 0 0 512 512" xml:space="preserve"><g><path fill="#ffbd86" d="M255.999 365.266c-16.419 0-32.179 2.865-46.818 8.108-35.456 12.698-65.229 39.795-80.874 75.677-7.413 17-11.539 35.75-11.539 55.45H256V365.266h-.001z" opacity="1" data-original="#ffbd86"></path><path fill="#fed2a4" d="M383.693 449.049c-15.058-34.534-44.052-62.492-80.891-75.681a138.81 138.81 0 0 0-46.801-8.102V504.5h139.233c-.001-19.701-4.128-38.451-11.541-55.451z" opacity="1" data-original="#fed2a4"></path><path fill="#53a3ec" d="M302.801 373.368a138.818 138.818 0 0 0-46.803-8.102c-16.419 0-32.179 2.865-46.818 8.108-35.457 12.698-65.229 39.795-80.874 75.677 13.814 12.144 29.835 23.766 46.375 33.614V504.5h162.62v-21.827c16.546-9.85 32.573-21.477 46.392-33.625-15.059-34.534-44.052-62.492-80.892-75.68z" opacity="1" data-original="#53a3ec"></path><path fill="#4293dd" d="M286.415 368.627a139.214 139.214 0 0 0-30.416-3.361c-16.419 0-32.179 2.865-46.818 8.108-35.456 12.698-65.229 39.795-80.874 75.677 13.814 12.144 29.835 23.766 46.375 33.614V504.5h23.737c.067-60.5 36.168-112.558 87.996-135.873z" opacity="1" data-original="#4293dd"></path><path fill="#b0ebd8" d="M174.681 391.553c-7.302 36.708-11.5 72.198-11.5 112.946h46.014V373.387a138.99 138.99 0 0 0-34.514 18.166zM338.052 395.32l-.751-3.787a138.854 138.854 0 0 0-34.471-18.152V504.5h45.97v-.016a559.663 559.663 0 0 0-10.748-109.164z" opacity="1" data-original="#b0ebd8"></path><path fill="#5fd9b3" d="M174.681 391.534c-7.302 36.708-11.5 72.198-11.5 112.946h23.202a163.74 163.74 0 0 1 22.812-60.509v-70.604a139.026 139.026 0 0 0-34.514 18.167z" opacity="1" data-original="#5fd9b3"></path><path fill="#ffbd86" d="m256.038 348.223-46.843 25.144c8.219 21.557 24.693 38.661 46.843 50.505 22.148-11.843 38.572-28.936 46.792-50.491z" opacity="1" data-original="#ffbd86"></path><g fill="#ffbd86"><circle cx="89.105" cy="213.127" r="41.493" fill="#ffbd86" opacity="1" data-original="#ffbd86"></circle><circle cx="422.895" cy="213.127" r="41.493" fill="#ffbd86" opacity="1" data-original="#ffbd86"></circle></g><path fill="#fed2a4" d="M302.786 373.363c69.398-20.23 120.108-84.307 120.108-160.235 0-82.751-60.224-151.435-139.234-164.614a168.027 168.027 0 0 0-27.663-2.282c-92.171 0-166.893 74.722-166.893 166.896 0 75.928 50.711 140.006 120.107 160.235 14.846 4.328 30.543 6.658 46.786 6.658 9.425 0 18.665-.784 27.663-2.288a166.365 166.365 0 0 0 19.126-4.37z" opacity="1" data-original="#fed2a4"></path><path fill="#ffbd86" d="M144.43 213.127c0-82.749 60.227-151.433 139.232-164.614a168.017 168.017 0 0 0-27.663-2.282c-92.171 0-166.893 74.722-166.893 166.896 0 92.172 74.723 166.893 166.893 166.893 9.425 0 18.664-.787 27.663-2.288-79.006-13.181-139.232-81.858-139.232-164.605z" opacity="1" data-original="#ffbd86"></path><g fill="#ffbd86"><path d="M165.015 243.454c-18.343 0-33.213 11.842-33.213 26.449 0 14.608 14.87 26.45 33.213 26.45 18.344 0 33.214-11.842 33.214-26.45s-14.87-26.449-33.214-26.449zM346.849 243.454c-18.418 0-33.349 11.842-33.349 26.449 0 14.608 14.931 26.45 33.349 26.45s33.35-11.842 33.35-26.45c-.001-14.608-14.932-26.449-33.35-26.449z" fill="#ffbd86" opacity="1" data-original="#ffbd86"></path></g><g fill="#ce857a"><path d="M121.365 120.266c-17.811 26.548-28.206 58.49-28.206 92.861 0 1.081.013 2.159.034 3.236 27.321-2.627 48.887-25.639 48.887-53.648 0-17.246-8.113-32.582-20.715-42.449zM398.74 120.268c-12.6 9.867-20.712 25.202-20.712 42.447 0 28.009 21.567 51.021 48.887 53.648.02-1.076.034-2.154.034-3.236 0-34.371-10.398-66.31-28.209-92.859z" fill="#ce857a" opacity="1" data-original="#ce857a"></path></g><path fill="#53a3ec" d="M274.334 8.826A129.452 129.452 0 0 0 256.008 7.5c-.257 0-.513.006-.771.008-55.508.328-104.615 36.086-134.8 90.881h271.144c-26.96-48.939-69.019-82.673-117.247-89.563z" opacity="1" data-original="#53a3ec"></path><path fill="#4293dd" d="M241.703 61.404a196.759 196.759 0 0 1 32.631-52.578A129.452 129.452 0 0 0 256.008 7.5c-.257 0-.513.006-.771.008-55.508.328-104.615 36.086-134.8 90.881H234.55z" opacity="1" data-original="#4293dd"></path><path fill="#b0ebd8" d="M400.875 95.837C351.39 70.601 296.43 58.965 241.703 61.404c-44.714 1.992-89.272 13.378-130.561 34.434-28.286 14.425-36.398 51.031-16.921 76.108 21.933-17.031 45.853-30.119 70.859-39.302 83.7-30.739 179.46-17.564 252.692 39.302 19.476-25.078 11.39-61.683-16.897-76.109z" opacity="1" data-original="#b0ebd8"></path><path fill="#5fd9b3" d="M241.703 61.404c-44.714 1.992-89.272 13.378-130.561 34.434-28.286 14.425-36.398 51.031-16.921 76.108 21.933-17.031 45.853-30.119 70.859-39.302 17.203-31.188 44.102-56.292 76.623-71.24z" opacity="1" data-original="#5fd9b3"></path><circle cx="323.849" cy="456.875" r="7.5" fill="#000000" opacity="1" data-original="#000000"></circle><circle cx="323.849" cy="487.25" r="7.5" fill="#000000" opacity="1" data-original="#000000"></circle><path d="M184.185 223.304a7.499 7.499 0 0 0-7.5 7.5v13.8c0 4.143 3.357 7.5 7.5 7.5s7.5-3.357 7.5-7.5v-13.8a7.5 7.5 0 0 0-7.5-7.5zM327.815 223.304a7.499 7.499 0 0 0-7.5 7.5v13.8c0 4.143 3.357 7.5 7.5 7.5s7.5-3.357 7.5-7.5v-13.8c0-4.143-3.357-7.5-7.5-7.5zM279.86 238.538a7.497 7.497 0 0 0-10.581.728c-3.353 3.847-8.192 6.053-13.279 6.053s-9.927-2.206-13.279-6.053a7.5 7.5 0 1 0-11.309 9.853c6.201 7.117 15.163 11.199 24.588 11.199s18.387-4.082 24.588-11.199a7.498 7.498 0 0 0-.728-10.581z" fill="#000000" opacity="1" data-original="#000000"></path><path d="M423.382 262.108c26.79-.264 48.506-22.13 48.506-48.981 0-24.329-17.829-44.565-41.106-48.35 12.671-28.004 1.338-61.426-26.496-75.622a325.288 325.288 0 0 0-13.234-6.361c-7.114-11.241-15.116-21.668-23.832-30.999a7.501 7.501 0 0 0-10.963 10.239 186.85 186.85 0 0 1 8.967 10.355c-69.957-24.742-146.663-25.38-218.485.033C174.293 38.052 211.618 15.485 256.012 15c27.729.001 55.044 9.604 78.991 27.77a7.501 7.501 0 0 0 9.067-11.951C317.491 10.658 287.042.001 256.012 0 198.466.551 151.585 34.379 120.97 82.796a318.309 318.309 0 0 0-13.231 6.36c-27.85 14.204-39.176 47.637-26.519 75.621-23.277 3.784-41.107 24.02-41.107 48.35 0 26.851 21.716 48.717 48.506 48.981 14.845 50.645 52.095 91.805 100.245 111.965-15.159 7.829-28.953 18.269-40.536 30.797a7.5 7.5 0 1 0 11.014 10.184 131.42 131.42 0 0 1 4.198-4.314c-2.966 17.685-5.05 34.612-6.319 51.568-6.904-4.902-13.504-9.995-19.724-15.244a131.173 131.173 0 0 1 4.949-9.267 7.5 7.5 0 0 0-12.93-7.604 146.71 146.71 0 0 0-20.248 74.307c0 4.143 3.357 7.5 7.5 7.5h278.465c4.143 0 7.5-3.357 7.5-7.5 0-55.261-31.3-105.507-79.576-130.436 48.14-20.164 85.382-61.319 100.225-111.956zM381.831 157.01a257.494 257.494 0 0 1 29.268 19.282 159.884 159.884 0 0 1 4.18 31.016c-21.173-6.115-36.344-27.083-33.448-50.298zm75.057 56.117c0 17.316-13.017 31.639-29.778 33.723a174.58 174.58 0 0 0 3.284-33.723c0-11.357-1.11-22.659-3.276-33.721 16.757 2.087 29.77 16.408 29.77 33.721zM114.553 102.52c43.007-21.936 91.975-33.928 141.216-33.928 43.66 0 87.328 9.233 127.098 26.961a310.744 310.744 0 0 1 14.605 6.966c21.674 11.054 29.617 37.6 18.41 58.614-95.254-69.541-224.502-69.539-319.764 0-11.246-21.096-3.147-47.607 18.435-58.613zM96.721 207.308a159.89 159.89 0 0 1 4.187-31.021 257.368 257.368 0 0 1 29.261-19.277c2.895 23.203-12.265 44.18-33.448 50.298zm-41.609 5.819c0-17.314 13.015-31.637 29.774-33.722a175.46 175.46 0 0 0-3.281 33.722c0 11.535 1.137 22.808 3.284 33.722-16.76-2.083-29.777-16.406-29.777-33.722zm275.583 183.655A553.483 553.483 0 0 1 341.245 497H310.33V384.521a131.27 131.27 0 0 1 20.196 11.409zM295.33 497h-78.635v-95.72c9.201 11.536 21.256 21.426 35.807 29.206a7.5 7.5 0 0 0 7.072 0c14.525-7.767 26.563-17.648 35.756-29.181zm-39.292-81.711c-14.146-8.202-25.311-18.702-32.977-30.902a174.593 174.593 0 0 0 65.923-.009c-7.661 12.214-18.816 22.717-32.946 30.911zm-54.343-30.78V497h-30.964c.429-33.812 3.802-65.426 10.739-101.058a132.704 132.704 0 0 1 20.225-11.433zm-70.2 77.065c7.765 6.342 16.039 12.449 24.71 18.25a569.977 569.977 0 0 0-.476 17.175h-31.247a131.635 131.635 0 0 1 7.013-35.425zM356.248 497a567.255 567.255 0 0 0-.496-17.147c8.678-5.806 16.958-11.916 24.729-18.261 3.91 11.281 6.336 23.173 7.037 35.409h-31.27zm18.222-49.912c-6.227 5.252-12.833 10.35-19.745 15.255a568.8 568.8 0 0 0-6.222-51.51 132.723 132.723 0 0 1 25.967 36.255zm-118.472-74.567c-84.668 0-154.117-66.361-159.096-149.801 32.775-7.052 54.538-39.425 47.209-73.022 70.559-34.292 153.218-34.291 223.777 0-7.331 33.608 14.444 65.971 47.209 73.021-4.978 83.44-74.429 149.802-159.099 149.802z" fill="#000000" opacity="1" data-original="#000000"></path></g></svg>