<svg xmlns="http://www.w3.org/2000/svg" version="1.1" xmlns:xlink="http://www.w3.org/1999/xlink" width="512" height="512" x="0" y="0" viewBox="0 0 512 512" style="enable-background:new 0 0 512 512" xml:space="preserve"><g><path fill="#ff8f71" d="M303.164 372.351a139.294 139.294 0 0 0-8.942-2.86 139.843 139.843 0 0 0-38.223-5.304c-77.35 0-140.31 62.974-140.31 140.313h280.623c-.001-60.293-38.453-112.568-93.148-132.149z" opacity="1" data-original="#ff8f71"></path><path fill="#ff6f4d" d="M294.222 369.491a139.843 139.843 0 0 0-38.223-5.304c-77.35 0-140.31 62.974-140.31 140.313h76.487c0-23.9 6.044-46.439 16.662-66.186l-.019-.008c17.798-33.112 48.507-58.341 85.403-68.815z" opacity="1" data-original="#ff6f4d"></path><path fill="#c8866a" d="m256 346.98-47.173 25.37c8.283 21.724 24.852 38.93 47.173 50.866 22.32-11.935 38.864-29.143 47.147-50.866h.002z" opacity="1" data-original="#c8866a"></path><g fill="#c8866a"><circle cx="87.812" cy="210.868" r="41.815" fill="#c8866a" opacity="1" data-original="#c8866a"></circle><circle cx="424.188" cy="210.868" r="41.815" fill="#c8866a" opacity="1" data-original="#c8866a"></circle></g><path fill="#db9e82" d="M303.149 372.346c69.936-20.387 121.039-84.96 121.039-161.477 0-83.392-60.691-152.609-140.313-165.89a169.387 169.387 0 0 0-27.877-2.3c-92.885 0-168.187 75.301-168.187 168.19 0 76.517 51.104 141.091 121.038 161.477 14.961 4.361 30.78 6.709 47.149 6.709 9.498 0 18.81-.79 27.877-2.306a167.42 167.42 0 0 0 19.274-4.403z" opacity="1" data-original="#db9e82"></path><path fill="#c8866a" d="M143.565 210.869c0-83.391 60.694-152.607 140.311-165.89a169.287 169.287 0 0 0-27.877-2.3c-92.885 0-168.187 75.301-168.187 168.19 0 92.886 75.302 168.187 168.187 168.187 9.498 0 18.808-.793 27.877-2.306-79.618-13.284-140.311-82.493-140.311-165.881z" opacity="1" data-original="#c8866a"></path><g fill="#c8866a"><ellipse cx="164.31" cy="268.084" rx="33.471" ry="26.655" fill="#c8866a" opacity="1" data-original="#c8866a"></ellipse><ellipse cx="347.553" cy="268.084" rx="33.608" ry="26.655" fill="#c8866a" opacity="1" data-original="#c8866a"></ellipse></g><path fill="#ffce71" d="M406.464 60.404C366.452 20.393 304.214 13.061 256 42.679a122.483 122.483 0 0 0-19.61-9.755c-44.546-17.377-96.09-7.284-130.854 27.481-40.011 40.013-47.343 102.25-17.724 150.464 25.966 0 50.861-5.457 73.457-15.313 42.346-18.471 76.619-52.393 94.731-94.807 27.776 65.045 93.562 110.118 168.187 110.119h.002c29.617-48.215 22.286-110.452-17.725-150.464z" opacity="1" data-original="#ffce71"></path><path fill="#ffb357" d="M163.209 102.221a125.947 125.947 0 0 1 73.181-69.297c-44.542-17.369-96.094-7.28-130.854 27.481-40.011 40.013-47.343 102.25-17.724 150.464a183.52 183.52 0 0 0 73.457-15.313c-11.297-30.115-10.691-63.532 1.94-93.335z" opacity="1" data-original="#ffb357"></path><path d="M183.628 250.088a7.5 7.5 0 0 0 7.5-7.5v-13.906c0-4.143-3.358-7.5-7.5-7.5s-7.5 3.357-7.5 7.5v13.906a7.5 7.5 0 0 0 7.5 7.5zM335.872 242.588v-13.906c0-4.143-3.357-7.5-7.5-7.5a7.5 7.5 0 0 0-7.5 7.5v13.906c0 4.143 3.358 7.5 7.5 7.5s7.5-3.357 7.5-7.5zM256 258.367a32.803 32.803 0 0 0 24.735-11.265 7.5 7.5 0 0 0-11.309-9.855c-3.389 3.89-8.283 6.12-13.426 6.12s-10.037-2.23-13.426-6.12a7.5 7.5 0 0 0-11.309 9.855A32.806 32.806 0 0 0 256 258.367z" fill="#000000" opacity="1" data-original="#000000"></path><path d="M448.054 167.715c6.95-42.555-7.808-84.134-36.287-112.615-37.613-37.611-95.481-49.175-145.797-26.198a39.946 39.946 0 0 1 10.681-15.839 7.5 7.5 0 0 0-10.059-11.127 54.86 54.86 0 0 0-11.695 15.072 42.512 42.512 0 0 0-5.454-5.989A42.755 42.755 0 0 0 216.531.216a7.5 7.5 0 0 0 1.508 14.924 27.7 27.7 0 0 1 21.345 7.006 27.636 27.636 0 0 1 4.97 5.983c-49.302-21.77-106.468-10.682-144.12 26.972-28.448 28.447-43.245 70.015-36.287 112.613-15.636 8.605-25.448 24.942-25.448 43.154 0 26.967 21.711 49.064 48.929 49.291 10.958 37.333 34.148 70.578 66.511 93.712a7.5 7.5 0 1 0 8.723-12.203c-40.173-28.716-64.906-74.453-67.161-123.467 65.909-2.602 128.333-39.649 160.505-100.101 30.413 57.038 90.812 97.336 160.51 100.109-3.852 85.207-74.372 153.345-160.515 153.345-24.39 0-47.598-5.401-68.674-15.383a7.5 7.5 0 1 0-6.421 13.556c2.49 1.18 5.003 2.283 7.53 3.34-48.679 25.104-80.245 75.741-80.245 131.431a7.5 7.5 0 0 0 7.5 7.5h280.623c4.143 0 7.5-3.357 7.5-7.5 0-9.771-.971-19.559-2.885-29.089a7.5 7.5 0 0 0-14.707 2.953 132.688 132.688 0 0 1 2.38 18.636H364.1a616.806 616.806 0 0 0-2.878-52.363c-.403-4.123-4.076-7.146-8.194-6.734a7.498 7.498 0 0 0-6.733 8.195 602.352 602.352 0 0 1 2.803 50.902H162.882a581.97 581.97 0 0 1 2.812-50.892 7.5 7.5 0 0 0-6.723-8.204 7.496 7.496 0 0 0-8.204 6.723 597.032 597.032 0 0 0-2.886 52.373h-24.48c2.874-50.555 34.625-95.407 81.428-115.021 9.409 19.687 25.727 36.136 47.634 47.851a7.503 7.503 0 0 0 7.073 0c21.9-11.71 38.213-28.17 47.623-47.881 31.323 13.14 56.8 38.107 70.527 69.398a7.499 7.499 0 0 0 9.881 3.855 7.5 7.5 0 0 0 3.855-9.882c-13.696-31.219-37.911-56.778-67.902-72.267 48.579-20.301 86.163-61.812 101.119-112.896 27.317-.267 48.863-22.471 48.863-49.29.001-18.207-9.811-34.544-25.448-43.15zM256 414.632c-14.289-8.28-25.564-18.887-33.295-31.218a176.607 176.607 0 0 0 33.294 3.141c11.383 0 22.513-1.102 33.299-3.179-7.732 12.353-19.008 22.974-33.298 31.256zM53.497 210.869c0-11.144 5.293-21.264 13.966-27.62a129.64 129.64 0 0 0 12.881 29.75 174.73 174.73 0 0 0 3.343 31.94c-17.129-1.996-30.19-16.712-30.19-34.07zm366.439-7.551c-68.88-1.625-130.205-42.677-157.039-105.515a7.5 7.5 0 0 0-13.794 0c-25.221 59.063-85.333 103.822-157.038 105.516-25.398-44.873-17.943-100.893 18.775-137.611 37.491-37.491 95.878-44.51 141.234-16.638 2.337 1.459 5.428 1.486 7.852 0C305.37 21.155 363.447 27.995 401.16 65.708v-.001c36.718 36.718 44.174 92.738 18.776 137.611zm8.426 41.614a175.777 175.777 0 0 0 3.299-31.942 129.601 129.601 0 0 0 12.876-29.741c8.672 6.356 13.966 16.477 13.966 27.62 0 17.403-13.093 32.05-30.141 34.063z" fill="#000000" opacity="1" data-original="#000000"></path></g></svg>