<svg xmlns="http://www.w3.org/2000/svg" version="1.1" xmlns:xlink="http://www.w3.org/1999/xlink" width="512" height="512" x="0" y="0" viewBox="0 0 512 512" style="enable-background:new 0 0 512 512" xml:space="preserve"><g><g fill="#fc8a3d"><circle cx="88.345" cy="82.188" r="74.688" fill="#fc8a3d" opacity="1" data-original="#fc8a3d"></circle><circle cx="423.655" cy="82.188" r="74.688" fill="#fc8a3d" opacity="1" data-original="#fc8a3d"></circle></g><path fill="#5fd9b3" d="M324.827 435.373c-12.697-15.944-30.713-27.403-51.307-31.605a87.55 87.55 0 0 0-17.521-1.762c-27.801 0-52.637 13.039-68.826 33.368-12.15 15.257-19.432 34.618-19.432 55.666v13.46h176.518v-13.461c0-6.876-.777-13.572-2.247-20.004a89.117 89.117 0 0 0-17.185-35.662z" opacity="1" data-original="#5fd9b3"></path><path fill="#00ce8e" d="M273.52 403.768a87.55 87.55 0 0 0-17.521-1.762c-27.801 0-52.637 13.039-68.826 33.368a89.11 89.11 0 0 0-17.185 35.662 89.702 89.702 0 0 0-2.247 20.004v13.46h35.07v-13.461c0-42.974 30.435-79.042 70.709-87.271z" opacity="1" data-original="#00ce8e"></path><path fill="#d4d4d5" d="M169.988 471.035a89.702 89.702 0 0 0-2.247 20.004V504.5h35.07v-30.547a54.663 54.663 0 0 0-15.777-38.404 89.089 89.089 0 0 0-17.046 35.486z" opacity="1" data-original="#d4d4d5"></path><path fill="#efedee" d="M342.012 471.035a89.12 89.12 0 0 0-17.045-35.486 54.658 54.658 0 0 0-15.777 38.404V504.5h35.07v-13.461a89.76 89.76 0 0 0-2.248-20.004z" opacity="1" data-original="#efedee"></path><path fill="#ffbf9d" d="M421.13 214.098H90.87c-22.014 0-39.859 17.845-39.859 39.859s17.846 39.859 39.859 39.859h330.26c22.014 0 39.859-17.845 39.859-39.859s-17.845-39.859-39.859-39.859z" opacity="1" data-original="#ffbf9d"></path><path fill="#ffd4bd" d="M283.5 91.119a166.16 166.16 0 0 0-54.999 0C150.393 104.214 90.87 172.129 90.87 253.957S150.393 403.7 228.501 416.795a166.156 166.156 0 0 0 54.999 0c78.108-13.095 137.63-81.01 137.63-162.838S361.608 104.214 283.5 91.119z" opacity="1" data-original="#ffd4bd"></path><path fill="#ffbf9d" d="M145.646 254.187c0-81.974 59.631-150.01 137.854-163.068a166.16 166.16 0 0 0-54.999 0C150.393 104.214 90.87 172.129 90.87 253.957S150.393 403.7 228.501 416.795a166.156 166.156 0 0 0 54.999 0c-78.223-13.057-137.854-80.637-137.854-162.608z" opacity="1" data-original="#ffbf9d"></path><g fill="#ff8e9e"><path d="M166.032 282.003c-18.24 0-33.026 11.727-33.026 26.193s14.786 26.193 33.026 26.193 33.026-11.727 33.026-26.193c.001-14.466-14.786-26.193-33.026-26.193zM345.968 282.003c-18.24 0-33.026 11.727-33.026 26.193s14.787 26.193 33.026 26.193 33.026-11.727 33.026-26.193-14.786-26.193-33.026-26.193z" fill="#ff8e9e" opacity="1" data-original="#ff8e9e"></path></g><path fill="#ffb357" d="M398.579 73.017C360.664 35.501 301.688 28.626 256 56.397c-45.688-27.771-104.664-20.896-142.579 16.621-37.915 37.516-45.767 95.873-17.7 141.081a750.119 750.119 0 0 1 51.438-9.573c9.124-1.37 16.964-7.196 20.963-15.51l6.278-13.051 3.548 6.994a27.93 27.93 0 0 0 26.844 15.234 732.706 732.706 0 0 1 18.013-1.031c10.567-.475 19.943-6.921 24.228-16.592l7.085-15.993 7.023 15.836c4.309 9.716 13.755 16.163 24.376 16.589a734.312 734.312 0 0 1 34.47 2.194c9.918.866 19.534-3.681 25.237-11.842l3.11 4.917c4.335 6.855 11.436 11.458 19.452 12.695a752.025 752.025 0 0 1 48.5 9.133c28.067-45.208 20.208-103.566-17.707-141.082z" opacity="1" data-original="#ffb357"></path><path fill="#fc8a3d" d="m256.081 56.35-.081.047c-32.063-19.49-71.209-22.172-105.3-8.096-42.043 17.508-71.604 58.904-71.781 107.217.073 20.18 5.538 40.439 16.801 58.58a750.034 750.034 0 0 1 51.439-9.573 27.631 27.631 0 0 0 4.544-1.096 34.843 34.843 0 0 0 2.137-.79 27.948 27.948 0 0 0 14.282-13.624l6.279-13.051c0-10.631 3.819-20.897 10.713-28.988 16.096-18.89 36.363-34.112 59.382-44.23 18.108-7.959 23.833-30.864 11.585-46.396z" opacity="1" data-original="#fc8a3d"></path><circle cx="282.595" cy="478.565" r="7.5" fill="#000000" opacity="1" data-original="#000000"></circle><circle cx="282.595" cy="451.233" r="7.5" fill="#000000" opacity="1" data-original="#000000"></circle><path d="M177.382 269.331v13.666c0 4.143 3.357 7.5 7.5 7.5s7.5-3.357 7.5-7.5v-13.666c0-4.143-3.357-7.5-7.5-7.5s-7.5 3.357-7.5 7.5zM319.618 269.331v13.666c0 4.143 3.357 7.5 7.5 7.5s7.5-3.357 7.5-7.5v-13.666c0-4.143-3.357-7.5-7.5-7.5s-7.5 3.357-7.5 7.5zM269.096 277.663c-3.307 3.794-8.079 5.97-13.096 5.97s-9.79-2.176-13.096-5.969a7.5 7.5 0 1 0-11.309 9.853 32.365 32.365 0 0 0 24.404 11.115 32.37 32.37 0 0 0 24.404-11.114 7.5 7.5 0 0 0-11.307-9.855z" fill="#000000" opacity="1" data-original="#000000"></path><path d="M431.127 177.396c4.111.556 7.878-2.338 8.424-6.445.366-2.749.63-5.529.805-8.317 37.75-7.793 65.487-41.294 65.487-80.445C505.843 36.869 468.974 0 423.654 0c-28.152 0-54.086 14.327-69.149 37.778-32.037-10.185-67.867-7.192-98.505 9.938-30.614-17.117-66.441-20.132-98.506-9.938C142.431 14.326 116.498 0 88.346 0 43.026 0 6.157 36.869 6.157 82.188c0 39.155 27.74 72.657 65.496 80.447a119.19 119.19 0 0 0 11.714 44.563c-22.56 3.607-39.856 23.198-39.856 46.759 0 25.823 20.777 46.87 46.489 47.337 15.598 54.698 56.216 96.065 106.042 114.553-23.143 18.781-35.802 46.676-35.802 75.191V504.5c0 4.143 3.357 7.5 7.5 7.5h176.52c4.143 0 7.5-3.357 7.5-7.5v-13.461c0-7.312-.82-14.604-2.437-21.675a96.737 96.737 0 0 0-33.353-53.501c1.213-.449 2.423-.905 3.625-1.381a7.5 7.5 0 0 0-5.527-13.945c-27.212 10.788-56.519 13.525-84.327 8.862-89.497-15.001-146.768-101.352-127.785-188.984a742.728 742.728 0 0 1 46.318-8.472c11.571-1.739 21.518-9.095 26.607-19.676l.056-.115c6.631 8.526 16.823 13.608 27.91 13.608.821 0 1.653-.029 2.466-.086a730.699 730.699 0 0 1 17.83-1.021c13.483-.605 25.266-8.67 30.748-21.046l.232-.524.163.369c5.432 12.248 17.572 20.507 30.931 21.043a728.845 728.845 0 0 1 34.119 2.172c9.014.787 17.87-1.96 24.795-7.375 5.528 6.999 13.554 11.702 22.512 13.086a744.012 744.012 0 0 1 43.407 8.055c13.802 63.749-12.521 130.881-70.475 167.19-3.51 2.199-4.572 6.827-2.373 10.337s6.827 4.574 10.337 2.374c36.965-23.159 63.069-58.463 74.545-99.041 25.674-.51 46.406-21.54 46.406-47.335 0-23.564-17.3-43.157-39.864-46.761a119.307 119.307 0 0 0 2.503-5.453 7.5 7.5 0 1 0-13.805-5.867 104.517 104.517 0 0 1-4.748 9.731 759.093 759.093 0 0 0-43.643-8.055c-5.904-.912-11.101-4.299-14.258-9.292l-3.11-4.918c-2.93-4.634-9.517-4.535-12.487-.286-4.158 5.952-11.167 9.29-18.436 8.666a745.233 745.233 0 0 0-34.823-2.217c-7.692-.309-14.688-5.071-17.82-12.136l-7.023-15.836c-2.626-5.925-11.078-5.942-13.713.003l-7.086 15.993c-3.162 7.139-9.946 11.789-17.707 12.138a742.3 742.3 0 0 0-18.202 1.042c-.471.033-.948.05-1.42.05-7.729 0-14.706-4.289-18.209-11.195l-3.549-6.994c-2.814-5.544-10.757-5.448-13.447.143l-6.278 13.052c-2.936 6.103-8.662 10.344-15.317 11.344a758.531 758.531 0 0 0-46.612 8.499 104.236 104.236 0 0 1-13.028-50.499c0-83.163 92.396-136.859 165.699-92.303a7.499 7.499 0 0 0 7.791 0c78.344-47.622 176.623 17.199 164.786 106.166a7.498 7.498 0 0 0 6.443 8.423zM195.311 497h-20.07v-5.961c0-15.483 4.214-30.208 12.245-43.108 5.09 7.659 7.826 16.639 7.826 26.022V497zm121.378-23.047c0-9.378 2.733-18.354 7.818-26.011 4.724 7.64 8.203 16.055 10.193 24.765a82.332 82.332 0 0 1 2.06 18.332V497h-20.07v-23.047zM263.5 426.421a172.978 172.978 0 0 0 34.465-4.988 80.985 80.985 0 0 1 17.067 14.065c-8.64 10.928-13.343 24.342-13.343 38.455V497H263.5zm-49.459-4.999a171.64 171.64 0 0 0 34.459 4.999V497h-38.189v-23.047c0-14.113-4.703-27.527-13.343-38.455a80.987 80.987 0 0 1 17.073-14.076zm239.448-167.465c0 16.302-12.119 29.82-27.82 32.035a174.054 174.054 0 0 0-.024-64.072c15.712 2.203 27.844 15.726 27.844 32.037zm-394.978 0c0-16.311 12.132-29.834 27.845-32.038-3.842 20.454-4.128 42.096.026 64.079-15.726-2.192-27.871-15.722-27.871-32.041zm13.164-106.704c-29.31-7.476-50.518-34.108-50.518-65.065C21.157 45.141 51.298 15 88.346 15c21.977 0 42.3 10.683 54.814 28.344-41.598 19.247-68.566 59.905-71.485 103.909zM368.839 43.345C381.354 25.684 401.677 15 423.654 15c37.048 0 67.188 30.141 67.188 67.188 0 30.956-21.208 57.589-50.515 65.065-2.914-43.905-29.797-84.618-71.488-103.908z" fill="#000000" opacity="1" data-original="#000000"></path></g></svg>