<svg xmlns="http://www.w3.org/2000/svg" version="1.1" xmlns:xlink="http://www.w3.org/1999/xlink" width="512" height="512" x="0" y="0" viewBox="0 0 512 512" style="enable-background:new 0 0 512 512" xml:space="preserve"><g><path fill="#ce857a" d="M325.853 434.342c-12.887-16.182-31.171-27.812-52.072-32.077a88.87 88.87 0 0 0-17.782-1.789c-28.216 0-53.422 13.233-69.853 33.865-12.331 15.484-19.722 35.134-19.722 56.496V504.5h179.152v-13.662a91.03 91.03 0 0 0-2.281-20.302 90.456 90.456 0 0 0-17.442-36.194z" opacity="1" data-original="#ce857a"></path><path fill="#c77464" d="M273.781 402.266a88.87 88.87 0 0 0-17.782-1.789c-28.216 0-53.422 13.233-69.853 33.865a90.44 90.44 0 0 0-17.441 36.194 91.036 91.036 0 0 0-2.281 20.302V504.5h35.593v-13.662c0-43.615 30.89-80.22 71.764-88.572z" opacity="1" data-original="#c77464"></path><path fill="#d4d4d5" d="M186.004 434.521a90.428 90.428 0 0 0-17.299 36.015 91.03 91.03 0 0 0-2.281 20.302V504.5h35.593v-31.002a55.477 55.477 0 0 0-16.013-38.977z" opacity="1" data-original="#d4d4d5"></path><path fill="#efedee" d="M325.995 434.521a55.478 55.478 0 0 0-16.012 38.977V504.5h35.593v-13.662a91.03 91.03 0 0 0-2.281-20.302 90.45 90.45 0 0 0-17.3-36.015zM300.402 417.109l-.626-5.085L256 385.441l-43.774 26.583-.626 5.087c-3.195 25.954 28.23 40.184 44.401 20.107 16.17 20.077 47.595 5.845 44.401-20.109z" opacity="1" data-original="#efedee"></path><path fill="#ffcbbe" d="M423.593 209.768H88.407c-22.342 0-40.453 18.112-40.453 40.453s18.112 40.453 40.453 40.453h335.186c22.342 0 40.453-18.112 40.453-40.453s-18.111-40.453-40.453-40.453z" opacity="1" data-original="#ffcbbe"></path><g fill="#efedee"><circle cx="76.849" cy="310.302" r="28.895" fill="#efedee" opacity="1" data-original="#efedee"></circle><circle cx="435.151" cy="310.302" r="28.895" fill="#efedee" opacity="1" data-original="#efedee"></circle></g><path fill="#ffddcf" d="M283.91 84.955a168.57 168.57 0 0 0-55.82 0c-79.272 13.29-139.683 82.218-139.683 165.266s60.411 151.976 139.683 165.266a168.67 168.67 0 0 0 27.91 2.327c9.51 0 18.832-.805 27.91-2.327 79.272-13.29 139.683-82.218 139.683-165.266S363.182 98.245 283.91 84.955z" opacity="1" data-original="#ffddcf"></path><path fill="#ffcbbe" d="M144 250.454c0-83.196 60.52-152.247 139.91-165.499a168.57 168.57 0 0 0-55.82 0c-79.272 13.29-139.683 82.218-139.683 165.266s60.411 151.976 139.683 165.266a168.67 168.67 0 0 0 27.91 2.327c9.51 0 18.832-.805 27.91-2.327C204.52 402.235 144 333.648 144 250.454z" opacity="1" data-original="#ffcbbe"></path><ellipse cx="163.535" cy="304.109" fill="#ffb5c0" rx="33.929" ry="27.019" opacity="1" data-original="#ffb5c0"></ellipse><ellipse cx="347.44" cy="304.109" fill="#ffb5c0" rx="33.929" ry="27.019" opacity="1" data-original="#ffb5c0"></ellipse><circle cx="256" cy="88.407" r="80.907" fill="#b9bbbc" opacity="1" data-original="#b9bbbc"></circle><path fill="#d4d4d5" d="M397.185 144.592a176.155 176.155 0 0 0-20.119-22.562c-6.578-6.211-15.496-9.32-24.528-8.801a22.735 22.735 0 0 0-11.666-17.555 175.604 175.604 0 0 0-55.529-19.27h-.001a178.107 178.107 0 0 0-58.686 0c-45.552 7.637-85.217 32.572-111.83 68.155-14.063 18.802-21.502 41.736-21.502 65.215l66.924-.007a231.16 231.16 0 0 0 151.484-56.563l41.478 41.478a51.503 51.503 0 0 0 36.419 15.085h29.046c0-23.465-7.434-46.386-21.49-65.175z" opacity="1" data-original="#d4d4d5"></path><path fill="#b9bbbc" d="M185.437 141.409a108.65 108.65 0 0 1 60.957-67.18 176.954 176.954 0 0 0-19.737 2.176c-45.552 7.637-85.217 32.572-111.83 68.155-14.063 18.802-21.502 41.736-21.502 65.215l66.924-.007c8.614 0 17.177-.481 25.656-1.428a108.652 108.652 0 0 1-.468-66.931z" opacity="1" data-original="#b9bbbc"></path><circle cx="282.991" cy="478.179" r="7.5" fill="#000000" opacity="1" data-original="#000000"></circle><path d="M190.808 278.099v-13.87a7.5 7.5 0 0 0-15 0v13.87a7.5 7.5 0 0 0 15 0zM335.167 278.099v-13.87a7.5 7.5 0 0 0-15 0v13.87a7.5 7.5 0 0 0 15 0zM255.487 293.855a32.74 32.74 0 0 0 24.684-11.241 7.5 7.5 0 0 0-11.309-9.855c-3.376 3.875-8.251 6.097-13.375 6.097s-9.999-2.222-13.375-6.097a7.501 7.501 0 0 0-11.309 9.855 32.742 32.742 0 0 0 24.684 11.241z" fill="#000000" opacity="1" data-original="#000000"></path><path d="M458.843 282.708a47.918 47.918 0 0 0 12.704-32.487c0-25.664-20.265-46.68-45.633-47.895-2.223-34.693-18.212-61.686-43.7-85.75-6.428-6.068-14.804-9.811-23.658-10.698-2.344-6.902-7.193-12.998-14.154-16.82a88.648 88.648 0 0 0-1.901-18.994 7.5 7.5 0 0 0-8.887-5.79 7.499 7.499 0 0 0-5.789 8.887c.583 2.764.99 5.578 1.251 8.411-46.509-20.143-99.563-20.141-146.148-.065C186.417 44.256 217.85 15 256 15c24.826 0 47.789 12.41 61.426 33.197a7.5 7.5 0 1 0 12.541-8.228C313.548 14.941 285.897 0 256 0c-48.748 0-88.407 39.659-88.407 88.407 0 .189.004.383.005.573-22.79 12.466-42.832 29.768-58.777 51.087-13.36 17.863-21.29 39.729-22.734 62.259-25.368 1.215-45.634 22.231-45.634 47.895a47.916 47.916 0 0 0 12.704 32.487c-7.769 6.68-12.704 16.568-12.704 27.594 0 32.608 39.81 48.805 62.622 25.166a175.308 175.308 0 0 0 54.4 59.504 7.5 7.5 0 0 0 8.45-12.394c-43.844-29.892-70.019-79.372-70.019-132.357 0-11.096 1.155-22.151 3.413-32.947l60.929-.006a238.674 238.674 0 0 0 151.049-53.892l36.609 36.61c11.145 11.144 25.961 17.282 41.722 17.282h23.05a160.984 160.984 0 0 1 3.414 32.954c0 116.569-119.989 193.162-225.182 146.297a7.5 7.5 0 0 0-6.105 13.701 174.016 174.016 0 0 0 10.546 4.284 98.01 98.01 0 0 0-15.073 15.166c-13.771 17.292-21.355 39.016-21.355 61.168V504.5a7.5 7.5 0 0 0 7.5 7.5h179.151a7.5 7.5 0 0 0 7.5-7.5v-13.662a98.77 98.77 0 0 0-2.469-21.974c-3.248-14.205-9.778-27.758-18.886-39.194a97.932 97.932 0 0 0-15.095-15.18c39.132-14.469 71.96-42.499 92.309-79.013 22.824 23.633 62.613 7.388 62.613-25.175.001-11.025-4.934-20.914-12.703-27.594zM316.058 434.464c-8.791 11.084-13.576 24.704-13.576 39.034V497H263.5v-45.044c18.39 7.443 40.467-4.205 44.112-25.465a82.444 82.444 0 0 1 8.446 7.973zm-111.669-7.979c3.583 20.924 25.353 33.049 44.111 25.454V497h-38.982v-23.502c0-14.33-4.785-27.95-13.577-39.034a82.414 82.414 0 0 1 8.448-7.979zm88.715-5.131c-.478 16.114-20.44 24.597-31.262 11.159-2.997-3.722-8.68-3.727-11.682 0-10.806 13.417-30.797 4.979-31.262-11.175 25.099 5.421 50.354 5.175 74.206.016zm-119.18 69.484c0-15.794 4.315-30.809 12.535-43.952 5.239 7.822 8.059 17.009 8.059 26.612V497h-20.593v-6.162zm162.059-18.631a83.726 83.726 0 0 1 2.092 18.631V497h-20.593v-23.502c0-9.6 2.818-18.784 8.053-26.603 4.845 7.8 8.411 16.405 10.448 25.312zm120.564-221.986a32.945 32.945 0 0 1-11.556 25.049c-5.222-1.469-10.402-1.717-15.582-.892a175.036 175.036 0 0 0 1.683-24.156 176.07 176.07 0 0 0-3.059-32.646c16.078 2.176 28.514 15.981 28.514 32.645zm-401.094 0c0-16.664 12.435-30.469 28.512-32.646a176.146 176.146 0 0 0-3.058 32.646c0 8.146.586 16.212 1.691 24.157-5.104-.813-10.289-.599-15.589.891a32.942 32.942 0 0 1-11.556-25.048zm0 60.081c0-15.491 16.075-25.914 30.238-19.484a174.854 174.854 0 0 0 9.957 29.684c-10.612 19.449-40.195 11.86-40.195-10.2zm104.795-108.034-59.145.006c1.425-19.285 8.305-37.946 19.73-53.222 51.289-68.576 144.17-86.461 216.43-46.802a15.226 15.226 0 0 1 7.089 8.501l-37.679 36.912a223.67 223.67 0 0 1-146.425 54.605zm229.381 0c-11.754 0-22.804-4.577-31.114-12.888l-36.12-36.12 33.235-32.56c6.097.271 11.932 2.673 16.287 6.784 22.623 21.361 36.754 44.65 38.98 74.784zm26.727 118.241a175.234 175.234 0 0 0 9.952-29.69c14.13-6.417 30.239 3.962 30.239 19.484 0 22.084-29.601 29.599-40.191 10.206z" fill="#000000" opacity="1" data-original="#000000"></path></g></svg>