<svg xmlns="http://www.w3.org/2000/svg" version="1.1" xmlns:xlink="http://www.w3.org/1999/xlink" width="512" height="512" x="0" y="0" viewBox="0 0 512 512" style="enable-background:new 0 0 512 512" xml:space="preserve"><g><path fill="#976bcf" d="M63.096 134.185v193.807c0 18.664-4.748 36.95-13.661 53.139-5.086 9.238-1.503 20.89 7.768 25.915 61.941 33.574 130.376 50.354 198.799 50.322V134.185z" opacity="1" data-original="#976bcf"></path><path fill="#b28ae4" d="M462.132 381.075a109.97 109.97 0 0 1-13.661-53.084V134.185h-192.47v323.183c68.298-.032 136.583-16.816 198.381-50.375 9.265-5.032 12.839-16.684 7.75-25.918z" opacity="1" data-original="#b28ae4"></path><path fill="#c9aaf2" d="M328.535 431.651c-13.381-16.803-32.367-28.879-54.07-33.308a92.278 92.278 0 0 0-18.464-1.857c-29.299 0-55.472 13.741-72.533 35.165-12.804 16.078-20.479 36.482-20.479 58.664V504.5h186.026v-14.186c0-7.246-.819-14.303-2.368-21.081a93.946 93.946 0 0 0-18.112-37.582z" opacity="1" data-original="#c9aaf2"></path><path fill="#b28ae4" d="M274.465 398.343A92.288 92.288 0 0 0 256 396.486c-29.299 0-55.472 13.741-72.533 35.165a93.92 93.92 0 0 0-18.11 37.583 94.539 94.539 0 0 0-2.368 21.081V504.5h36.959v-14.186c-.001-45.288 32.074-83.298 74.517-91.971z" opacity="1" data-original="#b28ae4"></path><path fill="#ffd4bd" d="M349.014 490.314V504.5h-36.959v-14.186c0-3.424-.183-6.806-.541-10.138a243.972 243.972 0 0 0 35.131-10.943 94.48 94.48 0 0 1 2.369 21.081z" opacity="1" data-original="#ffd4bd"></path><path fill="#ffbf9d" d="M162.988 490.314V504.5h36.959v-14.186c0-3.424.183-6.806.541-10.138a243.972 243.972 0 0 1-35.131-10.943 94.48 94.48 0 0 0-2.369 21.081z" opacity="1" data-original="#ffbf9d"></path><path fill="#ffbd86" d="M430.025 198.459H81.977c-23.199 0-42.006 18.806-42.006 42.006 0 23.199 18.807 42.006 42.006 42.006h348.047c23.199 0 42.006-18.806 42.006-42.006s-18.806-42.006-42.005-42.006z" opacity="1" data-original="#ffbd86"></path><path fill="#fed2a4" d="M284.982 68.857a175.071 175.071 0 0 0-57.961 0c-82.314 13.8-145.043 85.372-145.043 171.608s62.729 157.808 145.043 171.608a175.071 175.071 0 0 0 57.961 0c82.314-13.8 145.043-85.373 145.043-171.608S367.296 82.657 284.982 68.857z" opacity="1" data-original="#fed2a4"></path><path fill="#ffbd86" d="M139.704 240.707c0-86.388 62.842-158.089 145.278-171.85a175.071 175.071 0 0 0-57.961 0c-82.314 13.8-145.043 85.372-145.043 171.608s62.729 157.808 145.043 171.608a175.071 175.071 0 0 0 57.961 0c-82.436-13.761-145.278-84.981-145.278-171.366z" opacity="1" data-original="#ffbd86"></path><g fill="#ff8e9e"><ellipse cx="161.188" cy="297.624" rx="34.805" ry="27.604" fill="#ff8e9e" opacity="1" data-original="#ff8e9e"></ellipse><path d="M350.814 270.021c-19.222 0-34.804 12.359-34.804 27.604s15.583 27.604 34.804 27.604c19.222 0 34.805-12.359 34.805-27.604 0-15.246-15.583-27.604-34.805-27.604z" fill="#ff8e9e" opacity="1" data-original="#ff8e9e"></path></g><path fill="#b28ae4" d="M411.822 44.592c-41.436-41.437-105.89-49.03-155.821-18.357C206.07-4.437 141.616 3.156 100.18 44.592c-40.753 40.753-48.927 104.037-19.492 153.88h51.885a240.032 240.032 0 0 0 169.729-70.304 53.48 53.48 0 0 1 37.816 15.664l33.901 33.9a70.81 70.81 0 0 0 50.07 20.74h7.226c29.469-49.962 21.208-113.179-19.493-153.88z" opacity="1" data-original="#b28ae4"></path><path fill="#976bcf" d="M161.407 88.093c14.714-32.405 40.648-58.083 72.562-72.619-45.726-17.059-98.242-6.43-133.789 29.118-40.753 40.753-48.927 104.037-19.492 153.88h51.885c8.088 0 16.156-.411 24.133-1.215-12.523-35.429-11.007-74.568 4.701-109.164z" opacity="1" data-original="#976bcf"></path><circle cx="284.028" cy="477.169" r="7.5" fill="#000000" opacity="1" data-original="#000000"></circle><circle cx="284.028" cy="448.365" r="7.5" fill="#000000" opacity="1" data-original="#000000"></circle><path d="M181.053 249.167a7.5 7.5 0 0 0-7.5 7.5v14.402c0 4.142 3.357 7.5 7.5 7.5s7.5-3.358 7.5-7.5v-14.402a7.5 7.5 0 0 0-7.5-7.5zM330.949 278.569a7.5 7.5 0 0 0 7.5-7.5v-14.402c0-4.142-3.357-7.5-7.5-7.5s-7.5 3.358-7.5 7.5v14.402a7.5 7.5 0 0 0 7.5 7.5zM280.689 264.986a7.5 7.5 0 0 0-10.582.727c-3.561 4.086-8.702 6.43-14.105 6.43s-10.545-2.343-14.105-6.43a7.501 7.501 0 0 0-11.309 9.855c6.41 7.355 15.674 11.574 25.414 11.574s19.004-4.219 25.414-11.574a7.501 7.501 0 0 0-.727-10.582z" fill="#000000" opacity="1" data-original="#000000"></path><path d="M455.972 327.992v-45.389c31.423-19.42 31.352-64.901 0-84.277v-15.604c0-4.142-3.357-7.5-7.5-7.5s-7.5 3.358-7.5 7.5v9.472c-6.493-1.472-10.669-1.235-17.444-1.235-16.7-.145-32.381-6.705-44.205-18.53l-33.9-33.9c-11.518-11.518-26.831-17.861-43.12-17.861-1.989 0-3.896.79-5.304 2.197-43.92 43.92-102.314 68.108-164.425 68.108H89.478v-.014c-7.816 0-12.11-.265-18.882 1.335v-57.687c.008-.14.012-.281.012-.423 0-31.864 12.386-61.799 34.876-84.289C127.986 27.393 157.917 15 189.763 15a119 119 0 0 1 62.313 17.626 7.502 7.502 0 0 0 7.852 0A118.977 118.977 0 0 1 322.239 15c31.846 0 61.777 12.393 84.279 34.896 29.615 29.615 34.453 63.452 34.453 102.826 0 4.142 3.357 7.5 7.5 7.5s7.5-3.358 7.5-7.5v-8.259c0-44.63-12.707-79.033-38.846-105.173C391.79 13.953 358.092 0 322.239 0a133.956 133.956 0 0 0-66.238 17.524A133.951 133.951 0 0 0 189.763 0c-35.852 0-69.55 13.953-94.887 39.289C69.655 64.51 55.72 98.041 55.608 133.75a6.973 6.973 0 0 0-.013.435v64.42c-30.81 19.487-30.811 64.232 0 83.72v45.667c0 17.27-4.402 34.394-12.73 49.521-7.041 12.785-2.281 29.057 10.763 36.127a425.288 425.288 0 0 0 50.341 23.166 7.501 7.501 0 0 0 5.366-14.008 410.182 410.182 0 0 1-48.559-22.346c-5.671-3.074-7.829-10.15-4.771-15.705a117.996 117.996 0 0 0 14.591-56.756v-39.357a49.416 49.416 0 0 0 10.773 1.32c15.835 55.879 57.458 100.898 112.249 120.985-10.005 8.002-18.498 17.819-25.067 29.534a411.553 411.553 0 0 1-31.35-8.137 7.5 7.5 0 1 0-4.342 14.357 426.248 426.248 0 0 0 29.217 7.708c-4.304 11.418-6.587 23.597-6.587 35.913V504.5a7.5 7.5 0 0 0 7.5 7.5h186.025a7.5 7.5 0 0 0 7.5-7.5v-14.187c0-11.949-2.057-24.106-6.58-36.016a422.463 422.463 0 0 0 108.027-40.715c12.898-7.005 17.86-23.207 10.739-36.128a102.727 102.727 0 0 1-12.728-49.462zm-408.5-87.528c0-17.586 13.228-32.132 30.255-34.235-4.325 22.642-4.346 45.735.022 68.472-17.038-2.092-30.277-16.643-30.277-34.237zm386.803-34.234c17.027 2.103 30.255 16.648 30.255 34.235 0 17.594-13.24 32.145-30.277 34.237 4.368-22.73 4.349-45.823.022-68.472zM192.447 490.314V497h-21.959v-6.687c0-3.678.227-7.316.67-10.901a252.556 252.556 0 0 0 21.382 6.542 104.069 104.069 0 0 0-.093 4.36zM248.501 497h-41.054v-6.687c0-3.12.167-6.262.497-9.338a7.5 7.5 0 0 0-5.772-8.108 237.697 237.697 0 0 1-27.837-8.256c6.146-19.892 19.487-37.116 37.382-48.095a180.67 180.67 0 0 0 36.784 5.315zM93.062 205.972h39.512c32.671 0 64.542-6.339 94.727-18.843 29.178-12.086 55.399-29.361 77.984-51.367 11.159.709 21.553 5.395 29.53 13.373l33.9 33.9c13.563 13.563 31.224 21.538 50.19 22.77 21.864 103.282-56.029 201.173-162.904 201.173-107.347-.001-184.571-98.296-162.939-201.006zm210.996 275.004c.33 3.076.497 6.218.497 9.338V497h-41.054v-75.168c12.817-.53 25-2.354 36.775-5.313 18.166 11.14 31.214 28.342 37.358 48.105a237.565 237.565 0 0 1-27.804 8.244 7.498 7.498 0 0 0-5.772 8.108zM341.514 497h-21.959v-6.687c0-1.451-.031-2.906-.093-4.358a252.86 252.86 0 0 0 21.364-6.536c.452 3.605.688 7.246.688 10.895zm109.289-96.599a407.52 407.52 0 0 1-107.391 39.98c-6.43-11.415-14.822-21.278-25.032-29.44 54.723-20.061 96.397-65.031 112.254-120.987a49.459 49.459 0 0 0 10.338-1.219v39.256c0 19.777 5.046 39.385 14.592 56.704 3.072 5.574.873 12.646-4.761 15.706z" fill="#000000" opacity="1" data-original="#000000"></path></g></svg>