<svg xmlns="http://www.w3.org/2000/svg" version="1.1" xmlns:xlink="http://www.w3.org/1999/xlink" width="512" height="512" x="0" y="0" viewBox="0 0 512 512" style="enable-background:new 0 0 512 512" xml:space="preserve"><g><path fill="#ffce71" d="M256 7.5c-74.437 0-134.78 60.343-134.78 134.78h269.56c0-56.557-34.835-104.977-84.219-124.975C290.947 10.982 273.88 7.5 256 7.5z" opacity="1" data-original="#ffce71"></path><path fill="#ffb357" d="M306.56 17.304C290.951 10.985 273.875 7.5 256 7.5c-74.437 0-134.78 60.343-134.78 134.78h101.085c0-56.562 34.864-104.981 84.255-124.976z" opacity="1" data-original="#ffb357"></path><ellipse cx="256" cy="164.743" fill="#ffb357" rx="224.633" ry="112.316" opacity="1" data-original="#ffb357"></ellipse><path fill="#676f72" d="M256 348.377v96.657c46.542 0 93.084-4.743 138.897-14.227l.001-.001c13.892-2.876 23.855-15.113 23.855-29.299v-53.13z" opacity="1" data-original="#676f72"></path><path fill="#4c5659" d="M93.247 348.377v53.13c0 14.187 9.963 26.423 23.855 29.299l.001.001A685.168 685.168 0 0 0 256 445.034v-96.657z" opacity="1" data-original="#4c5659"></path><path fill="#ffce71" d="M323.88 436.324c-12.523-15.725-30.291-27.026-50.601-31.171a86.349 86.349 0 0 0-17.28-1.738c-27.419 0-51.913 12.859-67.88 32.909-11.983 15.047-19.165 34.142-19.165 54.9V504.5h174.091v-13.276c0-6.781-.767-13.385-2.217-19.729a87.89 87.89 0 0 0-16.948-35.171z" opacity="1" data-original="#ffce71"></path><path fill="#ffb357" d="M273.279 405.153a86.356 86.356 0 0 0-17.28-1.738c-27.419 0-51.913 12.859-67.88 32.909a87.89 87.89 0 0 0-16.948 35.171 88.449 88.449 0 0 0-2.216 19.729V504.5h34.588v-13.276c-.001-42.383 30.016-77.954 69.736-86.071z" opacity="1" data-original="#ffb357"></path><path fill="#ffcbbe" d="m256 380.942-42.54 33.695c4.857 29.94 23.698 44.922 42.54 44.927 18.839.004 37.679-14.965 42.54-44.927zM187.982 436.497a87.885 87.885 0 0 0-16.811 34.998 88.449 88.449 0 0 0-2.216 19.729V504.5h34.587v-30.127c0-14.185-5.6-27.789-15.56-37.876z" opacity="1" data-original="#ffcbbe"></path><path fill="#ffddcf" d="M324.018 436.497a53.909 53.909 0 0 0-15.56 37.876V504.5h34.587v-13.276c0-6.781-.766-13.385-2.216-19.729a87.891 87.891 0 0 0-16.811-34.998z" opacity="1" data-original="#ffddcf"></path><path fill="#ffcbbe" d="M418.859 218.093H93.141c-21.711 0-39.311 17.6-39.311 39.311s17.6 39.311 39.311 39.311h325.718c21.711 0 39.311-17.6 39.311-39.311s-17.601-39.311-39.311-39.311z" opacity="1" data-original="#ffcbbe"></path><path fill="#ffddcf" d="M283.122 96.806c-8.821-1.479-17.88-2.261-27.122-2.261s-18.3.782-27.121 2.261c-77.033 12.915-135.738 79.895-135.738 160.598s58.704 147.683 135.738 160.598c8.822 1.479 17.879 2.261 27.121 2.261s18.3-.782 27.122-2.261c77.033-12.915 135.737-79.895 135.737-160.598S360.155 109.721 283.122 96.806z" opacity="1" data-original="#ffddcf"></path><path fill="#ffcbbe" d="M147.164 257.63c0-80.846 58.81-147.947 135.957-160.824-8.821-1.479-17.88-2.261-27.122-2.261s-18.3.782-27.121 2.261C151.845 109.721 93.14 176.701 93.14 257.404s58.704 147.683 135.738 160.598c8.822 1.479 17.879 2.261 27.121 2.261s18.3-.782 27.122-2.261c-77.146-12.878-135.957-79.528-135.957-160.372z" opacity="1" data-original="#ffcbbe"></path><ellipse cx="167.97" cy="310.235" fill="#ff8e9e" rx="32.481" ry="25.867" opacity="1" data-original="#ff8e9e"></ellipse><ellipse cx="344.03" cy="310.235" fill="#ff8e9e" rx="32.481" ry="25.867" opacity="1" data-original="#ff8e9e"></ellipse><path fill="#676f72" d="M284.514 88.498c-9.408-1.577-19.002-2.377-28.514-2.377s-19.105.8-28.514 2.377c-57.497 9.64-104.682 47.83-127.654 98.685a74.248 74.248 0 0 0-6.586 30.565v165.378h53.35V248.992h16.357c50.339 0 99.732-16.537 139.94-46.712l29.586 29.585c9.032 9.034 20.501 14.747 32.923 16.528v134.732h53.35V217.748a74.252 74.252 0 0 0-6.586-30.565c-22.97-50.855-70.155-89.045-127.652-98.685z" opacity="1" data-original="#676f72"></path><path fill="#4c5659" d="M343.032 109.92c-17.656-10.467-37.386-17.878-58.518-21.421-9.408-1.577-19.002-2.377-28.514-2.377s-19.105.8-28.514 2.377c-57.497 9.64-104.682 47.829-127.654 98.685a74.248 74.248 0 0 0-6.586 30.565v165.378h53.35V248.992h16.357c19.019 0 37.902-2.364 56.207-6.929A160.993 160.993 0 0 1 343.032 109.92z" opacity="1" data-original="#4c5659"></path><path d="M186.9 259.128c-12.66 0-22.96 10.3-22.96 22.96 0 4.143 3.358 7.5 7.5 7.5s7.5-3.357 7.5-7.5c0-4.389 3.571-7.96 7.96-7.96 4.39 0 7.961 3.571 7.961 7.96 0 4.143 3.358 7.5 7.5 7.5s7.5-3.357 7.5-7.5c0-12.66-10.3-22.96-22.961-22.96zM309.639 289.588a7.5 7.5 0 0 0 7.5-7.5c0-4.389 3.571-7.96 7.96-7.96s7.961 3.571 7.961 7.96c0 4.143 3.357 7.5 7.5 7.5s7.5-3.357 7.5-7.5c0-12.66-10.3-22.96-22.961-22.96s-22.96 10.3-22.96 22.96a7.5 7.5 0 0 0 7.5 7.5zM278.054 298.347a7.5 7.5 0 0 0-11.309-9.855c-2.713 3.113-6.63 4.899-10.745 4.899s-8.032-1.786-10.746-4.899a7.499 7.499 0 0 0-10.582-.726 7.498 7.498 0 0 0-.726 10.581c5.563 6.383 13.602 10.044 22.054 10.044s16.491-3.662 22.054-10.044z" fill="#000000" opacity="1" data-original="#000000"></path><path d="M488.133 164.743c0-54.117-63.655-88.418-115.435-103.802C345.929 22.573 302.622 0 256 0c-46.631 0-90.036 22.72-116.699 60.903-16.131 4.796-31.204 10.621-44.882 17.409a7.5 7.5 0 0 0-3.384 10.052 7.497 7.497 0 0 0 10.052 3.384c41.349-20.52 96.364-31.82 154.913-31.82 38.686 0 76.711 5.067 109.965 14.654 66.104 19.058 107.168 53.605 107.168 90.162 0 18.413-10.36 36.526-30.03 52.632a47.05 47.05 0 0 0-17.112-6.219c-.747-9.349-3.088-18.424-6.988-27.059-24.682-54.643-74.494-93.146-133.249-102.995a180.572 180.572 0 0 0-59.508 0c-58.754 9.85-108.566 48.353-133.248 102.994-3.901 8.636-6.241 17.711-6.988 27.06a47.052 47.052 0 0 0-17.112 6.22c-19.669-16.106-30.03-34.22-30.03-52.632 0-26.133 20.371-46.138 37.461-58.318a7.499 7.499 0 0 0 1.754-10.46 7.5 7.5 0 0 0-10.46-1.755c-28.625 20.402-43.755 44.792-43.755 70.533 0 22.384 11.541 43.864 33.477 62.524-7.07 8.365-11.013 18.949-11.013 30.137 0 23.295 17.106 42.665 39.416 46.221v97.883c0 17.654 12.548 33.065 29.835 36.645a694.865 694.865 0 0 0 56.49 9.256c-6.828 13.25-10.618 28.075-10.618 43.815V504.5a7.5 7.5 0 0 0 7.5 7.5h174.09c4.143 0 7.5-3.357 7.5-7.5v-13.276c0-14.903-3.406-29.82-10.617-43.815a694.582 694.582 0 0 0 56.49-9.257c17.288-3.578 29.836-18.988 29.836-36.644v-97.883c22.309-3.557 39.416-22.926 39.416-46.221 0-11.187-3.944-21.771-11.013-30.137 21.936-18.66 33.476-40.14 33.476-62.524zM163.754 54.597C187.59 29.507 220.765 15 256 15c35.495 0 68.555 14.595 92.287 39.651-28.949-6.38-60.42-9.724-92.287-9.724-32.238 0-63.511 3.332-92.246 9.67zM61.331 257.404c0-15.086 10.476-27.626 24.416-30.934v61.868c-13.985-3.343-24.416-15.94-24.416-30.934zm115.124 233.82c0-15.02 4.102-29.507 11.983-42.311 4.947 7.505 7.605 16.288 7.605 25.46V497h-19.588zm21.456-54.8a79.858 79.858 0 0 1 10.654-9.627c8.358 27.71 28.988 40.262 47.434 40.267h.011c18.442 0 39.067-12.548 47.426-40.262a79.69 79.69 0 0 1 10.655 9.622c-8.511 10.786-13.132 24.028-13.132 37.949V497h-89.915v-22.627c-.002-13.92-4.622-27.162-13.133-37.949zm43.811-24.313a156.428 156.428 0 0 1-25.839-4.57 7.606 7.606 0 0 0-.952-.256c-22.37-6.085-43.03-17.123-60.835-32.624v-118.17h8.857c49.544 0 98.706-15.716 139.174-44.372l25.048 25.049c8.606 8.606 19.13 14.547 30.728 17.4V374.66c-24.704 21.506-54.919 34.435-87.596 37.443a7.5 7.5 0 0 0 1.374 14.938 173.326 173.326 0 0 0 16.697-2.362c-6.772 19.976-20.984 27.384-32.37 27.384h-.007c-11.389-.003-25.603-7.413-32.378-27.376a173.022 173.022 0 0 0 16.73 2.362 7.5 7.5 0 0 0 1.369-14.938zM335.545 497h-19.587v-22.627c0-9.173 2.658-17.956 7.605-25.46 7.858 12.765 11.983 27.244 11.983 42.311V497zm75.709-95.492c0 10.578-7.519 19.812-17.877 21.956-20.469 4.237-41.413 7.548-62.324 9.878a94.576 94.576 0 0 0-15.662-16.193c15.149-5.619 29.426-13.409 42.513-23.218v14.101c0 4.143 3.357 7.5 7.5 7.5s7.5-3.357 7.5-7.5V248.394a7.5 7.5 0 0 0-6.436-7.424c-10.904-1.563-20.823-6.546-28.685-14.408l-23.465-23.464 3.709-2.777c3.316-2.482 3.992-7.183 1.509-10.499s-7.183-3.993-10.499-1.509c-.015.011-10.63 7.959-10.646 7.969-38.849 29.155-86.949 45.211-135.438 45.211h-16.357a7.5 7.5 0 0 0-7.5 7.5v159.04c0 4.143 3.358 7.5 7.5 7.5s7.5-3.357 7.5-7.5v-14.101c13.087 9.812 27.361 17.602 42.503 23.221a94.686 94.686 0 0 0-15.653 16.19c-20.913-2.331-41.858-5.642-62.326-9.88-10.357-2.144-17.875-11.376-17.875-21.954v-183.76a66.312 66.312 0 0 1 5.921-27.477c22.619-50.074 68.248-85.355 122.058-94.377a165.45 165.45 0 0 1 54.548 0c53.811 9.021 99.44 44.303 122.059 94.377a66.306 66.306 0 0 1 5.921 27.477v183.759zm15-113.17v-61.867c13.94 3.308 24.416 15.847 24.416 30.934 0 14.993-10.431 27.589-24.416 30.933z" fill="#000000" opacity="1" data-original="#000000"></path></g></svg>