<svg xmlns="http://www.w3.org/2000/svg" version="1.1" xmlns:xlink="http://www.w3.org/1999/xlink" width="512" height="512" x="0" y="0" viewBox="0 0 512 512" style="enable-background:new 0 0 512 512" xml:space="preserve"><g><path fill="#ff8e9e" d="M335.045 425.111c-14.582-18.311-35.273-31.472-58.924-36.297a100.588 100.588 0 0 0-20.122-2.024c-31.929 0-60.451 14.974-79.044 38.321-13.954 17.522-22.317 39.757-22.317 63.929v15.46h202.724v-15.46c0-7.897-.893-15.587-2.581-22.973a102.354 102.354 0 0 0-19.736-40.956z" opacity="1" data-original="#ff8e9e"></path><path fill="#ffd4bd" d="M338.814 430.156a101.691 101.691 0 0 0-3.769-5.044c-14.582-18.311-35.272-31.472-58.924-36.297a100.514 100.514 0 0 0-20.122-2.024c-31.929 0-60.451 14.974-79.044 38.321a102.7 102.7 0 0 0-3.771 5.045c17.305 6.716 34.049 10.904 50.938 13.208 5.051.724 9.603 3.436 12.537 7.615L256 478.515l19.344-27.541c2.928-4.168 7.465-6.881 12.503-7.607 16.937-2.308 33.696-6.507 50.967-13.211z" opacity="1" data-original="#ffd4bd"></path><path fill="#ffbf9d" d="m236.66 450.978 15.096 21.493a265.475 265.475 0 0 1-4.448-27.129 265.577 265.577 0 0 1-1.607-29.19v-28.829l-.005.001c-16.345 1.674-32.485 7.385-46.882 17.347-9.812 6.756-18.7 15.594-25.629 25.484 17.305 6.716 34.049 10.904 50.938 13.208 5.05.724 9.602 3.437 12.537 7.615z" opacity="1" data-original="#ffbf9d"></path><path fill="#ea5b70" d="m251.755 472.472-15.096-21.493c-3.527-5.022-8.247-7.015-13.869-7.815-16.873-2.394-33.393-6.721-49.57-12.993l-.037-.014.037.014a.558.558 0 0 0-.037-.014 104.184 104.184 0 0 0-5.222 8.285c-8.468 14.93-13.324 32.201-13.324 50.599v15.46h105.9l-3.44-11.367a266.327 266.327 0 0 1-5.342-20.662z" opacity="1" data-original="#ea5b70"></path><path fill="#4293dd" d="M176.955 425.111c-13.954 17.521-22.317 39.757-22.317 63.929v15.46h64.905a304.92 304.92 0 0 1-13.079-88.346v-16.297a102.35 102.35 0 0 0-29.509 25.254z" opacity="1" data-original="#4293dd"></path><path fill="#64b3fb" d="M335.045 425.111c13.954 17.521 22.317 39.757 22.317 63.929v15.46h-64.905a304.92 304.92 0 0 0 13.079-88.346v-16.297a102.35 102.35 0 0 1 29.509 25.254zM206.463 416.154v-16.297a102.375 102.375 0 0 0-29.508 25.254 102.199 102.199 0 0 0-3.555 4.736c-3.852 5.46-3.386 12.859.945 17.948l15.36 18.045-4.192 10.927c-3.011 7.849 1.116 16.627 9.081 19.315l24.947 8.419a305 305 0 0 1-13.078-88.347z" opacity="1" data-original="#64b3fb"></path><path fill="#88c5fd" d="M305.536 416.154v-16.297a102.375 102.375 0 0 1 33.05 29.978c3.852 5.46 3.398 12.872-.933 17.96l-15.36 18.045 4.192 10.927c3.011 7.849-1.116 16.627-9.081 19.315l-24.948 8.419a304.9 304.9 0 0 0 13.08-88.347z" opacity="1" data-original="#88c5fd"></path><g fill="#c77464"><path d="M167.939 309.949c-16.07-4.025-32.365 5.737-36.391 21.81-7.177 28.647-24.907 53.068-49.924 68.765a29.887 29.887 0 0 0-8.783 8.42c-4.966-3.819-11.164-6.092-17.889-6.092-15.906 0-34.913 15.248-46.123 26.556a4.663 4.663 0 0 0-1.329 3.269 4.629 4.629 0 0 0 1.338 3.274c11.037 11.133 30.534 26.55 46.114 26.55 10.311 0 19.096-5.07 24.345-12.778a30.084 30.084 0 0 0 18.299 6.218 29.86 29.86 0 0 0 15.916-4.592c38.203-23.969 65.277-61.262 76.237-105.008 4.027-16.072-5.738-32.365-21.81-36.392zM503.162 429.401c-11.037-11.133-30.534-26.55-46.114-26.55-8.126 0-15.301 3.152-20.55 8.258a29.871 29.871 0 0 0-10.14-10.586c-25.018-15.696-42.748-40.117-49.924-68.765-4.026-16.072-20.321-25.835-36.391-21.81-16.072 4.026-25.836 20.319-21.81 36.391 10.959 43.746 38.034 81.039 76.237 105.008a29.87 29.87 0 0 0 15.916 4.592 30.034 30.034 0 0 0 20.972-8.535c5.084 9.014 14.681 15.096 25.69 15.096 15.906 0 34.913-15.247 46.123-26.555a4.665 4.665 0 0 0 1.329-3.27 4.634 4.634 0 0 0-1.338-3.274z" fill="#c77464" opacity="1" data-original="#c77464"></path></g><path fill="#ffbf9d" d="M445.645 170.987H66.355c-25.282 0-45.776 20.495-45.776 45.776s20.495 45.776 45.776 45.776h379.289c25.282 0 45.776-20.495 45.776-45.776s-20.494-45.776-45.775-45.776z" opacity="1" data-original="#ffbf9d"></path><path fill="#ffd4bd" d="M287.582 29.751a190.788 190.788 0 0 0-63.164 0C134.715 44.79 66.355 122.787 66.355 216.763s68.36 171.973 158.063 187.012a190.779 190.779 0 0 0 63.164 0c89.703-15.039 158.062-93.036 158.062-187.012S377.285 44.79 287.582 29.751z" opacity="1" data-original="#ffd4bd"></path><path fill="#ffbf9d" d="M129.264 217.027c0-94.143 68.483-172.28 158.319-187.276a190.788 190.788 0 0 0-63.164 0C134.715 44.79 66.355 122.787 66.355 216.763s68.36 171.973 158.063 187.012a190.779 190.779 0 0 0 63.164 0c-89.835-14.996-158.318-92.608-158.318-186.748z" opacity="1" data-original="#ffbf9d"></path><g fill="#ff8e9e"><path d="M152.676 248.973c-20.948 0-37.929 13.468-37.929 30.081s16.981 30.082 37.929 30.082 37.929-13.469 37.929-30.082-16.981-30.081-37.929-30.081zM359.323 248.973c-20.948 0-37.929 13.468-37.929 30.081s16.981 30.082 37.929 30.082 37.929-13.469 37.929-30.082-16.981-30.081-37.929-30.081z" fill="#ff8e9e" opacity="1" data-original="#ff8e9e"></path></g><path fill="#c77464" d="M297.339 11.597A209.966 209.966 0 0 0 256 7.5c-46.667 0-77.782 37.305-77.782 76.6 0 41.544 33.6 76.013 76.013 76.013a143.39 143.39 0 0 1 74.676 20.929c31.216 18.998 54.924 49.7 64.515 87l17.802 69.235c1.645 6.396 10.019 8.057 13.909 2.72a209.354 209.354 0 0 0 40.131-123.233c-.001-101.414-72.218-185.965-167.925-205.167z" opacity="1" data-original="#c77464"></path><path fill="#ac6757" d="M300.93 153.064a106.162 106.162 0 0 1-31.094-75.067v-.001a93.903 93.903 0 0 1 27.503-66.399A209.966 209.966 0 0 0 256 7.5c-26.668 0-48.244 12.193-61.85 29.968l-.013-.013c-10.969-10.969-27.878-13.253-41.42-5.688a212.263 212.263 0 0 0-57.874 47.446 211.229 211.229 0 0 0-31.279 48.908c-6.72 14.602-3.359 31.867 8.362 42.865h7.705c25.99 0 48.678-15.005 59.808-37.192l.049-.097c7.586-15.072 20.482-26.873 36.27-32.829 1.333-.503 2.67-.992 4.01-1.469 7.052 34.376 37.389 60.713 74.462 60.713a143.39 143.39 0 0 1 74.676 20.929z" opacity="1" data-original="#ac6757"></path><path d="M181.823 250.114V234.42c0-4.143-3.357-7.5-7.5-7.5s-7.5 3.357-7.5 7.5v15.694c0 4.143 3.357 7.5 7.5 7.5s7.5-3.357 7.5-7.5zM345.176 250.114V234.42c0-4.143-3.357-7.5-7.5-7.5s-7.5 3.357-7.5 7.5v15.694c0 4.143 3.357 7.5 7.5 7.5s7.5-3.357 7.5-7.5zM256 266.957a36.057 36.057 0 0 0 27.187-12.382 7.5 7.5 0 0 0-.727-10.582 7.5 7.5 0 0 0-10.582.727c-4.008 4.6-9.796 7.237-15.879 7.237s-11.871-2.638-15.879-7.237a7.501 7.501 0 0 0-11.309 9.855A36.064 36.064 0 0 0 256 266.957z" fill="#000000" opacity="1" data-original="#000000"></path><path d="M508.488 424.121c-6.691-6.749-30.175-28.77-51.44-28.77-6.826 0-13.364 1.811-19.034 5.197a37.662 37.662 0 0 0-7.67-6.379c-14.861-9.323-27.124-22.111-35.752-37.187a199.74 199.74 0 0 0 11.763-12.718c6.037 8.483 18.768 8.569 24.834.154 17.011-23.353 29.347-50.05 36.014-78.938 42.117-18.633 42.256-78.685.052-97.415C448.327 85.732 382.465 21.052 298.81 4.239c-4.077-.828-8.012 1.857-8.83 5.881a7.496 7.496 0 0 0 5.88 8.829c80.131 16.061 142.17 78.23 158.051 158.37 2.56 12.9 3.85 26.17 3.85 39.44 0 68.553-37.378 118.199-38.76 118.89-.01.011-.01.021-.021.021-.09 0-.069.01-.1.02a.501.501 0 0 1-.33-.13c-.033 0-17.852-69.358-17.86-69.39-17.28-67.171-77.844-113.561-146.46-113.561h-.04c-38.963 0-70.556-32.994-68.366-72.261a7.5 7.5 0 0 0-7.071-7.905c-4.136-.219-7.674 2.936-7.905 7.071-.27 4.819-.128 9.658.559 15.104-17.529 7.477-30.515 19.454-38.616 35.712l-.05.1c-10.25 20.39-30.601 33.06-53.11 33.06h-4.54c-7.645-8.679-9.755-21.28-4.71-32.229a203.492 203.492 0 0 1 30.16-47.17c15.819-18.521 34.609-33.92 55.83-45.771 8.415-4.725 19.061-4.745 27.63.601a85.211 85.211 0 0 0-4.976 8.908 7.499 7.499 0 0 0 3.521 10.005 7.499 7.499 0 0 0 10.005-3.521C203.572 31.319 226.603 15.038 256 15c3.75 0 7.52.1 11.189.31 4.141.23 7.681-2.97 7.9-7.08.229-4.13-2.95-7.67-7.07-7.899C264.069.109 260.029 0 256 0h-.11c-12.53 0-24.479 2.5-35.49 7.42a82.505 82.505 0 0 0-27.239 19.569c-13.366-9-30.448-9.404-44.11-1.77a219.05 219.05 0 0 0-59.91 49.12 218.386 218.386 0 0 0-32.39 50.649c-5.651 12.275-5.609 26.596.838 39.232-25.219 4.194-44.509 26.151-44.509 52.541 0 29.312 23.794 53.166 53.082 53.271a196.017 196.017 0 0 0 21.442 49.284 7.498 7.498 0 0 0 10.309 2.494 7.5 7.5 0 0 0 2.494-10.309c-24.425-40.018-32.187-87.762-22.511-133.015 31.88 0 56.213-17.324 68.244-41.329 0-.011.01-.011.01-.011 4.434-10.156 14.488-20.949 28.54-27.56 10.94 34.011 42.55 58.02 79.54 58.02 60.489 0 116.033 40.466 131.931 102.301l14.715 57.23c-70.862 92.935-208.585 95.688-283.581 7.675a7.5 7.5 0 0 0-11.418 9.728 197.582 197.582 0 0 0 8.962 9.823c-8.68 16.224-21.447 29.919-37.199 39.803a37.395 37.395 0 0 0-6.343 4.998c-5.045-2.512-10.59-3.816-16.344-3.816-20.688 0-42.872 20.123-51.481 28.808a12.11 12.11 0 0 0-3.471 8.511 12.065 12.065 0 0 0 3.512 8.561c6.691 6.749 30.175 28.77 51.44 28.77 9.815 0 19.082-3.836 25.902-10.511 11.786 5.857 25.583 5.15 36.645-1.788 24.276-15.231 44.626-36.036 59.226-60.432a196.919 196.919 0 0 0 12.63 5.049c-27.006 21.124-42.217 53.528-42.217 86.722v15.46c0 4.143 3.357 7.5 7.5 7.5h202.725c4.143 0 7.5-3.357 7.5-7.5v-15.46c0-33.219-15.228-65.586-42.177-86.688a195.533 195.533 0 0 0 9.428-3.65c14.522 23.763 34.579 44.072 58.37 59a37.412 37.412 0 0 0 19.901 5.738c6.968 0 13.66-1.892 19.472-5.429 6.933 7.541 16.77 11.991 27.19 11.991 20.689 0 42.872-20.123 51.481-28.807a12.113 12.113 0 0 0 3.471-8.512 12.06 12.06 0 0 0-3.512-8.56zm-37.643-236.156c17.441 15.291 17.415 42.349-.015 57.61 2.483-18.511 2.655-37.712.015-57.61zM62.558 254.85c-19.329-1.913-34.479-18.263-34.479-38.087 0-19.826 15.153-36.177 34.485-38.086-4.757 24.287-5.127 50.069-.006 76.173zM54.952 455c-10.879 0-26.895-10.909-38.756-22.328 11.525-11.141 27.164-22.32 38.756-22.32 3.915 0 7.661 1.037 10.992 2.991l5.441 34.36C67.266 452.371 61.416 455 54.952 455zm54.575-10.006c-7.084 4.444-15.986 4.625-23.334.321l-5.434-34.314a22.362 22.362 0 0 1 4.851-4.124c16.807-10.545 30.636-24.902 40.466-41.868a197.893 197.893 0 0 0 37.098 25.672c-13.336 21.889-31.745 40.571-53.647 54.313zM162.138 497c0-10.043-.737-24.916 6.954-43.808l12.016 14.118-2.598 6.77c-3.15 8.212-1.122 16.933 4.257 22.92zm30.588-11.832c-1.665-3.545-.484-5.001 3.982-16.642a7.5 7.5 0 0 0-1.291-7.548l-15.359-18.045c-2.12-2.49-2.357-6.001-.618-8.608 5.528-7.83 11.929-14.608 19.524-20.488 0 26.633 2.662 51.768 9.571 79.032-12.068-4.072-14.13-4.128-15.809-7.701zM286.836 497h-61.673a297.123 297.123 0 0 1-9.3-47.32c2.403.406 4.807.782 7.195 1.107 3.04.436 5.76 2.076 7.463 4.502l19.341 27.537c2.982 4.245 9.288 4.252 12.275 0l19.344-27.542c1.699-2.42 4.409-4.058 7.378-4.485 2.423-.33 4.852-.711 7.277-1.12a297.135 297.135 0 0 1-9.3 47.321zm10.642-62.795c-10.553 1.973-20.648 1.605-28.272 12.458L256 465.467l-13.203-18.799c-4.072-5.798-10.491-9.709-17.662-10.736a215.807 215.807 0 0 1-10.613-1.726c-.631-10.4-.558-16.813-.558-24.815 27.632 6.011 56.27 6.031 84.072.01 0 7.873.077 14.352-.558 24.804zm45.43 18.987c7.598 18.661 6.954 33.281 6.954 43.808h-20.631c5.363-5.966 7.416-14.684 4.257-22.92l-2.598-6.77zm-10.376-18.907c1.764 2.619 1.536 6.15-.59 8.648l-15.359 18.045a7.503 7.503 0 0 0-1.292 7.548l4.192 10.927a7.285 7.285 0 0 1-4.478 9.521l-11.541 3.895c6.873-27.122 9.571-52.24 9.571-79.032 7.708 5.967 14.071 12.77 19.497 20.448zm91.789 9.316c-3.941 3.093-8.898 4.839-13.937 4.839a22.426 22.426 0 0 1-11.93-3.445c-21.337-13.387-39.389-31.488-52.628-52.645a195.272 195.272 0 0 0 37.473-24.996 121.25 121.25 0 0 0 39.071 39.522 22.588 22.588 0 0 1 6.311 5.934zM457.048 455c-7.105 0-13.755-3.511-17.876-9.287l4.36-30.783c3.809-2.961 8.522-4.578 13.516-4.578 10.879 0 26.896 10.909 38.756 22.328-11.525 11.14-27.163 22.32-38.756 22.32z" fill="#000000" opacity="1" data-original="#000000"></path></g></svg>