<svg xmlns="http://www.w3.org/2000/svg" version="1.1" xmlns:xlink="http://www.w3.org/1999/xlink" width="512" height="512" x="0" y="0" viewBox="0 0 512.002 512.002" style="enable-background:new 0 0 512 512" xml:space="preserve"><g><path fill="#db9e82" d="M335.009 425.111c-14.582-18.311-35.273-31.472-58.924-36.297a100.588 100.588 0 0 0-20.122-2.024c-17.983 0-34.886 4.747-49.542 13.067-11.366 6.453-21.381 15.056-29.502 25.254-13.954 17.522-22.317 39.757-22.317 63.929v15.46h202.724v-15.46c0-7.897-.893-15.587-2.581-22.973a102.354 102.354 0 0 0-19.736-40.956z" opacity="1" data-original="#db9e82"></path><path fill="#c8866a" d="M194.879 504.5h-40.276v-15.46c0-7.899.892-15.585 2.581-22.973a102.233 102.233 0 0 1 15.965-35.911 102.59 102.59 0 0 1 22.706-23.393 101.194 101.194 0 0 1 10.567-6.906 100.296 100.296 0 0 1 49.542-13.067c6.888 0 13.617.697 20.122 2.024-29.761 6.081-54.826 25.411-68.93 51.563v39.141z" opacity="1" data-original="#c8866a"></path><path fill="#ffb357" d="m305.478 399.9.022-.043-49.535-33.489-49.544 33.489c3.579 7.084 5.51 14.953 5.123 22.88a46.917 46.917 0 0 1-4.385 17.635l48.806 39.237 48.805-39.237a46.892 46.892 0 0 1-4.385-17.651c-.383-7.905 1.534-15.752 5.093-22.821z" opacity="1" data-original="#ffb357"></path><path fill="#ffce71" d="M316.572 479.235a102.11 102.11 0 0 0-11.802-38.864 223.865 223.865 0 0 1-11.964 2.247c-14.863 2.371-28.191 10.5-36.841 22.817l-.001.002-.001-.001c-8.651-12.318-21.98-20.446-36.845-22.817a223.897 223.897 0 0 1-11.96-2.246 102.11 102.11 0 0 0-11.802 38.864 103.515 103.515 0 0 0-.478 9.805v15.46H317.05v-15.46c0-3.31-.17-6.578-.478-9.807z" opacity="1" data-original="#ffce71"></path><path fill="#ffce71" d="M211.543 422.737a46.92 46.92 0 0 1-4.387 17.64l31.446 25.273a63.377 63.377 0 0 1 3.089-6.651l.989-1.962c9.694-20.663 10.83-43.889 3.197-65.397l-5.236-14.756-34.219 22.973c3.578 7.083 5.508 14.953 5.121 22.88z" opacity="1" data-original="#ffce71"></path><path fill="#fce3a0" d="M234.116 489.04c0-1.943.101-3.989.301-6.094a62.671 62.671 0 0 1 7.274-23.948l.989-1.962a88.026 88.026 0 0 0 1.631-3.694c-7.299-5.548-15.951-9.25-25.192-10.725a223.897 223.897 0 0 1-11.96-2.246 102.11 102.11 0 0 0-11.802 38.864 103.515 103.515 0 0 0-.478 9.805v15.46h39.237zM440.047 262.539l-49.535 49.535 39.362 39.362c5.618 5.618 14.728 5.618 20.346 0l29.189-29.189c5.618-5.618 5.618-14.728 0-20.346z" opacity="1" data-original="#fce3a0"></path><path fill="#ffce71" d="m32.52 322.248 29.189 29.189c5.618 5.618 14.728 5.618 20.346 0l39.362-39.362-49.535-49.535-39.362 39.362c-5.619 5.618-5.619 14.727 0 20.346z" opacity="1" data-original="#ffce71"></path><path fill="#c8866a" d="M445.609 170.987H66.32c-25.282 0-45.776 20.495-45.776 45.776s20.495 45.776 45.776 45.776h379.289c25.282 0 45.776-20.495 45.776-45.776s-20.494-45.776-45.776-45.776z" opacity="1" data-original="#c8866a"></path><path fill="#db9e82" d="M287.547 29.751a190.788 190.788 0 0 0-63.165 0C134.679 44.79 66.32 122.787 66.32 216.763s68.36 171.973 158.063 187.012a190.8 190.8 0 0 0 63.165 0c89.703-15.039 158.062-93.036 158.062-187.012S377.25 44.79 287.547 29.751z" opacity="1" data-original="#db9e82"></path><path fill="#c8866a" d="M129.228 217.027c0-94.143 68.483-172.28 158.319-187.276a190.788 190.788 0 0 0-63.165 0C134.679 44.79 66.32 122.787 66.32 216.763s68.36 171.973 158.063 187.012a190.8 190.8 0 0 0 63.165 0c-89.837-14.996-158.32-92.608-158.32-186.748z" opacity="1" data-original="#c8866a"></path><g fill="#ff8e9e"><ellipse cx="152.641" cy="279.054" rx="37.929" ry="30.082" fill="#ff8e9e" opacity="1" data-original="#ff8e9e"></ellipse><ellipse cx="359.288" cy="279.054" rx="37.929" ry="30.082" fill="#ff8e9e" opacity="1" data-original="#ff8e9e"></ellipse></g><path fill="#ffdbe0" d="M448.4 128.121a211.175 211.175 0 0 0-31.279-48.908 212.266 212.266 0 0 0-57.874-47.447c-13.542-7.564-30.452-5.279-41.42 5.689l-9.913 36.071 24.284 25.872c17.625 6.279 31.4 16.66 40.278 34.298l.049.096c11.13 22.188 33.818 37.193 59.808 37.193h7.705c11.721-10.997 15.082-28.262 8.362-42.864z" opacity="1" data-original="#ffdbe0"></path><path fill="#ffdbe0" d="M297.983 19.315C286.241 11.919 272.024 7.5 255.964 7.5c-115.469 0-209.263 93.686-209.263 209.263 0 44.411 14.152 87.59 40.131 123.233 3.89 5.337 12.264 3.677 13.909-2.719l17.802-69.235a143.513 143.513 0 0 1 11.766-30.64c24.337-46.69 73.008-77.289 127.424-77.289 42.413 0 76.013-34.469 76.013-76.013 0-25.773-13.385-50.688-35.763-64.785z" opacity="1" data-original="#ffdbe0"></path><path fill="#ffb5c0" d="M255.964 7.5c-115.469 0-209.263 93.686-209.263 209.263 0 44.411 14.152 87.59 40.131 123.233 3.89 5.338 12.264 3.677 13.909-2.719l17.802-69.235a143.513 143.513 0 0 1 11.766-30.64 192.224 192.224 0 0 1-1.081-20.374c0-89.73 62.213-164.919 145.831-184.756 8.384-1.989 16.102-6.135 22.195-12.227l.729-.729C286.241 11.919 272.024 7.5 255.964 7.5z" opacity="1" data-original="#ffb5c0"></path><path d="M174.288 226.92a7.499 7.499 0 0 0-7.5 7.5v15.694c0 4.143 3.357 7.5 7.5 7.5s7.5-3.357 7.5-7.5V234.42a7.5 7.5 0 0 0-7.5-7.5zM337.64 226.92a7.499 7.499 0 0 0-7.5 7.5v15.694c0 4.143 3.357 7.5 7.5 7.5s7.5-3.357 7.5-7.5V234.42c0-4.143-3.357-7.5-7.5-7.5zM282.425 243.993a7.5 7.5 0 0 0-10.582.727c-4.008 4.6-9.796 7.237-15.879 7.237s-11.871-2.638-15.879-7.237a7.501 7.501 0 0 0-11.309 9.855c6.857 7.869 16.767 12.382 27.188 12.382s20.33-4.513 27.187-12.382a7.5 7.5 0 0 0-.726-10.582z" fill="#000000" opacity="1" data-original="#000000"></path><path d="M456.931 268.816c23.955-5.206 41.955-26.562 41.955-52.053 0-26.397-19.3-48.36-44.528-52.547 6.198-12.098 6.735-26.463.856-39.23a218.687 218.687 0 0 0-32.39-50.646c-16.978-19.869-37.137-36.396-59.919-49.123-13.786-7.7-30.904-7.154-44.123 1.772C302.402 9.202 279.852 0 255.964 0c-39.116 0-77.459 10.546-110.884 30.497a7.501 7.501 0 0 0 7.687 12.881C183.87 24.813 219.554 15 255.964 15c48.065 0 77.157 42.883 68.865 82.99l-.001.003c-6.439 31.139-34.075 54.619-67.094 54.619-56.555 0-107.93 31.161-134.076 81.322-8.465 16.242-10.597 24.631-20.839 64.938-9.311 36.64-9.277 37.586-9.927 36.705-62.115-85.224-48.966-206.643 36.181-275.649a7.501 7.501 0 0 0-9.446-11.654c-38.198 30.958-64.216 73.083-74.928 119.797-42.167 18.724-42.097 78.837.135 97.445a219.198 219.198 0 0 0 2.764 10.701l-20.38 20.38c-8.552 8.55-8.555 22.393-.001 30.953l29.189 29.191c8.556 8.55 22.395 8.552 30.953-.002l6.082-6.082a15.394 15.394 0 0 0 12.174-6.419c21.757 25.593 50.294 46.089 83.749 58.065-26.323 20.649-42.26 52.852-42.26 86.737v15.46c0 4.143 3.357 7.5 7.5 7.5.585 0 40.191.014 40.775-.025V512h161.947c4.143 0 7.5-3.357 7.5-7.5v-15.459c0-8.313-.932-16.604-2.769-24.646a109.818 109.818 0 0 0-5.529-17.371 7.497 7.497 0 0 0-9.795-4.07 7.502 7.502 0 0 0-4.07 9.795 94.74 94.74 0 0 1 4.771 14.988 95.805 95.805 0 0 1 2.392 21.305V497H324.55v-7.96c0-3.42-.173-6.959-.512-10.516a109.194 109.194 0 0 0-12.562-41.518c-3.738-8.073-4.744-17.113-2.311-25.974a94.68 94.68 0 0 1 19.306 17.917 7.5 7.5 0 0 0 10.552 1.075 7.5 7.5 0 0 0 1.075-10.552 109.742 109.742 0 0 0-17.588-17.203c33.288-11.941 63.145-32.56 86.401-61.188l15.659 15.659c8.532 8.53 22.418 8.532 30.953-.001l29.188-29.189c8.553-8.553 8.554-22.398 0-30.952zM41.116 187.967c-2.586 19.474-2.54 38.574.054 57.641-17.477-15.264-17.492-42.352-.054-57.641zm35.636 158.166a6.886 6.886 0 0 1-9.74.002l-29.188-29.188a6.885 6.885 0 0 1-.001-9.741l15.008-15.009c6.69 18.053 15.756 35.219 26.981 50.875zm372.647-167.458c19.333 1.91 34.486 18.261 34.486 38.088 0 19.826-15.153 36.177-34.486 38.086a198.723 198.723 0 0 0 0-76.174zM355.59 38.313c21.226 11.857 40.01 27.257 55.829 45.771a203.643 203.643 0 0 1 30.168 47.173c5.074 11.023 2.872 23.604-4.716 32.229h-4.539c-22.527 0-42.876-12.666-53.127-33.102l-.03-.06c-8.255-16.404-20.937-28.115-38.617-35.685 2.545-20.101-2.353-39.576-12.598-55.717 8.418-5.256 19.029-5.413 27.63-.609zM187.891 478.521c-.34 3.56-.513 7.099-.513 10.519V497h-25.275v-7.959c0-31.021 15.445-60.415 40.65-78.015 2.46 8.903 1.387 18.015-2.299 25.977-6.949 12.942-11.175 26.911-12.563 41.518zm121.215 1.426c.295 3.088.444 6.147.444 9.093V497H202.378v-7.96c0-2.945.149-6.005.445-9.097a94.13 94.13 0 0 1 8.466-31.089c7.283 1.385 25.8 2.76 38.539 20.892 2.987 4.252 9.293 4.242 12.274-.001 12.66-18.024 30.937-19.446 38.536-20.89a94.152 94.152 0 0 1 8.468 31.092zm-91.145-69.771c12.502 2.456 25.245 3.732 38.003 3.732 12.788 0 25.514-1.274 37.984-3.738-1.708 8.087-1.444 16.279.784 24.501-14.439 2.522-26.938 6.835-38.769 19.038-11.569-11.938-23.998-16.455-38.767-19.038 2.345-8.648 2.408-16.75.765-24.495zm38.003-11.268c-56.558 0-110.53-26.798-144.873-71.776 2.397-9.345 4.461-17.465 6.265-24.564 10.121-39.828 11.944-47.005 19.603-61.699 23.553-45.186 69.831-73.256 120.774-73.256 37.162 0 68.719-24.405 79.521-58.024 13.07 6.15 22.251 15.021 28.541 27.518l.025.051c12.211 24.34 36.419 41.33 68.248 41.33 5.786 27.064 5.352 55.375-1.313 82.26-20.172 81.346-92.871 138.16-176.791 138.16zm218.141-81.963-29.188 29.188c-2.686 2.686-7.057 2.686-9.74.002l-17.168-17.169c11.076-15.982 19.797-33.562 25.747-52.11l30.35 30.351a6.881 6.881 0 0 1-.001 9.738z" fill="#000000" opacity="1" data-original="#000000"></path></g></svg>