<svg xmlns="http://www.w3.org/2000/svg" version="1.1" xmlns:xlink="http://www.w3.org/1999/xlink" width="512" height="512" x="0" y="0" viewBox="0 0 512 512" style="enable-background:new 0 0 512 512" xml:space="preserve" class=""><g><path fill="#9ea2a3" d="M489.486 237.119c-.832-50.386-17.704-96.938-45.719-134.765-27.559-37.211-71.32-58.926-117.626-58.926 0-15.491-10.968-28.857-26.182-31.77a233.81 233.81 0 0 0-47.006-4.138c-7.906.101-15.72.604-23.426 1.481C115.91 21.93 26.187 117.119 22.573 233.645 18.44 366.898 126.589 476.416 259.355 474.536a232.332 232.332 0 0 0 46.039-5.263C411.842 446.168 491.35 350.03 489.486 237.119z" opacity="1" data-original="#9ea2a3"></path><path fill="#82888b" d="M181.209 107.314c0-40.015 18.93-75.603 48.319-98.314C115.91 21.93 26.187 117.119 22.573 233.645 18.44 366.898 126.589 476.416 259.355 474.536a232.332 232.332 0 0 0 46.039-5.263V231.499c-68.585 0-124.185-55.6-124.185-124.185z" opacity="1" data-original="#82888b"></path><path fill="#ff8e9e" d="M328.366 431.807c-13.352-16.767-32.298-28.817-53.954-33.236a92.116 92.116 0 0 0-18.425-1.853c-29.236 0-55.353 13.711-72.378 35.089-12.777 16.044-20.435 36.404-20.435 58.538V504.5H348.8v-14.156a94.32 94.32 0 0 0-2.363-21.036 93.7 93.7 0 0 0-18.071-37.501z" opacity="1" data-original="#ff8e9e"></path><path fill="#ea5b70" d="M274.412 398.57a92.043 92.043 0 0 0-18.425-1.853c-29.236 0-55.353 13.711-72.378 35.089a93.71 93.71 0 0 0-18.071 37.502 94.32 94.32 0 0 0-2.363 21.036V504.5h36.879v-14.156c0-45.191 32.007-83.119 74.358-91.774z" opacity="1" data-original="#ea5b70"></path><path fill="#fed2a4" d="M348.801 490.344V504.5h-36.879v-14.156c0-3.417-.183-6.791-.54-10.116a243.638 243.638 0 0 0 35.056-10.92 94.267 94.267 0 0 1 2.363 21.036z" opacity="1" data-original="#fed2a4"></path><path fill="#ffbd86" d="M163.175 490.344V504.5h36.879v-14.156c0-3.417.183-6.791.54-10.116a243.638 243.638 0 0 1-35.056-10.92 94.267 94.267 0 0 0-2.363 21.036z" opacity="1" data-original="#ffbd86"></path><path fill="#efedee" d="m301.995 413.951-.649-5.268-45.358-27.545-45.356 27.544-.649 5.27c-3.31 26.892 29.251 41.636 46.006 20.834 16.755 20.803 49.316 6.056 46.006-20.835z" opacity="1" data-original="#efedee"></path><path fill="#ffbd86" d="M429.639 199.115H82.338c-23.149 0-41.916 18.766-41.916 41.916 0 23.149 18.766 41.916 41.916 41.916h347.301c23.149 0 41.916-18.766 41.916-41.916-.001-23.15-18.767-41.916-41.916-41.916z" opacity="1" data-original="#ffbd86"></path><path fill="#fed2a4" d="M284.907 69.79c-9.406-1.577-19.065-2.411-28.919-2.411s-19.512.834-28.918 2.411C144.932 83.561 82.338 154.98 82.338 241.03S144.932 398.5 227.07 412.27c9.406 1.577 19.064 2.411 28.918 2.411s19.513-.834 28.919-2.411c82.138-13.771 144.732-85.19 144.732-171.24S367.045 83.561 284.907 69.79z" opacity="1" data-original="#fed2a4"></path><path fill="#ffbd86" d="M139.941 241.272c0-86.203 62.707-157.75 144.967-171.481-9.406-1.577-19.065-2.411-28.919-2.411s-19.512.834-28.918 2.411C144.932 83.561 82.338 154.98 82.338 241.03S144.932 398.5 227.07 412.27c9.406 1.577 19.064 2.411 28.918 2.411s19.513-.834 28.919-2.411c-82.259-13.731-144.966-84.798-144.966-170.998z" opacity="1" data-original="#ffbd86"></path><g fill="#ff8e9e"><path d="M161.379 270.523c-19.181 0-34.73 12.332-34.73 27.545s15.549 27.544 34.73 27.544 34.73-12.332 34.73-27.544-15.55-27.545-34.73-27.545zM350.598 270.523c-19.181 0-34.73 12.332-34.73 27.545s15.549 27.544 34.73 27.544 34.73-12.332 34.73-27.544-15.549-27.545-34.73-27.545z" fill="#ff8e9e" opacity="1" data-original="#ff8e9e"></path></g><path fill="#9ea2a3" d="M433.255 196.966C415.56 125.593 357.2 72.816 286.392 60.944h-.001a184.559 184.559 0 0 0-60.807 0 182.456 182.456 0 0 0-39.29 11.227C133.359 93.957 92.888 139.818 78.72 196.966l-.536 2.161h78.591a239.46 239.46 0 0 0 57.826-7.091 239.51 239.51 0 0 0 111.538-63.062l54.523 54.523a53.366 53.366 0 0 0 37.735 15.63h15.391z" opacity="1" data-original="#9ea2a3"></path><path fill="#82888b" d="M181.2 107.314c0-11.955 1.743-23.783 5.094-35.142-52.935 21.786-93.406 67.647-107.574 124.795l-.536 2.161h78.591a239.46 239.46 0 0 0 57.826-7.091 124.183 124.183 0 0 1-33.401-84.723z" opacity="1" data-original="#82888b"></path><circle cx="283.955" cy="477.228" r="7.5" fill="#000000" opacity="1" data-original="#000000"></circle><path d="M181.2 249.697a7.499 7.499 0 0 0-7.5 7.5v14.371c0 4.143 3.357 7.5 7.5 7.5s7.5-3.357 7.5-7.5v-14.371a7.5 7.5 0 0 0-7.5-7.5zM330.776 279.068c4.143 0 7.5-3.357 7.5-7.5v-14.371c0-4.143-3.357-7.5-7.5-7.5s-7.5 3.357-7.5 7.5v14.371a7.5 7.5 0 0 0 7.5 7.5zM281.36 276.068a7.5 7.5 0 0 0-.727-10.582 7.5 7.5 0 0 0-10.582.727c-3.551 4.074-8.677 6.411-14.063 6.411s-10.513-2.337-14.063-6.411a7.501 7.501 0 0 0-11.309 9.855c6.4 7.344 15.648 11.556 25.372 11.556s18.972-4.212 25.372-11.556z" fill="#000000" opacity="1" data-original="#000000"></path><path d="M449.795 97.891c-27.391-36.982-70.672-59.76-116.834-61.812-2.965-15.841-15.342-28.677-31.591-31.788A241.788 241.788 0 0 0 255.992 0C188.45 0 124.755 28.371 79.3 77.373 38.089 121.8 14.957 180.047 14.957 241.025c0 96.61 57.412 182.798 144.792 220.96-2.669 9.17-4.074 18.722-4.074 28.358V504.5c0 4.143 3.357 7.5 7.5 7.5h185.627c4.143 0 7.5-3.357 7.5-7.5v-14.156c0-9.661-1.412-19.239-4.095-28.432a241.406 241.406 0 0 0 30.332-15.956 7.5 7.5 0 0 0 2.414-10.328 7.501 7.501 0 0 0-10.328-2.414 226.444 226.444 0 0 1-27.678 14.624c-6.751-14.674-16.524-26.946-28.602-36.626 17.831-6.542 34.634-15.946 49.958-28.071 29.837-23.607 51.687-56.357 61.995-92.713 26.944-.356 48.757-22.373 48.757-49.398 0-26.911-21.893-49.072-48.895-49.402-12.384 0-28.926 1.833-44.192-13.435l-52.326-52.326V88.975c0-4.143-3.357-7.5-7.5-7.5s-7.5 3.357-7.5 7.5v36.838c-43.006 41.855-101.813 65.815-161.865 65.815l-75.052.001c-26.91.329-48.803 22.49-48.803 49.401 0 27.026 21.813 49.042 48.757 49.398 10.334 36.455 32.251 69.259 62.187 92.866 15.086 11.897 31.98 21.253 49.894 27.806-12.279 9.814-22.059 22.207-28.763 36.806-80.671-35.579-135.04-115.637-135.04-206.881 0-114.942 87.665-211.742 200.418-224.573 23.405-2.665 46.642-1.552 68.174 2.571 11.643 2.229 20.093 12.493 20.093 24.404v15.547c0 4.143 3.357 7.5 7.5 7.5s7.5-3.357 7.5-7.5v-7.835c41.169 2.228 79.659 22.679 104.099 55.679 71.465 96.493 55.195 232.45-39.488 309.54a7.501 7.501 0 0 0 9.471 11.633c101.274-82.459 118.02-227.547 42.071-330.1zm-15.893 109.005c16.941 2.119 30.152 16.691 30.152 34.134 0 17.533-13.183 32.035-30.154 34.142a182.629 182.629 0 0 0 .002-68.276zM78.076 275.172c-16.972-2.107-30.154-16.609-30.154-34.142 0-17.47 13.251-32.06 30.154-34.144a182.64 182.64 0 0 0 0 68.286zm183.729 154.882c-2.993-3.684-8.644-3.687-11.643.012a.192.192 0 0 1-.014.015c-11.45 14.214-32.69 5.109-32.876-12.131a180.337 180.337 0 0 0 38.716 4.229c13.195 0 26.146-1.392 38.719-4.114-.269 16.435-20.457 26.631-32.902 11.989zm79.497 60.29V497h-21.88v-6.656c0-1.443-.03-2.891-.092-4.337a252.751 252.751 0 0 0 21.282-6.51c.456 3.587.69 7.21.69 10.847zm-3.907-25.634a236.816 236.816 0 0 1-27.697 8.208 7.5 7.5 0 0 0-5.772 8.108c.329 3.072.496 6.207.496 9.316V497h-40.934v-47.342c19.176 8.04 42.282-4.292 45.79-26.489 13.665 11.062 23.145 25.513 28.117 41.541zM93.421 206.628h63.355c63.406 0 123.846-24.332 169.286-67.126l49.298 49.299c14.681 14.68 30.93 17.407 43.194 17.825 21.627 102.752-56.084 200.555-162.566 200.555-106.313 0-184.231-97.624-162.567-200.553zM202.7 423.163c3.496 22.16 26.54 34.548 45.789 26.476V497h-40.934v-6.656c0-3.109.167-6.244.496-9.316a7.5 7.5 0 0 0-5.772-8.108 237.26 237.26 0 0 1-27.697-8.208c4.969-16.023 14.447-30.477 28.118-41.549zm-32.025 67.181c0-3.636.233-7.26.689-10.847a252.864 252.864 0 0 0 21.282 6.51 101.31 101.31 0 0 0-.092 4.337V497h-21.88v-6.656z" fill="#000000" opacity="1" data-original="#000000"></path></g></svg>