<svg xmlns="http://www.w3.org/2000/svg" version="1.1" xmlns:xlink="http://www.w3.org/1999/xlink" width="512" height="512" x="0" y="0" viewBox="0 0 512 512" style="enable-background:new 0 0 512 512" xml:space="preserve"><g><path fill="#ff8f71" d="M479.418 182.533c-20.025-19.112-34.56-43.347-40.556-70.372a121.647 121.647 0 0 0-32.799-59.758C366.158 12.498 304.086 5.186 256 34.725 207.914 5.186 145.842 12.498 105.937 52.404a121.65 121.65 0 0 0-32.79 59.728c-6.005 27.031-20.526 51.281-40.559 70.396C17.175 197.235 7.544 217.953 7.5 240.88c-.085 44.589 37.486 81.064 82.074 81.064h332.851c44.589 0 82.16-36.476 82.074-81.065-.043-22.924-9.671-43.639-25.081-58.346z" opacity="1" data-original="#ff8f71"></path><path fill="#ff6f4d" d="m283.91 75.771.361-.056c26.942-4.208 46.818-27.409 46.818-54.677v-3.832c-25.583-2.374-51.953 3.308-75.088 17.519-48.087-29.539-110.159-22.227-150.064 17.679a121.641 121.641 0 0 0-32.789 59.728c-6.005 27.031-20.526 51.28-40.559 70.396C17.175 197.235 7.544 217.952 7.5 240.88c-.085 44.589 37.486 81.064 82.075 81.064h75.132c-13.192-23.896-20.706-51.377-20.706-80.674 0-83.195 60.394-153.019 139.909-165.499z" opacity="1" data-original="#ff6f4d"></path><path fill="#ff8e9e" d="M325.854 425.159c-12.887-16.182-31.171-27.812-52.072-32.077A88.87 88.87 0 0 0 256 391.293c-28.216 0-53.422 13.233-69.853 33.865-12.331 15.484-19.722 35.134-19.722 56.496v13.662h179.151v-13.662a91.03 91.03 0 0 0-2.281-20.302 90.47 90.47 0 0 0-17.441-36.193z" opacity="1" data-original="#ff8e9e"></path><path fill="#ffddcf" d="M301.672 438.103a201.039 201.039 0 0 0 27.513-8.486 90.74 90.74 0 0 0-3.331-4.458c-12.887-16.182-31.171-27.812-52.072-32.077A88.878 88.878 0 0 0 256 391.293c-28.216 0-53.422 13.233-69.853 33.865a90.302 90.302 0 0 0-3.333 4.458 201.458 201.458 0 0 0 27.516 8.487c29.448 6.789 61.889 6.792 91.342 0z" opacity="1" data-original="#ffddcf"></path><path fill="#ffcbbe" d="M255.999 391.293c-29.359 0-56.447 14.442-73.185 38.323a90.356 90.356 0 0 0-14.109 31.736 90.97 90.97 0 0 0-2.281 20.302v13.662h35.593v-13.662c0-2.924.15-5.811.422-8.665a90.23 90.23 0 0 1 10.427-34.34c12.464-23.11 34.614-40.193 60.914-45.567a88.845 88.845 0 0 0-17.781-1.789z" opacity="1" data-original="#ffcbbe"></path><path fill="#ea5b70" d="M182.814 429.617c-10.58 15.094-16.389 33.123-16.389 52.038v13.662h35.593v-13.662c0-15.314 3.929-30.175 10.839-42.986-10.386-2.247-20.512-5.354-30.043-9.052z" opacity="1" data-original="#ea5b70"></path><path fill="#ffcbbe" d="M423.593 200.584H88.407c-22.342 0-40.453 18.112-40.453 40.453s18.112 40.453 40.453 40.453h335.186c22.342 0 40.453-18.112 40.453-40.453s-18.111-40.453-40.453-40.453z" opacity="1" data-original="#ffcbbe"></path><path fill="#ffddcf" d="M283.91 75.771a168.57 168.57 0 0 0-55.82 0c-79.272 13.29-139.683 82.218-139.683 165.266s60.411 151.976 139.683 165.266A168.67 168.67 0 0 0 256 408.63c9.51 0 18.832-.805 27.91-2.327 79.272-13.29 139.683-82.218 139.683-165.266S363.182 89.062 283.91 75.771z" opacity="1" data-original="#ffddcf"></path><path fill="#ffcbbe" d="M144.001 241.271c0-83.196 60.52-152.247 139.91-165.499a168.57 168.57 0 0 0-55.82 0C148.819 89.062 88.408 157.99 88.408 241.038s60.411 151.976 139.683 165.266a168.67 168.67 0 0 0 27.91 2.327c9.51 0 18.832-.805 27.91-2.327-79.39-13.252-139.91-81.84-139.91-165.033z" opacity="1" data-original="#ffcbbe"></path><g fill="#ff8e9e"><path d="M164.691 269.501c-18.512 0-33.519 11.902-33.519 26.583 0 14.682 15.007 26.584 33.519 26.584s33.519-11.902 33.519-26.584c-.001-14.681-15.007-26.583-33.519-26.583zM347.309 269.501c-18.512 0-33.518 11.902-33.518 26.583 0 14.682 15.007 26.584 33.518 26.584 18.512 0 33.519-11.902 33.519-26.584 0-14.681-15.007-26.583-33.519-26.583z" fill="#ff8e9e" opacity="1" data-original="#ff8e9e"></path></g><path fill="#ff8f71" d="M425.727 193.535c-6.848-24.468-18.941-47.355-35.658-66.922-23.574-27.59-54.86-47.058-89.518-56.109a176.209 176.209 0 0 0-44.55-5.728c-52.073 0-100.806 22.907-134.069 61.837-16.716 19.566-28.81 42.452-35.658 66.918l7.049 7.053a167.958 167.958 0 0 0-4.916 40.452 200.54 200.54 0 0 0 55.793-7.938 200.703 200.703 0 0 0 55.035-25.536c22.887-15.18 42.126-34.571 56.766-57.031 14.64 22.46 33.879 41.851 56.766 57.031 32.975 21.872 71.295 33.444 110.827 33.473 0-13.947-1.705-27.498-4.916-40.451z" opacity="1" data-original="#ff8f71"></path><path fill="#ff6f4d" d="M284.271 75.715a55.335 55.335 0 0 0 16.28-5.21 176.209 176.209 0 0 0-44.55-5.728c-52.073 0-100.806 22.907-134.069 61.837-16.716 19.566-28.81 42.452-35.658 66.918l7.049 7.053a167.958 167.958 0 0 0-4.916 40.452 200.54 200.54 0 0 0 55.793-7.938c3.759-78.645 61.802-145.121 140.071-157.384z" opacity="1" data-original="#ff6f4d"></path><path d="M176.321 256.641v13.87c0 4.143 3.357 7.5 7.5 7.5s7.5-3.357 7.5-7.5v-13.87c0-4.143-3.357-7.5-7.5-7.5s-7.5 3.358-7.5 7.5zM320.679 256.641v13.87c0 4.143 3.357 7.5 7.5 7.5s7.5-3.357 7.5-7.5v-13.87c0-4.143-3.357-7.5-7.5-7.5s-7.5 3.358-7.5 7.5zM269.375 265.17c-3.376 3.875-8.251 6.097-13.375 6.097s-9.999-2.222-13.375-6.097a7.501 7.501 0 0 0-11.309 9.855c6.226 7.144 15.223 11.241 24.684 11.241s18.458-4.098 24.684-11.241a7.5 7.5 0 0 0-.727-10.582 7.502 7.502 0 0 0-10.582.727z" fill="#000000" opacity="1" data-original="#000000"></path><path d="M484.596 177.108c-19.622-18.728-32.904-41.747-38.411-66.571C433.339 52.645 381.964 9.183 319.791 9.183A129.287 129.287 0 0 0 256 26.017a129.287 129.287 0 0 0-63.791-16.834c-62.002 0-113.492 43.28-126.383 101.321-5.522 24.857-18.806 47.886-38.415 66.597C9.781 193.923.047 216.569 0 240.88c0 27.242 12.553 52.281 34 69.181a7.498 7.498 0 0 0 10.532-1.249 7.5 7.5 0 0 0-1.249-10.532C25.926 284.601 15 264.052 15 240.895c.039-20.169 8.124-38.971 22.767-52.942 21.768-20.77 36.533-46.426 42.702-74.195 11.387-51.265 56.876-89.574 111.74-89.574 21.131 0 41.832 5.855 59.865 16.933a7.502 7.502 0 0 0 7.852 0 114.327 114.327 0 0 1 59.865-16.933c54.833 0 100.365 38.288 111.749 89.603 6.153 27.737 20.919 53.386 42.7 74.174 14.638 13.972 22.721 32.771 22.76 52.92 0 40.297-34.446 73.565-74.575 73.565h-7.422a173.114 173.114 0 0 0 9.481-25.463c25.822-.481 47.063-21.855 47.063-47.916 0-26.457-21.87-47.981-48.753-47.981-6.822 0-12.013 6.311-10.515 13.089a160.632 160.632 0 0 1 3.619 27.188c-62.497-2.488-119.496-34.579-153.615-86.927-2.955-4.533-9.609-4.536-12.566 0-33.592 51.539-91.916 84.341-153.615 86.918a160.706 160.706 0 0 1 3.616-27.165c1.513-6.753-3.662-13.104-10.512-13.104-27.252 0-49.264 22.097-48.744 48.886.491 25.65 21.55 46.569 47.118 47.014a173.72 173.72 0 0 0 9.476 25.461c-8.729 0-17.461.453-29.795-3.447a7.495 7.495 0 0 0-9.412 4.889 7.498 7.498 0 0 0 4.889 9.412c8.235 2.605 19.138 5.123 42.171 4.131 20.356 34.664 52.292 61.744 90.461 75.877-23.556 19.037-36.444 47.379-36.444 76.349v13.662c0 4.143 3.357 7.5 7.5 7.5h179.15c4.143 0 7.5-3.357 7.5-7.5 0-14.61 3.63-57.618-36.43-89.993a176.348 176.348 0 0 0 16.382-7.022 7.5 7.5 0 0 0 3.428-10.037 7.497 7.497 0 0 0-10.037-3.428C304.39 395.648 280.697 401.13 256 401.13c-85.816 0-156.07-67.874-159.918-152.757 64.212-2.437 123.013-34.322 159.918-84.664 36.173 49.353 94.456 82.175 159.905 84.662-2.229 47.938-26.168 92.976-65.026 121.609a7.5 7.5 0 1 0 8.898 12.076c19.131-14.098 35.363-32.162 47.372-52.61 16.318.054 49.224 2.574 78.267-25.91 16.95-16.622 26.584-38.69 26.584-62.671-.047-24.292-9.778-46.935-27.404-63.757zm-28.056 64.575c-.312 16.292-12.701 29.807-28.452 31.997 2-10.651 3.005-21.547 3.005-32.643 0-10.929-1.017-21.849-3.025-32.531 16.468 2.651 28.885 17.265 28.472 33.177zm-401.087-.617c0-16.13 12.582-30.001 28.479-32.56a176.303 176.303 0 0 0-3.025 32.531 175.32 175.32 0 0 0 3.052 32.649c-16.027-2.204-28.506-16.1-28.506-32.62zm270.703 197.668c7.84 13.035 11.919 27.694 11.919 42.921v6.162h-164.15v-6.162c0-15.384 4.086-30.032 11.894-42.929 45.032 16.002 95.406 15.975 140.337.008zm-112.76-27.852c27.942 7.011 57.472 6.982 85.236.023a82.28 82.28 0 0 1 18.17 15.184c-38.974 12.828-82.556 12.852-121.604 0a82.262 82.262 0 0 1 18.198-15.207z" fill="#000000" opacity="1" data-original="#000000"></path></g></svg>