<svg xmlns="http://www.w3.org/2000/svg" version="1.1" xmlns:xlink="http://www.w3.org/1999/xlink" width="512" height="512" x="0" y="0" viewBox="0 0 512 512" style="enable-background:new 0 0 512 512" xml:space="preserve"><g><path fill="#ffb5c0" d="M320.596 439.623c-11.917-14.964-28.825-25.719-48.153-29.662a82.16 82.16 0 0 0-16.444-1.654c-26.092 0-49.401 12.237-64.595 31.316-11.403 14.319-18.237 32.49-18.237 52.243V504.5h165.666v-12.634c0-19.753-6.834-37.924-18.237-52.243z" opacity="1" data-original="#ffb5c0"></path><path fill="#ff8e9e" d="M272.443 409.961a82.16 82.16 0 0 0-16.444-1.654c-26.092 0-49.401 12.237-64.595 31.316-11.403 14.319-18.237 32.49-18.237 52.244V504.5h32.914v-12.634c0-40.332 28.564-74.182 66.362-81.905z" opacity="1" data-original="#ff8e9e"></path><path fill="#c8866a" d="m256 384.934-40.481 34.051A62.565 62.565 0 0 0 256 465.095a62.564 62.564 0 0 0 40.481-46.11z" opacity="1" data-original="#c8866a"></path><g fill="#efedee"><circle cx="94.935" cy="326.539" r="25.978" fill="#efedee" opacity="1" data-original="#efedee"></circle><circle cx="417.065" cy="326.539" r="25.978" fill="#efedee" opacity="1" data-original="#efedee"></circle></g><path fill="#c8866a" d="M410.978 231.952H101.021c-20.66 0-37.409 16.748-37.409 37.409 0 20.66 16.748 37.409 37.409 37.409h309.957c20.66 0 37.409-16.748 37.409-37.409s-16.748-37.409-37.409-37.409z" opacity="1" data-original="#c8866a"></path><path fill="#db9e82" d="M281.809 116.533a155.924 155.924 0 0 0-51.618 0c-73.306 12.29-129.17 76.029-129.17 152.827s55.864 140.537 129.17 152.827a155.915 155.915 0 0 0 51.618 0c73.306-12.29 129.169-76.03 129.169-152.827s-55.863-140.537-129.169-152.827z" opacity="1" data-original="#db9e82"></path><path fill="#c8866a" d="M152.431 269.576c0-76.934 55.965-140.788 129.379-153.043a155.924 155.924 0 0 0-51.618 0c-73.306 12.29-129.17 76.029-129.17 152.827s55.864 140.537 129.17 152.827a155.915 155.915 0 0 0 51.618 0c-73.415-12.255-129.379-75.68-129.379-152.611z" opacity="1" data-original="#c8866a"></path><g fill="#ff8e9e"><path d="M171.563 295.682c-17.119 0-30.996 11.006-30.996 24.583s13.877 24.583 30.996 24.583c17.118 0 30.996-11.006 30.996-24.583s-13.877-24.583-30.996-24.583zM340.437 295.682c-17.118 0-30.996 11.006-30.996 24.583s13.877 24.583 30.996 24.583 30.996-11.006 30.996-24.583-13.878-24.583-30.996-24.583z" fill="#ff8e9e" opacity="1" data-original="#ff8e9e"></path></g><path fill="#c77464" d="M423.961 68.487c-35.484-29.659-78.454-49.648-124.485-57.365A263.702 263.702 0 0 0 256 7.5c-4.677 0-9.366.14-14.054.392a264.076 264.076 0 0 0-29.428 3.23c-44.825 7.515-88.006 26.959-124.182 57.105-22.134 18.445-34.984 45.731-34.984 74.543v.014a96.89 96.89 0 0 0 28.384 68.518l20.629 20.626h9.506a99.857 99.857 0 0 0 70.612-29.249 104.05 104.05 0 0 1 5.006-4.683c17.785-15.589 40.484-24.565 68.511-24.565 30.726 0 55.052 10.784 73.517 29.248a99.855 99.855 0 0 0 25.925 18.69 99.843 99.843 0 0 0 44.687 10.559h9.506l20.629-20.626c9.913-9.911 17.434-21.757 22.244-34.641a96.834 96.834 0 0 0 6.14-33.878v-.002c0-28.676-12.684-55.903-34.687-74.294z" opacity="1" data-original="#c77464"></path><path fill="#ac6757" d="M170.922 131.779c0-41.79 18.638-81.365 50.742-108.118a379.424 379.424 0 0 1 20.282-15.769 264.076 264.076 0 0 0-29.428 3.23c-44.825 7.515-88.006 26.959-124.182 57.105-22.134 18.445-34.984 45.731-34.984 74.543v.014a96.89 96.89 0 0 0 28.384 68.518l20.629 20.626h9.506a99.857 99.857 0 0 0 70.612-29.249 104.05 104.05 0 0 1 5.006-4.683 140.528 140.528 0 0 1-16.567-66.197z" opacity="1" data-original="#ac6757"></path><circle cx="148.068" cy="125.383" r="7.5" fill="#000000" opacity="1" data-original="#000000"></circle><circle cx="161.068" cy="52.383" r="7.5" fill="#000000" opacity="1" data-original="#000000"></circle><circle cx="81.068" cy="142.383" r="7.5" fill="#000000" opacity="1" data-original="#000000"></circle><circle cx="121.068" cy="192.384" r="7.5" fill="#000000" opacity="1" data-original="#000000"></circle><circle cx="218.068" cy="101.383" r="7.5" fill="#000000" opacity="1" data-original="#000000"></circle><circle cx="251.068" cy="32.383" r="7.5" fill="#000000" opacity="1" data-original="#000000"></circle><circle cx="277.068" cy="152.383" r="7.5" fill="#000000" opacity="1" data-original="#000000"></circle><circle cx="350.068" cy="144.383" r="7.5" fill="#000000" opacity="1" data-original="#000000"></circle><circle cx="337.068" cy="52.383" r="7.5" fill="#000000" opacity="1" data-original="#000000"></circle><circle cx="407.068" cy="92.383" r="7.5" fill="#000000" opacity="1" data-original="#000000"></circle><circle cx="405.068" cy="183.383" r="7.5" fill="#000000" opacity="1" data-original="#000000"></circle><path d="M466.148 142.783c0-31.019-13.624-60.196-37.378-80.052C380.372 22.278 319.015 0 256 0 193.123 0 131.874 22.185 83.534 62.467a105.033 105.033 0 0 0-18.671 20.266 7.5 7.5 0 0 0 12.271 8.627 89.94 89.94 0 0 1 16.003-17.369C138.786 35.95 196.625 15 256 15c59.505 0 117.446 21.039 163.151 59.241 20.334 16.997 31.997 41.98 31.997 68.544 0 42.201-25.978 63.154-44.611 81.644h-6.408c-24.312 0-48.116-9.86-65.309-27.053-20.865-20.865-47.385-31.444-78.82-31.444s-57.955 10.579-78.82 31.444c-21.295 21.296-44.06 26.701-71.698 27.063L87.04 206c-24.337-24.336-31.749-59.142-22.103-89.916a7.499 7.499 0 0 0-4.913-9.399 7.496 7.496 0 0 0-9.399 4.913 104.149 104.149 0 0 0-4.772 31.188c0 46.808 27.751 70.99 40.8 84.038-17.734 6.008-30.538 22.8-30.538 42.538 0 13.109 5.599 25.194 15.099 33.584-20.509 20.586-6.942 57.043 24.01 57.033 7.8 0 15.207-2.72 21.098-7.644 19.037 31.884 47.961 56.238 82.429 69.17-21.423 17.739-33.082 43.778-33.082 70.362V504.5c0 4.143 3.357 7.5 7.5 7.5h165.666c4.143 0 7.5-3.357 7.5-7.5v-12.634c0-6.35-.657-12.698-1.952-18.868a7.5 7.5 0 0 0-14.68 3.082 76.98 76.98 0 0 1 1.632 15.786V497h-17.752v-15.134c0-4.143-3.357-7.5-7.5-7.5s-7.5 3.357-7.5 7.5V497h-85v-15.134c0-4.143-3.357-7.5-7.5-7.5s-7.5 3.357-7.5 7.5V497h-17.914v-5.134c0-25.226 12.129-47.311 30.498-61.082 7.232 19.291 22.557 34.435 42.349 41.388a7.52 7.52 0 0 0 4.973 0c19.792-6.953 35.116-22.094 42.349-41.384a76.45 76.45 0 0 1 18.622 20.138 7.5 7.5 0 0 0 12.661-8.043 90.907 90.907 0 0 0-18.877-21.383c34.298-12.875 63.343-37.168 82.469-69.213 5.918 4.905 13.437 7.73 21.355 7.73 29.737 0 44.633-36.087 23.724-57.072 9.5-8.39 15.099-20.475 15.099-33.584 0-19.703-12.759-36.471-30.445-42.506 12.135-11.964 40.702-37.349 40.702-84.072zM96.202 239.845c-3.302 17.812-3.598 35.758-1.031 53.222a33.389 33.389 0 0 0-10.178 1.523c-8.625-5.464-13.88-14.867-13.88-25.229 0-14.852 10.882-27.204 25.089-29.516zm-19.745 86.694c0-6.217 2.963-11.789 8.128-15.288 4.099-2.777 8.896-3.771 13.588-2.911a161.12 161.12 0 0 0 10.806 30.262c-10.181 12.243-32.522 5.999-32.522-12.063zM256 457.08c-13.078-5.303-23.412-15.274-29.216-27.859a164.182 164.182 0 0 0 58.434-.003c-5.803 12.585-16.139 22.558-29.218 27.862zm0-40.241c-93.808 0-163.329-86.238-144.428-177.39 14.43-.196 47.321-2.573 76.215-31.466 17.949-17.95 40.899-27.052 68.213-27.052s50.264 9.102 68.214 27.052c19.592 19.591 47.007 31.445 76.21 31.445C419.369 330.735 349.638 416.839 256 416.839zm161.064-71.822a18.505 18.505 0 0 1-14.021-6.452 160.885 160.885 0 0 0 10.789-30.226c4.691-.858 9.486.137 13.584 2.914 15.024 10.174 7.8 33.764-10.352 33.764zm23.823-75.657c0 10.362-5.255 19.766-13.881 25.229a33.414 33.414 0 0 0-10.173-1.523c2.564-17.46 2.268-35.406-1.035-53.222 14.207 2.313 25.089 14.665 25.089 29.516z" fill="#000000" opacity="1" data-original="#000000"></path><path d="M189.254 276.289a7.499 7.499 0 0 0-7.5 7.5v12.826c0 4.143 3.357 7.5 7.5 7.5s7.5-3.357 7.5-7.5v-12.826a7.5 7.5 0 0 0-7.5-7.5zM322.746 276.289a7.499 7.499 0 0 0-7.5 7.5v12.826c0 4.143 3.357 7.5 7.5 7.5s7.5-3.357 7.5-7.5v-12.826c0-4.143-3.357-7.5-7.5-7.5zM278.525 290.58a7.497 7.497 0 0 0-10.581.726c-3.017 3.46-7.37 5.444-11.944 5.444s-8.928-1.984-11.944-5.444a7.497 7.497 0 0 0-10.581-.726 7.5 7.5 0 0 0-.726 10.581c5.865 6.729 14.34 10.589 23.251 10.589s17.386-3.859 23.251-10.589a7.498 7.498 0 0 0-.726-10.581z" fill="#000000" opacity="1" data-original="#000000"></path></g></svg>