<svg xmlns="http://www.w3.org/2000/svg" version="1.1" xmlns:xlink="http://www.w3.org/1999/xlink" width="512" height="512" x="0" y="0" viewBox="0 0 512 512" style="enable-background:new 0 0 512 512" xml:space="preserve"><g><path fill="#ffb39d" d="M471.869 348.529a255.69 255.69 0 0 1-9.807-70.138v-98.852c0-29.846-9.441-59.016-27.366-82.879a223.26 223.26 0 0 0-25.271-28.277c-8.337-7.868-19.639-11.807-31.086-11.149a28.799 28.799 0 0 0-14.785-22.239 222.519 222.519 0 0 0-49.945-19.985 223.239 223.239 0 0 0-20.431-4.427h-.001a225.815 225.815 0 0 0-74.377 0c-57.731 9.675-108.002 41.263-141.731 86.34-17.822 23.819-27.152 52.872-27.152 82.616v98.851c0 23.721-3.301 47.327-9.807 70.139-1.823 6.391.371 13.229 5.518 17.435 69.578 56.862 156.553 81.362 241.134 73.534 64.112-5.933 126.85-30.433 179.589-73.534 5.146-4.207 7.34-11.044 5.518-17.435z" opacity="1" data-original="#ffb39d"></path><path fill="#ff8f71" d="M132.502 224.398c0-81.17 52.25-150.129 124.93-175.053 13.306-4.563 25.851-10.958 37.338-18.932a154.942 154.942 0 0 0 18.84-15.402 223.239 223.239 0 0 0-20.431-4.427h-.001a225.815 225.815 0 0 0-74.377 0C161.07 20.259 110.799 51.847 77.07 96.924c-17.822 23.819-27.152 52.872-27.152 82.616v98.851c0 23.721-3.301 47.327-9.807 70.139-1.823 6.391.371 13.229 5.518 17.435 69.578 56.862 156.553 81.362 241.134 73.534V406.36c-87.534-14.614-154.261-90.236-154.261-181.962z" opacity="1" data-original="#ff8f71"></path><path fill="#ff8e9e" d="M333.007 427.147c-14.208-17.841-34.368-30.665-57.413-35.367a98.007 98.007 0 0 0-19.606-1.972c-31.11 0-58.901 14.59-77.017 37.339-13.596 17.072-21.745 38.738-21.745 62.29V504.5h197.526v-15.063c0-7.694-.87-15.187-2.515-22.384a99.73 99.73 0 0 0-19.23-39.906z" opacity="1" data-original="#ff8e9e"></path><path fill="#ffddcf" d="M306.345 441.418c10.303-2.375 20.494-5.536 30.335-9.356a99.155 99.155 0 0 0-3.673-4.915c-14.208-17.842-34.368-30.665-57.413-35.367a98.015 98.015 0 0 0-19.606-1.972c-31.11 0-58.901 14.59-77.017 37.339a99.805 99.805 0 0 0-3.674 4.915c9.836 3.817 20.039 6.982 30.338 9.358 32.468 7.484 68.236 7.487 100.71-.002z" opacity="1" data-original="#ffddcf"></path><path fill="#ea5b70" d="M247.519 446.86c-14.216-.517-28.339-2.319-41.885-5.441-10.291-2.374-20.508-5.544-30.338-9.358a101.295 101.295 0 0 0-5.088 8.073c-8.251 14.547-12.983 31.375-12.983 49.302V504.5h103.183l-3.352-11.076a258.916 258.916 0 0 1-9.537-46.564z" opacity="1" data-original="#ea5b70"></path><path fill="#ffcbbe" d="M247.519 446.86a258.91 258.91 0 0 1-1.566-28.442v-28.09c-27.01 2.764-50.839 16.547-66.982 36.818a99.193 99.193 0 0 0-3.675 4.915c9.83 3.814 20.047 6.984 30.338 9.358 13.546 3.123 27.669 4.924 41.885 5.441z" opacity="1" data-original="#ffcbbe"></path><path fill="#ffb357" d="M178.971 427.146c-13.596 17.072-21.745 38.738-21.745 62.29V504.5h63.24a297.093 297.093 0 0 1-12.744-86.081V402.54a99.772 99.772 0 0 0-28.751 24.606z" opacity="1" data-original="#ffb357"></path><path fill="#ffce71" d="M333.007 427.146c13.596 17.072 21.745 38.738 21.745 62.29V504.5h-63.24a297.093 297.093 0 0 0 12.744-86.081V402.54a99.772 99.772 0 0 1 28.751 24.606z" opacity="1" data-original="#ffce71"></path><path fill="#ffcbbe" d="M440.771 179.538H71.207c-24.633 0-44.603 19.969-44.603 44.603s19.969 44.603 44.603 44.603h369.564c24.633 0 44.603-19.969 44.603-44.603s-19.97-44.603-44.603-44.603z" opacity="1" data-original="#ffcbbe"></path><path fill="#ffddcf" d="M286.761 41.924c-10.009-1.678-20.287-2.565-30.773-2.565s-20.763.887-30.772 2.565c-87.403 14.653-154.01 90.65-154.01 182.217s66.607 167.564 154.01 182.217c10.009 1.678 20.286 2.565 30.772 2.565s20.764-.887 30.773-2.565c87.403-14.654 154.009-90.651 154.009-182.217S374.164 56.578 286.761 41.924z" opacity="1" data-original="#ffddcf"></path><path fill="#ffcbbe" d="M132.502 224.398c0-91.729 66.727-167.863 154.259-182.474-10.009-1.678-20.287-2.565-30.773-2.565s-20.763.887-30.772 2.565c-87.403 14.653-154.01 90.65-154.01 182.217s66.607 167.564 154.01 182.217c10.009 1.678 20.286 2.565 30.772 2.565s20.764-.887 30.773-2.565c-87.532-14.612-154.259-90.234-154.259-181.96z" opacity="1" data-original="#ffcbbe"></path><ellipse cx="155.314" cy="284.834" fill="#ff8e9e" rx="36.956" ry="29.31" opacity="1" data-original="#ff8e9e"></ellipse><ellipse cx="356.663" cy="284.834" fill="#ff8e9e" rx="36.956" ry="29.31" opacity="1" data-original="#ff8e9e"></ellipse><path fill="#ffb39d" d="M294.77 30.413a198.996 198.996 0 0 0-38.781-3.797c-88.604 0-165.52 58.984-189.756 142.53l10.393 10.393c-3.541 14.284-5.42 29.224-5.42 44.603 0 15.38 1.879 30.318 5.42 44.603l.041-.014-.033.011c6.043 24.378 16.922 46.854 31.567 66.332v-7.589c0-27.282 9.646-53.3 26.634-73.629a112.483 112.483 0 0 1 29.063-24.725 444.735 444.735 0 0 0 120.218-104.144c35.037 47.605 94.96 68.561 151.233 54.553l10.393-10.393C425.623 99.79 367.992 44.944 294.77 30.413z" opacity="1" data-original="#ffb39d"></path><path fill="#ff8f71" d="M257.432 49.345c13.304-4.562 25.851-10.963 37.338-18.932a198.996 198.996 0 0 0-38.781-3.797c-88.604 0-165.52 58.984-189.756 142.53l10.393 10.393c-3.541 14.284-5.42 29.224-5.42 44.603 0 15.38 1.879 30.318 5.42 44.603l.041-.014-.033.011c6.043 24.378 16.922 46.854 31.567 66.332v-7.589c0-27.282 9.646-53.3 26.634-73.629a186.108 186.108 0 0 1-2.334-29.457c.001-81.171 52.251-150.13 124.931-175.054z" opacity="1" data-original="#ff8f71"></path><path d="M176.407 233.845a7.5 7.5 0 0 0-7.5 7.5v15.292c0 4.142 3.357 7.5 7.5 7.5s7.5-3.358 7.5-7.5v-15.292a7.5 7.5 0 0 0-7.5-7.5zM335.571 233.845a7.5 7.5 0 0 0-7.5 7.5v15.292c0 4.142 3.357 7.5 7.5 7.5s7.5-3.358 7.5-7.5v-15.292a7.5 7.5 0 0 0-7.5-7.5zM281.898 250.528a7.5 7.5 0 0 0-10.582.727c-3.869 4.439-9.455 6.985-15.327 6.985s-11.458-2.546-15.327-6.985a7.5 7.5 0 1 0-11.309 9.855c6.719 7.709 16.427 12.131 26.636 12.131s19.917-4.421 26.636-12.131a7.501 7.501 0 0 0-.727-10.582z" fill="#000000" opacity="1" data-original="#000000"></path><path d="M469.553 267.575v-.031c14.043-9.344 23.32-25.307 23.32-43.403 0-18.11-9.292-34.085-23.357-43.425-.896-46.394-16.251-81.272-54.944-117.788-8.186-7.726-18.777-12.316-30.113-13.124a36.302 36.302 0 0 0-17.296-21.384C334.389 10.434 296.373 0 255.989 0v14.983c36.695 0 72.456 9.3 103.957 26.587a21.291 21.291 0 0 1 8.86 9.276c-5.752 1.041-11.516 2.737-17.224 5.1a7.5 7.5 0 0 0 5.736 13.86c7.171-2.968 14.388-4.679 21.45-5.084 9.655-.549 18.764 2.751 25.508 9.116 35.361 33.374 47.917 63.036 49.978 99.983-8.179-2.194-18.854-2.024-20.727-1.556-52.161 13.038-106.41-5.44-139.853-47.16 11.986-14.689 25.06-29.466 39.743-40.933a7.5 7.5 0 0 0-9.232-11.822c-17.415 13.602-32.359 31.078-45.914 47.938-33.041 41.1-72.806 75.548-118.19 102.388-11.758 6.953-22.188 15.826-31 26.371-16.957 20.293-28.355 54.811-28.379 85.923V334.979l-.001.088.001.028c-.168 14.115 1.508 27.993 4.986 41.25a7.5 7.5 0 0 0 14.51-3.807 136.295 136.295 0 0 1-3.088-15.457c20.507 21.37 45.784 37.864 73.558 47.925a106.949 106.949 0 0 0-17.712 17.672c-45.092-11.861-86.311-32.879-122.584-62.523-2.848-2.327-4.046-6.083-3.052-9.569 9.166-32.131 10.083-57.832 10.121-76.161 7.448 2.02 13.678 1.841 19.185 1.82 4.873 0 8.452-4.582 7.279-9.307-6.947-27.986-6.947-57.584 0-85.593 1.174-4.731-2.414-9.306-7.279-9.306-4.534 0-11.092-.303-18.903 1.762 1.596-28.654 9.595-51.328 25.351-72.385C124.5 46.053 188.563 14.983 255.989 14.983V0C184.022 0 115.475 33.076 71.064 92.43c-18.788 25.107-27.921 53.246-28.602 88.247-14.691 9.646-23.336 25.586-23.336 43.472 0 17.863 8.631 33.786 23.301 43.434l.001.417c.078 18.738.186 44.401-9.532 78.472-2.639 9.25.495 19.181 7.984 25.299 36.582 29.897 77.978 51.406 123.178 64.034a107.555 107.555 0 0 0-14.333 53.633V504.5a7.5 7.5 0 0 0 7.5 7.5H354.75a7.5 7.5 0 0 0 7.5-7.5v-15.063c0-1.792-.045-3.608-.134-5.398a7.48 7.48 0 0 0-7.864-7.118 7.5 7.5 0 0 0-7.117 7.864c.076 1.542.115 3.107.115 4.652V497h-45.809c7.319-27.442 10.247-52.23 10.32-80.408 13.641 10.668 23.966 24.856 29.895 41.099a7.499 7.499 0 0 0 9.616 4.474 7.499 7.499 0 0 0 4.474-9.617 107.284 107.284 0 0 0-7.821-16.761c45.213-12.631 86.606-34.134 123.168-64.016 7.49-6.12 10.624-16.051 7.984-25.3-9.647-33.837-9.578-58.821-9.524-78.896zM34.126 224.148c0-13.814 7.233-26.001 19.35-32.607l.04-.022c5.079-2.761 9.601-3.842 13.725-4.254a193.694 193.694 0 0 0-.005 73.736c-4.148-.418-8.678-1.498-13.72-4.238l-.04-.022c-12.116-6.607-19.35-18.788-19.35-32.593zM164.726 497v-7.563c0-19.672 6.25-38.54 17.43-54.074.015-.022.032-.041.046-.063a92.028 92.028 0 0 1 18.013-18.723c.078 28.269 2.998 52.974 10.319 80.423zm121.141 0H226.11a289.983 289.983 0 0 1-8.983-45.703c24.763 4.127 51.454 4.379 77.724 0A290.121 290.121 0 0 1 285.867 497zm10.358-61.159c-26.148 4.869-54.313 4.869-80.47 0-.505-8.197-.551-14.823-.543-23.803a192.857 192.857 0 0 0 40.777 4.384c13.989 0 27.628-1.516 40.775-4.366.011 8.853-.037 15.66-.539 23.785zm-40.236-34.418c-56.389 0-107.532-26.619-140.258-68.868.597-26.832 10.651-56.887 24.861-73.891 7.715-9.232 16.842-16.997 27.125-23.079 44.246-26.165 83.321-59.329 116.282-98.648 34.985 41.81 90.666 62.405 145.683 51.551a178.434 178.434 0 0 1 3.59 35.653c-.001 97.754-79.529 177.282-177.283 177.282zm205.615-41.267c-36.254 29.629-77.473 50.642-122.581 62.507a107.615 107.615 0 0 0-17.754-17.656c57.922-20.971 102.986-69.014 119.826-128.771a51.928 51.928 0 0 0 13.453-1.855c.059 19.174 1.001 44.278 10.108 76.205.995 3.486-.203 7.242-3.052 9.57zm-16.898-99.123a192.441 192.441 0 0 0 3.565-36.892c0-12.416-1.209-24.782-3.563-36.892 18.613 1.973 33.165 17.763 33.165 36.892.001 19.13-14.553 34.921-33.167 36.892z" fill="#000000" opacity="1" data-original="#000000"></path></g></svg>