<svg xmlns="http://www.w3.org/2000/svg" version="1.1" xmlns:xlink="http://www.w3.org/1999/xlink" width="512" height="512" x="0" y="0" viewBox="0 0 512 512" style="enable-background:new 0 0 512 512" xml:space="preserve" class=""><g><path fill="#d4d4d5" d="m461.485 213.439-410.968.001c-3.455 11.538-.714 24.57 8.552 33.547 8.727 8.349 20.55 13.487 33.581 13.487h326.69c13.035 0 24.862-5.142 33.59-13.496 9.262-8.976 12.005-22.003 8.555-33.539z" opacity="1" data-original="#d4d4d5"></path><path fill="#676f72" d="M70.336 283.308c0 122.161 83.137 221.192 185.692 221.192V283.308z" opacity="1" data-original="#676f72"></path><path fill="#82888b" d="M256.028 283.308V504.5c102.555 0 185.692-99.031 185.692-221.192z" opacity="1" data-original="#82888b"></path><path fill="#efedee" d="M322.044 438.197c-12.179-15.293-29.458-26.284-49.211-30.314a83.958 83.958 0 0 0-16.805-1.69c-26.666 0-50.487 12.506-66.015 32.005-11.654 14.633-18.638 33.204-18.638 53.392v12.91h169.308v-12.911c0-6.595-.745-13.018-2.156-19.187a85.498 85.498 0 0 0-16.483-34.205z" opacity="1" data-original="#efedee"></path><path fill="#ffddcf" d="M325.191 442.41a85.87 85.87 0 0 0-3.148-4.213c-12.179-15.293-29.458-26.284-49.211-30.314a83.958 83.958 0 0 0-16.805-1.69c-26.666 0-50.486 12.506-66.014 32.005a85.908 85.908 0 0 0-3.15 4.213 190.404 190.404 0 0 0 26.004 8.021 183.081 183.081 0 0 0 16.429 2.99c4.262.58 8.107 2.86 10.58 6.38l16.152 22.998 16.155-23.001c2.468-3.514 6.304-5.795 10.559-6.375 14.077-1.92 28.001-5.405 42.449-11.014z" opacity="1" data-original="#ffddcf"></path><path fill="#ffcbbe" d="M256.027 406.192c-27.746 0-53.346 13.648-69.164 36.218a85.377 85.377 0 0 0-13.333 29.992 85.977 85.977 0 0 0-2.156 19.187V504.5h33.637v-12.911c0-2.763.142-5.492.399-8.189a85.276 85.276 0 0 1 9.854-32.453c11.779-21.841 32.712-37.984 57.567-43.063a83.853 83.853 0 0 0-16.804-1.692z" opacity="1" data-original="#ffcbbe"></path><path fill="#d4d4d5" d="M186.863 442.41c-9.998 14.265-15.489 31.303-15.489 49.179V504.5h33.637v-12.911c0-3.1.172-6.181.504-9.227 1.218-11.174 4.608-21.884 9.74-31.398-9.815-2.123-19.385-5.059-28.392-8.554z" opacity="1" data-original="#d4d4d5"></path><g fill="#ffcbbe"><path d="M338.526 472.402a221.988 221.988 0 0 1-31.974 9.96 86.56 86.56 0 0 1 .492 9.227V504.5h33.637v-12.911a85.918 85.918 0 0 0-2.155-19.187zM171.374 491.589V504.5h33.637v-12.911a86.255 86.255 0 0 1 .504-9.227 223.016 223.016 0 0 1-31.986-9.96 86.035 86.035 0 0 0-2.155 19.187z" fill="#ffcbbe" opacity="1" data-original="#ffcbbe"></path></g><path fill="#ffcbbe" d="M414.413 225.962H97.644c-21.114 0-38.231 17.116-38.231 38.231s17.117 38.231 38.231 38.231h316.769c21.114 0 38.231-17.116 38.231-38.231s-17.117-38.231-38.231-38.231z" opacity="1" data-original="#ffcbbe"></path><path fill="#ffddcf" d="M282.405 108.007a159.33 159.33 0 0 0-52.753 0c-74.917 12.56-132.009 77.7-132.009 156.186s57.092 143.626 132.009 156.186a159.352 159.352 0 0 0 52.753 0c74.917-12.56 132.008-77.701 132.008-156.186s-57.092-143.626-132.008-156.186z" opacity="1" data-original="#ffddcf"></path><path fill="#ffcbbe" d="M150.183 264.413c0-78.625 57.195-143.882 132.222-156.406a159.33 159.33 0 0 0-52.753 0c-74.917 12.56-132.009 77.7-132.009 156.186s57.092 143.626 132.009 156.186a159.352 159.352 0 0 0 52.753 0c-75.028-12.525-132.222-77.344-132.222-155.966z" opacity="1" data-original="#ffcbbe"></path><g fill="#ff8e9e"><path d="M169.736 291.092c-17.495 0-31.677 11.248-31.677 25.123s14.182 25.123 31.677 25.123 31.677-11.248 31.677-25.123-14.182-25.123-31.677-25.123zM342.32 291.092c-17.495 0-31.677 11.248-31.677 25.123s14.182 25.123 31.677 25.123 31.677-11.248 31.677-25.123-14.182-25.123-31.677-25.123z" fill="#ff8e9e" opacity="1" data-original="#ff8e9e"></path></g><path fill="#82888b" d="M282.405 108.007a159.33 159.33 0 0 0-52.752 0c-74.916 12.56-132.008 77.699-132.009 156.184 42.181-.027 83.774-12.267 119.832-36.186 14.243-9.447 27.13-20.33 38.553-32.544 11.423 12.214 24.31 23.097 38.553 32.544 35.651 23.648 77.085 36.158 119.832 36.185-.002-78.484-57.094-143.623-132.009-156.183z" opacity="1" data-original="#82888b"></path><path fill="#676f72" d="M282.405 108.007a159.33 159.33 0 0 0-52.752 0c-74.916 12.56-132.008 77.699-132.009 156.184a216.984 216.984 0 0 0 52.679-6.51c3.157-75.592 59.207-137.51 132.082-149.674z" opacity="1" data-original="#676f72"></path><path fill="#efedee" d="M256.028 7.5c-87.26 0-158.383 70.73-158.385 158.382h316.769C414.412 78.218 343.28 7.5 256.028 7.5z" opacity="1" data-original="#efedee"></path><g fill="#d4d4d5"><path d="M299.72 13.616A158.337 158.337 0 0 0 256.028 7.5c-87.26 0-158.384 70.73-158.385 158.382h87.385c.001-72.437 48.578-133.313 114.692-152.266z" fill="#d4d4d5" opacity="1" data-original="#d4d4d5"></path><path d="m451.045 197.361-36.632-31.479c-89.644-79.655-227.125-79.655-316.769 0v.001L60.97 197.357a33.98 33.98 0 0 0-10.453 16.083l51.779 12.521a229.935 229.935 0 0 1 16.948-14.085c80.849-60.875 192.718-60.875 273.568 0a229.684 229.684 0 0 1 16.948 14.085l51.725-12.522a33.975 33.975 0 0 0-10.44-16.078z" fill="#d4d4d5" opacity="1" data-original="#d4d4d5"></path></g><path d="M187.815 271.438a7.5 7.5 0 0 0-7.5 7.5v13.108c0 4.142 3.357 7.5 7.5 7.5s7.5-3.358 7.5-7.5v-13.108a7.5 7.5 0 0 0-7.5-7.5zM324.242 299.546a7.5 7.5 0 0 0 7.5-7.5v-13.108c0-4.142-3.357-7.5-7.5-7.5s-7.5 3.358-7.5 7.5v13.108a7.5 7.5 0 0 0 7.5 7.5zM243.699 286.729a7.501 7.501 0 0 0-11.309 9.856c5.963 6.841 14.578 10.765 23.638 10.765s17.676-3.924 23.639-10.765c2.722-3.123 2.396-7.86-.727-10.582s-7.86-2.396-10.582.726c-3.113 3.572-7.607 5.621-12.33 5.621s-9.216-2.05-12.329-5.621z" fill="#000000" opacity="1" data-original="#000000"></path><path d="M455.933 191.673 421.868 162.4C420.006 72.534 346.331 0 256.028 0c-35.895 0-70.069 11.293-98.831 32.658a7.5 7.5 0 0 0 8.945 12.041C192.297 25.27 223.379 15 256.028 15c77.561 0 141.63 58.827 149.958 134.204-87.848-67.426-212.073-67.425-299.917.003 3.509-31.786 16.995-61.635 38.862-85.41a7.5 7.5 0 1 0-11.04-10.154c-27.424 29.815-42.866 68.317-43.707 108.759l-34.098 29.264c-17.568 15.078-20.165 42.446-2.514 60.345-3.963 14.319-.84 30.133 9.514 42.083 3.151 80.031 41.574 152.317 101.068 190.425-.353 4.626-.28 5.938-.28 19.982a7.5 7.5 0 0 0 7.5 7.5h169.308a7.5 7.5 0 0 0 7.5-7.5V491.59c0-2.329-.099-4.688-.278-7.049 13.841-8.868 26.744-19.722 38.4-32.329a7.5 7.5 0 0 0-11.014-10.184c-9.251 10.005-19.341 18.792-30.075 26.257-4.78-18.59-15.282-35.708-30.999-48.652 48.853-18.318 86.834-59.298 101.3-109.737a45.442 45.442 0 0 0 17.706-4.036c-3.627 41.835-17.278 80.844-39.882 113.588a7.5 7.5 0 1 0 12.344 8.521c26.439-38.299 41.377-84.543 43.302-133.896 10.127-11.702 13.557-27.454 9.482-42.112 17.965-18.249 14.574-45.587-2.535-60.288zM66.912 264.192c0-15.345 11.306-28.098 26.025-30.37-1.32 7.008-2.793 17.519-2.793 30.368v.001c0 10.208.937 20.384 2.786 30.368-14.716-2.273-26.018-15.025-26.018-30.367zm99.94 204.1c-49.354-34.271-82.047-94.676-88.01-162.43a45.421 45.421 0 0 0 17.698 4.032c13.893 48.456 50.215 90.499 101.42 109.635-15.304 12.571-26.179 29.588-31.108 48.763zM197.503 497h-18.629c0-5.571-.102-8.954.517-14.382a247.751 247.751 0 0 0 18.192 5.512c-.079 2.34-.085 4.999-.08 8.87zm-14.927-29.169a77.295 77.295 0 0 1 7.364-16.316c19.587 6.934 29.662 8.236 35.89 9.039 4.588.591 4.889.725 5.858 1.59 2.167 1.935 5.699 7.016 11.551 15.435 1.563 2.247 3.32 4.775 5.288 7.586V497H212.5c-.008-7.58.037-9.782.472-13.837a7.5 7.5 0 0 0-5.771-8.109c-8.046-1.858-17.092-4.527-24.625-7.223zm72.981 1.187c-13.367-19.23-15.085-21.701-27.809-23.341-5.155-.665-13.215-1.704-28.452-6.802a78.532 78.532 0 0 1 16.587-13.773 166.39 166.39 0 0 0 80.426.087 78.499 78.499 0 0 1 16.454 13.686c-7.156 2.357-17.699 5.299-31.033 7.117-6.336.864-12.053 4.325-15.685 9.495l-9.999 14.236-.489-.705zM333.182 497h-18.628c.006-3.875.001-6.537-.075-8.862a231.034 231.034 0 0 0 18.184-5.544c.621 5.435.519 8.814.519 14.406zm-11.053-45.488a77.294 77.294 0 0 1 7.354 16.283 215.539 215.539 0 0 1-24.615 7.258 7.498 7.498 0 0 0-5.772 8.108c.445 4.145.469 6.466.458 13.838h-36.026v-11.831l14.793-21.062c1.24-1.766 3.222-2.952 5.435-3.254 17.814-2.426 30.974-6.684 38.373-9.34zm-66.101-36.435c-80.667 0-146.799-62.972-150.689-143.536 56.487-1.961 110.643-25.422 150.689-65.305 40.047 39.882 94.203 63.342 150.69 65.304-3.892 80.577-70.034 143.537-150.69 143.537zm5.477-224.739c-2.964-3.17-7.995-3.165-10.955 0-37.684 40.292-90.246 64.166-145.215 66.21.657-13.151 2.84-22.716 3.771-26.636 84.188-75.501 209.725-75.487 293.901.052a150.99 150.99 0 0 1 3.713 26.583c-54.969-2.045-107.531-25.918-145.215-66.209zm157.622 104.223a166.916 166.916 0 0 0 .003-60.736c14.714 2.276 26.014 15.027 26.014 30.368-.001 15.341-11.302 28.093-26.017 30.368zm32.127-57.42c-8.486-11.526-21.399-18.679-38.629-18.679-89.288-79.719-224.061-79.589-313.192 0-17.134 0-30.104 7.073-38.659 18.718-7.687-11.724-4.167-26.194 5.083-34.131.088-.076 36.683-31.483 36.77-31.561 87.453-77.708 219.349-77.709 306.806 0l.094.082 36.633 31.479c9.199 7.908 12.786 22.345 5.094 34.092z" fill="#000000" opacity="1" data-original="#000000"></path></g></svg>