<svg xmlns="http://www.w3.org/2000/svg" version="1.1" xmlns:xlink="http://www.w3.org/1999/xlink" width="512" height="512" x="0" y="0" viewBox="0 0 512 512" style="enable-background:new 0 0 512 512" xml:space="preserve"><g><path fill="#db9e82" d="M321.754 438.46c-12.13-15.232-29.342-26.18-49.016-30.194A83.663 83.663 0 0 0 256 406.582c-26.56 0-50.287 12.456-65.753 31.878-11.607 14.575-18.564 33.072-18.564 53.18v12.86h168.635v-12.86a85.72 85.72 0 0 0-2.147-19.111 85.146 85.146 0 0 0-16.417-34.069z" opacity="1" data-original="#db9e82"></path><path fill="#c8866a" d="M205.186 504.5h-33.504v-12.86c0-6.571.742-12.964 2.147-19.111a85.049 85.049 0 0 1 13.28-29.873c15.755-22.48 41.254-36.074 68.89-36.074 5.729 0 11.327.58 16.739 1.684-24.757 5.059-45.607 21.139-57.339 42.893v32.56z" opacity="1" data-original="#c8866a"></path><path fill="#64b3fb" d="M306.417 483.483a84.928 84.928 0 0 0-9.817-32.328c-3.382.73-6.687 1.348-9.952 1.869-12.364 1.972-23.45 8.734-30.647 18.98l-.001.001-.001-.001c-7.197-10.247-18.284-17.008-30.649-18.981a187.017 187.017 0 0 1-9.949-1.868 84.934 84.934 0 0 0-9.817 32.328 85.913 85.913 0 0 0-.397 8.157v12.86h101.629v-12.86a86.595 86.595 0 0 0-.399-8.157z" opacity="1" data-original="#64b3fb"></path><path fill="#53a3ec" d="m215.401 451.155-.002.004a84.93 84.93 0 0 0-9.815 32.325 85.913 85.913 0 0 0-.397 8.157v12.86h33.728v-12.86c0-1.581.082-3.249.246-4.966a51.056 51.056 0 0 1 5.925-19.506l2.337-4.332c-6.298-5.108-13.898-8.514-22.063-9.818a188.871 188.871 0 0 1-9.959-1.864z" opacity="1" data-original="#53a3ec"></path><path fill="#c8866a" d="M413.757 227.066H98.243c-21.031 0-38.079 17.049-38.079 38.079s17.049 38.079 38.079 38.079h315.513c21.031 0 38.079-17.048 38.079-38.079s-17.048-38.079-38.078-38.079z" opacity="1" data-original="#c8866a"></path><path fill="#db9e82" d="M282.272 109.578a158.741 158.741 0 0 0-52.543 0c-74.62 12.51-131.485 77.392-131.485 155.567s56.865 143.057 131.485 155.567a158.729 158.729 0 0 0 52.543 0c74.62-12.51 131.485-77.393 131.485-155.567s-56.865-143.056-131.485-155.567z" opacity="1" data-original="#db9e82"></path><path fill="#c8866a" d="M150.574 265.364c0-78.313 56.968-143.312 131.698-155.786a158.741 158.741 0 0 0-52.543 0c-74.62 12.51-131.485 77.392-131.485 155.567s56.865 143.057 131.485 155.567a158.729 158.729 0 0 0 52.543 0c-74.73-12.475-131.698-77.037-131.698-155.348z" opacity="1" data-original="#c8866a"></path><ellipse cx="170.05" cy="316.962" fill="#ff8e9e" rx="31.551" ry="25.024" opacity="1" data-original="#ff8e9e"></ellipse><ellipse cx="341.95" cy="316.962" fill="#ff8e9e" rx="31.551" ry="25.024" opacity="1" data-original="#ff8e9e"></ellipse><circle cx="341.95" cy="77.178" r="69.678" fill="#4c5659" opacity="1" data-original="#4c5659"></circle><path fill="#676f72" d="M404.828 148.811a74.26 74.26 0 0 0-72.079-30.804C295.544 69.024 229.1 52.827 173.528 79.192c-55.787 26.467-84.993 88.325-70.65 147.874l41.232.012a217.595 217.595 0 0 0 153.863-63.732 48.478 48.478 0 0 1 34.281 14.2l30.731 30.731c11.619 11.619 27.523 18.801 46.147 18.801a74.274 74.274 0 0 0 5.161-11.729c7.556-22.177 4.262-46.937-9.465-66.538z" opacity="1" data-original="#676f72"></path><path fill="#4c5659" d="M308.277 107.557c5.544 0 11.02.289 16.417.847-38.212-41.395-99.403-53.77-151.166-29.212-55.787 26.467-84.993 88.325-70.65 147.874l41.232.012c3.717 0 7.423-.099 11.117-.288 17.212-68.506 79.203-119.233 153.05-119.233z" opacity="1" data-original="#4c5659"></path><path d="M459.336 265.145c0-22.824-16.864-41.78-38.786-45.071 9.535-25.455 5.657-53.809-9.579-75.565a82.775 82.775 0 0 0-12.859-14.444c5.5-5.849 10.121-12.545 13.552-19.745a7.5 7.5 0 0 0-13.541-6.453c-3.03 6.358-7.215 12.229-12.225 17.249-14.751-8.826-32.12-12.845-49.87-11.081-14.823-18.294-34.074-32.542-55.656-41.422C284.551 38.153 310.632 15 341.95 15c34.298 0 62.558 28.011 62.175 63.005a7.5 7.5 0 0 0 7.403 7.595h.098a7.5 7.5 0 0 0 7.497-7.405C419.726 35.365 384.981 0 341.95 0c-37.848 0-69.53 27.251-75.964 63.589-33.144-9.527-67.271-5.86-95.902 8.941-35.569 18.387-55.037 55.62-63.475 76.177-10.527 25.646-15.207 52.222-12.875 71.083-23.023 2.272-41.07 21.743-41.07 45.354 0 24.729 19.798 44.906 44.374 45.55 7.928 27.887 23.18 53.265 44.811 73.924a7.5 7.5 0 1 0 10.36-10.848c-29.964-28.618-46.466-67.195-46.466-108.626 0-10.295 1.062-20.552 3.135-30.577l35.232.011a224.914 224.914 0 0 0 156.832-63.627c9.829.698 18.974 4.861 26.01 11.897l30.731 30.731c12.136 12.136 28.078 19.366 45.392 20.74a151.148 151.148 0 0 1 3.184 30.825c0 82.852-67.405 150.257-150.257 150.257-28.973 0-57.117-8.284-81.389-23.956a7.5 7.5 0 1 0-8.137 12.601 164.728 164.728 0 0 0 31.568 15.879c-22.157 18.223-33.861 44.913-33.861 71.713v12.86a7.5 7.5 0 0 0 7.5 7.5H340.32c4.143 0 7.5-3.357 7.5-7.5v-12.86c0-27.613-12.22-53.931-33.885-71.729 48.649-18.271 86.472-58.848 100.935-109.215 24.618-.592 44.466-20.79 44.466-45.549zM299.314 497h-86.629c0-5.583-.074-8.201.364-12.807a77.1 77.1 0 0 1 6.515-24.558c5.123.947 20.054 2.155 30.254 16.617a7.5 7.5 0 0 0 6.182 3.251 7.507 7.507 0 0 0 6.166-3.229c10.037-14.25 24.494-15.57 30.27-16.639a77.066 77.066 0 0 1 6.515 24.559c.436 4.586.363 7.089.363 12.806zm33.504-5.36V497h-18.504c0-5.515.086-8.802-.431-14.227a92.057 92.057 0 0 0-10.683-35.179 7.497 7.497 0 0 0-8.182-3.771c-10.251 2.211-24.856 2.72-39.019 16.638-14.19-13.943-28.657-14.402-39.018-16.638a7.497 7.497 0 0 0-8.183 3.771 92.092 92.092 0 0 0-10.683 35.178c-.515 5.413-.431 8.673-.431 14.228H179.18v-5.36c0-28.121 14.791-52.545 36.793-66.153a165.437 165.437 0 0 0 40.026 4.915c13.797 0 27.201-1.71 40.021-4.911a77.694 77.694 0 0 1 36.798 66.149zM67.664 265.145c0-15.252 11.224-27.929 25.846-30.211a166.263 166.263 0 0 0-2.767 30.211c0 10.258.928 20.355 2.729 30.206-14.603-2.299-25.808-14.967-25.808-30.206zm269.894-92.904c-10.574-10.572-24.631-16.396-39.585-16.396a7.5 7.5 0 0 0-5.303 2.196c-39.683 39.683-92.442 61.536-148.558 61.536l-35.27-.011c-2.207-14.019.46-37.921 11.643-65.164 7.657-18.653 25.177-52.363 56.487-68.548 49.916-25.804 114.319-10.032 149.805 36.688a7.503 7.503 0 0 0 7.109 2.877c25.471-3.908 50.251 6.92 64.799 27.692 13.39 19.12 16.01 44.446 5.913 66.307-14.014-.995-26.493-6.63-36.309-16.446zm80.921 123.118a165.507 165.507 0 0 0 2.778-30.214 166.24 166.24 0 0 0-2.768-30.211c14.622 2.281 25.847 14.959 25.847 30.211 0 15.256-11.23 27.937-25.857 30.214z" fill="#000000" opacity="1" data-original="#000000"></path><path d="M195.557 292.889v-13.056c0-4.143-3.358-7.5-7.5-7.5s-7.5 3.357-7.5 7.5v13.056a7.5 7.5 0 0 0 15 0zM331.443 292.889v-13.056c0-4.143-3.358-7.5-7.5-7.5s-7.5 3.357-7.5 7.5v13.056a7.5 7.5 0 0 0 15 0zM256 308.16a31.259 31.259 0 0 0 23.566-10.732 7.5 7.5 0 1 0-11.308-9.855c-3.095 3.551-7.563 5.588-12.259 5.588s-9.164-2.037-12.259-5.588a7.5 7.5 0 1 0-11.308 9.855A31.266 31.266 0 0 0 256 308.16z" fill="#000000" opacity="1" data-original="#000000"></path></g></svg>