<svg xmlns="http://www.w3.org/2000/svg" version="1.1" xmlns:xlink="http://www.w3.org/1999/xlink" width="512" height="512" x="0" y="0" viewBox="0 0 512 512" style="enable-background:new 0 0 512 512" xml:space="preserve"><g><path fill="#ff8f71" d="M256 7.5C126.935 7.5 22.47 112.273 22.47 241.03c0 50.637 6.546 99.842 34.991 140.113 5.077 7.188 13.294 11.509 22.094 11.509l352.891-.001c8.801 0 17.017-4.321 22.094-11.509 28.445-40.27 34.99-89.476 34.99-140.112C489.53 111.951 384.763 7.5 256 7.5z" opacity="1" data-original="#ff8f71"></path><path fill="#ff6f4d" d="M183.672 229.054c0-96.553 61.77-178.665 147.942-209.014C307.888 11.916 282.452 7.5 256 7.5 126.935 7.5 22.47 112.273 22.47 241.03c0 50.637 6.546 99.843 34.991 140.113 5.077 7.188 13.294 11.509 22.094 11.509h176.273c-44.338-40.513-72.156-98.805-72.156-163.598z" opacity="1" data-original="#ff6f4d"></path><path fill="#c9aaf2" d="M328.378 431.807c-13.352-16.767-32.298-28.817-53.954-33.236a92.116 92.116 0 0 0-18.425-1.853c-29.236 0-55.353 13.711-72.378 35.089-12.777 16.044-20.435 36.404-20.435 58.538V504.5h185.627v-14.156a94.32 94.32 0 0 0-2.363-21.036 93.715 93.715 0 0 0-18.072-37.501z" opacity="1" data-original="#c9aaf2"></path><path fill="#b28ae4" d="M274.424 398.57a92.043 92.043 0 0 0-18.425-1.853c-29.236 0-55.353 13.711-72.378 35.089a93.71 93.71 0 0 0-18.071 37.502 94.32 94.32 0 0 0-2.363 21.036V504.5h36.879v-14.156c0-45.191 32.006-83.12 74.358-91.774z" opacity="1" data-original="#b28ae4"></path><path fill="#fed2a4" d="M348.813 490.344V504.5h-36.879v-14.156c0-3.417-.183-6.791-.54-10.116a243.513 243.513 0 0 0 35.056-10.92 94.26 94.26 0 0 1 2.363 21.036z" opacity="1" data-original="#fed2a4"></path><path fill="#ffbd86" d="M163.187 490.344V504.5h36.879v-14.156c0-3.417.183-6.791.54-10.116a243.513 243.513 0 0 1-35.056-10.92 94.26 94.26 0 0 0-2.363 21.036zM429.651 199.114H82.349c-23.149 0-41.916 18.766-41.916 41.916s18.766 41.916 41.916 41.916H429.65c23.149 0 41.916-18.766 41.916-41.916s-18.766-41.916-41.915-41.916z" opacity="1" data-original="#ffbd86"></path><path fill="#fed2a4" d="M284.919 69.79c-9.406-1.577-19.065-2.411-28.919-2.411s-19.512.834-28.918 2.411C144.944 83.561 82.349 154.98 82.349 241.03s62.595 157.47 144.733 171.24c9.406 1.577 19.064 2.411 28.918 2.411s19.513-.834 28.919-2.411c82.138-13.771 144.732-85.19 144.732-171.24S367.057 83.561 284.919 69.79z" opacity="1" data-original="#fed2a4"></path><path fill="#ffbd86" d="M139.952 241.272c0-86.203 62.707-157.75 144.967-171.481-9.406-1.577-19.065-2.411-28.919-2.411s-19.512.834-28.918 2.411C144.944 83.561 82.349 154.98 82.349 241.03s62.595 157.47 144.733 171.24c9.406 1.577 19.064 2.411 28.918 2.411s19.513-.834 28.919-2.411c-82.259-13.731-144.967-84.798-144.967-170.998z" opacity="1" data-original="#ffbd86"></path><path fill="#ff8f71" d="M402.314 131.729C368.241 86.102 314.279 58.398 256 58.398c-59.056 0-112.728 28.348-146.32 73.34-14.515 19.44-22.238 43.116-22.238 67.377a771.049 771.049 0 0 1 59.897-10.918 17.915 17.915 0 0 0 13.614-9.984l9.236-19.2 7.178 14.151a17.955 17.955 0 0 0 17.438 9.771 773.736 773.736 0 0 1 33.128-1.909 17.942 17.942 0 0 0 15.755-10.665l10.334-23.324 10.285 23.19a17.945 17.945 0 0 0 15.847 10.662 772.034 772.034 0 0 1 49.469 3.132 17.93 17.93 0 0 0 16.401-7.587l3.805-5.445 6.043 9.555c2.791 4.413 7.354 7.426 12.519 8.185a771.654 771.654 0 0 1 56.166 10.386c0-24.262-7.727-47.946-22.243-67.386z" opacity="1" data-original="#ff8f71"></path><path fill="#ff6f4d" d="M263.721 58.58a183.406 183.406 0 0 0-7.721-.182c-59.056 0-112.728 28.348-146.32 73.339-14.515 19.44-22.238 43.116-22.238 67.377a770.576 770.576 0 0 1 59.897-10.918 17.918 17.918 0 0 0 13.615-9.984l9.236-19.2 7.178 14.151a17.93 17.93 0 0 0 11.254 9.175c10.597-49.362 37.627-92.62 75.099-123.758z" opacity="1" data-original="#ff6f4d"></path><g fill="#ff8e9e"><ellipse cx="160.646" cy="297.886" rx="35.184" ry="28.019" fill="#ff8e9e" opacity="1" data-original="#ff8e9e"></ellipse><ellipse cx="351.354" cy="297.886" rx="35.184" ry="28.019" fill="#ff8e9e" opacity="1" data-original="#ff8e9e"></ellipse></g><path d="M181.151 278.414a7.5 7.5 0 0 0 7.5-7.5v-14.383a7.5 7.5 0 0 0-15 0v14.383a7.5 7.5 0 0 0 7.5 7.5zM330.849 278.414a7.5 7.5 0 0 0 7.5-7.5v-14.383a7.5 7.5 0 0 0-15 0v14.383a7.5 7.5 0 0 0 7.5 7.5zM256 286.976c9.73 0 18.983-4.214 25.387-11.562a7.5 7.5 0 0 0-11.308-9.856 18.677 18.677 0 0 1-14.08 6.417 18.676 18.676 0 0 1-14.079-6.417 7.5 7.5 0 0 0-11.309 9.855A33.676 33.676 0 0 0 256 286.976z" fill="#000000" opacity="1" data-original="#000000"></path><path d="M256 0C123.096 0 14.97 108.125 14.97 241.03c0 28.982 2.102 52.419 6.616 73.756 5.805 27.441 15.536 50.562 29.749 70.684 6.494 9.193 17.043 14.682 28.22 14.682h89.885a180.39 180.39 0 0 0 24.267 10.993 101.092 101.092 0 0 0-5.063 4.324 7.499 7.499 0 0 0-.469 10.596 7.499 7.499 0 0 0 10.596.469 86.125 86.125 0 0 1 13.031-9.82A181.876 181.876 0 0 0 256 422.18c14.892 0 29.627-1.808 44.19-5.464 17.815 10.941 31.083 28.071 37.256 47.979a237.09 237.09 0 0 1-19.872 6.26 100.862 100.862 0 0 0-7.644-23.522 7.501 7.501 0 0 0-13.591 6.347 85.92 85.92 0 0 1 7.597 27.247c.597 5.57.497 9.032.497 15.971h-96.868c0-6.905-.101-10.4.497-15.971a85.954 85.954 0 0 1 7.597-27.247 7.5 7.5 0 1 0-13.591-6.347 100.91 100.91 0 0 0-7.644 23.522 237.328 237.328 0 0 1-19.851-6.253 85.947 85.947 0 0 1 7.118-16.627 7.5 7.5 0 0 0-13.084-7.334c-8.453 15.082-12.921 32.234-12.921 49.602V504.5a7.5 7.5 0 0 0 7.5 7.5h185.627a7.5 7.5 0 0 0 7.5-7.5v-14.156c0-7.659-.858-15.299-2.552-22.708-5.118-22.387-17.748-42.301-35.467-56.492a180.366 180.366 0 0 0 24.265-10.993h39.108c4.143 0 7.5-3.358 7.5-7.5s-3.357-7.5-7.5-7.5h-15.976c31.058-23.697 53.935-57.018 64.615-94.723 26.945-.355 48.758-22.372 48.758-49.399 0-27.248-22.168-49.416-49.416-49.416h-4.282a782.982 782.982 0 0 0-55.886-10.306c-2.979-.438-5.63-2.178-7.271-4.773l-6.043-9.555c-2.857-4.519-9.415-4.682-12.487-.287l-3.804 5.444a10.442 10.442 0 0 1-9.54 4.418 783.21 783.21 0 0 0-49.95-3.163 10.505 10.505 0 0 1-9.225-6.207l-10.285-23.19c-2.627-5.924-11.079-5.944-13.713.002l-10.333 23.324c-1.607 3.628-5.207 6.065-9.168 6.208a783.373 783.373 0 0 0-33.45 1.927 10.421 10.421 0 0 1-10.156-5.687l-7.178-14.15c-2.818-5.557-10.768-5.427-13.447.141l-9.236 19.2a10.393 10.393 0 0 1-7.909 5.81 781.019 781.019 0 0 0-59.645 10.843h-4.29c-27.248 0-49.416 22.168-49.416 49.416 0 27.027 21.813 49.044 48.758 49.399 10.681 37.705 33.558 71.026 64.617 94.723H79.555c-6.312 0-12.281-3.116-15.968-8.336-13.011-18.419-21.948-39.721-27.323-65.12l-.002-.014c-4.292-20.29-6.292-42.74-6.292-70.652C29.97 116.397 131.367 15 256 15c124.634 0 226.03 101.397 226.03 226.03 0 41.062-3.821 93.604-33.616 135.786-3.687 5.219-9.655 8.335-15.968 8.335h-20.777c-4.143 0-7.5 3.358-7.5 7.5s3.357 7.5 7.5 7.5h20.777c11.177 0 21.727-5.489 28.22-14.682 32.231-45.629 36.364-101.16 36.364-144.439C497.03 108.125 388.904 0 256 0zm-84.628 479.495a251.995 251.995 0 0 0 21.286 6.511c-.116 2.733-.092 3.884-.092 10.993h-21.879c0-6.873-.137-10.991.685-17.504zM341.313 497h-21.879c0-7.108.024-8.261-.092-10.993a252.526 252.526 0 0 0 21.288-6.512c.449 3.59.683 7.216.683 10.85zm122.753-255.97c0 17.532-13.182 32.035-30.154 34.142a181.698 181.698 0 0 0 .001-68.285c16.971 2.108 30.153 16.611 30.153 34.143zm-416.132 0c0-17.533 13.182-32.035 30.153-34.143a181.7 181.7 0 0 0 0 68.285c-16.972-2.107-30.153-16.609-30.153-34.142zm46.797 40.111c-6.132-24.73-6.492-50.792-1.049-75.721a767.483 767.483 0 0 1 54.712-9.797c15.031-2.134 19.457-14.445 21.975-19.68 5.301 10.451 15.149 15.253 25.03 14.468a767.942 767.942 0 0 1 32.806-1.89c9.656-.349 18.425-6.285 22.34-15.122l3.48-7.854 3.425 7.723c3.938 8.881 12.758 14.815 22.469 15.118a767.841 767.841 0 0 1 48.988 3.102c7.606.732 15.068-2.025 20.38-7.322 4.399 6.966 10.893 10.938 18.013 11.984a767.143 767.143 0 0 1 51.018 9.272c5.436 24.899 5.09 50.953-1.049 75.72-17.946 72.391-83.477 126.04-161.27 126.04-77.248-.001-143.19-53.115-161.268-126.041z" fill="#000000" opacity="1" data-original="#000000"></path></g></svg>