<svg xmlns="http://www.w3.org/2000/svg" version="1.1" xmlns:xlink="http://www.w3.org/1999/xlink" width="512" height="512" x="0" y="0" viewBox="0 0 512 512" style="enable-background:new 0 0 512 512" xml:space="preserve"><g><path fill="#7ce3ff" d="M345.056 435.709c-12.636-15.867-30.564-27.27-51.058-31.452a87.157 87.157 0 0 0-17.436-1.754c-27.666 0-52.381 12.975-68.492 33.206-12.091 15.183-19.338 34.45-19.338 55.395V504.5h175.662v-13.396a89.2 89.2 0 0 0-2.237-19.907 88.677 88.677 0 0 0-17.101-35.488z" opacity="1" data-original="#7ce3ff"></path><path fill="#ffddcf" d="M364.394 491.104V504.5h-34.9v-13.396c0-3.234-.173-6.427-.511-9.573a230.384 230.384 0 0 0 33.174-10.334 89.206 89.206 0 0 1 2.237 19.907z" opacity="1" data-original="#ffddcf"></path><path fill="#2ed0fc" d="M293.998 404.257a87.15 87.15 0 0 0-17.436-1.754c-27.666 0-52.381 12.975-68.492 33.206a88.68 88.68 0 0 0-17.101 35.489 89.258 89.258 0 0 0-2.236 19.907V504.5h34.9v-13.396c-.001-42.765 30.287-78.658 70.365-86.847z" opacity="1" data-original="#2ed0fc"></path><g fill="#ffcbbe"><path d="M188.732 491.104V504.5h34.9v-13.396c0-3.234.173-6.427.511-9.573a230.384 230.384 0 0 1-33.174-10.334 89.206 89.206 0 0 0-2.237 19.907zM276.563 377.72l-42.924 36.106a66.341 66.341 0 0 0 42.924 48.892 66.341 66.341 0 0 0 42.924-48.892z" fill="#ffcbbe" opacity="1" data-original="#ffcbbe"></path></g><path fill="#ffcbbe" d="M440.891 215.508H112.234c-21.907 0-39.666 17.759-39.666 39.666s17.759 39.666 39.666 39.666h328.657c21.907 0 39.666-17.759 39.666-39.666s-17.759-39.666-39.666-39.666z" opacity="1" data-original="#ffcbbe"></path><path fill="#ffddcf" d="M303.929 93.126c-8.901-1.492-18.041-2.281-27.366-2.281s-18.465.789-27.366 2.281c-77.728 13.031-136.963 80.616-136.963 162.047s59.234 149.016 136.963 162.047c8.901 1.492 18.041 2.281 27.366 2.281s18.465-.789 27.366-2.281c77.728-13.032 136.962-80.617 136.962-162.047 0-29.018-7.531-56.278-20.731-79.938-23.842-42.733-66.201-73.721-116.231-82.109z" opacity="1" data-original="#ffddcf"></path><path fill="#ffcbbe" d="M166.745 255.402c0-81.576 59.341-149.282 137.184-162.276-8.901-1.492-18.041-2.281-27.366-2.281s-18.465.789-27.366 2.281c-77.728 13.031-136.963 80.616-136.963 162.047s59.234 149.016 136.963 162.047c8.901 1.492 18.041 2.281 27.366 2.281s18.465-.789 27.366-2.281c-77.843-12.993-137.184-80.245-137.184-161.818z" opacity="1" data-original="#ffcbbe"></path><g fill="#ff8e9e"><path d="M187.032 283.083c-18.151 0-32.866 11.67-32.866 26.065 0 14.396 14.714 26.066 32.866 26.066 18.151 0 32.866-11.67 32.866-26.066 0-14.395-14.715-26.065-32.866-26.065zM366.093 283.083c-18.151 0-32.866 11.67-32.866 26.065 0 14.396 14.714 26.066 32.866 26.066 18.151 0 32.866-11.67 32.866-26.066 0-14.395-14.714-26.065-32.866-26.065z" fill="#ff8e9e" opacity="1" data-original="#ff8e9e"></path></g><path fill="#ce857a" d="m435.973 215.212-5.693-18.189a163.624 163.624 0 0 0-10.12-21.787l-16.849-17.599-14.733 2.073 4.397 27.923c3.192 20.266 23.278 33.265 43.072 27.88a14.685 14.685 0 0 0-.074-.301z" opacity="1" data-original="#ce857a"></path><path fill="#fce3a0" d="M397.207 81.807a80.348 80.348 0 0 0-54.236-57.504l-42.637-13.206a80.348 80.348 0 0 0-47.543 0l-42.636 13.206a80.347 80.347 0 0 0-54.237 57.504l-8.005 32.446-14.266 57.822c42.817-23.418 89.942-36.206 145.666-35.202 38.107.545 75.649 8.812 109.265 22.837 11.027 4.601 21.518 9.756 31.582 15.526z" opacity="1" data-original="#fce3a0"></path><path fill="#ffce71" d="M257.915 81.807a80.347 80.347 0 0 1 54.237-57.504l15.409-4.773-27.227-8.433a80.348 80.348 0 0 0-47.543 0l-42.636 13.206a80.347 80.347 0 0 0-54.237 57.504l-8.005 32.446-14.266 57.822c33.473-18.307 69.578-30.117 110.366-33.921l5.897-23.901z" opacity="1" data-original="#ffce71"></path><path fill="#ffb357" d="M299.928 101.984A141.628 141.628 0 0 0 197.369 58.03h-72.624c-41.675 0-63.145 49.701-34.819 80.042l222.553-22.924z" opacity="1" data-original="#ffb357"></path><path fill="#c77464" d="M179.494 152.007c30.828-10.383 62.444-15.175 93.48-15.189 40.541-.017 80.088 8.073 115.605 22.892-1.403-1.641-18.204-20.766-51.318-35.202a264.085 264.085 0 0 0-24.78-9.361c-95.099-30.541-181.429 2.098-222.553 22.924-15.56 7.88-24.648 14.069-25.291 14.505-30.909 22.618-14.41 41.618 34.303 61.524 15.112 5.944 22.089 20.387 9.934 30.071-8.065 10.099-53.948 19.924-71.798 48.289-20.942 35.618 18.976 62.47 79.029 82.407 54.647 18.49 70.727 35.415 74.005 46.701.513 2.025.731 4.038.53 6.118-.682 7.054 5.734 12.82 12.692 11.475 11.779-2.277 25.845-7.521 34.261-16.358 9.536-10.407 11.368-25.881-16.049-46.52-32.179-23.828-55.516-25.261-74.034-42.027-12.153-11.709-10.812-28.066 18.178-42.577 9.455-4.434 39.143-13.758 55.243-27.469 35.432-25.462 18.823-59.095-21.89-77.271-14.783-6.796-38.194-13.999-34.199-24.327 1.801-5.244 9.364-8.825 14.652-10.605z" opacity="1" data-original="#c77464"></path><path d="M441.813 208.031a170.834 170.834 0 0 0-14.594-35.502l-12.845-52.284a7.5 7.5 0 0 0-14.566 3.578l9.063 36.895a295.165 295.165 0 0 0-15.815-7.253c-19.717-21.415-48.668-35.695-76.428-44.837l-11.267-11.816C277.35 67.399 237.989 50.53 197.371 50.53h-15.894c8.481-8.799 19.091-15.404 30.898-19.063l42.638-13.205a72.88 72.88 0 0 1 21.448-3.244 72.916 72.916 0 0 1 21.657 3.244l42.637 13.205c24.25 7.512 43.093 27.489 49.172 52.129l2.726 11.094a7.5 7.5 0 0 0 14.566-3.578l-2.728-11.102c-7.333-29.723-30.055-53.813-59.299-62.871L302.553 3.934C294.095 1.313 285.506 0 276.459 0a87.576 87.576 0 0 0-25.886 3.934l-42.637 13.205a87.95 87.95 0 0 0-45.867 33.391h-37.323c-22.289 0-41.65 12.695-50.529 33.132-7.576 17.438-5.833 36.591 4.266 51.944-14.274 7.751-37.032 20.18-37.032 39.277 0 14.819 13.644 27.826 43.951 41.558-13.326 9.305-21.541 25.22-20.169 42.496-20.787 11.367-41.289 28.53-41.289 52.237 0 27.59 29.373 50.753 89.757 70.798 8.289 2.805 15.998 5.687 22.913 8.565a7.5 7.5 0 0 0 5.766-13.848c-7.229-3.01-15.26-6.013-23.912-8.94-52.025-17.271-79.524-36.834-79.524-56.575 0-4.677 1.527-9.661 4.541-14.815 20.994-33.164 79.094-34.221 79.094-63.659 0-10.546-8.201-20.586-20.801-25.542-39.438-16.116-45.326-27.139-45.326-32.274 0-11.678 26.18-24.709 36.865-30.12 93.087-47.14 189.71-42.968 255.844-5.998-55.162-13.884-115.328-12.974-172.059 6.134-9.804 3.302-20.212 9.728-20.212 20.036 0 14.873 22.847 21.382 39.094 28.851 28.347 12.656 45.664 33.537 31.977 53.225-5.076 7.302-12.631 12.755-20.193 17.435-16.023 9.915-38.357 17.046-45.437 20.526-24.426 12.228-29.554 25.48-29.554 34.445 0 20.335 24.164 31.396 42.591 39.617 12.116 5.404 25.848 11.529 41.665 23.241 12.709 9.566 19.426 18.453 19.426 25.7 0 12.988-24.112 21.687-26.009 21.687a82.623 82.623 0 0 1-8.544 2.136c-2 .4-4-1.331-3.802-3.379 1.591-16.248-13.888-29.306-27.866-37.865a7.5 7.5 0 0 0-7.834 12.792c15.279 9.356 19.387 16.622 20.467 20.191.6 2.468.217 3.158.217 5.179 0 7.032 4.045 13.129 9.931 16.138a95.684 95.684 0 0 0-9.349 24.675l-.014-.003a96.985 96.985 0 0 0-2.425 21.579V504.5a7.5 7.5 0 0 0 7.5 7.5h175.662c4.143 0 7.5-3.357 7.5-7.5v-13.396c0-7.281-.815-14.541-2.425-21.579a96.32 96.32 0 0 0-33.132-53.201c50.843-18.792 90.382-60.847 105.493-114.009 25.574-.504 46.227-21.449 46.227-47.142.001-25.698-20.661-46.648-46.243-47.142zm-339.424 16.527c14.741 11.497-5.102 18.892-22.089 26.841 1.487-12.398 10.185-23.006 22.089-26.841zm-10.438-95.855c-8.11-11.371-9.702-25.889-3.977-39.065 6.461-14.87 20.551-24.108 36.771-24.108h72.624c33.58 0 66.198 12.827 90.82 35.447-66.413-13.963-135.395-1.768-196.238 27.726zm322.632 52a155.632 155.632 0 0 1 11.919 28.504c-13.242-.252-24.109-9.983-26.117-22.741l-2.25-14.281a269.685 269.685 0 0 1 16.448 8.518zM216.132 491.104V497h-19.9v-5.896c0-3.261.199-6.514.583-9.737a239.022 239.022 0 0 0 19.391 5.94 96.329 96.329 0 0 0-.074 3.797zm140.762 0V497h-19.9v-5.896a96.19 96.19 0 0 0-.074-3.795 239.084 239.084 0 0 0 19.392-5.941c.383 3.222.582 6.476.582 9.736zm-3.755-24.508a224.018 224.018 0 0 1-25.841 7.627 7.5 7.5 0 0 0-5.772 8.108 82.64 82.64 0 0 1 .467 8.772V497h-90.862v-5.896c0-2.929.157-5.881.467-8.772a7.5 7.5 0 0 0-5.771-8.108 223.888 223.888 0 0 1-25.836-7.626 80.504 80.504 0 0 1 10.342-21.328c8.062-2.063 16.375-5.291 23.399-9.768 8.596 15.789 22.981 28.188 40.344 34.293a7.51 7.51 0 0 0 4.972 0c20.579-7.233 37.145-23.541 44.82-44.192 13.976 10.299 24.147 24.79 29.271 40.993zm-61.882-55.28a7.5 7.5 0 0 0 .69 14.969c1.041 0 8.521-.763 16.327-2.218-6.425 14.296-18.003 25.1-31.714 30.637-13.798-5.554-24.901-16.084-31.216-29.499a32.6 32.6 0 0 0 .687-.928c7.329 1.317 14.82 2.082 15.974 2.082a7.5 7.5 0 0 0 .653-14.971 157.258 157.258 0 0 1-11.282-1.429c2.142-29.089-43.337-52.776-69.899-64.626-10.531-4.697-33.702-14.482-33.702-25.918 0-6.585 7.718-14.232 21.18-20.987 5.076-2.362 17.274-6.595 29.637-12.258a7.499 7.499 0 0 0 14.697-2.098v-5.468c17.601-10.32 34.522-25.113 34.522-45.58 0-20.367-17.089-40.157-45.639-52.903-8.434-3.877-27.339-10.921-30.153-15.26 4.215-7.468 103.638-42.21 209.811.217l3.736 23.721c3.356 21.317 22.541 36.997 44.701 35.278a157.635 157.635 0 0 1 3.124 31.136c.002 80.631-61.097 148.519-142.134 156.103zM445.43 287.013a172.56 172.56 0 0 0 2.963-31.799c0-10.702-1.005-21.386-2.978-31.882 15.601 2.206 27.642 15.641 27.642 31.842 0 16.195-12.033 29.626-27.627 31.839z" fill="#000000" opacity="1" data-original="#000000"></path><path d="M300.149 278.014a7.5 7.5 0 0 0-10.582.727c-3.283 3.768-8.023 5.929-13.004 5.929s-9.722-2.161-13.005-5.929a7.5 7.5 0 0 0-11.309 9.855 32.249 32.249 0 0 0 24.313 11.073 32.246 32.246 0 0 0 24.313-11.073 7.5 7.5 0 0 0-.726-10.582zM347.336 262.974a7.5 7.5 0 0 0-7.5 7.5v13.6c0 4.143 3.358 7.5 7.5 7.5s7.5-3.357 7.5-7.5v-13.6a7.5 7.5 0 0 0-7.5-7.5z" fill="#000000" opacity="1" data-original="#000000"></path></g></svg>